<svg width="36" height="37" viewBox="0 0 36 37" fill="none" xmlns="http://www.w3.org/2000/svg">
<g opacity="0.12">
<path d="M15.0005 20.5371C18.3142 20.5371 21.0005 17.8508 21.0005 14.5371C21.0005 11.2234 18.3142 8.53711 15.0005 8.53711C11.6868 8.53711 9.00049 11.2234 9.00049 14.5371C9.00049 17.8508 11.6868 20.5371 15.0005 20.5371Z" fill="#3F444D"/>
<path d="M27.0001 33.2871C27.0001 31.8931 27.0001 31.1962 26.8849 30.6166C26.4114 28.2364 24.5508 26.3758 22.1707 25.9024C21.5911 25.7871 20.8941 25.7871 19.5001 25.7871H9.00014C6.24433 25.7871 3.92246 27.645 3.21875 30.1766C3.80422 31.9819 5.49975 33.2871 7.50014 33.2871H27.0001Z" fill="#3F444D"/>
</g>
<path d="M24 7.78711L28.5 3.28711M28.5 3.28711L33 7.78711M28.5 3.28711V12.2871M33 18.2871V26.0871C33 28.6073 33 29.8675 32.5095 30.8301C32.0781 31.6768 31.3897 32.3652 30.543 32.7966C29.5804 33.2871 28.3202 33.2871 25.8 33.2871H10.2C7.67976 33.2871 6.41965 33.2871 5.45704 32.7966C4.61031 32.3652 3.9219 31.6768 3.49047 30.8301C3 29.8675 3 28.6073 3 26.0871V10.4871C3 7.96687 3 6.70675 3.49047 5.74415C3.9219 4.89742 4.61031 4.20901 5.45704 3.77758C6.41965 3.28711 7.67976 3.28711 10.2 3.28711H18M3.21826 30.1766C3.92198 27.645 6.24385 25.7871 8.99965 25.7871H19.4997C20.8936 25.7871 21.5906 25.7871 22.1702 25.9024C24.5503 26.3758 26.4109 28.2364 26.8844 30.6166C26.9997 31.1962 26.9997 31.8931 26.9997 33.2871M21 14.5371C21 17.8508 18.3137 20.5371 15 20.5371C11.6863 20.5371 9 17.8508 9 14.5371C9 11.2234 11.6863 8.53711 15 8.53711C18.3137 8.53711 21 11.2234 21 14.5371Z" stroke="#3F444D" stroke-width="3" stroke-linecap="round" stroke-linejoin="round"/>
</svg>
