<svg width="36" height="36" viewBox="0 0 36 36" fill="none" xmlns="http://www.w3.org/2000/svg">
<path opacity="0.12" d="M3 15.3C3 13.6198 3 12.7798 3.32698 12.138C3.6146 11.5735 4.07354 11.1146 4.63803 10.827C5.27976 10.5 6.11984 10.5 7.8 10.5H28.2C29.8802 10.5 30.7202 10.5 31.362 10.827C31.9265 11.1146 32.3854 11.5735 32.673 12.138C33 12.7798 33 13.6198 33 15.3V26.7C33 28.3802 33 29.2202 32.673 29.862C32.3854 30.4265 31.9265 30.8854 31.362 31.173C30.7202 31.5 29.8802 31.5 28.2 31.5H7.8C6.11984 31.5 5.27976 31.5 4.63803 31.173C4.07354 30.8854 3.6146 30.4265 3.32698 29.862C3 29.2202 3 28.3802 3 26.7V15.3Z" fill="#E02D3C"/>
<path d="M24 10.5C24 9.10504 24 8.40756 23.8467 7.83531C23.4306 6.2824 22.2176 5.06944 20.6647 4.65333C20.0924 4.5 19.395 4.5 18 4.5C16.605 4.5 15.9076 4.5 15.3353 4.65333C13.7824 5.06944 12.5694 6.2824 12.1533 7.83531C12 8.40756 12 9.10504 12 10.5M7.8 31.5H28.2C29.8802 31.5 30.7202 31.5 31.362 31.173C31.9265 30.8854 32.3854 30.4265 32.673 29.862C33 29.2202 33 28.3802 33 26.7V15.3C33 13.6198 33 12.7798 32.673 12.138C32.3854 11.5735 31.9265 11.1146 31.362 10.827C30.7202 10.5 29.8802 10.5 28.2 10.5H7.8C6.11984 10.5 5.27976 10.5 4.63803 10.827C4.07354 11.1146 3.6146 11.5735 3.32698 12.138C3 12.7798 3 13.6198 3 15.3V26.7C3 28.3802 3 29.2202 3.32698 29.862C3.6146 30.4265 4.07354 30.8854 4.63803 31.173C5.27976 31.5 6.11984 31.5 7.8 31.5Z" stroke="#E02D3C" stroke-width="3" stroke-linecap="round" stroke-linejoin="round"/>
</svg>
