<svg width="36" height="36" viewBox="0 0 36 36" fill="none" xmlns="http://www.w3.org/2000/svg">
<path opacity="0.12" d="M18.5367 3.26843C18.3399 3.17004 18.2415 3.12085 18.1383 3.10148C18.0469 3.08434 17.9531 3.08434 17.8617 3.10148C17.7585 3.12085 17.6601 3.17004 17.4633 3.26843L3 10.5001L17.4633 17.7318C17.6601 17.8302 17.7585 17.8793 17.8617 17.8987C17.9531 17.9159 18.0469 17.9159 18.1383 17.8987C18.2415 17.8793 18.3399 17.8302 18.5367 17.7318L33 10.5001L18.5367 3.26843Z" fill="#E02D3C"/>
<path d="M3 18.0001L17.4633 25.2318C17.6601 25.3302 17.7585 25.3793 17.8617 25.3987C17.9531 25.4159 18.0469 25.4159 18.1383 25.3987C18.2415 25.3793 18.3399 25.3302 18.5367 25.2318L33 18.0001M3 25.5001L17.4633 32.7318C17.6601 32.8302 17.7585 32.8793 17.8617 32.8987C17.9531 32.9159 18.0469 32.9159 18.1383 32.8987C18.2415 32.8793 18.3399 32.8302 18.5367 32.7318L33 25.5001M3 10.5001L17.4633 3.26843C17.6601 3.17004 17.7585 3.12085 17.8617 3.10148C17.9531 3.08434 18.0469 3.08434 18.1383 3.10148C18.2415 3.12085 18.3399 3.17004 18.5367 3.26843L33 10.5001L18.5367 17.7318C18.3399 17.8302 18.2415 17.8793 18.1383 17.8987C18.0469 17.9159 17.9531 17.9159 17.8617 17.8987C17.7585 17.8793 17.6601 17.8302 17.4633 17.7318L3 10.5001Z" stroke="#E02D3C" stroke-width="3" stroke-linecap="round" stroke-linejoin="round"/>
</svg>
