<svg width="36" height="36" viewBox="0 0 36 36" fill="none" xmlns="http://www.w3.org/2000/svg">
<path opacity="0.12" d="M31.5 28.5V13.5C31.5 11.8431 30.1569 10.5 28.5 10.5L7.5 10.5C5.84315 10.5 4.5 9.15685 4.5 7.5V28.5C4.5 30.1569 5.84315 31.5 7.5 31.5H28.5C30.1569 31.5 31.5 30.1569 31.5 28.5Z" fill="#E02D3C"/>
<path d="M24.75 21H24.765M4.5 7.5V28.5C4.5 30.1569 5.84315 31.5 7.5 31.5H28.5C30.1569 31.5 31.5 30.1569 31.5 28.5V13.5C31.5 11.8431 30.1569 10.5 28.5 10.5L7.5 10.5C5.84315 10.5 4.5 9.15685 4.5 7.5ZM4.5 7.5C4.5 5.84315 5.84315 4.5 7.5 4.5H25.5M25.5 21C25.5 21.4142 25.1642 21.75 24.75 21.75C24.3358 21.75 24 21.4142 24 21C24 20.5858 24.3358 20.25 24.75 20.25C25.1642 20.25 25.5 20.5858 25.5 21Z" stroke="#E02D3C" stroke-width="3" stroke-linecap="round" stroke-linejoin="round"/>
</svg>
