<svg width="37" height="36" viewBox="0 0 37 36" fill="none" xmlns="http://www.w3.org/2000/svg">
<path opacity="0.12" d="M18.5 21.75C20.5711 21.75 22.25 20.0711 22.25 18C22.25 15.9289 20.5711 14.25 18.5 14.25C16.4289 14.25 14.75 15.9289 14.75 18C14.75 20.0711 16.4289 21.75 18.5 21.75Z" fill="#1D2433"/>
<path d="M9.5 15V21M27.5 15V21M3.5 12.3L3.5 23.7C3.5 25.3802 3.5 26.2202 3.82698 26.862C4.1146 27.4265 4.57354 27.8854 5.13803 28.173C5.77976 28.5 6.61984 28.5 8.3 28.5L28.7 28.5C30.3802 28.5 31.2202 28.5 31.862 28.173C32.4265 27.8854 32.8854 27.4265 33.173 26.862C33.5 26.2202 33.5 25.3802 33.5 23.7V12.3C33.5 10.6198 33.5 9.77977 33.173 9.13803C32.8854 8.57354 32.4265 8.1146 31.862 7.82698C31.2202 7.5 30.3802 7.5 28.7 7.5L8.3 7.5C6.61984 7.5 5.77976 7.5 5.13803 7.82698C4.57354 8.1146 4.1146 8.57354 3.82698 9.13803C3.5 9.77976 3.5 10.6198 3.5 12.3ZM22.25 18C22.25 20.0711 20.5711 21.75 18.5 21.75C16.4289 21.75 14.75 20.0711 14.75 18C14.75 15.9289 16.4289 14.25 18.5 14.25C20.5711 14.25 22.25 15.9289 22.25 18Z" stroke="#1D2433" stroke-width="3" stroke-linecap="round" stroke-linejoin="round"/>
</svg>
