<svg width="36" height="36" viewBox="0 0 36 36" fill="none" xmlns="http://www.w3.org/2000/svg">
<path opacity="0.12" d="M22.5 21H13.5V31.5H22.5V21Z" fill="#1D2433"/>
<path d="M22.5 31.5V23.4C22.5 22.5599 22.5 22.1399 22.3365 21.819C22.1927 21.5368 21.9632 21.3073 21.681 21.1635C21.3601 21 20.9401 21 20.1 21H15.9C15.0599 21 14.6399 21 14.319 21.1635C14.0368 21.3073 13.8073 21.5368 13.6635 21.819C13.5 22.1399 13.5 22.5599 13.5 23.4V31.5M28.5 31.5V9.3C28.5 7.61984 28.5 6.77976 28.173 6.13803C27.8854 5.57354 27.4265 5.1146 26.862 4.82698C26.2202 4.5 25.3802 4.5 23.7 4.5H12.3C10.6198 4.5 9.77976 4.5 9.13803 4.82698C8.57354 5.1146 8.1146 5.57354 7.82698 6.13803C7.5 6.77976 7.5 7.61984 7.5 9.3V31.5M31.5 31.5H4.5M14.25 12H14.265M21.75 12H21.765M15 12C15 12.4142 14.6642 12.75 14.25 12.75C13.8358 12.75 13.5 12.4142 13.5 12C13.5 11.5858 13.8358 11.25 14.25 11.25C14.6642 11.25 15 11.5858 15 12ZM22.5 12C22.5 12.4142 22.1642 12.75 21.75 12.75C21.3358 12.75 21 12.4142 21 12C21 11.5858 21.3358 11.25 21.75 11.25C22.1642 11.25 22.5 11.5858 22.5 12Z" stroke="#3F444D" stroke-width="3" stroke-linecap="round" stroke-linejoin="round"/>
</svg>
