<svg width="36" height="36" viewBox="0 0 36 36" fill="none" xmlns="http://www.w3.org/2000/svg">
<path opacity="0.12" d="M25.8 15H10.2C7.67976 15 6.41965 15 5.45704 15.4905C4.61031 15.9219 3.9219 16.6103 3.49047 17.457C3 18.4196 3 19.6798 3 22.2V26.25C3 26.947 3 27.2955 3.05764 27.5853C3.29436 28.7753 4.22466 29.7056 5.41473 29.9424C5.70453 30 6.05302 30 6.75 30H7.5C9.15685 30 10.5 28.6569 10.5 27C10.5 26.5858 10.8358 26.25 11.25 26.25H24.75C25.1642 26.25 25.5 26.5858 25.5 27C25.5 28.6569 26.8431 30 28.5 30H29.25C29.947 30 30.2955 30 30.5853 29.9424C31.7753 29.7056 32.7056 28.7753 32.9424 27.5853C33 27.2955 33 26.947 33 26.25V22.2C33 19.6798 33 18.4196 32.5095 17.457C32.0781 16.6103 31.3897 15.9219 30.543 15.4905C29.5804 15 28.3202 15 25.8 15Z" fill="#3F444D"/>
<path d="M7.5 19.5H12M3 13.5L6 15L7.90596 9.28211C8.29937 8.10188 8.49608 7.51176 8.86093 7.07547C9.18312 6.6902 9.59688 6.39198 10.0643 6.20816C10.5935 6 11.2156 6 12.4596 6H23.5404C24.7844 6 25.4065 6 25.9357 6.20816C26.4031 6.39198 26.8169 6.6902 27.1391 7.07547C27.5039 7.51176 27.7006 8.10188 28.094 9.28211L30 15L33 13.5M24 19.5H28.5M10.2 15H25.8C28.3202 15 29.5804 15 30.543 15.4905C31.3897 15.9219 32.0781 16.6103 32.5095 17.457C33 18.4196 33 19.6798 33 22.2V26.25C33 26.947 33 27.2955 32.9424 27.5853C32.7056 28.7753 31.7753 29.7056 30.5853 29.9424C30.2955 30 29.947 30 29.25 30H28.5C26.8431 30 25.5 28.6569 25.5 27C25.5 26.5858 25.1642 26.25 24.75 26.25H11.25C10.8358 26.25 10.5 26.5858 10.5 27C10.5 28.6569 9.15685 30 7.5 30H6.75C6.05302 30 5.70453 30 5.41473 29.9424C4.22466 29.7056 3.29436 28.7753 3.05764 27.5853C3 27.2955 3 26.947 3 26.25V22.2C3 19.6798 3 18.4196 3.49047 17.457C3.9219 16.6103 4.61031 15.9219 5.45704 15.4905C6.41965 15 7.67976 15 10.2 15Z" stroke="#3F444D" stroke-width="3" stroke-linecap="round" stroke-linejoin="round"/>
</svg>
