<svg width="36" height="36" viewBox="0 0 36 36" fill="none" xmlns="http://www.w3.org/2000/svg">
<path opacity="0.12" d="M24.75 19.5C29.3063 19.5 33 18.1569 33 16.5V28.5C33 30.1569 29.3063 31.5 24.75 31.5C20.1937 31.5 16.5 30.1569 16.5 28.5V16.5C16.5 18.1569 20.1937 19.5 24.75 19.5Z" fill="#3F444D"/>
<path d="M19.5 7.5C19.5 9.15685 15.8063 10.5 11.25 10.5C6.69365 10.5 3 9.15685 3 7.5M19.5 7.5C19.5 5.84315 15.8063 4.5 11.25 4.5C6.69365 4.5 3 5.84315 3 7.5M19.5 7.5V14.1857C17.6677 14.736 16.5 15.5684 16.5 16.5M3 7.5V25.5C3 27.1569 6.69365 28.5 11.25 28.5C13.2444 28.5 15.0736 28.2426 16.5 27.8143V16.5M3 13.5C3 15.1569 6.69365 16.5 11.25 16.5C13.2444 16.5 15.0736 16.2426 16.5 15.8143M3 19.5C3 21.1569 6.69365 22.5 11.25 22.5C13.2444 22.5 15.0736 22.2426 16.5 21.8143M33 16.5C33 18.1569 29.3063 19.5 24.75 19.5C20.1937 19.5 16.5 18.1569 16.5 16.5M33 16.5C33 14.8431 29.3063 13.5 24.75 13.5C20.1937 13.5 16.5 14.8431 16.5 16.5M33 16.5V28.5C33 30.1569 29.3063 31.5 24.75 31.5C20.1937 31.5 16.5 30.1569 16.5 28.5V16.5M33 22.5C33 24.1569 29.3063 25.5 24.75 25.5C20.1937 25.5 16.5 24.1569 16.5 22.5" stroke="#3F444D" stroke-width="3" stroke-linecap="round" stroke-linejoin="round"/>
</svg>
