<svg width="37" height="36" viewBox="0 0 37 36" fill="none" xmlns="http://www.w3.org/2000/svg">
<path opacity="0.12" d="M3.5 9.3C3.5 7.61984 3.5 6.77976 3.82698 6.13803C4.1146 5.57354 4.57354 5.1146 5.13803 4.82698C5.77976 4.5 6.61984 4.5 8.3 4.5H14.0334C15.1103 4.5 15.6487 4.5 16.1241 4.66396C16.5445 4.80896 16.9274 5.0456 17.2451 5.35675C17.6043 5.7086 17.8451 6.19019 18.3267 7.15337L20 10.5H3.5V9.3Z" fill="#1D2433"/>
<path d="M20 10.5L18.3267 7.15337C17.8451 6.1902 17.6043 5.7086 17.2451 5.35675C16.9274 5.0456 16.5445 4.80896 16.1241 4.66396C15.6487 4.5 15.1103 4.5 14.0334 4.5H8.3C6.61984 4.5 5.77976 4.5 5.13803 4.82698C4.57354 5.1146 4.1146 5.57354 3.82698 6.13803C3.5 6.77976 3.5 7.61984 3.5 9.3V10.5M3.5 10.5H26.3C28.8202 10.5 30.0804 10.5 31.043 10.9905C31.8897 11.4219 32.5781 12.1103 33.0095 12.957C33.5 13.9196 33.5 15.1798 33.5 17.7V24.3C33.5 26.8202 33.5 28.0804 33.0095 29.043C32.5781 29.8897 31.8897 30.5781 31.043 31.0095C30.0804 31.5 28.8202 31.5 26.3 31.5H10.7C8.17976 31.5 6.91965 31.5 5.95704 31.0095C5.11031 30.5781 4.4219 29.8897 3.99047 29.043C3.5 28.0804 3.5 26.8202 3.5 24.3V10.5Z" stroke="#1D2433" stroke-width="3" stroke-linecap="round" stroke-linejoin="round"/>
</svg>
