<svg width="36" height="36" viewBox="0 0 36 36" fill="none" xmlns="http://www.w3.org/2000/svg">
<path opacity="0.12" d="M18.5367 3.26867C18.3399 3.17028 18.2415 3.12109 18.1383 3.10173C18.0469 3.08458 17.9531 3.08458 17.8617 3.10173C17.7585 3.12109 17.6601 3.17028 17.4633 3.26867L3 10.5003L17.4633 17.732C17.6601 17.8304 17.7585 17.8796 17.8617 17.899C17.9531 17.9161 18.0469 17.9161 18.1383 17.899C18.2415 17.8796 18.3399 17.8304 18.5367 17.732L33 10.5003L18.5367 3.26867Z" fill="#1D2433"/>
<path d="M3 18.0003L17.4633 25.232C17.6601 25.3304 17.7585 25.3796 17.8617 25.399C17.9531 25.4161 18.0469 25.4161 18.1383 25.399C18.2415 25.3796 18.3399 25.3304 18.5367 25.232L33 18.0003M3 25.5003L17.4633 32.732C17.6601 32.8304 17.7585 32.8796 17.8617 32.899C17.9531 32.9161 18.0469 32.9161 18.1383 32.899C18.2415 32.8796 18.3399 32.8304 18.5367 32.732L33 25.5003M3 10.5003L17.4633 3.26867C17.6601 3.17028 17.7585 3.12109 17.8617 3.10173C17.9531 3.08458 18.0469 3.08458 18.1383 3.10173C18.2415 3.12109 18.3399 3.17028 18.5367 3.26867L33 10.5003L18.5367 17.732C18.3399 17.8304 18.2415 17.8796 18.1383 17.899C18.0469 17.9161 17.9531 17.9161 17.8617 17.899C17.7585 17.8796 17.6601 17.8304 17.4633 17.732L3 10.5003Z" stroke="#1D2433" stroke-width="3" stroke-linecap="round" stroke-linejoin="round"/>
</svg>
