<svg width="36" height="36" viewBox="0 0 36 36" fill="none" xmlns="http://www.w3.org/2000/svg">
<g opacity="0.12">
<path d="M13.811 22.1887C12.6937 21.099 12 19.577 12 17.8931C12 16.2633 12.6498 14.7853 13.7044 13.7041L7.3934 7.39307C1.53553 13.2509 1.53553 22.7484 7.3934 28.6063L13.811 22.1887Z" fill="#1D2433"/>
<path d="M22.1851 13.8107C23.3023 14.9004 23.9961 16.4223 23.9961 18.1063C23.9961 19.736 23.3463 21.214 22.2917 22.2953L28.6027 28.6063C34.4605 22.7484 34.4605 13.2509 28.6027 7.39307L22.1851 13.8107Z" fill="#1D2433"/>
</g>
<path d="M13.7044 13.7044L7.3934 7.39343M7.3934 28.6066L13.752 22.2481M22.2916 22.2956L28.6026 28.6066M28.6026 7.39343L22.2431 13.7529M33 18C33 26.2843 26.2843 33 18 33C9.71573 33 3 26.2843 3 18C3 9.71573 9.71573 3 18 3C26.2843 3 33 9.71573 33 18ZM24 18C24 21.3137 21.3137 24 18 24C14.6863 24 12 21.3137 12 18C12 14.6863 14.6863 12 18 12C21.3137 12 24 14.6863 24 18Z" stroke="#1D2433" stroke-width="3" stroke-linecap="round" stroke-linejoin="round"/>
</svg>
