<svg width="36" height="36" viewBox="0 0 36 36" fill="none" xmlns="http://www.w3.org/2000/svg">
<path opacity="0.12" d="M4.5 11.7C4.5 9.17976 4.5 7.91965 4.99047 6.95704C5.4219 6.11031 6.11031 5.4219 6.95704 4.99047C7.91965 4.5 9.17976 4.5 11.7 4.5H24.3C26.8202 4.5 28.0804 4.5 29.043 4.99047C29.8897 5.4219 30.5781 6.11031 31.0095 6.95704C31.5 7.91965 31.5 9.17976 31.5 11.7V24.3C31.5 26.8202 31.5 28.0804 31.0095 29.043C30.5781 29.8897 29.8897 30.5781 29.043 31.0095C28.0804 31.5 26.8202 31.5 24.3 31.5H11.7C9.17976 31.5 7.91965 31.5 6.95704 31.0095C6.11031 30.5781 5.4219 29.8897 4.99047 29.043C4.5 28.0804 4.5 26.8202 4.5 24.3V11.7Z" fill="#3F444D"/>
<path d="M25.5 13.5L17.3485 21.6515C17.0515 21.9485 16.903 22.097 16.7318 22.1526C16.5811 22.2016 16.4189 22.2016 16.2682 22.1526C16.097 22.097 15.9485 21.9485 15.6515 21.6515L12.8485 18.8485C12.5515 18.5515 12.403 18.403 12.2318 18.3474C12.0811 18.2984 11.9189 18.2984 11.7682 18.3474C11.597 18.403 11.4485 18.5515 11.1515 18.8485L4.5 25.5M25.5 13.5H19.5M25.5 13.5V19.5M11.7 31.5H24.3C26.8202 31.5 28.0804 31.5 29.043 31.0095C29.8897 30.5781 30.5781 29.8897 31.0095 29.043C31.5 28.0804 31.5 26.8202 31.5 24.3V11.7C31.5 9.17976 31.5 7.91965 31.0095 6.95704C30.5781 6.11031 29.8897 5.4219 29.043 4.99047C28.0804 4.5 26.8202 4.5 24.3 4.5H11.7C9.17976 4.5 7.91965 4.5 6.95704 4.99047C6.11031 5.4219 5.4219 6.11031 4.99047 6.95704C4.5 7.91965 4.5 9.17976 4.5 11.7V24.3C4.5 26.8202 4.5 28.0804 4.99047 29.043C5.4219 29.8897 6.11031 30.5781 6.95704 31.0095C7.91965 31.5 9.17976 31.5 11.7 31.5Z" stroke="#3F444D" stroke-width="3" stroke-linecap="round" stroke-linejoin="round"/>
</svg>
