<svg width="36" height="36" viewBox="0 0 36 36" fill="none" xmlns="http://www.w3.org/2000/svg">
<path opacity="0.12" d="M18 18C20.4853 18 22.5 15.9853 22.5 13.5C22.5 11.0147 20.4853 9 18 9C15.5147 9 13.5 11.0147 13.5 13.5C13.5 15.9853 15.5147 18 18 18Z" fill="#1D2433"/>
<path d="M15 24H21M13.2 33H22.8C25.3202 33 26.5804 33 27.543 32.5095C28.3897 32.0781 29.0781 31.3897 29.5095 30.543C30 29.5804 30 28.3202 30 25.8V10.2C30 7.67976 30 6.41965 29.5095 5.45704C29.0781 4.61031 28.3897 3.9219 27.543 3.49047C26.5804 3 25.3202 3 22.8 3H13.2C10.6798 3 9.41965 3 8.45704 3.49047C7.61031 3.9219 6.9219 4.61031 6.49047 5.45704C6 6.41965 6 7.67976 6 10.2V25.8C6 28.3202 6 29.5804 6.49047 30.543C6.9219 31.3897 7.61031 32.0781 8.45704 32.5095C9.41965 33 10.6798 33 13.2 33ZM22.5 13.5C22.5 15.9853 20.4853 18 18 18C15.5147 18 13.5 15.9853 13.5 13.5C13.5 11.0147 15.5147 9 18 9C20.4853 9 22.5 11.0147 22.5 13.5Z" stroke="#1D2433" stroke-width="3" stroke-linecap="round" stroke-linejoin="round"/>
</svg>
