<svg width="37" height="36" viewBox="0 0 37 36" fill="none" xmlns="http://www.w3.org/2000/svg">
<path opacity="0.12" d="M17.453 32.4229C17.7851 32.6166 17.9511 32.7135 18.1855 32.7637C18.3673 32.8027 18.6327 32.8027 18.8145 32.7637C19.0489 32.7135 19.2149 32.6166 19.547 32.4229C22.4691 30.7181 30.5 25.3632 30.5 18.0005V10.8269C30.5 9.62767 30.5 9.02804 30.3039 8.51259C30.1306 8.05725 29.849 7.65095 29.4835 7.32883C29.0698 6.9642 28.5083 6.75365 27.3854 6.33256L19.3427 3.31655C19.0309 3.19961 18.8749 3.14114 18.7145 3.11796C18.5722 3.0974 18.4278 3.0974 18.2855 3.11796C18.1251 3.14114 17.9691 3.19961 17.6573 3.31655L9.61461 6.33256C8.4917 6.75365 7.93024 6.9642 7.51649 7.32883C7.15097 7.65095 6.86941 8.05725 6.69614 8.51259C6.5 9.02804 6.5 9.62767 6.5 10.8269V18.0005C6.5 25.3632 14.5309 30.7181 17.453 32.4229Z" fill="#1D2433"/>
<path d="M14 17.2496L17 20.2496L23.75 13.4996M30.5 17.9996C30.5 25.3622 22.4691 30.7172 19.547 32.4219C19.2149 32.6156 19.0489 32.7125 18.8145 32.7627C18.6327 32.8017 18.3673 32.8017 18.1855 32.7627C17.9511 32.7125 17.7851 32.6156 17.453 32.4219C14.5309 30.7172 6.5 25.3622 6.5 17.9996V10.826C6.5 9.6267 6.5 9.02706 6.69614 8.51162C6.86941 8.05627 7.15097 7.64998 7.51649 7.32786C7.93024 6.96322 8.4917 6.75268 9.61461 6.33158L17.6573 3.31557C17.9691 3.19863 18.1251 3.14016 18.2855 3.11698C18.4278 3.09642 18.5722 3.09642 18.7145 3.11698C18.8749 3.14016 19.0309 3.19863 19.3427 3.31557L27.3854 6.33158C28.5083 6.75268 29.0698 6.96322 29.4835 7.32786C29.849 7.64998 30.1306 8.05627 30.3039 8.51162C30.5 9.02706 30.5 9.6267 30.5 10.826V17.9996Z" stroke="#1D2433" stroke-width="3" stroke-linecap="round" stroke-linejoin="round"/>
</svg>
