<svg width="36" height="36" viewBox="0 0 36 36" fill="none" xmlns="http://www.w3.org/2000/svg">
<g opacity="0.12">
<path d="M14.2512 18C17.9791 18 21.0012 14.9779 21.0012 11.25C21.0012 7.52208 17.9791 4.5 14.2512 4.5C10.5233 4.5 7.50122 7.52208 7.50122 11.25C7.50122 14.9779 10.5233 18 14.2512 18Z" fill="#3F444D"/>
<path d="M14.2512 22.5C10.0053 22.5 6.23153 24.8168 3.84007 28.4075C3.31616 29.1941 3.05421 29.5874 3.08437 30.0899C3.10785 30.4811 3.36429 30.96 3.67688 31.1964C4.07834 31.5 4.63048 31.5 5.73476 31.5H22.7677C23.872 31.5 24.4241 31.5 24.8256 31.1964C25.1381 30.96 25.3946 30.4811 25.4181 30.0899C25.4482 29.5874 25.1863 29.1941 24.6624 28.4075C22.2709 24.8168 18.4972 22.5 14.2512 22.5Z" fill="#3F444D"/>
</g>
<path d="M27.0012 23.7553C29.1851 24.8524 31.0574 26.6129 32.4241 28.8144C32.6947 29.2504 32.83 29.4684 32.8768 29.7702C32.9719 30.3837 32.5524 31.1378 31.9811 31.3805C31.7 31.5 31.3837 31.5 30.7512 31.5M24.0012 17.2984C26.2238 16.1938 27.7512 13.9003 27.7512 11.25C27.7512 8.59971 26.2238 6.30617 24.0012 5.20164M21.0012 11.25C21.0012 14.9779 17.9791 18 14.2512 18C10.5233 18 7.50122 14.9779 7.50122 11.25C7.50122 7.52208 10.5233 4.5 14.2512 4.5C17.9791 4.5 21.0012 7.52208 21.0012 11.25ZM3.84007 28.4075C6.23153 24.8168 10.0053 22.5 14.2512 22.5C18.4972 22.5 22.2709 24.8168 24.6624 28.4075C25.1863 29.1941 25.4482 29.5874 25.4181 30.0899C25.3946 30.4811 25.1381 30.96 24.8256 31.1964C24.4241 31.5 23.872 31.5 22.7677 31.5H5.73476C4.63048 31.5 4.07834 31.5 3.67688 31.1964C3.36429 30.96 3.10785 30.4811 3.08437 30.0899C3.05421 29.5874 3.31616 29.1941 3.84007 28.4075Z" stroke="#3F444D" stroke-width="3" stroke-linecap="round" stroke-linejoin="round"/>
</svg>
