<svg width="36" height="36" viewBox="0 0 36 36" fill="none" xmlns="http://www.w3.org/2000/svg">
<path opacity="0.12" d="M18 18C21.7279 18 24.75 14.9779 24.75 11.25C24.75 7.52208 21.7279 4.5 18 4.5C14.2721 4.5 11.25 7.52208 11.25 11.25C11.25 14.9779 14.2721 18 18 18Z" fill="#3F444D"/>
<path d="M17.9968 22.5C13.2417 22.5 9.01304 24.796 6.32084 28.359C5.7414 29.1258 5.45169 29.5092 5.46116 30.0274C5.46848 30.4278 5.71989 30.9328 6.0349 31.18C6.44263 31.5 7.00765 31.5 8.13769 31.5H27.856C28.986 31.5 29.5511 31.5 29.9588 31.18C30.2738 30.9328 30.5252 30.4278 30.5325 30.0274C30.542 29.5092 30.2523 29.1258 29.6729 28.359C26.9807 24.796 22.752 22.5 17.9968 22.5Z" stroke="#3F444D" stroke-width="3" stroke-linecap="round" stroke-linejoin="round"/>
<path d="M17.9968 18C21.7248 18 24.7468 14.9779 24.7468 11.25C24.7468 7.52208 21.7248 4.5 17.9968 4.5C14.2689 4.5 11.2468 7.52208 11.2468 11.25C11.2468 14.9779 14.2689 18 17.9968 18Z" stroke="#3F444D" stroke-width="3" stroke-linecap="round" stroke-linejoin="round"/>
</svg>
