<svg width="36" height="37" viewBox="0 0 36 37" fill="none" xmlns="http://www.w3.org/2000/svg">
<g opacity="0.12">
<path d="M12.6 4.78711H6.9C6.05992 4.78711 5.63988 4.78711 5.31901 4.9506C5.03677 5.09441 4.8073 5.32388 4.66349 5.60612C4.5 5.92699 4.5 6.34703 4.5 7.18711V12.8871C4.5 13.7272 4.5 14.1472 4.66349 14.4681C4.8073 14.7503 5.03677 14.9798 5.31901 15.1236C5.63988 15.2871 6.05992 15.2871 6.9 15.2871H12.6C13.4401 15.2871 13.8601 15.2871 14.181 15.1236C14.4632 14.9798 14.6927 14.7503 14.8365 14.4681C15 14.1472 15 13.7272 15 12.8871V7.18711C15 6.34703 15 5.92699 14.8365 5.60612C14.6927 5.32388 14.4632 5.09441 14.181 4.9506C13.8601 4.78711 13.4401 4.78711 12.6 4.78711Z" fill="#3F444D"/>
<path d="M29.1 4.78711H23.4C22.5599 4.78711 22.1399 4.78711 21.819 4.9506C21.5368 5.09441 21.3073 5.32388 21.1635 5.60612C21 5.92699 21 6.34703 21 7.18711V12.8871C21 13.7272 21 14.1472 21.1635 14.4681C21.3073 14.7503 21.5368 14.9798 21.819 15.1236C22.1399 15.2871 22.5599 15.2871 23.4 15.2871H29.1C29.9401 15.2871 30.3601 15.2871 30.681 15.1236C30.9632 14.9798 31.1927 14.7503 31.3365 14.4681C31.5 14.1472 31.5 13.7272 31.5 12.8871V7.18711C31.5 6.34703 31.5 5.92699 31.3365 5.60612C31.1927 5.32388 30.9632 5.09441 30.681 4.9506C30.3601 4.78711 29.9401 4.78711 29.1 4.78711Z" fill="#3F444D"/>
<path d="M29.1 21.2871H23.4C22.5599 21.2871 22.1399 21.2871 21.819 21.4506C21.5368 21.5944 21.3073 21.8239 21.1635 22.1061C21 22.427 21 22.847 21 23.6871V29.3871C21 30.2272 21 30.6472 21.1635 30.9681C21.3073 31.2503 21.5368 31.4798 21.819 31.6236C22.1399 31.7871 22.5599 31.7871 23.4 31.7871H29.1C29.9401 31.7871 30.3601 31.7871 30.681 31.6236C30.9632 31.4798 31.1927 31.2503 31.3365 30.9681C31.5 30.6472 31.5 30.2272 31.5 29.3871V23.6871C31.5 22.847 31.5 22.427 31.3365 22.1061C31.1927 21.8239 30.9632 21.5944 30.681 21.4506C30.3601 21.2871 29.9401 21.2871 29.1 21.2871Z" fill="#3F444D"/>
<path d="M12.6 21.2871H6.9C6.05992 21.2871 5.63988 21.2871 5.31901 21.4506C5.03677 21.5944 4.8073 21.8239 4.66349 22.1061C4.5 22.427 4.5 22.847 4.5 23.6871V29.3871C4.5 30.2272 4.5 30.6472 4.66349 30.9681C4.8073 31.2503 5.03677 31.4798 5.31901 31.6236C5.63988 31.7871 6.05992 31.7871 6.9 31.7871H12.6C13.4401 31.7871 13.8601 31.7871 14.181 31.6236C14.4632 31.4798 14.6927 31.2503 14.8365 30.9681C15 30.6472 15 30.2272 15 29.3871V23.6871C15 22.847 15 22.427 14.8365 22.1061C14.6927 21.8239 14.4632 21.5944 14.181 21.4506C13.8601 21.2871 13.4401 21.2871 12.6 21.2871Z" fill="#3F444D"/>
</g>
<path d="M12.6 4.78711H6.9C6.05992 4.78711 5.63988 4.78711 5.31901 4.9506C5.03677 5.09441 4.8073 5.32388 4.66349 5.60612C4.5 5.92699 4.5 6.34703 4.5 7.18711V12.8871C4.5 13.7272 4.5 14.1472 4.66349 14.4681C4.8073 14.7503 5.03677 14.9798 5.31901 15.1236C5.63988 15.2871 6.05992 15.2871 6.9 15.2871H12.6C13.4401 15.2871 13.8601 15.2871 14.181 15.1236C14.4632 14.9798 14.6927 14.7503 14.8365 14.4681C15 14.1472 15 13.7272 15 12.8871V7.18711C15 6.34703 15 5.92699 14.8365 5.60612C14.6927 5.32388 14.4632 5.09441 14.181 4.9506C13.8601 4.78711 13.4401 4.78711 12.6 4.78711Z" stroke="#3F444D" stroke-width="3" stroke-linecap="round" stroke-linejoin="round"/>
<path d="M29.1 4.78711H23.4C22.5599 4.78711 22.1399 4.78711 21.819 4.9506C21.5368 5.09441 21.3073 5.32388 21.1635 5.60612C21 5.92699 21 6.34703 21 7.18711V12.8871C21 13.7272 21 14.1472 21.1635 14.4681C21.3073 14.7503 21.5368 14.9798 21.819 15.1236C22.1399 15.2871 22.5599 15.2871 23.4 15.2871H29.1C29.9401 15.2871 30.3601 15.2871 30.681 15.1236C30.9632 14.9798 31.1927 14.7503 31.3365 14.4681C31.5 14.1472 31.5 13.7272 31.5 12.8871V7.18711C31.5 6.34703 31.5 5.92699 31.3365 5.60612C31.1927 5.32388 30.9632 5.09441 30.681 4.9506C30.3601 4.78711 29.9401 4.78711 29.1 4.78711Z" stroke="#3F444D" stroke-width="3" stroke-linecap="round" stroke-linejoin="round"/>
<path d="M29.1 21.2871H23.4C22.5599 21.2871 22.1399 21.2871 21.819 21.4506C21.5368 21.5944 21.3073 21.8239 21.1635 22.1061C21 22.427 21 22.847 21 23.6871V29.3871C21 30.2272 21 30.6472 21.1635 30.9681C21.3073 31.2503 21.5368 31.4798 21.819 31.6236C22.1399 31.7871 22.5599 31.7871 23.4 31.7871H29.1C29.9401 31.7871 30.3601 31.7871 30.681 31.6236C30.9632 31.4798 31.1927 31.2503 31.3365 30.9681C31.5 30.6472 31.5 30.2272 31.5 29.3871V23.6871C31.5 22.847 31.5 22.427 31.3365 22.1061C31.1927 21.8239 30.9632 21.5944 30.681 21.4506C30.3601 21.2871 29.9401 21.2871 29.1 21.2871Z" stroke="#3F444D" stroke-width="3" stroke-linecap="round" stroke-linejoin="round"/>
<path d="M12.6 21.2871H6.9C6.05992 21.2871 5.63988 21.2871 5.31901 21.4506C5.03677 21.5944 4.8073 21.8239 4.66349 22.1061C4.5 22.427 4.5 22.847 4.5 23.6871V29.3871C4.5 30.2272 4.5 30.6472 4.66349 30.9681C4.8073 31.2503 5.03677 31.4798 5.31901 31.6236C5.63988 31.7871 6.05992 31.7871 6.9 31.7871H12.6C13.4401 31.7871 13.8601 31.7871 14.181 31.6236C14.4632 31.4798 14.6927 31.2503 14.8365 30.9681C15 30.6472 15 30.2272 15 29.3871V23.6871C15 22.847 15 22.427 14.8365 22.1061C14.6927 21.8239 14.4632 21.5944 14.181 21.4506C13.8601 21.2871 13.4401 21.2871 12.6 21.2871Z" stroke="#3F444D" stroke-width="3" stroke-linecap="round" stroke-linejoin="round"/>
</svg>
