<svg width="36" height="37" viewBox="0 0 36 37" fill="none" xmlns="http://www.w3.org/2000/svg">
<g opacity="0.12">
<path d="M4.5 19.1871C4.5 18.347 4.5 17.927 4.66349 17.6061C4.8073 17.3239 5.03677 17.0944 5.31901 16.9506C5.63988 16.7871 6.05992 16.7871 6.9 16.7871H11.25V31.7871H4.5V19.1871Z" fill="#3F444D"/>
<path d="M24.75 16.7871H29.1C29.9401 16.7871 30.3601 16.7871 30.681 16.9506C30.9632 17.0944 31.1927 17.3239 31.3365 17.6061C31.5 17.927 31.5 18.347 31.5 19.1871V31.7871H24.75V16.7871Z" fill="#3F444D"/>
</g>
<path d="M11.25 16.7871H6.9C6.05992 16.7871 5.63988 16.7871 5.31901 16.9506C5.03677 17.0944 4.8073 17.3239 4.66349 17.6061C4.5 17.927 4.5 18.347 4.5 19.1871V31.7871M24.75 16.7871H29.1C29.9401 16.7871 30.3601 16.7871 30.681 16.9506C30.9632 17.0944 31.1927 17.3239 31.3365 17.6061C31.5 17.927 31.5 18.347 31.5 19.1871V31.7871M24.75 31.7871V9.58711C24.75 7.90695 24.75 7.06687 24.423 6.42514C24.1354 5.86065 23.6765 5.40171 23.112 5.11409C22.4702 4.78711 21.6302 4.78711 19.95 4.78711H16.05C14.3698 4.78711 13.5298 4.78711 12.888 5.11409C12.3235 5.40171 11.8646 5.86065 11.577 6.42514C11.25 7.06687 11.25 7.90695 11.25 9.58711V31.7871M33 31.7871H3M16.5 10.7871H19.5M16.5 16.7871H19.5M16.5 22.7871H19.5" stroke="#3F444D" stroke-width="3" stroke-linecap="round" stroke-linejoin="round"/>
</svg>
