<svg width="36" height="37" viewBox="0 0 36 37" fill="none" xmlns="http://www.w3.org/2000/svg">
<g opacity="0.12">
<path d="M27 16.7871C29.4853 16.7871 31.5 14.7724 31.5 12.2871C31.5 9.80183 29.4853 7.78711 27 7.78711C24.5147 7.78711 22.5 9.80183 22.5 12.2871C22.5 14.7724 24.5147 16.7871 27 16.7871Z" fill="#3F444D"/>
<path d="M9 28.7871C11.4853 28.7871 13.5 26.7724 13.5 24.2871C13.5 21.8018 11.4853 19.7871 9 19.7871C6.51472 19.7871 4.5 21.8018 4.5 24.2871C4.5 26.7724 6.51472 28.7871 9 28.7871Z" fill="#3F444D"/>
</g>
<path d="M4.5 12.2871L22.5 12.2871M22.5 12.2871C22.5 14.7724 24.5147 16.7871 27 16.7871C29.4853 16.7871 31.5 14.7724 31.5 12.2871C31.5 9.80183 29.4853 7.78711 27 7.78711C24.5147 7.78711 22.5 9.80183 22.5 12.2871ZM13.5 24.2871L31.5 24.2871M13.5 24.2871C13.5 26.7724 11.4853 28.7871 9 28.7871C6.51472 28.7871 4.5 26.7724 4.5 24.2871C4.5 21.8018 6.51472 19.7871 9 19.7871C11.4853 19.7871 13.5 21.8018 13.5 24.2871Z" stroke="#3F444D" stroke-width="3" stroke-linecap="round" stroke-linejoin="round"/>
</svg>
