<svg width="37" height="37" viewBox="0 0 37 37" fill="none" xmlns="http://www.w3.org/2000/svg">
<path opacity="0.12" d="M4.83203 11.9871C4.83203 9.46687 4.83203 8.20676 5.3225 7.24415C5.75393 6.39742 6.44234 5.70901 7.28907 5.27758C8.25168 4.78711 9.5118 4.78711 12.032 4.78711H24.632C27.1523 4.78711 28.4124 4.78711 29.375 5.27758C30.2217 5.70901 30.9101 6.39742 31.3416 7.24415C31.832 8.20676 31.832 9.46687 31.832 11.9871V24.5871C31.832 27.1073 31.832 28.3675 31.3416 29.3301C30.9101 30.1768 30.2217 30.8652 29.375 31.2966C28.4124 31.7871 27.1523 31.7871 24.632 31.7871H12.032C9.51179 31.7871 8.25168 31.7871 7.28907 31.2966C6.44234 30.8652 5.75393 30.1768 5.3225 29.3301C4.83203 28.3675 4.83203 27.1073 4.83203 24.5871V11.9871Z" fill="#3F444D"/>
<path d="M25.832 13.7871L17.6806 21.9386C17.3835 22.2356 17.235 22.3841 17.0638 22.4397C16.9132 22.4887 16.7509 22.4887 16.6003 22.4397C16.429 22.3841 16.2805 22.2356 15.9835 21.9386L13.1806 19.1356C12.8835 18.8386 12.735 18.6901 12.5638 18.6345C12.4132 18.5855 12.2509 18.5855 12.1003 18.6345C11.929 18.6901 11.7805 18.8386 11.4835 19.1356L4.83203 25.7871M25.832 13.7871H19.832M25.832 13.7871V19.7871M12.032 31.7871H24.632C27.1523 31.7871 28.4124 31.7871 29.375 31.2966C30.2217 30.8652 30.9101 30.1768 31.3416 29.3301C31.832 28.3675 31.832 27.1073 31.832 24.5871V11.9871C31.832 9.46687 31.832 8.20676 31.3416 7.24415C30.9101 6.39742 30.2217 5.70901 29.375 5.27758C28.4124 4.78711 27.1523 4.78711 24.632 4.78711H12.032C9.5118 4.78711 8.25168 4.78711 7.28907 5.27758C6.44234 5.70901 5.75393 6.39742 5.3225 7.24415C4.83203 8.20676 4.83203 9.46687 4.83203 11.9871V24.5871C4.83203 27.1073 4.83203 28.3675 5.3225 29.3301C5.75393 30.1768 6.44234 30.8652 7.28907 31.2966C8.25168 31.7871 9.51179 31.7871 12.032 31.7871Z" stroke="#3F444D" stroke-width="3" stroke-linecap="round" stroke-linejoin="round"/>
</svg>
