<svg width="37" height="37" viewBox="0 0 37 37" fill="none" xmlns="http://www.w3.org/2000/svg">
<path opacity="0.12" d="M14.4669 31.1884C14.9585 31.1234 15.4552 31.2567 15.8468 31.5584L17.6516 32.9434C18.2483 33.4017 19.0782 33.4017 19.6731 32.9434L21.5463 31.5051C21.8963 31.2367 22.3379 31.1184 22.7746 31.1768L25.1177 31.4851C25.8626 31.5834 26.5809 31.1684 26.8692 30.4734L27.7708 28.2935C27.9391 27.8852 28.2624 27.5619 28.6707 27.3935L30.8505 26.4919C31.5455 26.2052 31.9605 25.4852 31.8621 24.7403L31.5655 22.482C31.5005 21.9903 31.6338 21.4937 31.9355 21.102L33.3203 19.2971C33.7786 18.7004 33.7786 17.8705 33.3203 17.2755L31.8821 15.4022C31.6138 15.0522 31.4955 14.6105 31.5538 14.1739L31.8621 11.8306C31.9605 11.0856 31.5455 10.3673 30.8505 10.079L28.6707 9.17736C28.2624 9.00903 27.9391 8.68571 27.7708 8.27739L26.8692 6.09745C26.5826 5.40247 25.8626 4.98748 25.1177 5.08581L22.7746 5.39413C22.3379 5.45413 21.8963 5.3358 21.548 5.06914L19.6748 3.63085C19.0782 3.17253 18.2483 3.17253 17.6533 3.63085L15.7801 5.06914C15.4302 5.3358 14.9885 5.45413 14.5519 5.39747L12.2088 5.08914C11.4638 4.99081 10.7456 5.4058 10.4572 6.10078L9.55732 8.28072C9.38734 8.68738 9.06403 9.0107 8.6574 9.1807L6.47758 10.0807C5.78264 10.369 5.36767 11.0873 5.466 11.8323L5.7743 14.1756C5.83096 14.6122 5.71264 15.0539 5.446 15.4022L4.00778 17.2755C3.54949 17.8721 3.54949 18.7021 4.00778 19.2971L5.446 21.1704C5.71431 21.5204 5.83263 21.962 5.7743 22.3987L5.466 24.7419C5.36767 25.4869 5.78264 26.2052 6.47758 26.4935L8.6574 27.3952C9.0657 27.5635 9.389 27.8868 9.55732 28.2952L10.4589 30.4751C10.7456 31.1701 11.4655 31.5851 12.2104 31.4867L14.4669 31.1884Z" fill="#3F444D"/>
<path d="M14.1641 18.2871L17.1641 21.2871L23.9141 14.5371M14.4669 31.1884C14.9585 31.1234 15.4552 31.2567 15.8468 31.5584L17.6516 32.9434C18.2483 33.4017 19.0782 33.4017 19.6731 32.9434L21.5463 31.5051C21.8963 31.2367 22.3379 31.1184 22.7746 31.1768L25.1177 31.4851C25.8626 31.5834 26.5809 31.1684 26.8692 30.4734L27.7708 28.2935C27.9391 27.8852 28.2624 27.5619 28.6707 27.3935L30.8505 26.4919C31.5455 26.2052 31.9605 25.4852 31.8621 24.7403L31.5655 22.482C31.5005 21.9903 31.6338 21.4937 31.9355 21.102L33.3203 19.2971C33.7786 18.7004 33.7786 17.8705 33.3203 17.2755L31.8821 15.4022C31.6138 15.0522 31.4955 14.6105 31.5538 14.1739L31.8621 11.8306C31.9605 11.0856 31.5455 10.3673 30.8505 10.079L28.6707 9.17736C28.2624 9.00903 27.9391 8.68571 27.7708 8.27739L26.8692 6.09745C26.5826 5.40247 25.8626 4.98748 25.1177 5.08581L22.7746 5.39413C22.3379 5.45413 21.8963 5.3358 21.548 5.06914L19.6748 3.63085C19.0782 3.17253 18.2483 3.17253 17.6533 3.63085L15.7801 5.06914C15.4302 5.3358 14.9885 5.45413 14.5519 5.39747L12.2088 5.08914C11.4638 4.99081 10.7456 5.4058 10.4572 6.10078L9.55732 8.28072C9.38734 8.68738 9.06403 9.0107 8.6574 9.1807L6.47758 10.0807C5.78264 10.369 5.36767 11.0873 5.466 11.8323L5.7743 14.1756C5.83096 14.6122 5.71264 15.0539 5.446 15.4022L4.00778 17.2755C3.54949 17.8721 3.54949 18.7021 4.00778 19.2971L5.446 21.1704C5.71431 21.5204 5.83263 21.962 5.7743 22.3987L5.466 24.7419C5.36767 25.4869 5.78264 26.2052 6.47758 26.4935L8.6574 27.3952C9.0657 27.5635 9.389 27.8868 9.55732 28.2952L10.4589 30.4751C10.7456 31.1701 11.4655 31.5851 12.2104 31.4867L14.4669 31.1884Z" stroke="#3F444D" stroke-width="3" stroke-linecap="round" stroke-linejoin="round"/>
</svg>
