<svg width="36" height="37" viewBox="0 0 36 37" fill="none" xmlns="http://www.w3.org/2000/svg">
<path opacity="0.12" d="M14.25 16.7871C17.5637 16.7871 20.25 14.1008 20.25 10.7871C20.25 7.4734 17.5637 4.78711 14.25 4.78711C10.9363 4.78711 8.25 7.4734 8.25 10.7871C8.25 14.1008 10.9363 16.7871 14.25 16.7871Z" fill="#3F444D"/>
<path d="M24 27.2871L28.5 22.7871M28.5 22.7871L33 27.2871M28.5 22.7871V31.7871M23.25 5.22325C25.4489 6.11333 27 8.26908 27 10.7871C27 13.3051 25.4489 15.4609 23.25 16.351M18 22.7871H12C9.20435 22.7871 7.80653 22.7871 6.7039 23.2438C5.23373 23.8528 4.06569 25.0208 3.45672 26.491C3 27.5936 3 28.9915 3 31.7871M20.25 10.7871C20.25 14.1008 17.5637 16.7871 14.25 16.7871C10.9363 16.7871 8.25 14.1008 8.25 10.7871C8.25 7.4734 10.9363 4.78711 14.25 4.78711C17.5637 4.78711 20.25 7.4734 20.25 10.7871Z" stroke="#3F444D" stroke-width="3" stroke-linecap="round" stroke-linejoin="round"/>
</svg>
