<svg width="16" height="26" viewBox="0 0 16 26" fill="none" xmlns="http://www.w3.org/2000/svg">
<path d="M15.7757 15.5467L8.90044 13.816C8.81979 13.8026 8.7929 13.8362 8.81978 13.9166C9.23646 15.5534 9.66658 17.3042 10.1101 19.169C10.1571 19.3847 10.2391 19.596 10.3194 19.8029C10.4115 20.0401 10.5013 20.2715 10.5336 20.4972C10.6142 21.0741 10.4395 21.1546 10.0093 20.7387L8.09395 18.847C8.0765 18.8339 8.05528 18.8269 8.03347 18.8269C8.01166 18.8269 7.99043 18.8339 7.97297 18.847C7.36811 19.3971 6.76997 19.9874 6.17855 20.6179C6.07102 20.7387 5.97021 20.8259 5.87612 20.8795C5.55353 21.0539 5.43928 20.9667 5.53337 20.6179C6.13823 18.4177 6.70949 16.1638 7.24715 13.8563L7.25098 13.8476L7.25277 13.8347L7.25225 13.8293L7.25039 13.8221L7.24743 13.8157C7.24322 13.8094 7.23588 13.8021 7.22895 13.799C7.22202 13.7959 7.21435 13.7948 7.20682 13.7959L0.29124 15.5266C0.251413 15.5317 0.210938 15.5249 0.175016 15.507C0.139093 15.4891 0.109361 15.4608 0.0896172 15.4259C0.035855 15.3454 0.035855 15.2716 0.0896172 15.2046L2.22679 13.0916C2.23537 13.084 2.24225 13.0747 2.24696 13.0643L2.25183 13.0501L2.25373 13.0388L2.25409 13.0312C2.25409 13.0198 2.25166 13.0085 2.24696 12.9981C2.24225 12.9877 2.23537 12.9784 2.22679 12.9708L0.0694397 10.7974L0.00896147 10.7371C-0.0179232 10.6834 0.0156841 10.6163 0.109771 10.5358C0.133788 10.5215 0.160534 10.5123 0.188303 10.5088C0.216071 10.5054 0.244261 10.5077 0.271073 10.5157L7.16649 12.2464C7.24714 12.2732 7.28074 12.2464 7.2673 12.1659C6.72965 9.88516 6.13823 7.61115 5.49304 5.34385C5.47963 5.2958 5.48459 5.24448 5.50694 5.19985C5.5293 5.15524 5.56746 5.12049 5.61402 5.10237C5.72156 5.06212 5.80892 5.08224 5.87612 5.16274L7.95282 7.23551C7.97027 7.24857 7.9915 7.25562 8.0133 7.25562C8.03512 7.25562 8.05633 7.24857 8.07378 7.23551L10.3319 5.02187C10.3992 4.95479 10.4664 5.04199 10.5336 5.28348C10.539 5.31004 10.539 5.33741 10.5336 5.36397L8.79962 12.2061C8.77274 12.2598 8.79291 12.2799 8.86011 12.2665L15.7354 10.5157C15.7806 10.5076 15.8272 10.5151 15.8676 10.5371C15.9079 10.5591 15.9395 10.5941 15.9572 10.6365C15.9975 10.7304 15.9908 10.8042 15.937 10.8578L13.8401 12.9306C13.8118 12.9605 13.796 13.0001 13.796 13.0413C13.796 13.0824 13.8118 13.122 13.8401 13.1519C14.6601 13.9301 15.359 14.6277 15.937 15.2448C16.0042 15.3119 16.0176 15.3924 15.9773 15.4863C15.9565 15.5188 15.9247 15.5428 15.8877 15.5539C15.8507 15.5649 15.811 15.5624 15.7757 15.5467Z" fill="#1D2433"/>
<path d="M11.632 15.6451C11.1527 15.6451 10.7641 16.017 10.7641 16.4757C10.7641 16.9344 11.1527 17.3063 11.632 17.3063C12.1114 17.3063 12.5 16.9344 12.5 16.4757C12.5 16.017 12.1114 15.6451 11.632 15.6451Z" fill="#1D2433"/>
<path d="M11.632 9C11.1527 9 10.7641 9.37188 10.7641 9.83063C10.7641 10.2894 11.1527 10.6613 11.632 10.6613C12.1114 10.6613 12.5 10.2894 12.5 9.83063C12.5 9.37188 12.1114 9 11.632 9Z" fill="#1D2433"/>
<path d="M4.6884 15.6451C4.20905 15.6451 3.82044 16.017 3.82044 16.4757C3.82044 16.9344 4.20905 17.3063 4.6884 17.3063C5.16776 17.3063 5.55636 16.9344 5.55636 16.4757C5.55636 16.017 5.16776 15.6451 4.6884 15.6451Z" fill="#1D2433"/>
<path d="M4.6884 9C4.20905 9 3.82044 9.37188 3.82044 9.83063C3.82044 10.2894 4.20905 10.6613 4.6884 10.6613C5.16776 10.6613 5.55636 10.2894 5.55636 9.83063C5.55636 9.37188 5.16776 9 4.6884 9Z" fill="#1D2433"/>
</svg>
