<svg width="20" height="21" viewBox="0 0 20 21" fill="none" xmlns="http://www.w3.org/2000/svg">
<path d="M8.34079 6.42589L8.34109 6.42655C8.45103 6.67155 8.63252 7.11353 8.7767 7.46466L8.78007 7.47287C8.83718 7.61193 8.88857 7.73708 8.92861 7.83331C8.94865 7.88149 8.9653 7.92107 8.97807 7.95083C8.98747 7.97274 8.99272 7.98446 8.99481 7.98912C8.99593 7.99163 8.99614 7.9921 8.99559 7.99102C9.08498 8.16913 9.18039 8.46752 9.01446 8.80758L8.34079 6.42589ZM8.34079 6.42589C8.23611 6.19352 8.0959 6.00024 7.89136 5.88168C7.69679 5.7689 7.50598 5.7643 7.42554 5.76236C7.42268 5.76229 7.41996 5.76223 7.41739 5.76216M8.34079 6.42589L6.54624 10.6134M14.7129 13.4328L14.7116 13.4362C14.5629 13.8466 14.1804 14.1671 13.8672 14.3689C13.5475 14.5748 13.1506 14.7518 12.8374 14.7812C12.8076 14.784 12.7769 14.7877 12.7374 14.7925L12.6773 14.2961L12.7374 14.7925C12.5338 14.8171 12.2745 14.8473 11.842 14.7747C11.4281 14.7053 10.8666 14.5442 10.031 14.2153L14.7129 13.4328ZM14.7129 13.4328C14.8158 13.142 14.869 12.8684 14.8881 12.6459M14.7129 13.4328L14.8881 12.6459M6.54624 10.6134L6.17478 10.8647L6.14949 10.8274L6.14308 10.8182L6.14004 10.8141L6.14001 10.8141L6.13995 10.814C6.07308 10.7245 5.83429 10.405 5.61164 9.96498C5.39236 9.53165 5.16704 8.93975 5.16704 8.30944C5.16704 7.12245 5.76566 6.48603 6.01519 6.22231L6.01519 6.22231C6.02975 6.20693 6.04098 6.19505 6.05074 6.18452C6.35876 5.85239 6.73161 5.75786 6.99034 5.75786H6.99553C7.13548 5.75786 7.28584 5.75786 7.41739 5.76216M6.54624 10.6134L6.17479 10.8647L6.18034 10.8729M6.54624 10.6134L6.18034 10.8729M7.41739 5.76216C7.41796 5.76218 7.41853 5.7622 7.4191 5.76222L7.40259 6.26191L7.41598 5.76212C7.41645 5.76214 7.41692 5.76215 7.41739 5.76216ZM14.8881 12.6459C14.8976 12.5352 14.8992 12.4296 14.8919 12.3357M14.8881 12.6459L14.8919 12.3357M14.8919 12.3357C14.8866 12.2686 14.8721 12.1228 14.7952 11.9932L14.8919 12.3357ZM6.18034 10.8729C6.4601 11.2865 7.86488 13.3635 10.0309 14.2153L6.18034 10.8729ZM6.30096 17.0318C6.18945 16.9714 6.05916 16.9556 5.93646 16.9877L2.37655 17.9175L3.32532 14.4736C3.36093 14.3444 3.34314 14.2062 3.27595 14.0902C2.59304 12.9111 2.23389 11.5741 2.23438 10.2134V10.2132C2.23438 5.93729 5.73478 2.45374 10.0326 2.45374C12.1224 2.45374 14.0774 3.26304 15.5501 4.72887C17.0222 6.19416 17.831 8.14278 17.831 10.2173C17.831 14.4931 14.3306 17.9767 10.0327 17.9767H10.0286C8.72283 17.9767 7.44013 17.6489 6.30096 17.0318ZM8.99194 8.85413L9.01442 8.80767L14.7951 11.9931C14.712 11.853 14.594 11.7708 14.5189 11.725C14.4473 11.6813 14.3642 11.6414 14.299 11.6102L14.2879 11.6049L14.108 11.9801L14.2879 11.6049C14.2508 11.5871 14.2144 11.5696 14.1758 11.5504L14.1757 11.5504C14.0663 11.4959 13.7469 11.339 13.4299 11.1864C13.1272 11.0407 12.7866 10.8792 12.6603 10.8321L12.6602 10.8321L12.6539 10.8297C12.5631 10.7958 12.3736 10.7249 12.1641 10.7496C11.8975 10.781 11.7114 10.9422 11.5876 11.1291C11.4822 11.284 11.1934 11.6266 11.0248 11.8239C10.9909 11.8085 10.9553 11.7931 10.9225 11.7789L10.9142 11.7753L10.913 11.7748C10.6281 11.6519 10.089 11.4193 9.46234 10.8614L9.46147 10.8606C8.96731 10.4227 8.60294 9.88738 8.43557 9.61718C8.49677 9.55085 8.55803 9.47679 8.60787 9.41653L8.61624 9.40642C8.65747 9.3566 8.69379 9.31276 8.72772 9.27381L8.72783 9.27368C8.86666 9.11425 8.9309 8.98085 8.98829 8.8617L8.99193 8.85414L8.99194 8.85413Z" fill="white" stroke="white" stroke-linejoin="round"/>
</svg>
