<svg width="36" height="36" viewBox="0 0 36 36" fill="none" xmlns="http://www.w3.org/2000/svg">
<path opacity="0.12" d="M4.5 21.3C4.5 19.6198 4.5 18.7798 4.82698 18.138C5.1146 17.5735 5.57354 17.1146 6.13803 16.827C6.77976 16.5 7.61984 16.5 9.3 16.5H16.5V31.5H4.5V21.3Z" fill="#1D2433"/>
<path d="M16.5 16.5H9.3C7.61984 16.5 6.77976 16.5 6.13803 16.827C5.57354 17.1146 5.1146 17.5735 4.82698 18.138C4.5 18.7798 4.5 19.6198 4.5 21.3V31.5M31.5 31.5V9.3C31.5 7.61984 31.5 6.77976 31.173 6.13803C30.8854 5.57354 30.4265 5.1146 29.862 4.82698C29.2202 4.5 28.3802 4.5 26.7 4.5H21.3C19.6198 4.5 18.7798 4.5 18.138 4.82698C17.5735 5.1146 17.1146 5.57354 16.827 6.13803C16.5 6.77976 16.5 7.61984 16.5 9.3V31.5M33 31.5H3M21.75 10.5H26.25M21.75 16.5H26.25M21.75 22.5H26.25" stroke="#1D2433" stroke-width="3" stroke-linecap="round" stroke-linejoin="round"/>
</svg>
