<svg width="36" height="36" viewBox="0 0 36 36" fill="none" xmlns="http://www.w3.org/2000/svg">
<path opacity="0.12" d="M12 33C16.9706 33 21 28.9706 21 24C21 19.0294 16.9706 15 12 15C7.02944 15 3 19.0294 3 24C3 28.9706 7.02944 33 12 33Z" fill="#1D2433"/>
<path d="M9 9L12 6M12 6L9 3M12 6H9C5.68629 6 3 8.68629 3 12M27 27L24 30M24 30L27 33M24 30H27C30.3137 30 33 27.3137 33 24M15.2835 9.75C16.2826 5.86824 19.8064 3 24 3C28.9706 3 33 7.02944 33 12C33 16.1936 30.1318 19.7173 26.2501 20.7164M21 24C21 28.9706 16.9706 33 12 33C7.02944 33 3 28.9706 3 24C3 19.0294 7.02944 15 12 15C16.9706 15 21 19.0294 21 24Z" stroke="#1D2433" stroke-width="3" stroke-linecap="round" stroke-linejoin="round"/>
</svg>
