<svg width="36" height="36" viewBox="0 0 36 36" fill="none" xmlns="http://www.w3.org/2000/svg">
<path opacity="0.12" d="M24.75 20.25C29.3063 20.25 33 18.9069 33 17.25V28.5C33 30.1569 29.3063 31.5 24.75 31.5C20.1937 31.5 16.5 30.1569 16.5 28.5V17.25C16.5 18.9069 20.1937 20.25 24.75 20.25Z" fill="#1D2433"/>
<path d="M19.5 7.5C19.5 9.15685 15.8063 10.5 11.25 10.5C6.69365 10.5 3 9.15685 3 7.5M19.5 7.5C19.5 5.84315 15.8063 4.5 11.25 4.5C6.69365 4.5 3 5.84315 3 7.5M19.5 7.5V9.75M3 7.5V25.5C3 27.1569 6.69365 28.5 11.25 28.5M11.25 16.5C10.9972 16.5 10.747 16.4959 10.5 16.4878C6.29512 16.35 3 15.0649 3 13.5M11.25 22.5C6.69365 22.5 3 21.1569 3 19.5M33 17.25C33 18.9069 29.3063 20.25 24.75 20.25C20.1937 20.25 16.5 18.9069 16.5 17.25M33 17.25C33 15.5931 29.3063 14.25 24.75 14.25C20.1937 14.25 16.5 15.5931 16.5 17.25M33 17.25V28.5C33 30.1569 29.3063 31.5 24.75 31.5C20.1937 31.5 16.5 30.1569 16.5 28.5V17.25M33 22.875C33 24.5319 29.3063 25.875 24.75 25.875C20.1937 25.875 16.5 24.5319 16.5 22.875" stroke="#1D2433" stroke-width="3" stroke-linecap="round" stroke-linejoin="round"/>
</svg>
