<svg width="37" height="36" viewBox="0 0 37 36" fill="none" xmlns="http://www.w3.org/2000/svg">
<path opacity="0.12" d="M3.33203 12.3V15H33.332V12.3C33.332 10.6198 33.332 9.77977 33.0051 9.13803C32.7174 8.57354 32.2585 8.1146 31.694 7.82698C31.0523 7.5 30.2122 7.5 28.532 7.5H8.13203C6.45187 7.5 5.6118 7.5 4.97006 7.82698C4.40557 8.1146 3.94663 8.57354 3.65901 9.13803C3.33203 9.77976 3.33203 10.6198 3.33203 12.3Z" fill="#3F444D"/>
<path d="M33.332 15H3.33203M16.832 21H9.33203M3.33203 12.3L3.33203 23.7C3.33203 25.3802 3.33203 26.2202 3.65901 26.862C3.94663 27.4265 4.40557 27.8854 4.97006 28.173C5.61179 28.5 6.45187 28.5 8.13203 28.5L28.532 28.5C30.2122 28.5 31.0523 28.5 31.694 28.173C32.2585 27.8854 32.7174 27.4265 33.0051 26.862C33.332 26.2202 33.332 25.3802 33.332 23.7V12.3C33.332 10.6198 33.332 9.77977 33.0051 9.13803C32.7174 8.57354 32.2585 8.1146 31.694 7.82698C31.0523 7.5 30.2122 7.5 28.532 7.5L8.13203 7.5C6.45187 7.5 5.6118 7.5 4.97006 7.82698C4.40557 8.1146 3.94663 8.57354 3.65901 9.13803C3.33203 9.77976 3.33203 10.6198 3.33203 12.3Z" stroke="#3F444D" stroke-width="3" stroke-linecap="round" stroke-linejoin="round"/>
</svg>
