<svg width="37" height="36" viewBox="0 0 37 36" fill="none" xmlns="http://www.w3.org/2000/svg">
<path opacity="0.12" d="M23.3 3H13.7C11.1798 3 9.91965 3 8.95704 3.49047C8.11031 3.9219 7.4219 4.61031 6.99047 5.45704C6.5 6.41965 6.5 7.67976 6.5 10.2V25.8C6.5 28.3202 6.5 29.5804 6.99047 30.543C7.4219 31.3897 8.11031 32.0781 8.95704 32.5095C9.91965 33 11.1797 33 13.6999 33H18.5L30.5 18.75V10.2C30.5 7.67976 30.5 6.41965 30.0095 5.45704C29.5781 4.61031 28.8897 3.9219 28.043 3.49047C27.0804 3 25.8202 3 23.3 3Z" fill="#1D2433"/>
<path d="M30.5 18.75V10.2C30.5 7.67976 30.5 6.41965 30.0095 5.45704C29.5781 4.61031 28.8897 3.9219 28.043 3.49047C27.0804 3 25.8202 3 23.3 3H13.7C11.1798 3 9.91965 3 8.95704 3.49047C8.11031 3.9219 7.4219 4.61031 6.99047 5.45704C6.5 6.41965 6.5 7.67976 6.5 10.2V25.8C6.5 28.3202 6.5 29.5804 6.99047 30.543C7.4219 31.3897 8.11031 32.0781 8.95704 32.5095C9.91965 33 11.1798 33 13.7 33H18.5M21.5 16.5H12.5M15.5 22.5H12.5M24.5 10.5H12.5M22.25 28.5L25.25 31.5L32 24.75" stroke="#1D2433" stroke-width="3" stroke-linecap="round" stroke-linejoin="round"/>
</svg>
