<svg width="36" height="36" viewBox="0 0 36 36" fill="none" xmlns="http://www.w3.org/2000/svg">
<g opacity="0.12">
<path d="M9 31.5C12.3137 31.5 15 28.8137 15 25.5V25.2C15 24.78 15 24.5699 14.9183 24.4095C14.8464 24.2684 14.7316 24.1537 14.5905 24.0817C14.4301 24 14.22 24 13.8 24H4.2C3.77996 24 3.56994 24 3.40951 24.0817C3.26839 24.1537 3.15365 24.2684 3.08175 24.4095C3 24.5699 3 24.78 3 25.2V25.5C3 28.8137 5.68629 31.5 9 31.5Z" fill="#1D2433"/>
<path d="M27 28.5C30.3137 28.5 33 25.8137 33 22.5V22.2C33 21.78 33 21.5699 32.9183 21.4095C32.8464 21.2684 32.7316 21.1537 32.5905 21.0817C32.4301 21 32.22 21 31.8 21H22.2C21.78 21 21.5699 21 21.4095 21.0817C21.2684 21.1537 21.1537 21.2684 21.0817 21.4095C21 21.5699 21 21.78 21 22.2V22.5C21 25.8137 23.6863 28.5 27 28.5Z" fill="#1D2433"/>
</g>
<path d="M3 25.5V25.2747C3 24.8 3 24.5626 3.03631 24.3313C3.06855 24.126 3.12204 23.9246 3.19592 23.7303C3.27913 23.5115 3.3969 23.3054 3.63243 22.8932L9 13.5M3 25.5C3 28.8137 5.68629 31.5 9 31.5C12.3137 31.5 15 28.8137 15 25.5M3 25.5V25.2C3 24.78 3 24.5699 3.08175 24.4095C3.15365 24.2684 3.26839 24.1537 3.40951 24.0817C3.56994 24 3.77996 24 4.2 24H13.8C14.22 24 14.4301 24 14.5905 24.0817C14.7316 24.1537 14.8464 24.2684 14.9183 24.4095C15 24.5699 15 24.78 15 25.2V25.5M9 13.5L14.3676 22.8932C14.6031 23.3054 14.7209 23.5115 14.8041 23.7303C14.878 23.9246 14.9314 24.126 14.9637 24.3313C15 24.5626 15 24.8 15 25.2747V25.5M9 13.5L27 10.5M21 22.5V22.2747C21 21.8 21 21.5626 21.0363 21.3313C21.0686 21.126 21.122 20.9246 21.1959 20.7303C21.2791 20.5115 21.3969 20.3054 21.6324 19.8932L27 10.5M21 22.5C21 25.8137 23.6863 28.5 27 28.5C30.3137 28.5 33 25.8137 33 22.5M21 22.5V22.2C21 21.78 21 21.5699 21.0817 21.4095C21.1537 21.2684 21.2684 21.1537 21.4095 21.0817C21.5699 21 21.78 21 22.2 21H31.8C32.22 21 32.4301 21 32.5905 21.0817C32.7316 21.1537 32.8464 21.2684 32.9183 21.4095C33 21.5699 33 21.78 33 22.2V22.5M27 10.5L32.3676 19.8932C32.6031 20.3054 32.7209 20.5115 32.8041 20.7303C32.878 20.9246 32.9314 21.126 32.9637 21.3313C33 21.5626 33 21.8 33 22.2747V22.5M18 4.5V12" stroke="#3F444D" stroke-width="3" stroke-linecap="round" stroke-linejoin="round"/>
</svg>
