<svg width="36" height="36" viewBox="0 0 36 36" fill="none" xmlns="http://www.w3.org/2000/svg">
<path d="M27 22.5L31.5 27M31.5 27L27 31.5M31.5 27H27.8533C26.4445 27 25.7401 27 25.1007 26.8058C24.5346 26.6339 24.008 26.3521 23.551 25.9765C23.0348 25.5522 22.644 24.966 21.8626 23.7938L21.5 23.25M27 4.5L31.5 9M31.5 9L27 13.5M31.5 9H27.8533C26.4445 9 25.7401 9 25.1007 9.19418C24.5346 9.36608 24.008 9.64791 23.551 10.0235C23.0348 10.4478 22.644 11.034 21.8626 12.2062L14.1374 23.7938C13.356 24.9661 12.9652 25.5522 12.449 25.9765C11.992 26.3521 11.4654 26.6339 10.8993 26.8058C10.2599 27 9.5555 27 8.14668 27H4.5M4.5 9H8.14668C9.5555 9 10.2599 9 10.8993 9.19418C11.4654 9.36608 11.992 9.64791 12.449 10.0235C12.9652 10.4478 13.356 11.034 14.1374 12.2062L14.5 12.75" stroke="#1D2433" stroke-width="3" stroke-linecap="round" stroke-linejoin="round"/>
</svg>
