<svg width="36" height="36" viewBox="0 0 36 36" fill="none" xmlns="http://www.w3.org/2000/svg">
<path opacity="0.12" d="M14.25 16.5C17.5637 16.5 20.25 13.8137 20.25 10.5C20.25 7.18629 17.5637 4.5 14.25 4.5C10.9363 4.5 8.25 7.18629 8.25 10.5C8.25 13.8137 10.9363 16.5 14.25 16.5Z" fill="#1D2433"/>
<path d="M24.75 24L32.25 31.5M32.25 24L24.75 31.5M23.25 4.93614C25.4489 5.82622 27 7.98197 27 10.5C27 13.018 25.4489 15.1738 23.25 16.0639M18 22.5H12C9.20435 22.5 7.80653 22.5 6.7039 22.9567C5.23373 23.5657 4.06569 24.7337 3.45672 26.2039C3 27.3065 3 28.7044 3 31.5M20.25 10.5C20.25 13.8137 17.5637 16.5 14.25 16.5C10.9363 16.5 8.25 13.8137 8.25 10.5C8.25 7.18629 10.9363 4.5 14.25 4.5C17.5637 4.5 20.25 7.18629 20.25 10.5Z" stroke="#3F444D" stroke-width="3" stroke-linecap="round" stroke-linejoin="round"/>
</svg>
