<svg width="150" height="50" viewBox="0 0 150 50" fill="none" xmlns="http://www.w3.org/2000/svg">
<g clip-path="url(#clip0_2003_83)">
<path d="M56.8772 19.9497H49.9886V22.9501H52.4675C54.2847 22.9501 55.7244 23.3922 56.7863 24.2763C57.8483 25.1605 58.3821 26.3498 58.3821 27.8471C58.3821 29.3502 57.8539 30.5595 56.7977 31.4722C55.7414 32.3849 54.3359 32.8469 52.5839 32.8612H46.7772V17.3628H56.8772V19.9497ZM49.9886 25.5284V30.2971H52.5214C53.3335 30.2971 53.9838 30.0746 54.4665 29.6269C54.9492 29.1791 55.1934 28.5801 55.1934 27.8272C55.1934 27.1256 54.9605 26.5694 54.5005 26.1616C54.0377 25.7537 53.4045 25.5426 52.5981 25.5284H49.9886Z" fill="black" fill-opacity="0.15"/>
<path d="M73.1018 26.5494H71.2675V32.8612H68.0874V26.5494H66.2105L62.8514 32.8612H58.8904L63.7004 24.5473L59.1232 17.3628H63.0757L66.5086 23.6118H68.0874V17.3628H71.2675V23.6118H72.8151L76.1628 17.3628H80.1039L75.6119 24.5358L80.3481 32.8612H76.3757L73.1018 26.5494Z" fill="black" fill-opacity="0.15"/>
<path d="M89.5281 18.7491H89.7183C90.9251 18.7491 92.0211 19.0172 92.9979 19.5534C93.9775 20.0896 94.7385 20.8511 95.2808 21.838C95.826 22.8248 96.0958 23.9457 96.0958 25.2006C96.0958 27.0602 95.5051 28.5775 94.3211 29.7554C93.137 30.9333 91.5384 31.5209 89.5253 31.5209V33.5002H86.4615V31.5209H86.2599C85.0389 31.5209 83.9344 31.2556 82.9547 30.728C81.9723 30.2003 81.2113 29.4559 80.6718 28.4976C80.1323 27.5393 79.8597 26.447 79.8597 25.2177C79.8597 23.977 80.1295 22.8647 80.6661 21.8864C81.2028 20.9082 81.9553 20.1438 82.9235 19.5933C83.8918 19.0429 84.9708 18.7605 86.1662 18.7463H86.4643V16.7241H89.5281V18.7491ZM86.2656 21.3987C85.2121 21.3987 84.3858 21.7324 83.781 22.3998C83.1762 23.0672 82.8752 24.0084 82.8752 25.2206C82.8752 26.3557 83.1762 27.2484 83.7754 27.8987C84.3745 28.549 85.2206 28.8741 86.3081 28.8741H86.4672V21.4016H86.2656V21.3987ZM89.5281 21.3987V28.8713H89.741C90.7803 28.8713 91.5981 28.5433 92.1943 27.8873C92.7906 27.2313 93.0888 26.3357 93.0888 25.2006C93.0888 24.0141 92.7963 23.0872 92.2085 22.4112C91.6208 21.7353 90.7803 21.3987 89.6871 21.3987H89.5281Z" fill="black" fill-opacity="0.15"/>
<path d="M112.224 19.9497H105.335V22.9501H107.814C109.631 22.9501 111.071 23.3922 112.133 24.2763C113.195 25.1605 113.729 26.3498 113.729 27.8471C113.729 29.3502 113.201 30.5595 112.144 31.4722C111.088 32.3849 109.683 32.8469 107.931 32.8612H102.124V17.3628H112.224V19.9497ZM105.335 25.5284V30.2971H107.868C108.68 30.2971 109.33 30.0746 109.813 29.6269C110.296 29.1791 110.54 28.5801 110.54 27.8272C110.54 27.1256 110.307 26.5694 109.847 26.1616C109.384 25.7537 108.751 25.5426 107.945 25.5284H105.335Z" fill="black" fill-opacity="0.15"/>
<path d="M122.029 32.8613C121.887 32.5846 121.784 32.2395 121.722 31.8288C120.981 32.6588 120.015 33.0752 118.828 33.0752C117.704 33.0752 116.776 32.75 116.037 32.0969C115.299 31.4438 114.93 30.6195 114.93 29.627C114.93 28.4063 115.381 27.4708 116.281 26.8176C117.182 26.1645 118.485 25.8337 120.186 25.828H121.594V25.1691C121.594 24.6358 121.458 24.2108 121.185 23.8914C120.913 23.5719 120.484 23.4122 119.899 23.4122C119.382 23.4122 118.979 23.5377 118.684 23.7858C118.391 24.034 118.244 24.3762 118.244 24.8069H115.18C115.18 24.1395 115.384 23.5234 115.793 22.9559C116.202 22.3883 116.781 21.9434 117.531 21.6211C118.28 21.2988 119.121 21.1362 120.052 21.1362C121.463 21.1362 122.585 21.4927 123.417 22.2058C124.249 22.9188 124.664 23.9227 124.664 25.2119V30.2031C124.669 31.2954 124.823 32.1226 125.118 32.6844V32.8641H122.029V32.8613ZM119.493 30.7222C119.944 30.7222 120.362 30.6223 120.742 30.4198C121.123 30.2173 121.407 29.9464 121.591 29.607V27.6276H120.447C118.914 27.6276 118.099 28.161 117.999 29.2248L117.988 29.4045C117.988 29.7867 118.121 30.1033 118.391 30.3514C118.661 30.5995 119.027 30.7222 119.493 30.7222Z" fill="black" fill-opacity="0.15"/>
<path d="M136.765 32.8615H133.693V28.4436H129.888V32.8615H126.824V21.3447H129.888V25.9651H133.693V21.3447H136.765V32.8615Z" fill="black" fill-opacity="0.15"/>
<path d="M143.421 28.6148H142.191V32.8615H139.131V21.3447H142.191V25.6771H143.285L145.786 21.3447H149.654L145.903 26.8265L150.003 32.8615H145.923L143.421 28.6148Z" fill="black" fill-opacity="0.15"/>
<path d="M23.4142 -0.5L0 17.3542V21.2559L23.4142 3.40169L35.1496 11.5986V7.69696L23.4142 -0.5Z" fill="black" fill-opacity="0.15"/>
<path d="M23.4142 5.34668L0 23.198V27.1026L23.4142 9.24837L35.1496 17.4425V13.5408L23.4142 5.34668Z" fill="black" fill-opacity="0.15"/>
<path d="M23.4142 11.1909L0 29.0451V32.9468L23.4142 15.0926L35.1496 23.2896V19.3879L23.4142 11.1909Z" fill="black" fill-opacity="0.15"/>
<path d="M27.2361 25.2886H19.6093V32.9493H27.2361V25.2886Z" fill="black" fill-opacity="0.15"/>
</g>
<defs>
<clipPath id="clip0_2003_83">
<rect width="150" height="50" fill="white"/>
</clipPath>
</defs>
</svg>
