<svg width="72" height="72" viewBox="0 0 72 72" fill="none" xmlns="http://www.w3.org/2000/svg">
<path d="M35.8884 0C36.1684 0 36.3952 0.220791 36.3952 0.493151V1.47945H37.409C37.689 1.47945 37.9158 1.70025 37.9158 1.9726C37.9158 2.24496 37.689 2.46575 37.409 2.46575H36.3952V3.45205C36.3952 3.72441 36.1684 3.94521 35.8884 3.94521C35.6085 3.94521 35.3815 3.72441 35.3815 3.45205V2.46575H34.3678C34.0879 2.46575 33.8609 2.24496 33.8609 1.9726C33.8609 1.70025 34.0879 1.47945 34.3678 1.47945H35.3815V0.493151C35.3815 0.220791 35.6085 0 35.8884 0Z" fill="white"/>
<path d="M55.3956 21.4434L55.786 20.2871C55.5197 20.2166 55.2461 20.1611 54.9651 20.1204C54.0178 19.9821 53.1064 19.892 52.2308 19.8505C51.8838 19.8351 51.5447 19.8069 51.2045 19.7786C50.8586 19.7498 50.5112 19.7209 50.1531 19.7052C48.4918 19.6293 46.8679 19.2041 45.3948 18.4593C44.1997 17.8329 43.2633 16.9401 42.5855 15.7808H38.9897C38.6893 16.3864 38.36 16.9499 38.0089 17.4816C38.6301 17.8838 39.0584 18.5457 39.1302 19.3079C39.3029 19.3611 39.4758 19.4273 39.6473 19.5082C40.0682 19.4915 40.5474 19.5279 41.0505 19.6784C42.0189 19.9682 42.7659 20.5847 43.3015 21.3661C43.6772 21.9144 43.9049 22.5266 43.949 23.163C46.8106 23.0745 48.9241 22.6038 50.8494 22.1749C52.3898 21.8318 53.8098 21.5155 55.3956 21.4434Z" fill="white"/>
<path d="M35.8665 16.3491C36.1459 16.3491 36.4146 16.3931 36.666 16.4743C36.7956 16.2464 36.9151 16.0151 37.0236 15.7807H28.9907L28.9423 15.7356C28.4749 16.4458 28.002 17.1349 27.299 17.6702C26.4736 18.2931 25.6949 18.7292 24.9629 18.9783C23.8433 19.3659 22.6125 19.6082 21.2704 19.7051C20.0432 19.7882 18.8303 19.8816 17.6317 19.9854C16.9359 20.0391 16.3151 20.1333 15.7693 20.2679L16.1775 21.477C16.2173 21.4813 16.2571 21.4858 16.2968 21.4908C16.9356 21.5808 17.4917 21.6846 17.9654 21.8023C18.2692 21.8756 18.6342 21.9793 19.0496 22.0976C20.5975 22.5381 22.8466 23.178 25.2442 23.178C26.0762 23.178 26.9425 23.0648 27.8136 22.8533C27.8992 22.3315 28.1075 21.8304 28.4189 21.3728C29.025 20.4819 29.8886 19.8309 30.9866 19.5969C31.3607 19.5171 31.7175 19.4961 32.0422 19.5074C32.228 19.4197 32.4156 19.3494 32.6027 19.2941C32.6792 18.5295 33.1145 17.8672 33.7428 17.4687C34.1952 16.7946 34.9774 16.3491 35.8665 16.3491Z" fill="white"/>
<path d="M51.2533 65.3593L50.5832 64.5273C52.385 63.9991 53.7602 63.4809 54.8003 62.9423C56.2141 62.2101 56.9666 61.462 57.3484 60.6396C57.7343 59.8081 57.7785 58.8233 57.6085 57.5382C57.4889 56.6334 57.2715 55.6278 57.0197 54.4637L57.019 54.4606C56.9106 53.9594 56.7958 53.4286 56.6797 52.8639C55.8894 49.0193 58.4986 46.3271 59.9493 45.4449C60.1866 45.3005 60.4994 45.3707 60.6478 45.6017C60.7961 45.8326 60.7239 46.1369 60.4866 46.2813C59.234 47.0429 56.9978 49.3817 57.6737 52.6705C57.7837 53.2053 57.8949 53.7197 58.0017 54.2131C58.2582 55.3995 58.4889 56.4658 58.6139 57.4123C58.7926 58.7625 58.7733 59.9659 58.2722 61.0455C57.767 62.134 56.8088 63.0195 55.2765 63.8129C54.2374 64.3511 52.9152 64.8568 51.2533 65.3593Z" fill="white"/>
<path d="M45.2205 65.8639L45.8987 66.7061C44.2567 67.1352 42.4465 67.6997 40.8406 68.3722C39.5397 68.917 38.401 69.5211 37.5959 70.1637C37.4158 70.3074 37.2568 70.4256 37.1184 70.5284C36.6279 70.8929 36.3953 71.0657 36.3953 71.5069C36.3953 71.7792 36.1684 72 35.8885 72C35.6085 72 35.3816 71.7792 35.3816 71.5069C35.3816 71.0657 35.149 70.8929 34.6586 70.5284C34.5201 70.4256 34.3611 70.3074 34.181 70.1637C33.3759 69.5211 32.2371 68.917 30.9362 68.3722C29.2738 67.6761 27.3926 67.0956 25.7055 66.6613L26.3847 65.8178C27.9998 66.2487 29.7587 66.8053 31.3369 67.4663C32.676 68.027 33.9131 68.6742 34.824 69.4012C35.2428 69.7355 35.6128 70.1031 35.8885 70.5031C36.1641 70.1031 36.5341 69.7355 36.9529 69.4012C37.8637 68.6742 39.1009 68.027 40.4399 67.4663C41.9625 66.8287 43.6531 66.2881 45.2205 65.8639Z" fill="white"/>
<path d="M16.5003 63.8129C17.5042 64.3329 18.7725 64.8226 20.3559 65.3082L21.0249 64.4775C19.3057 63.9665 17.9839 63.464 16.9767 62.9423C15.5627 62.2101 14.8102 61.462 14.4285 60.6396C14.0426 59.8081 13.9984 58.8233 14.1683 57.5382C14.2879 56.6338 14.5052 55.6288 14.7568 54.4654L14.7578 54.4609C14.8663 53.9596 14.981 53.4287 15.0972 52.8639C15.8875 49.0193 13.2784 46.3271 11.8276 45.4449C11.5902 45.3005 11.2775 45.3707 11.1292 45.6017C10.9808 45.8326 11.0529 46.1369 11.2903 46.2813C12.5428 47.0429 14.7792 49.3817 14.1031 52.6705C13.9931 53.2054 13.8819 53.7196 13.7752 54.213L13.7736 54.2202C13.5178 55.4037 13.2877 56.4678 13.1629 57.4123C12.9844 58.7625 13.0035 59.9659 13.5046 61.0455C14.0099 62.134 14.9681 63.0195 16.5003 63.8129Z" fill="white"/>
<path d="M12.2737 24.9512L12.9024 25.7318C13.1655 26.8166 13.4286 27.9363 13.6918 29.0909C13.9645 30.3575 14.0577 31.5896 13.9717 32.7869C13.8856 34.0677 13.2874 35.2662 12.303 36.13C11.6571 36.6283 10.516 36.3583 9.83777 36.0158C9.23491 35.7043 8.63566 35.386 8.03998 35.0607C7.39406 34.7077 6.74814 35.0087 7.10339 35.7874C7.34741 36.3203 7.57707 36.8395 7.79238 37.3446C8.03662 37.9492 8.2193 38.8092 8.00976 39.4844C8.0028 39.5882 7.96224 39.6903 7.8881 39.7739C7.83042 39.879 7.7596 39.9768 7.67395 40.0648C7.26797 40.4829 6.77294 40.8119 6.22854 41.0691C5.30969 41.6661 4.30831 42.1876 3.44426 42.6375L3.42178 42.6492C3.25192 42.7377 3.08747 42.8234 2.93012 42.9063C2.1535 43.3155 1.58347 43.6401 1.29179 43.9045C1.25709 43.936 1.23121 43.9623 1.21199 43.9836C1.5364 44.1856 2.10311 44.2962 2.84686 44.3266C3.01574 44.3335 3.1883 44.3362 3.36266 44.3357C3.52231 44.3256 3.69527 44.308 3.88458 44.2799C4.57356 44.1831 5.31995 44.1207 6.12376 44.0931C6.30318 44.0931 6.67278 44.1276 7.23258 44.1969C7.79237 44.2696 8.66436 44.6744 8.71818 45.2974C8.77806 45.6706 8.74108 46.0523 8.61053 46.4083C8.12301 47.3276 7.42327 48.1268 6.56514 48.7442C6.15068 49.0786 5.72042 49.4033 5.27431 49.7185C5.1039 49.9017 4.95236 50.0756 4.82262 50.2408C4.50675 50.6431 4.40312 50.8965 4.39829 51.0379C4.39735 51.0655 4.40015 51.0876 4.40685 51.1075C4.47159 51.2017 4.56339 51.2785 4.68932 51.3398C5.36193 51.6669 6.86231 51.7953 9.34319 50.8298C9.36026 50.8231 9.37747 50.8175 9.39478 50.8128L9.42869 50.7999C9.81623 50.6477 10.3258 50.5542 10.9573 50.5196C11.6571 50.478 11.8504 50.561 12.0657 51.2877C12.1519 51.5784 12.116 51.9418 11.9581 52.3779C11.7297 52.9877 11.4028 53.5588 10.9893 54.07C10.2951 54.9671 10.2188 56.465 11.052 57.2055C11.0747 57.2247 11.0914 57.2496 11.1002 57.2775C11.1089 57.3053 11.1094 57.335 11.1015 57.3631C11.0937 57.3912 11.0778 57.4167 11.0558 57.4365C11.0337 57.4563 11.0063 57.4698 10.9767 57.4754C10.8833 57.4962 10.7901 57.4893 10.6968 57.4546C9.18964 56.8213 8.21222 55.9494 7.93232 54.361C7.8193 53.707 7.81752 53.0251 7.927 52.3152C6.60366 52.6319 5.55068 52.6296 4.77652 52.4212C4.46654 52.3582 4.17383 52.2336 3.91126 52.028C3.82046 51.9609 3.73803 51.8862 3.6664 51.8025C3.61938 51.7519 3.57366 51.6982 3.52933 51.6409C3.2279 51.2464 3.09154 50.7411 3.12025 50.125C3.15614 49.3914 3.4145 48.6646 3.89535 47.9448C4.04511 47.7282 4.19744 47.5157 4.34892 47.3043L4.34957 47.3034C4.83253 46.6295 5.30701 45.9674 5.66347 45.2219C5.50863 45.2294 5.3417 45.2391 5.16405 45.2495L5.07799 45.2545L5.07691 45.2546C4.38914 45.295 3.5678 45.3432 2.80427 45.3121C2.0307 45.2804 1.20629 45.1656 0.63323 44.7939C0.402024 44.6439 0.194745 44.455 0.0830292 44.2038C-0.0366376 43.9347 -0.0157294 43.6657 0.0746284 43.4272C0.159248 43.2037 0.308206 42.9953 0.469969 42.8043C0.63492 42.6096 0.839609 42.4029 1.06305 42.1855C1.16969 42.0818 1.28309 41.9732 1.40135 41.8599L1.40279 41.8585C2.27569 41.0223 3.43906 39.9077 4.51626 38.2416C4.73734 37.8263 4.94456 37.3876 5.15489 36.9191C5.5209 36.1196 5.84386 35.3202 6.09146 34.4792C6.28523 33.801 6.46824 33.1053 6.64049 32.3924C7.17876 30.2744 7.93231 28.2396 8.99807 26.3189C9.50249 25.4104 10.048 24.6012 10.6348 23.8913L12.2737 24.9512Z" fill="white"/>
<path d="M59.2835 24.9647L59.2566 24.9981C59.23 25.1572 59.201 25.3033 59.1695 25.4364C58.8824 26.613 58.5954 27.8312 58.3083 29.0909C58.0355 30.3575 57.9422 31.5896 58.0284 32.7869C58.1144 34.0677 58.7126 35.2662 59.697 36.13C60.3429 36.6283 61.484 36.3583 62.1622 36.0158C62.765 35.7043 63.3644 35.386 63.96 35.0607C64.606 34.7077 65.2518 35.0087 64.8966 35.7874C64.6526 36.3203 64.4229 36.8395 64.2076 37.3446C63.9634 37.9492 63.7807 38.8092 63.9902 39.4844C63.9972 39.5882 64.0378 39.6903 64.1119 39.7739C64.1696 39.879 64.2404 39.9768 64.3261 40.0648C64.732 40.4829 65.2271 40.8119 65.7715 41.0691C66.6894 41.6656 67.6902 42.1868 68.5537 42.6365L68.5559 42.6376C68.7337 42.7301 68.9056 42.8197 69.0698 42.9063C69.8465 43.3155 70.4166 43.6401 70.7082 43.9045C70.7429 43.936 70.7687 43.9623 70.788 43.9836C70.4636 44.1856 69.8969 44.2962 69.1532 44.3266C68.9843 44.3335 68.8117 44.3362 68.6374 44.3357C68.4777 44.3256 68.3048 44.308 68.1154 44.2799C67.4265 44.1831 66.6801 44.1207 65.8763 44.0931C65.6969 44.0931 65.3272 44.1276 64.7674 44.1969C64.2076 44.2696 63.3357 44.6744 63.2818 45.2974C63.2219 45.6706 63.2589 46.0523 63.3895 46.4083C63.877 47.3276 64.5767 48.1268 65.4349 48.7442C65.8493 49.0786 66.2795 49.4033 66.7257 49.7185C66.8961 49.9017 67.0477 50.0756 67.1774 50.2408C67.4933 50.6431 67.5969 50.8965 67.6018 51.0379C67.6027 51.0655 67.5998 51.0876 67.5931 51.1075C67.5284 51.2017 67.4366 51.2785 67.3107 51.3398C66.6381 51.6669 65.1377 51.7953 62.6568 50.8298C62.6433 50.8245 62.6297 50.8199 62.616 50.8159L62.6052 50.8128L62.5713 50.7999C62.1838 50.6477 61.6742 50.5542 61.0426 50.5196C60.3429 50.478 60.1495 50.561 59.9342 51.2877C59.8481 51.5784 59.884 51.9418 60.0419 52.3779C60.2703 52.9877 60.5973 53.5588 61.0108 54.07C61.7049 54.9671 61.7811 56.465 60.9479 57.2055C60.9252 57.2247 60.9086 57.2496 60.8999 57.2775C60.8911 57.3053 60.8907 57.335 60.8985 57.3631C60.9063 57.3912 60.9222 57.4167 60.9443 57.4365C60.9663 57.4563 60.9937 57.4698 61.0234 57.4754C61.1166 57.4962 61.2099 57.4893 61.3033 57.4546C62.8104 56.8213 63.7878 55.9494 64.0677 54.361C64.1807 53.707 64.1824 53.0251 64.073 52.3152C65.3963 52.6319 66.4493 52.6296 67.2234 52.4212C67.5334 52.3582 67.8262 52.2336 68.0887 52.028C68.1796 51.9609 68.2619 51.8862 68.3336 51.8025C68.3806 51.752 68.4263 51.6982 68.4706 51.6409C68.7721 51.2464 68.9084 50.7411 68.8798 50.125C68.8439 49.3914 68.5855 48.6646 68.1047 47.9448C67.9548 47.7281 67.8026 47.5156 67.6511 47.3042L67.6498 47.3025C67.1671 46.6289 66.6928 45.967 66.3365 45.2219C66.4914 45.2294 66.6583 45.2391 66.836 45.2495L66.9225 45.2545C67.6103 45.295 68.4319 45.3432 69.1957 45.3121C69.9693 45.2804 70.7937 45.1656 71.3667 44.7939C71.598 44.6439 71.8053 44.455 71.917 44.2038C72.0366 43.9347 72.0157 43.6657 71.9254 43.4272C71.8408 43.2037 71.6917 42.9953 71.5301 42.8043C71.3651 42.6096 71.1604 42.4029 70.9369 42.1855C70.8299 42.0814 70.7159 41.9722 70.597 41.8584C69.7242 41.0221 68.5609 39.9077 67.4837 38.2416C67.2627 37.8263 67.0555 37.3876 66.8451 36.9191C66.479 36.1196 66.1562 35.3202 65.9085 34.4792C65.7148 33.801 65.5317 33.1053 65.3595 32.3924C64.8212 30.2744 64.0677 28.2396 63.002 26.3189C62.4551 25.3342 61.86 24.4661 61.2165 23.7146L59.2835 24.9647Z" fill="white"/>
<path d="M46.6099 59.5932L46.7954 59.8236C46.8 59.8216 46.8043 59.8192 46.8085 59.8165C47.6869 59.2376 48.2742 58.5452 48.2011 57.3959C48.1813 57.0902 48.13 56.8016 48.0473 56.5302C48.016 56.428 47.957 56.4033 47.8703 56.4563C46.6493 57.1977 46.2291 58.2434 46.6099 59.5932Z" fill="white"/>
<path d="M46.9192 59.9773L47.0254 60.1093L47.0301 60.1109L47.0372 60.1133L47.0479 60.1167C48.4435 60.5328 49.5503 60.1833 50.3685 59.0681C50.4694 58.9301 50.4324 58.8368 50.2574 58.7881C48.837 58.3899 47.7369 58.7581 46.9572 59.8924C46.936 59.9235 46.9233 59.9518 46.9192 59.9773Z" fill="white"/>
<path d="M46.3278 9.27716C46.1343 9.87288 45.7131 10.3963 45.2566 10.8646C45.0617 10.5933 44.8083 10.3616 44.5127 10.1943C44.9413 9.75528 45.2366 9.36345 45.3611 8.98003C45.4817 8.60892 45.4577 8.19734 45.0967 7.6706C44.5657 6.89557 43.9975 6.60456 43.4072 6.52958C43.5005 6.75813 43.5616 6.98336 43.5901 7.20656C43.6564 7.7239 43.5428 8.18977 43.3171 8.61152C43.1902 8.84869 43.0282 9.07125 42.8452 9.28243C42.6012 9.04278 42.3036 8.86047 41.9802 8.74698C42.1682 8.54343 42.3149 8.34872 42.418 8.15602C42.5624 7.88619 42.6216 7.62049 42.5842 7.32854C42.5571 7.11642 42.4763 6.87073 42.3126 6.5835C41.9185 6.65552 41.4979 6.77366 41.0456 6.91222C40.9336 6.94654 40.8194 6.98219 40.7035 7.01837C40.2977 7.14506 39.8697 7.27869 39.436 7.38553C39.4348 7.04461 39.3829 6.71534 39.2871 6.4045C39.6412 6.31309 40.0045 6.20006 40.3815 6.08274L40.3969 6.07794C40.5103 6.04269 40.6252 6.00696 40.7412 5.97144C41.023 5.88512 41.314 5.79911 41.61 5.72582C40.9391 5.18684 40.0679 5.09407 39.1469 5.27731C39.0173 5.30309 38.8881 5.3342 38.7599 5.36994C38.5363 5.07055 38.2644 4.80747 37.9554 4.59153C38.2763 4.47384 38.6083 4.37775 38.9438 4.311C40.2897 4.04324 41.7962 4.23734 42.8124 5.52974C43.0159 5.51812 43.2191 5.51982 43.4206 5.53862C44.3686 5.62708 45.2291 6.08579 45.9402 7.12345C46.4537 7.87273 46.5502 8.59228 46.3278 9.27716Z" fill="white"/>
<path d="M41.4754 12.3339C41.4711 12.3206 41.4681 12.3067 41.4662 12.2923C41.4649 12.2819 41.4642 12.2712 41.4642 12.2603V10.8359C41.4642 10.8138 41.4613 10.7929 41.4562 10.7732C41.4311 10.6767 41.3491 10.6103 41.2563 10.5933C41.2486 10.5918 41.2407 10.5907 41.2329 10.59C41.1648 10.5837 41.0931 10.604 41.0351 10.6581L39.2716 12.3054C39.132 12.4357 38.9037 12.3712 38.8525 12.1961C38.8502 12.1879 38.8481 12.1795 38.8465 12.1709L38.5062 10.3166L38.5045 10.3079L38.5035 10.3038L38.5013 10.2951L38.5002 10.2914C38.449 10.1163 38.2207 10.0518 38.0812 10.1821L36.0641 12.0661C35.9661 12.1577 35.8112 12.1577 35.7131 12.0661L33.6213 10.1124C33.4928 9.99232 33.2804 10.0354 33.2119 10.1954L32.47 11.9277C32.4052 12.0791 32.2093 12.128 32.0777 12.0255L30.2179 10.578C30.1529 10.5272 30.0754 10.5142 30.0054 10.5295C29.9857 10.5338 29.9665 10.5403 29.9485 10.5489C29.867 10.5876 29.8063 10.6676 29.8063 10.7705V12.2327C29.8063 12.3352 29.7442 12.4177 29.6599 12.4562L29.6579 12.457C29.6024 12.4817 29.5374 12.4875 29.4743 12.4671C29.4639 12.4641 29.4532 12.4597 29.4432 12.455L28.6992 12.1075C28.5498 12.0378 28.4091 12.1164 28.3561 12.2327C28.317 12.3187 28.3256 12.4252 28.4139 12.5077L29.8063 13.8081H41.971L43.566 12.3183C43.7117 12.1823 43.6403 11.9768 43.4916 11.9124C43.4793 11.9071 43.4666 11.9028 43.4534 11.8994C43.4056 11.8876 43.3521 11.8898 43.2964 11.9115L41.8117 12.4893C41.7688 12.506 41.7249 12.5104 41.6834 12.5049C41.6715 12.5033 41.6598 12.5009 41.6483 12.4977C41.568 12.4753 41.5012 12.4147 41.4754 12.3339Z" fill="white"/>
<path d="M37.409 7.39726C37.409 8.15564 36.8225 8.78075 36.0667 8.86666L36.0656 8.86672C36.0079 8.87324 35.9491 8.87661 35.8895 8.87665L35.8884 8.87671C35.1046 8.87665 34.4592 8.29964 34.3767 7.55838C34.3708 7.50547 34.3678 7.4517 34.3678 7.39726C34.3678 7.04452 34.4948 6.72056 34.7066 6.46633C34.7571 6.40579 34.8122 6.34917 34.8717 6.29708C35.1411 6.0613 35.4975 5.91781 35.8884 5.91781C36.7281 5.91781 37.409 6.58018 37.409 7.39726Z" fill="white"/>
<path d="M29.5751 8.60055C29.3276 8.30622 29.1746 8.03196 29.1163 7.75615C29.0516 7.44923 29.0917 7.07458 29.3717 6.58346C29.7658 6.6555 30.1865 6.77365 30.6389 6.91222C30.751 6.94654 30.8651 6.98217 30.981 7.01835C31.4156 7.15407 31.8747 7.29743 32.3403 7.4077C32.3403 7.07575 32.3868 6.74488 32.4826 6.42613C32.1018 6.33127 31.7106 6.20957 31.3033 6.08283L31.2985 6.08135C31.1817 6.04502 31.063 6.00807 30.9433 5.97143C30.6616 5.88512 30.3705 5.79911 30.0744 5.72581C30.7453 5.18684 31.6165 5.09407 32.5376 5.2773C32.6928 5.30817 32.8474 5.34668 33.0002 5.39164C33.2193 5.09356 33.4859 4.83082 33.7892 4.6139C33.4497 4.48598 33.0973 4.38193 32.7407 4.31099C31.3948 4.04324 29.8883 4.23734 28.872 5.52974C28.6686 5.51812 28.4654 5.51981 28.2638 5.53861C27.316 5.62707 26.4554 6.08578 25.7443 7.12344C25.2308 7.87272 25.1343 8.59228 25.3566 9.27716C25.5924 10.003 26.1363 10.5887 26.6804 11.1157C26.8672 10.8388 27.1133 10.5996 27.4014 10.4223C26.9742 10.0095 26.5087 9.55104 26.3233 8.98003C26.2028 8.60892 26.2267 8.19734 26.5877 7.67059C27.1189 6.89549 27.6871 6.60449 28.2775 6.52955C28.0764 7.02169 28.0261 7.49379 28.1234 7.95466C28.2072 8.35156 28.3947 8.70767 28.6381 9.03344C28.9124 8.82311 29.2341 8.67446 29.5751 8.60055Z" fill="white"/>
<path d="M37.409 65.589C37.409 66.4061 36.7281 67.0685 35.8884 67.0685C35.0486 67.0685 34.3678 66.4061 34.3678 65.589C34.3678 64.8514 34.9227 64.2398 35.6485 64.1279C35.6628 64.1286 35.6773 64.1291 35.6919 64.1295L35.717 64.13L35.75 64.1302C35.8415 64.1302 35.9293 64.1247 36.0135 64.1145C36.7948 64.1765 37.409 64.813 37.409 65.589Z" fill="white"/>
<path d="M43.1688 60.1177L50.1916 68.8385C50.3642 69.0529 50.6828 69.0905 50.9031 68.9225C50.9971 68.8509 51.058 68.7534 51.0836 68.6486C51.1131 68.5113 51.0823 68.3627 50.9864 68.2436L49.1396 65.9502L49.1511 65.9472L48.4705 65.1021L48.459 65.105L43.9971 59.5643C43.9282 59.6142 43.8584 59.6632 43.7879 59.7112C43.5838 59.8519 43.3771 59.9872 43.1688 60.1177Z" fill="white"/>
<path d="M27.5196 59.6109C27.7881 59.8105 28.0686 59.9961 28.3599 60.1665L21.3656 68.8518C21.1929 69.0662 20.8743 69.1039 20.6539 68.9359C20.6154 68.9064 20.5823 68.8727 20.5551 68.8358C20.5045 68.7674 20.4736 68.6885 20.4634 68.6071C20.4478 68.4819 20.4814 68.3508 20.5677 68.2437L27.5196 59.6109Z" fill="white"/>
<path d="M49.0139 58.1705C48.0616 56.9522 48.0589 55.7597 49.006 54.5927C49.0705 54.5128 49.1358 54.5166 49.2021 54.6044C49.3776 54.8372 49.529 55.0971 49.6564 55.3841C50.0026 56.1671 49.9296 56.8357 49.6196 57.4685C50.082 56.5863 50.9162 56.1076 52.1222 56.0326C52.3074 56.0206 52.376 56.0977 52.328 56.2641C51.9372 57.6092 50.9981 58.3157 49.5107 58.3839C49.367 58.39 49.3115 58.3284 49.3443 58.199C49.4054 57.9611 49.4845 57.7427 49.5815 57.5438C49.4703 57.7569 49.3328 57.9664 49.1761 58.1751C49.1674 58.1868 49.1556 58.196 49.1417 58.2023C49.1279 58.2087 49.1124 58.2117 49.0966 58.2112C49.0808 58.2108 49.065 58.2069 49.0506 58.1998C49.0362 58.1927 49.0236 58.1826 49.0139 58.1705Z" fill="white"/>
<path d="M49.7989 52.403C49.071 53.6742 49.2649 54.8261 50.3805 55.8587C50.3918 55.869 50.4056 55.8768 50.4206 55.8814C50.4356 55.886 50.4515 55.8874 50.4669 55.8854C50.4824 55.8835 50.4967 55.8782 50.5091 55.87C50.5215 55.8619 50.5313 55.851 50.5379 55.8385C50.6562 55.6123 50.7557 55.3885 50.829 55.165C50.7669 55.3722 50.7254 55.5956 50.7045 55.8352C50.6936 55.9652 50.7572 56.0164 50.895 55.9887C52.3213 55.697 53.1153 54.8717 53.2771 53.5128C53.2969 53.3448 53.2182 53.2806 53.0411 53.3203C51.8871 53.5761 51.1576 54.166 50.8527 55.0898C51.0512 54.4309 51.0147 53.7734 50.5543 53.0689C50.3851 52.8109 50.1972 52.5828 49.9904 52.3846C49.9122 52.3098 49.8485 52.3159 49.7989 52.403Z" fill="white"/>
<path d="M23.32 56.4563C24.591 57.2279 24.9942 58.3292 24.5299 59.76C24.5251 59.7744 24.5169 59.7877 24.506 59.7988C24.4952 59.81 24.482 59.8187 24.4675 59.8242C24.453 59.8297 24.4377 59.8319 24.4228 59.8306C24.408 59.8292 24.3939 59.8244 24.3819 59.8165C24.1625 59.6719 23.9613 59.5202 23.784 59.3562C23.9444 59.5103 24.0945 59.689 24.2343 59.8924C24.3085 60.0013 24.2783 60.0761 24.1435 60.1167C22.7479 60.5328 21.6411 60.1833 20.823 59.0681C20.722 58.9301 20.7591 58.8368 20.9341 58.7881C22.0767 58.4678 23.012 58.6434 23.7401 59.3148C23.234 58.8294 22.936 58.2342 22.9893 57.3959C23.0091 57.0902 23.0604 56.8016 23.143 56.5302C23.1744 56.428 23.2334 56.4033 23.32 56.4563Z" fill="white"/>
<path d="M22.1769 58.1705C23.1293 56.9522 23.132 55.7597 22.1849 54.5927C22.1204 54.5128 22.055 54.5166 21.9888 54.6044C21.8133 54.8372 21.6619 55.0971 21.5345 55.3841C21.188 56.168 21.2614 56.8371 21.5723 57.4705C21.1101 56.587 20.2755 56.1077 19.0687 56.0326C18.8834 56.0206 18.8148 56.0977 18.8629 56.2641C19.2536 57.6092 20.1927 58.3157 21.6801 58.3839C21.8239 58.39 21.8793 58.3284 21.8466 58.199C21.7853 57.9603 21.7058 57.7412 21.6083 57.5417C21.7197 57.7556 21.8576 57.9657 22.0148 58.1751C22.0235 58.1868 22.0353 58.196 22.0491 58.2023C22.063 58.2087 22.0784 58.2117 22.0943 58.2112C22.1101 58.2108 22.1258 58.2069 22.1402 58.1998C22.1546 58.1927 22.1672 58.1826 22.1769 58.1705Z" fill="white"/>
<path d="M21.3911 52.403C22.1189 53.6742 21.9251 54.8261 20.8096 55.8587C20.7982 55.869 20.7845 55.8768 20.7694 55.8814C20.7543 55.886 20.7385 55.8874 20.7231 55.8854C20.7077 55.8835 20.6932 55.8782 20.681 55.87C20.6686 55.8619 20.6588 55.851 20.6522 55.8385C20.5364 55.6173 20.4387 55.3982 20.3658 55.1796C20.4255 55.3827 20.4656 55.6012 20.486 55.8352C20.497 55.9652 20.4334 56.0164 20.2956 55.9887C18.8694 55.697 18.0753 54.8717 17.9135 53.5128C17.8937 53.3448 17.9724 53.2806 18.1495 53.3203C19.2975 53.5748 20.0253 54.1598 20.333 55.0753C20.1394 54.4212 20.1788 53.7682 20.6357 53.0689C20.8048 52.8109 20.9928 52.5828 21.1997 52.3846C21.2777 52.3098 21.3416 52.3159 21.3911 52.403Z" fill="white"/>
<path d="M40.4502 64.6027C41.01 64.6027 41.4639 64.1612 41.4639 63.6164C41.4639 63.0717 41.01 62.6301 40.4502 62.6301C39.8903 62.6301 39.4364 63.0717 39.4364 63.6164C39.4364 64.1612 39.8903 64.6027 40.4502 64.6027Z" fill="white"/>
<path d="M32.3403 63.6164C32.3403 64.1612 31.8865 64.6027 31.3266 64.6027C30.7667 64.6027 30.3129 64.1612 30.3129 63.6164C30.3129 63.0717 30.7667 62.6301 31.3266 62.6301C31.8865 62.6301 32.3403 63.0717 32.3403 63.6164Z" fill="white"/>
<path d="M45.9806 25.8507C43.953 26.975 43.169 28.5911 43.6287 30.6987C43.6382 30.7417 43.6512 30.7778 43.6676 30.8069C43.6651 30.9078 43.7417 30.9719 43.8975 30.9994C46.1722 31.3925 47.8422 30.6367 48.9076 28.7318C49.0389 28.4962 48.9623 28.3565 48.6778 28.3127C47.788 28.1739 46.9953 28.2048 46.2997 28.4055C46.5487 27.7057 46.5916 26.9161 46.4284 26.0369C46.3792 25.7739 46.23 25.7117 45.9806 25.8507Z" fill="white"/>
<path d="M48.7689 27.0804C49.3288 27.0804 49.7826 26.6388 49.7826 26.0941C49.7826 25.5494 49.3288 25.1078 48.7689 25.1078C48.2091 25.1078 47.7551 25.5494 47.7551 26.0941C47.7551 26.6388 48.2091 27.0804 48.7689 27.0804Z" fill="white"/>
<path d="M28.1677 30.7531C28.6273 28.6454 27.8434 27.0295 25.8156 25.9051C25.5663 25.7662 25.417 25.8283 25.3678 26.0913C25.2046 26.9707 25.2476 27.7604 25.4968 28.4604C24.8012 28.2598 24.0085 28.2288 23.1187 28.3676C22.8341 28.4114 22.7576 28.551 22.889 28.7867C23.9543 30.6916 25.6243 31.4475 27.899 31.0543C28.0552 31.0267 28.1318 30.9623 28.1289 30.8609C28.1452 30.8319 28.1581 30.7959 28.1677 30.7531Z" fill="white"/>
<path d="M22.014 26.149C22.014 26.6937 22.4678 27.1353 23.0277 27.1353C23.5876 27.1353 24.0414 26.6937 24.0414 26.149C24.0414 25.6043 23.5876 25.1627 23.0277 25.1627C22.4678 25.1627 22.014 25.6043 22.014 26.149Z" fill="white"/>
<path fill-rule="evenodd" clip-rule="evenodd" d="M31.255 29.1425C31.4263 28.539 31.8859 27.248 32.7838 26.7626C33.7256 26.7625 34.7044 26.7626 35.6564 26.7627H35.6887C36.8982 26.7628 38.0633 26.7628 39.0534 26.7626C39.6986 27.3749 40.1258 28.5865 40.2992 29.1545C40.3349 29.1429 40.3718 29.1368 40.4096 29.1368C40.73 29.1368 40.9897 29.5755 40.9897 30.1166C40.9897 30.6578 40.73 31.0964 40.4096 31.0964C40.3973 31.0964 40.3851 31.0958 40.3731 31.0945L40.3642 31.0935C40.1818 31.5672 39.9286 32.0237 39.6295 32.4455C39.7802 32.7766 40.213 33.4145 40.999 33.7559C41.3539 33.91 41.6862 34.0155 41.9992 34.1111L42.0894 34.1385C42.3613 34.2211 42.6428 34.3066 42.88 34.4151C43.273 34.5949 43.6281 34.8757 43.7558 35.394C43.8852 35.9193 43.6085 36.3192 43.3445 36.553C43.0847 36.7832 42.7669 36.925 42.566 36.9886C42.2997 37.0728 42.0138 36.9311 41.9272 36.6721C41.8406 36.4131 41.9863 36.1349 42.2525 36.0507C42.3592 36.0169 42.5374 35.9342 42.6621 35.8237C42.7826 35.717 42.7789 35.6602 42.77 35.6239C42.7412 35.507 42.6846 35.4262 42.5065 35.3355C42.2786 35.3092 41.9553 35.3884 41.4948 35.6221C41.0474 35.8492 40.559 36.1741 40.0127 36.5374L39.8724 36.6307C39.2828 37.0223 38.6369 37.4441 37.9716 37.7663C37.3069 38.0882 36.5851 38.33 35.8405 38.33C35.0959 38.33 34.3741 38.0882 33.7095 37.7663C33.0442 37.4441 32.3982 37.0223 31.8086 36.6307L31.6684 36.5375C31.1221 36.1741 30.6336 35.8492 30.1862 35.6221C29.7258 35.3884 29.4024 35.3092 29.1745 35.3355C28.9965 35.4262 28.9399 35.507 28.9111 35.6239C28.9021 35.6602 28.8985 35.717 29.019 35.8237C29.1436 35.9342 29.3218 36.0169 29.4286 36.0507C29.6948 36.1349 29.8404 36.4131 29.7538 36.6721C29.6673 36.9311 29.3813 37.0728 29.1151 36.9886C28.9142 36.925 28.5964 36.7832 28.3365 36.553C28.0725 36.3192 27.7958 35.9193 27.9253 35.394C28.053 34.8757 28.408 34.5949 28.801 34.4151C29.0382 34.3066 29.3197 34.2211 29.5916 34.1385L29.6818 34.1111C29.9949 34.0155 30.3272 33.91 30.682 33.7559C31.4365 33.4283 31.8655 32.8274 32.032 32.4869C31.728 32.0467 31.4665 31.5732 31.2573 31.0903C31.2359 31.0943 31.2141 31.0964 31.192 31.0964C30.8716 31.0964 30.6118 30.6578 30.6118 30.1166C30.6118 29.5755 30.8716 29.1368 31.192 29.1368C31.2133 29.1368 31.2343 29.1388 31.255 29.1425ZM31.7691 29.707L34.9886 28.4213C35.5418 28.2003 36.162 28.1996 36.7158 28.4192L39.8905 29.6785L39.8952 29.663L37.4875 28.2005C36.5048 27.6036 35.2589 27.6017 34.2743 28.1957L31.7691 29.707ZM35.6132 28.7643C35.466 28.7839 35.3208 28.8217 35.1811 28.8775L34.8539 29.0081V31.5289L35.1043 31.6428C35.2672 31.7168 35.4388 31.7655 35.6132 31.7888V28.7643ZM34.347 31.2986V29.2106L33.6075 29.5059V30.9626L34.347 31.2986ZM33.1006 30.7322L31.9127 30.1924V30.1828L33.1006 29.7083V30.7322ZM36.12 28.7676V31.7856C36.2849 31.7613 36.4471 31.7144 36.6015 31.6447L36.9021 31.509V29.0257L36.5244 28.8759C36.3934 28.8239 36.2577 28.7878 36.12 28.7676ZM39.8204 30.192L38.691 30.7017V29.7352L39.8204 30.1832V30.192ZM38.1841 29.5342V30.9304L37.409 31.2803V29.2267L38.1841 29.5342ZM36.8148 32.5L39.3276 30.958C39.0149 31.6626 38.5095 32.3352 37.9291 32.8667C37.1938 33.5401 36.424 33.9113 35.8674 33.9236C35.1457 33.9396 34.387 33.5694 33.691 32.9041C33.1239 32.362 32.6327 31.6546 32.2801 30.9037L34.8898 32.4975C35.4997 32.7747 36.2042 32.7756 36.8148 32.5Z" fill="white"/>
<path d="M36.3992 18.8153C36.3992 18.543 36.1723 18.3222 35.8923 18.3222C35.6124 18.3222 35.3855 18.543 35.3855 18.8153V19.0431H35.1508C34.8709 19.0431 34.644 19.2639 34.644 19.5363C34.644 19.8086 34.8709 20.0294 35.1508 20.0294H35.3855V20.2568C35.3855 20.5292 35.6124 20.75 35.8923 20.75C36.1723 20.75 36.3992 20.5292 36.3992 20.2568V20.0294H36.6324C36.9123 20.0294 37.1393 19.8086 37.1393 19.5363C37.1393 19.2639 36.9123 19.0431 36.6324 19.0431H36.3992V18.8153Z" fill="white"/>
<path d="M34.143 21.1101C33.9164 21.3871 33.7588 21.72 33.6956 22.0841C33.4203 22.1131 33.1928 22.234 33.023 22.4653C32.8052 22.762 32.8008 22.9278 32.8209 23.0231C32.8466 23.145 32.942 23.2975 33.1754 23.5176C33.2016 23.5423 33.2282 23.5667 33.2551 23.5909C33.1321 23.611 33.0113 23.6303 32.8952 23.6482C32.6439 23.6871 32.4075 23.7987 32.2207 23.9668C32.0423 23.7582 31.8894 23.5127 31.8279 23.2216C31.7742 22.9673 31.7969 22.7148 31.8855 22.4636C31.7967 22.4633 31.7143 22.471 31.637 22.4875C31.4226 22.5332 31.1911 22.6584 30.9543 23.0064C30.79 23.248 30.7925 23.4076 30.8364 23.5437C30.893 23.7192 31.0417 23.9207 31.3007 24.1806C31.4237 24.3041 31.5588 24.4286 31.7056 24.5639L31.7461 24.6013C31.6876 24.6819 31.6276 24.7613 31.5667 24.8385C31.4776 24.9514 31.4097 25.0787 31.3671 25.2125C31.3309 25.3259 31.3124 25.4451 31.3138 25.5655C31.2186 25.4739 31.1193 25.3822 31.0167 25.2875L31.0017 25.2738C30.8602 25.1433 30.7112 25.006 30.5728 24.8671C30.2946 24.5879 30.0008 24.2472 29.8692 23.8389C29.7249 23.3913 29.7935 22.9257 30.1091 22.462C30.4692 21.9327 30.9114 21.6325 31.4201 21.524C31.7958 21.4439 32.1714 21.4771 32.5172 21.5476C32.9976 21.14 33.5956 21.0476 34.143 21.1101Z" fill="white"/>
<path d="M40.2734 25.6912C40.241 25.7237 40.2096 25.7558 40.1793 25.7877C40.213 25.5747 40.1855 25.3596 40.1086 25.1658C40.0463 25.0088 39.9496 24.8612 39.8248 24.7367C39.886 24.6798 39.9467 24.6243 40.0056 24.5704L40.0137 24.5629C40.1617 24.4275 40.2978 24.3029 40.4218 24.1793C40.6829 23.9192 40.8325 23.7178 40.8893 23.5428C40.9331 23.4078 40.9361 23.2492 40.7707 23.0078C40.556 22.6945 40.3466 22.5638 40.1561 22.5068C40.0502 22.4751 39.9333 22.4612 39.8015 22.464C39.8376 22.5667 39.8629 22.6703 39.8763 22.775C39.916 23.0848 39.8467 23.3631 39.7159 23.6075C39.5996 23.8248 39.4361 24.013 39.2666 24.1781L39.2243 24.1309C39.0238 23.9052 38.7431 23.7571 38.4432 23.7123C38.4007 23.706 38.3578 23.6994 38.3145 23.6925C38.3861 23.6318 38.4526 23.5731 38.5143 23.5147C38.6657 23.3716 38.7619 23.2545 38.8167 23.152C38.8662 23.0595 38.8811 22.9814 38.8703 22.897C38.8585 22.8046 38.8103 22.6649 38.6637 22.4653C38.5032 22.2467 38.2912 22.1267 38.036 22.0897C37.9732 21.7215 37.8138 21.385 37.5841 21.1058C38.1222 21.0522 38.7049 21.1507 39.1744 21.5517L39.1881 21.5487C39.5799 21.4689 40.0177 21.4335 40.4541 21.5641C40.9037 21.6986 41.2924 21.9911 41.6141 22.4606C41.9321 22.9245 42.0017 23.3912 41.8559 23.8399C41.7232 24.2486 41.4272 24.5893 41.1471 24.8684C41.0078 25.0072 40.8578 25.1445 40.7152 25.275L40.7002 25.2887C40.5501 25.4261 40.4072 25.5574 40.2734 25.6912Z" fill="white"/>
<path d="M37.052 22.4429C37.052 23.0806 36.5207 23.5975 35.8653 23.5975C35.2099 23.5975 34.6786 23.0806 34.6786 22.4429C34.6786 21.8052 35.2099 21.2883 35.8653 21.2883C36.5207 21.2883 37.052 21.8052 37.052 22.4429Z" fill="white"/>
<path d="M32.8337 24.8681V25.238C32.8337 25.3632 32.6993 25.4455 32.5833 25.3913C32.4042 25.3076 32.2433 25.5334 32.3866 25.6673L32.7601 26.0161C32.8073 26.0602 32.8702 26.0848 32.9356 26.0848H38.6579C38.7234 26.0848 38.7863 26.0602 38.8335 26.0161L39.1005 25.7667C39.2917 25.5881 39.0899 25.2837 38.8438 25.3795C38.6853 25.4412 38.513 25.3276 38.513 25.1616V24.9336C38.513 24.7163 38.2451 24.6052 38.084 24.7557L37.6201 25.1891C37.474 25.3255 37.2307 25.2484 37.1951 25.0545L37.1147 24.6166C37.0791 24.4227 36.8357 24.3456 36.6897 24.482L35.9723 25.1521C35.8742 25.2437 35.7193 25.2437 35.6213 25.1521L34.8292 24.4123C34.7007 24.2922 34.4883 24.3353 34.4198 24.4953L34.1978 25.0138C34.1329 25.1652 33.9371 25.2139 33.8055 25.1115L33.2454 24.6755C33.0795 24.5464 32.8337 24.6613 32.8337 24.8681Z" fill="white"/>
<path d="M30.6019 49.5356C31.0218 49.5356 31.3622 49.2045 31.3622 48.7959C31.3622 48.3874 31.0218 48.0562 30.6019 48.0562C30.182 48.0562 29.8416 48.3874 29.8416 48.7959C29.8416 49.2045 30.182 49.5356 30.6019 49.5356Z" fill="white"/>
<path d="M41.6778 48.7959C41.6778 49.2045 41.3374 49.5356 40.9175 49.5356C40.4976 49.5356 40.1572 49.2045 40.1572 48.7959C40.1572 48.3874 40.4976 48.0562 40.9175 48.0562C41.3374 48.0562 41.6778 48.3874 41.6778 48.7959Z" fill="white"/>
<path d="M31.192 54.4108C31.6119 54.4108 31.9523 54.0796 31.9523 53.6711C31.9523 53.2625 31.6119 52.9313 31.192 52.9313C30.7721 52.9313 30.4317 53.2625 30.4317 53.6711C30.4317 54.0796 30.7721 54.4108 31.192 54.4108Z" fill="white"/>
<path d="M40.2838 54.4108C40.7037 54.4108 41.0441 54.0796 41.0441 53.6711C41.0441 53.2625 40.7037 52.9313 40.2838 52.9313C39.8639 52.9313 39.5235 53.2625 39.5235 53.6711C39.5235 54.0796 39.8639 54.4108 40.2838 54.4108Z" fill="white"/>
<path d="M34.9618 56.0453C34.9618 56.4539 35.3022 56.785 35.7221 56.785C36.142 56.785 36.4824 56.4539 36.4824 56.0453C36.4824 55.6368 36.142 55.3056 35.7221 55.3056C35.3022 55.3056 34.9618 55.6368 34.9618 56.0453Z" fill="white"/>
<path fill-rule="evenodd" clip-rule="evenodd" d="M44.5641 56.0454C45.051 55.2334 45.3494 54.329 45.4384 53.3949C45.5245 52.4398 45.4384 51.4431 45.18 50.4049C44.8997 49.2838 44.4679 48.2358 44.0392 47.1955L44.0387 47.1944C43.9079 46.8768 43.7772 46.5596 43.6514 46.2416C43.1633 44.9819 42.8153 43.7153 42.6071 42.4418C42.3918 41.0298 42.4349 39.4621 43.1454 38.237C43.1514 38.2293 43.155 38.2201 43.1559 38.2105C43.1568 38.2009 43.1549 38.1913 43.1505 38.1827C43.146 38.174 43.1391 38.1668 43.1306 38.1617C43.1221 38.1567 43.1123 38.154 43.1023 38.154H39.631C39.0948 38.5914 38.2209 39.0103 37.5 39.1015C37.4089 39.1454 37.3822 39.1635 37.4301 39.1837C38.0874 39.4603 38.6607 39.8949 39.0948 40.4464C39.5409 41.0131 39.8243 41.6832 39.9165 42.3892C40.0086 43.0951 39.9062 43.812 39.6196 44.4677C39.333 45.1233 38.8723 45.6946 38.2839 46.1239C37.6955 46.5531 37.0002 46.8253 36.268 46.9129C35.5358 47.0006 34.7926 46.9006 34.1132 46.6231C33.4339 46.3455 32.8424 45.9002 32.3983 45.332C31.9541 44.7639 31.6731 44.0928 31.5835 43.3866C31.3537 41.5636 32.3397 39.9067 34.0697 39.1837L34.0809 39.1791C34.1334 39.1579 34.2235 39.1215 34.1032 39.0634C33.3554 38.9634 32.771 38.6507 32.148 38.154H28.4077C28.3969 38.1516 28.3855 38.1526 28.3752 38.1567C28.3649 38.1609 28.3562 38.168 28.3503 38.1771C28.3444 38.1862 28.3416 38.1969 28.3422 38.2076C28.3429 38.2184 28.347 38.2286 28.3539 38.237C28.7056 38.8669 28.903 39.5694 28.946 40.3446C28.9963 41.1683 28.9711 41.8846 28.8707 42.4937C28.5417 44.5656 27.7907 46.401 26.9738 48.3973L26.8576 48.6814C26.5418 49.4428 26.3013 50.3011 26.1363 51.2562C25.8265 52.7067 26.0139 54.215 26.6702 55.5538C27.3265 56.8927 28.4161 57.9897 29.7749 58.6794C30.6146 59.1501 31.6373 59.6692 32.843 60.2367C33.8442 60.7143 34.953 61.3061 35.7066 62.1367C35.7353 62.1644 35.7604 62.1644 35.782 62.1367C36.3956 61.4515 37.2353 60.9324 38.0965 60.5171C38.3338 60.4018 38.5712 60.288 38.808 60.1745C40.1284 59.5414 41.4312 58.9167 42.6179 58.098C43.4131 57.5578 44.0771 56.8574 44.5641 56.0454ZM31.9373 47.5097C32.2967 47.8562 32.4986 48.3263 32.4986 48.8164C32.4986 49.3065 32.2967 49.7766 31.9373 50.1232C31.5779 50.4697 31.0905 50.6644 30.5823 50.6644C30.0741 50.6644 29.5867 50.4697 29.2274 50.1232C28.868 49.7766 28.6661 49.3065 28.6661 48.8164C28.6661 48.3263 28.868 47.8562 29.2274 47.5097C29.5867 47.1631 30.0741 46.9684 30.5823 46.9684C31.0905 46.9684 31.5779 47.1631 31.9373 47.5097ZM42.2504 47.5097C42.6098 47.8562 42.8117 48.3263 42.8117 48.8164C42.8117 49.3065 42.6098 49.7766 42.2504 50.1232C41.8911 50.4697 41.4037 50.6644 40.8955 50.6644C40.3872 50.6644 39.8998 50.4697 39.5405 50.1232C39.1811 49.7766 38.9792 49.3065 38.9792 48.8164C38.9792 48.3263 39.1811 47.8562 39.5405 47.5097C39.8998 47.1631 40.3872 46.9684 40.8955 46.9684C41.4037 46.9684 41.8911 47.1631 42.2504 47.5097ZM32.5725 52.3477C32.9318 52.6943 33.1337 53.1644 33.1337 53.6545H33.1445C33.1445 53.898 33.0946 54.1392 32.9976 54.3641C32.9006 54.589 32.7585 54.7932 32.5794 54.9649C32.4003 55.1367 32.1878 55.2726 31.9541 55.3648C31.7204 55.4571 31.47 55.5039 31.2175 55.5025C30.7093 55.5025 30.2219 55.3078 29.8625 54.9612C29.5032 54.6147 29.3013 54.1446 29.3013 53.6545C29.3013 53.1644 29.5032 52.6943 29.8625 52.3477C30.2219 52.0012 30.7093 51.8065 31.2175 51.8065C31.7257 51.8065 32.2131 52.0012 32.5725 52.3477ZM41.626 52.3477C41.9854 52.6943 42.1873 53.1644 42.1873 53.6545C42.1873 54.1446 41.9854 54.6147 41.626 54.9612C41.2667 55.3078 40.7793 55.5025 40.2711 55.5025C39.7629 55.5025 39.2755 55.3078 38.9161 54.9612C38.5567 54.6147 38.3549 54.1446 38.3549 53.6545C38.3549 53.1644 38.5567 52.6943 38.9161 52.3477C39.2755 52.0012 39.7629 51.8065 40.2711 51.8065C40.7793 51.8065 41.2667 52.0012 41.626 52.3477ZM37.1046 54.7045C37.464 55.051 37.6659 55.5211 37.6659 56.0112V56.0216C37.6673 56.2652 37.6188 56.5066 37.5231 56.732C37.4274 56.9574 37.2865 57.1624 37.1084 57.3351C36.9304 57.5078 36.7187 57.6448 36.4855 57.7383C36.2523 57.8319 36.0022 57.88 35.7497 57.88C35.4944 57.8828 35.2411 57.8363 35.0047 57.7434C34.7683 57.6505 34.5536 57.5129 34.373 57.3389C34.1925 57.1648 34.0499 56.9576 33.9535 56.7297C33.8572 56.5017 33.809 56.2574 33.8119 56.0112C33.8119 55.7668 33.8622 55.5248 33.9598 55.2992C34.0574 55.0736 34.2005 54.869 34.3807 54.6971C34.561 54.5252 34.7748 54.3895 35.0097 54.2979C35.2447 54.2062 35.4962 54.1605 35.7497 54.1632C36.2579 54.1632 36.7453 54.3579 37.1046 54.7045Z" fill="white"/>
<path fill-rule="evenodd" clip-rule="evenodd" d="M45.28 40.6084C44.9884 40.1734 44.9024 39.5618 45.0437 39.0576C45.1148 38.804 45.1637 38.5534 45.179 38.3782C45.1976 38.1662 45.1819 37.951 45.1311 37.7414L57.0056 22.9958L58.6269 18.1935C58.7688 17.7731 59.052 17.4113 59.4308 17.1663L64.3854 13.9623C64.4856 13.8975 64.5997 13.9125 64.6793 13.9715C64.719 14.001 64.7501 14.0415 64.7666 14.0884C64.7832 14.1354 64.7851 14.189 64.7664 14.2446L62.9097 19.7436C62.7677 20.164 62.4846 20.5258 62.1057 20.7708L57.8889 23.4977L54.3887 27.8443C55.5521 28.7925 55.5507 30.3286 55.549 32.0369C55.5463 34.8658 55.5432 38.167 60.8282 40.0532C61.2309 40.1969 61.3224 40.742 60.9835 40.9978C57.1405 43.899 53.0098 49.3383 51.9713 50.7446C51.8272 50.9398 51.5524 51.0057 51.3313 50.8985C46.6866 48.6455 46.4042 46.0682 46.151 43.7578C46.0262 42.6197 45.9086 41.5463 45.28 40.6084ZM52.0199 35.9316C52.2999 35.9316 52.5268 35.7108 52.5268 35.4385C52.5268 35.1661 52.2999 34.9453 52.0199 34.9453C51.74 34.9453 51.5131 35.1661 51.5131 35.4385C51.5131 35.7108 51.74 35.9316 52.0199 35.9316ZM51.536 40.4799L47.865 41.3727C47.8462 41.3808 47.8249 41.3822 47.8052 41.3764C47.7854 41.3707 47.7685 41.3584 47.7574 41.3416C47.7358 41.2932 47.743 41.2516 47.7789 41.217C48.0875 40.8986 48.4607 40.5387 48.8985 40.1373C48.9136 40.1218 48.9221 40.1014 48.9221 40.0802C48.9221 40.0589 48.9136 40.0385 48.8985 40.0231L47.7789 38.9537C47.7502 38.926 47.7466 38.888 47.7681 38.8395C47.7775 38.8177 47.7944 38.7996 47.816 38.7883C47.8375 38.7769 47.8624 38.773 47.8865 38.7772L51.5575 39.6805C51.5934 39.6874 51.6041 39.677 51.5898 39.6493L50.664 36.1194C50.6611 36.1057 50.6611 36.0916 50.664 36.0779C50.6999 35.9533 50.7357 35.9083 50.7716 35.9429L51.9773 37.0849C51.9867 37.0917 51.998 37.0953 52.0096 37.0953C52.0213 37.0953 52.0326 37.0917 52.0419 37.0849L53.1508 36.0156C53.1866 35.974 53.2333 35.9637 53.2907 35.9844C53.3156 35.9938 53.3359 36.0117 53.3479 36.0347C53.3598 36.0577 53.3625 36.0842 53.3553 36.109C53.0108 37.2787 52.695 38.4519 52.408 39.6286C52.4008 39.6701 52.4187 39.6839 52.4618 39.6701L56.1435 38.7772C56.1578 38.7731 56.1729 38.7719 56.1877 38.7737C56.2025 38.7755 56.2168 38.7802 56.2296 38.7876C56.2799 38.8291 56.2978 38.8637 56.2834 38.8914L56.2512 38.9226L55.0993 40.0438C55.0947 40.0477 55.091 40.0525 55.0885 40.0579C55.086 40.0633 55.0847 40.0691 55.0847 40.075L55.0849 40.079L55.0859 40.0848C55.0865 40.0873 55.0874 40.0897 55.0885 40.0921C55.091 40.0974 55.0947 40.1022 55.0993 40.1061L56.2404 41.1962C56.2691 41.2309 56.2691 41.2689 56.2404 41.3105C56.2298 41.3285 56.214 41.343 56.1948 41.3523C56.1756 41.3615 56.154 41.365 56.1327 41.3624L52.4402 40.4695C52.4362 40.469 52.4321 40.4695 52.4284 40.4711C52.4247 40.4727 52.4216 40.4753 52.4193 40.4785L52.4186 40.4797L52.417 40.483L52.416 40.4867L52.4157 40.4895C52.4156 40.4918 52.416 40.494 52.4167 40.4962L52.4187 40.5006C52.7058 41.6911 53.0108 42.8539 53.3338 43.989C53.384 44.169 53.323 44.214 53.1508 44.124C53.1005 44.0963 53.0467 44.0513 52.9893 43.989C52.6735 43.6637 52.3541 43.3592 52.0312 43.0754C52.0218 43.0687 52.0105 43.065 51.9989 43.065C51.9872 43.065 51.9759 43.0687 51.9666 43.0754L50.9439 44.0513C50.7142 44.2659 50.6209 44.2244 50.664 43.9268C50.6812 43.8103 50.7292 43.6909 50.7783 43.5686C50.8212 43.4618 50.865 43.3528 50.89 43.2415C51.1269 42.2794 51.3565 41.3762 51.579 40.5318C51.5934 40.4903 51.579 40.473 51.536 40.4799ZM50.4993 38.0453C50.4993 38.3177 50.2724 38.5385 49.9925 38.5385C49.7125 38.5385 49.4856 38.3177 49.4856 38.0453C49.4856 37.773 49.7125 37.5522 49.9925 37.5522C50.2724 37.5522 50.4993 37.773 50.4993 38.0453ZM54.0474 38.5385C54.3273 38.5385 54.5542 38.3177 54.5542 38.0453C54.5542 37.773 54.3273 37.5522 54.0474 37.5522C53.7675 37.5522 53.5405 37.773 53.5405 38.0453C53.5405 38.3177 53.7675 38.5385 54.0474 38.5385ZM50.4993 41.9905C50.4993 42.2629 50.2724 42.4837 49.9925 42.4837C49.7125 42.4837 49.4856 42.2629 49.4856 41.9905C49.4856 41.7182 49.7125 41.4974 49.9925 41.4974C50.2724 41.4974 50.4993 41.7182 50.4993 41.9905ZM54.0474 42.4837C54.3273 42.4837 54.5542 42.2629 54.5542 41.9905C54.5542 41.7182 54.3273 41.4974 54.0474 41.4974C53.7675 41.4974 53.5405 41.7182 53.5405 41.9905C53.5405 42.2629 53.7675 42.4837 54.0474 42.4837ZM52.5268 44.6793C52.5268 44.9517 52.2999 45.1725 52.0199 45.1725C51.74 45.1725 51.5131 44.9517 51.5131 44.6793C51.5131 44.407 51.74 44.1862 52.0199 44.1862C52.2999 44.1862 52.5268 44.407 52.5268 44.6793ZM62.9124 16.0856C62.9998 16.0316 63.1021 16.1288 63.0526 16.2188L61.8521 19.3539C61.7374 19.5626 61.5864 19.7492 61.4061 19.9048L58.614 21.7089C58.5362 21.776 58.42 21.6964 58.4544 21.5996L59.362 19.0519C59.5908 18.4094 60.0317 17.8642 60.612 17.5059L62.9124 16.0856Z" fill="white"/>
<path fill-rule="evenodd" clip-rule="evenodd" d="M26.594 39.2127C26.3559 38.715 26.259 38.1932 26.3887 37.6888L14.5487 22.9956L14.058 21.5422L14.0648 21.5401L13.8909 21.0252L13.8845 21.0285L12.9273 18.1934C12.7853 17.773 12.5022 17.4112 12.1234 17.1662L7.16883 13.9622C7.01184 13.8607 6.82082 13.9551 6.7816 14.1077C6.77412 14.1462 6.77624 14.1881 6.79079 14.2311L8.64743 19.7302C8.78939 20.1507 9.07253 20.5124 9.45134 20.7574L13.6682 23.4843L17.2403 27.9202C16.1688 28.8733 16.1703 30.3724 16.1719 32.0345C16.1746 34.8634 16.1777 38.1646 10.8927 40.0508C10.49 40.1945 10.3985 40.7396 10.7374 40.9954C14.5804 43.8966 18.7111 49.3359 19.7496 50.7422C19.8937 50.9374 20.1685 51.0033 20.3895 50.8961C25.0343 48.6431 25.3167 46.0658 25.5699 43.7554C25.6873 42.6851 25.7983 41.6721 26.3338 40.7752C26.6241 40.289 26.8627 39.7113 26.594 39.2127ZM19.7019 35.9316C19.422 35.9316 19.1951 35.7108 19.1951 35.4385C19.1951 35.1661 19.422 34.9453 19.7019 34.9453C19.9819 34.9453 20.2088 35.1661 20.2088 35.4385C20.2088 35.7108 19.9819 35.9316 19.7019 35.9316ZM20.1859 40.4799L23.8568 41.3727C23.8757 41.3808 23.8969 41.3822 23.9167 41.3764C23.9364 41.3707 23.9534 41.3584 23.9645 41.3416C23.986 41.2932 23.9789 41.2516 23.943 41.217C23.6344 40.8986 23.2612 40.5387 22.8234 40.1373C22.8082 40.1218 22.7998 40.1014 22.7998 40.0802C22.7998 40.0589 22.8082 40.0385 22.8234 40.0231L23.943 38.9537C23.9717 38.926 23.9753 38.888 23.9537 38.8395C23.9443 38.8177 23.9274 38.7996 23.9059 38.7883C23.8844 38.7769 23.8595 38.773 23.8353 38.7772L20.1644 39.6805C20.1285 39.6874 20.1177 39.677 20.1321 39.6493L21.0579 36.1194C21.0608 36.1057 21.0608 36.0916 21.0579 36.0779C21.022 35.9533 20.9861 35.9083 20.9502 35.9429L19.7445 37.0849C19.7352 37.0917 19.7239 37.0953 19.7122 37.0953C19.7006 37.0953 19.6892 37.0917 19.6799 37.0849L18.5711 36.0156C18.5352 35.974 18.4886 35.9637 18.4312 35.9844C18.4063 35.9938 18.3859 36.0117 18.374 36.0347C18.362 36.0577 18.3594 36.0842 18.3666 36.109C18.7111 37.2787 19.0268 38.4519 19.3139 39.6286C19.3211 39.6701 19.3031 39.6839 19.2601 39.6701L15.5784 38.7772C15.564 38.7731 15.549 38.7719 15.5342 38.7737C15.5193 38.7755 15.5051 38.7802 15.4922 38.7876C15.442 38.8291 15.4241 38.8637 15.4384 38.8914L15.4707 38.9226L16.6226 40.0438C16.6272 40.0477 16.6308 40.0525 16.6334 40.0579C16.6359 40.0633 16.6372 40.0691 16.6372 40.075C16.6372 40.0809 16.6359 40.0867 16.6334 40.0921C16.6308 40.0974 16.6272 40.1022 16.6226 40.1061L15.4815 41.1962C15.4528 41.2309 15.4528 41.2689 15.4815 41.3105C15.492 41.3285 15.5079 41.343 15.5271 41.3523C15.5463 41.3615 15.5679 41.365 15.5891 41.3624L19.2816 40.4695L19.2847 40.4693L19.2882 40.4696L19.2934 40.4711C19.2971 40.4727 19.3003 40.4753 19.3025 40.4785C19.3048 40.4818 19.306 40.4856 19.3061 40.4895L19.3055 40.4952L19.3031 40.5006C19.0161 41.6911 18.7111 42.8539 18.3881 43.989C18.3379 44.169 18.3989 44.214 18.5711 44.124C18.6213 44.0963 18.6752 44.0513 18.7326 43.989C19.0484 43.6637 19.3677 43.3592 19.6907 43.0754C19.7 43.0687 19.7113 43.065 19.723 43.065C19.7346 43.065 19.746 43.0687 19.7553 43.0754L20.778 44.0513C21.0076 44.2659 21.1009 44.2244 21.0579 43.9268C21.0406 43.8103 20.9927 43.6909 20.9435 43.5686C20.9007 43.4618 20.8569 43.3528 20.8318 43.2415C20.595 42.2794 20.3653 41.3762 20.1428 40.5318C20.1285 40.4903 20.1428 40.473 20.1859 40.4799ZM21.2225 38.0453C21.2225 38.3177 21.4494 38.5385 21.7294 38.5385C22.0093 38.5385 22.2362 38.3177 22.2362 38.0453C22.2362 37.773 22.0093 37.5522 21.7294 37.5522C21.4494 37.5522 21.2225 37.773 21.2225 38.0453ZM17.6745 38.5385C17.3945 38.5385 17.1676 38.3177 17.1676 38.0453C17.1676 37.773 17.3945 37.5522 17.6745 37.5522C17.9544 37.5522 18.1813 37.773 18.1813 38.0453C18.1813 38.3177 17.9544 38.5385 17.6745 38.5385ZM21.2225 41.9905C21.2225 42.2629 21.4494 42.4837 21.7294 42.4837C22.0093 42.4837 22.2362 42.2629 22.2362 41.9905C22.2362 41.7182 22.0093 41.4974 21.7294 41.4974C21.4494 41.4974 21.2225 41.7182 21.2225 41.9905ZM17.6745 42.4837C17.3945 42.4837 17.1676 42.2629 17.1676 41.9905C17.1676 41.7182 17.3945 41.4974 17.6745 41.4974C17.9544 41.4974 18.1813 41.7182 18.1813 41.9905C18.1813 42.2629 17.9544 42.4837 17.6745 42.4837ZM19.1951 44.6793C19.1951 44.9517 19.422 45.1725 19.7019 45.1725C19.9819 45.1725 20.2088 44.9517 20.2088 44.6793C20.2088 44.407 19.9819 44.1862 19.7019 44.1862C19.422 44.1862 19.1951 44.407 19.1951 44.6793ZM8.50904 16.2188C8.45956 16.1288 8.56178 16.0316 8.64922 16.0856L10.9496 17.5059C11.5299 17.8642 11.9708 18.4094 12.1996 19.0519L13.1072 21.5996C13.1416 21.6964 13.0254 21.776 12.9477 21.7089L10.1111 19.8992C9.93083 19.7436 9.77978 19.557 9.66508 19.3483L8.50904 16.2188Z" fill="white"/>
<path d="M32.9675 41.1837L33.7277 40.5269L34.4878 41.1837L34.5085 41.204L34.5431 41.2372C34.7003 41.3867 34.9546 41.6287 34.9546 41.9939C34.9481 42.0772 34.9233 42.2486 34.8765 42.2673C34.8518 42.2872 34.8284 42.2455 34.7934 42.1834C34.7242 42.0603 34.6101 41.8573 34.353 41.8962C34.0981 41.9349 34.0119 42.1619 34.0132 42.2673C33.9876 42.4453 34.0532 42.819 34.2858 43.0281C34.3305 43.0683 34.3438 43.1372 34.3067 43.1845L33.8064 43.8231C33.7663 43.8742 33.689 43.8742 33.6489 43.8231L33.1486 43.1845C33.1115 43.1372 33.1249 43.0683 33.1695 43.0281C33.4021 42.819 33.4677 42.4453 33.4421 42.2673C33.4434 42.1619 33.3572 41.9349 33.1023 41.8962C32.8453 41.8573 32.7311 42.0603 32.6619 42.1834C32.627 42.2455 32.6035 42.2872 32.5789 42.2673C32.532 42.2486 32.5072 42.0772 32.5007 41.9939C32.5007 41.6287 32.7551 41.3867 32.9122 41.2372L32.9468 41.204L32.9675 41.1837Z" fill="white"/>
<path d="M34.9663 43.6118L35.7264 42.955L36.4866 43.6118L36.5073 43.6321L36.5419 43.6653C36.699 43.8148 36.9534 44.0568 36.9534 44.422C36.9469 44.5053 36.9221 44.6767 36.8752 44.6954C36.8506 44.7153 36.8271 44.6736 36.7922 44.6115C36.723 44.4884 36.6088 44.2854 36.3518 44.3243C36.0969 44.363 36.0107 44.59 36.012 44.6954C35.9864 44.8734 36.052 45.2471 36.2846 45.4562C36.3292 45.4964 36.3426 45.5653 36.3055 45.6126L35.8052 46.2512C35.7651 46.3023 35.6878 46.3023 35.6477 46.2512L35.1474 45.6126C35.1103 45.5653 35.1236 45.4964 35.1683 45.4562C35.4009 45.2471 35.4665 44.8734 35.4409 44.6954C35.4422 44.59 35.356 44.363 35.1011 44.3243C34.844 44.2854 34.7299 44.4884 34.6607 44.6115C34.6258 44.6736 34.6023 44.7153 34.5776 44.6954C34.5308 44.6767 34.506 44.5053 34.4995 44.422C34.4995 44.0568 34.7538 43.8148 34.911 43.6653L34.9456 43.6321L34.9663 43.6118Z" fill="white"/>
<path d="M38.4854 41.1837L37.7252 40.5269L36.9651 41.1837L36.9444 41.204L36.9097 41.2372C36.7526 41.3867 36.4983 41.6287 36.4983 41.9939C36.5048 42.0772 36.5295 42.2486 36.5764 42.2673C36.601 42.2872 36.6245 42.2455 36.6594 42.1834C36.7287 42.0603 36.8428 41.8573 37.0999 41.8962C37.3548 41.9349 37.441 42.1619 37.4397 42.2673C37.4653 42.4453 37.3997 42.819 37.1671 43.0281C37.1224 43.0683 37.1091 43.1372 37.1462 43.1845L37.6465 43.8231C37.6865 43.8742 37.7639 43.8742 37.8039 43.8231L38.3043 43.1845C38.3413 43.1372 38.328 43.0683 38.2833 43.0281C38.0508 42.819 37.9852 42.4453 38.0107 42.2673C38.0094 42.1619 38.0957 41.9349 38.3506 41.8962C38.6076 41.8573 38.7218 42.0603 38.791 42.1834C38.8259 42.2455 38.8494 42.2872 38.874 42.2673C38.9209 42.2486 38.9456 42.0772 38.9521 41.9939C38.9521 41.6287 38.6978 41.3867 38.5407 41.2372L38.506 41.204L38.4854 41.1837Z" fill="white"/>
</svg>
