<svg width="152" height="32" viewBox="0 0 152 32" fill="none" xmlns="http://www.w3.org/2000/svg">
<g clip-path="url(#clip0_2003_98)">
<path fill-rule="evenodd" clip-rule="evenodd" d="M142.257 9.1816H145.402L145.383 14.1416H146.066L147.862 9.1816H151.266L148.822 15.7344L151.618 22.988H147.935L146.124 17.436H145.383L145.402 22.988H142.257V9.1816ZM131.66 9.1816H134.786V14.16H137.025V9.1808H140.149V22.9872H137.025V17.4536H134.786V22.9872H131.66V9.1816ZM120.765 23.0056H124.02L124.41 20.6184H126.646L127.035 23.0056H130.29L127.553 9.2016H123.52L120.765 23.0056ZM125.536 13.3816L126.128 17.5832H124.925L125.536 13.3816ZM112.032 22.988H115.842C116.674 22.988 120.134 22.6352 120.153 18.452C120.153 14.94 117.472 14.328 115.732 14.328H115.159V12.4952H119.394V9.1824H112.032V22.988ZM115.159 20.2112V17.0848H115.622C116.01 17.0848 117.01 17.1024 117.01 18.5272C117.01 19.9728 116.01 20.2112 115.622 20.2112H115.159ZM99.6216 9.1816H102.341L104.743 12.4384L107.169 9.1816H109.87V22.988H106.666V14.5672L104.743 16.9728L102.822 14.5664V22.988H99.6216V9.1816ZM93.0168 23.1552C96.8088 23.1552 98.084 19.6 98.084 16.0672C98.084 12.5336 96.8088 8.9792 93.0168 8.9792C89.2256 8.9792 87.9496 12.5336 87.9496 16.0672C87.9496 19.6 89.2256 23.1552 93.0168 23.1552ZM93.0168 19.804C91.8864 19.804 91.316 18.492 91.316 16.0664C91.316 13.6416 91.8864 12.328 93.0168 12.328C94.1472 12.328 94.7176 13.6416 94.7176 16.0672C94.7176 18.492 94.1472 19.804 93.0168 19.804ZM78.6808 22.988H81.8808V18.436H82.9552C86.1168 18.436 87.0984 15.5848 87.0984 13.7688C87.0984 11.9936 85.968 9.1816 82.9552 9.1816H78.6808V22.988ZM81.8808 12.2168H82.64C83.3616 12.2168 83.8248 12.6608 83.8248 13.8088C83.8248 15.2888 83.0464 15.3984 82.64 15.3984H81.8808V12.2168ZM68.1192 9.1816H76.8496V22.988H73.6496V12.512H71.3192V22.9872H68.1192V9.1816ZM61.552 14.5312C62.0688 14.5312 63.0144 14.1976 63.0144 13.18C63.0144 11.9776 61.9232 11.9016 61.6064 11.9016C61.2384 11.9016 60.536 11.9592 59.8504 12.292L59.8136 9.292C60.9048 9.0152 61.6824 8.9408 62.6056 8.9408C65.2344 8.9408 66.3992 10.7744 66.3992 12.5672C66.3992 14.3088 65.3992 15.3608 64.42 15.7696V15.8984C65.364 16.1976 66.6208 17.1016 66.6208 19.212C66.6208 21.8232 64.8088 23.2648 62.4768 23.2648C61.2376 23.248 60.424 23.0808 59.4432 22.5448L59.4992 19.6744C60.4056 20.0648 61.016 20.1008 61.6272 20.1008C62.6632 20.1008 63.0688 19.3408 63.0688 18.788C63.0688 18.0096 62.5696 17.492 61.4792 17.492H60.1832V14.532H61.552V14.5312ZM48.976 22.988H52.212L52.62 20.5992H54.8576L55.2456 22.988H58.4816L55.744 9.1816H51.712L48.976 22.988ZM53.728 13.3464L54.3392 17.5656H53.1176L53.728 13.3464ZM42.7792 9.1816H49.3432V12.6232H46.0336V22.988H42.7792V9.1816ZM16.0104 0C7.1784 0 0 7.176 0 16.008C0 24.8232 7.1792 32 16.0104 32C24.8224 32 32 24.8232 32 16.008C32 7.176 24.8224 0 16.0104 0ZM16.0104 31.2C7.6232 31.2 0.8 24.3832 0.8 16.008C0.8 7.62 7.62 0.8 16.0104 0.8C24.384 0.8 31.2 7.6216 31.2 16.008C31.2 24.3816 24.3816 31.2 16.0104 31.2Z" fill="black" fill-opacity="0.15"/>
<path fill-rule="evenodd" clip-rule="evenodd" d="M9.43606 6.42967C13.3009 4.70967 18.0193 4.82167 20.5513 5.94967C21.3473 6.32007 21.8825 6.54407 22.1249 6.98567C19.4969 6.28167 18.3689 6.15447 16.1689 6.20807C13.0409 6.26407 8.87926 7.50247 7.28886 8.44887L6.58886 9.32007C8.87926 7.96487 13.1529 7.08007 15.5225 7.00487C18.1673 6.96887 20.2185 7.20967 22.1065 7.89367C21.9945 8.37367 21.7545 8.61527 21.3481 8.85687C13.8009 7.54167 9.34246 9.09527 5.30966 11.7233L5.01526 12.5921C9.51046 9.50407 15.0209 8.65367 20.3313 9.57767C18.4257 10.2441 16.1505 10.3921 14.2457 10.8329C12.6185 11.2041 11.7489 11.3161 9.58166 12.0393C7.38406 12.7609 6.08566 13.5009 5.27366 14.4449C4.88486 14.8905 4.58886 15.4073 4.51366 15.9609C4.47926 16.2929 4.49766 16.5913 4.60966 16.8889C4.69766 17.1473 4.90246 17.4057 5.12566 17.6649C4.86806 18.1081 4.64246 18.6841 5.01526 19.3505C5.18086 19.6625 5.60646 19.9769 6.01526 20.2761L5.90086 20.6065C5.84486 20.9977 5.79126 21.4585 6.05046 21.8465C6.49286 22.5497 7.02966 23.0137 7.88006 23.4577C8.01126 24.0321 8.21286 24.4929 8.65686 24.9025C9.60006 25.7705 11.7105 27.4361 15.4641 27.6961C18.2777 27.8825 20.2929 27.0297 21.0521 26.6593L21.9761 26.1793C20.4049 26.8065 17.7601 27.1777 15.5937 26.9921C12.4497 26.7329 9.64006 24.6801 9.28806 24.0865C9.39766 24.1585 9.54646 24.2153 9.67366 24.2721C13.3561 26.0481 18.1097 27.0113 24.1961 24.5313L24.6977 24.0497C19.1641 25.7697 14.3201 25.7161 9.12006 22.9953C9.17686 22.7369 9.28806 22.5113 9.52646 22.3305C10.8577 22.9185 12.1353 23.4025 13.6897 23.7161C15.5025 24.0497 17.5737 24.1249 19.2769 24.0497C20.9969 23.9761 24.3993 23.1249 26.0097 22.2737C26.1569 22.1449 26.2305 21.9241 26.3777 21.7745C23.2353 22.9185 19.4977 23.4577 17.2417 23.2897C15.0401 23.1249 13.0817 22.8641 10.4897 21.6809C10.9881 21.4785 11.5065 21.3113 12.0249 21.1609C13.7265 21.6809 15.4641 21.9929 17.5177 22.0873C19.5545 22.1801 24.3073 21.4233 27.3033 19.6097C27.3969 19.3505 27.4889 19.0705 27.4889 19.0705C27.4889 19.0705 23.3265 21.2945 18.6113 21.2945C16.4089 21.2945 15.0593 20.9777 14.0609 20.7377C16.2793 20.3297 19.0737 19.9961 22.2161 19.2017C23.8065 18.7937 25.7681 17.8673 26.6561 17.0913C27.4145 16.4049 28.0073 15.5161 27.8049 14.6129C27.7649 14.3697 27.4329 13.7993 27.0257 13.5937C27.4145 13.0945 27.3777 12.6681 27.3233 12.3001C27.2849 12.0185 27.1553 11.7065 26.9913 11.4297C26.725 11.0643 26.3831 10.7606 25.9889 10.5393C26.0658 10.1508 26.0141 9.74779 25.8417 9.39127C25.4537 8.72487 24.7521 8.15287 23.5489 7.54167C23.4937 7.30007 23.3441 6.98567 23.0873 6.67207C21.5713 5.17287 19.0913 4.45127 17.0001 4.41367C16.8841 4.41107 16.7681 4.40973 16.6521 4.40967C14.2065 4.40967 12.2433 4.95927 11.0281 5.52647C10.3961 5.80007 9.91526 6.09767 9.43606 6.42967ZM23.3993 8.44887C23.9193 8.78247 24.5113 9.28247 24.5833 9.80087C24.0297 9.59447 23.4377 9.37687 22.8649 9.22727C23.0505 9.02327 23.3257 8.70887 23.3993 8.44887ZM20.6249 10.7625C21.2561 10.5201 21.6793 10.2633 22.0513 9.96567C22.8809 10.1865 23.6585 10.4657 24.2905 10.7417C24.1817 10.9041 23.5481 11.4897 23.3545 11.4897C23.3445 11.4903 23.3346 11.4884 23.3257 11.4841C22.4401 11.2417 21.6633 10.9457 20.6249 10.7625ZM25.6025 11.5017C26.1009 11.9273 26.2481 12.2233 26.0089 12.6865C25.6777 12.4465 25.3233 12.3161 24.9369 12.1313C25.1753 11.9457 25.3985 11.7441 25.6025 11.5017ZM10.2313 13.2057C12.5433 12.5177 15.2441 12.0033 17.6873 11.7065C19.3673 11.5017 20.2577 11.6889 21.8489 12.1137C17.7609 13.2049 13.7265 13.5545 9.87846 14.6849C6.77686 15.5865 5.95366 16.7217 5.94086 16.7217C4.56966 14.8337 9.32326 13.4849 10.2313 13.2057ZM12.4153 15.4801C15.8353 14.7401 19.0177 14.2785 20.3305 13.9457C21.9225 13.5545 23.0321 13.1865 23.8065 12.8177C23.8441 12.7617 25.1017 13.3713 25.2305 13.5169C24.8065 13.8705 24.2161 14.1681 23.5665 14.3873C21.6249 15.0913 18.0929 15.8305 16.2249 16.1129C14.3377 16.4257 12.7625 16.6649 10.6753 17.2177C9.47126 17.5353 8.65686 17.9049 8.06486 18.2945C7.62086 18.0345 7.36246 17.9617 6.95606 17.6273C8.39846 16.4049 11.3409 15.7209 12.4145 15.4801H12.4153ZM11.5601 18.4801C14.8161 17.6809 17.6857 17.5345 21.6441 16.4625C23.5481 15.9609 24.9361 15.4225 25.8065 14.7601C25.9345 14.6465 26.0633 14.5553 26.1945 14.4449C27.3409 16.2209 23.0313 17.5905 20.0881 18.2225C18.4601 18.5521 16.2033 18.9585 15.4633 19.0905C13.5433 19.4049 12.9105 19.5721 11.5793 19.9601C10.9137 19.7001 10.2473 19.4225 9.63926 19.1073C10.2473 18.8489 10.9137 18.6449 11.5593 18.4809L11.5601 18.4801ZM7.04806 19.0705C6.91846 19.1825 6.75126 19.2945 6.62246 19.4225C6.32806 19.2545 6.03046 18.8881 6.17766 18.5521C6.47366 18.7393 6.69526 18.8881 7.04806 19.0705ZM8.39766 19.7585C8.95286 20.0177 9.52566 20.2545 10.0617 20.4969C9.70118 20.6286 9.35489 20.7964 9.02806 20.9977C8.58652 20.7568 8.14861 20.5093 7.71446 20.2553C7.89926 20.0889 8.13846 19.9233 8.39766 19.7577V19.7585ZM8.17766 21.6993C8.04726 21.8849 7.95366 22.0313 7.90006 22.2185C7.43606 21.8289 7.21286 21.5145 7.23286 21.1617C7.54726 21.3657 7.86166 21.5313 8.17686 21.6993H8.17766Z" fill="black" fill-opacity="0.15"/>
</g>
<defs>
<clipPath id="clip0_2003_98">
<rect width="152" height="32" fill="white"/>
</clipPath>
</defs>
</svg>
