<svg width="36" height="36" viewBox="0 0 36 36" fill="none" xmlns="http://www.w3.org/2000/svg">
<path opacity="0.12" d="M22.5 3L24.2679 7.59663C24.691 8.69647 24.9025 9.24639 25.2314 9.70896C25.5229 10.1189 25.8811 10.4771 26.291 10.7686C26.7536 11.0975 27.3035 11.309 28.4034 11.7321L33 13.5L28.4034 15.2679C27.3035 15.691 26.7536 15.9025 26.291 16.2314C25.8811 16.5229 25.5229 16.8811 25.2314 17.291C24.9025 17.7536 24.691 18.3035 24.2679 19.4034L22.5 24L20.7321 19.4034C20.309 18.3035 20.0975 17.7536 19.7686 17.291C19.4771 16.8811 19.1189 16.5229 18.709 16.2314C18.2464 15.9025 17.6965 15.691 16.5966 15.2679L12 13.5L16.5966 11.7321C17.6965 11.309 18.2464 11.0975 18.709 10.7686C19.1189 10.4771 19.4771 10.1189 19.7686 9.70896C20.0975 9.24639 20.309 8.69647 20.7321 7.59663L22.5 3Z" fill="#E02D3C"/>
<path d="M9.75 19.5L10.9267 21.8534C11.3249 22.6498 11.524 23.0481 11.79 23.3932C12.0261 23.6994 12.3006 23.9739 12.6068 24.21C12.9519 24.476 13.3502 24.6751 14.1466 25.0733L16.5 26.25L14.1466 27.4267C13.3502 27.8249 12.9519 28.024 12.6068 28.29C12.3006 28.5261 12.0261 28.8006 11.79 29.1068C11.524 29.4519 11.3249 29.8502 10.9267 30.6466L9.75 33L8.57331 30.6466C8.17508 29.8502 7.97596 29.4519 7.70995 29.1068C7.47391 28.8006 7.19939 28.5261 6.89317 28.29C6.54808 28.024 6.14984 27.8249 5.35338 27.4267L3 26.25L5.35338 25.0733C6.14984 24.6751 6.54808 24.476 6.89317 24.21C7.19939 23.9739 7.47391 23.6994 7.70995 23.3932C7.97596 23.0481 8.17508 22.6498 8.57331 21.8534L9.75 19.5Z" stroke="#E02D3C" stroke-width="3" stroke-linecap="round" stroke-linejoin="round"/>
<path d="M22.5 3L24.2679 7.59663C24.691 8.69647 24.9025 9.24639 25.2314 9.70896C25.5229 10.1189 25.8811 10.4771 26.291 10.7686C26.7536 11.0975 27.3035 11.309 28.4034 11.7321L33 13.5L28.4034 15.2679C27.3035 15.691 26.7536 15.9025 26.291 16.2314C25.8811 16.5229 25.5229 16.8811 25.2314 17.291C24.9025 17.7536 24.691 18.3035 24.2679 19.4034L22.5 24L20.7321 19.4034C20.309 18.3035 20.0975 17.7536 19.7686 17.291C19.4771 16.8811 19.1189 16.5229 18.709 16.2314C18.2464 15.9025 17.6965 15.691 16.5966 15.2679L12 13.5L16.5966 11.7321C17.6965 11.309 18.2464 11.0975 18.709 10.7686C19.1189 10.4771 19.4771 10.1189 19.7686 9.70896C20.0975 9.24639 20.309 8.69647 20.7321 7.59663L22.5 3Z" stroke="#E02D3C" stroke-width="3" stroke-linecap="round" stroke-linejoin="round"/>
</svg>
