<svg width="144" height="40" viewBox="0 0 144 40" fill="none" xmlns="http://www.w3.org/2000/svg">
<path d="M25.7343 14.022V17.8728L23.7932 19.8386L33.3585 29.4856L29.5765 33.2859L20.0112 23.6489L10.4457 33.2759L6.66365 29.4756L16.2289 19.8386L14.2878 17.8928V14.0422L12.9071 12.6511V15.9877L11.7065 17.1973L6.87377 12.3285L5.68312 13.5281C5.69314 12.6208 5.87323 9.98979 8.08446 7.80229C10.4658 5.48379 13.0472 6.53217 13.9277 7.41923L18.7503 12.2781L17.5195 13.518L20.0112 16.028L22.5026 13.4978L21.2718 12.2579L26.0944 7.39907C26.975 6.51201 29.5563 5.46363 31.9376 7.78213C34.1488 9.96963 34.329 12.6006 34.339 13.5079L33.1485 12.3083L28.3156 17.1773L27.1149 15.9677V12.6309L25.7343 14.022Z" fill="black" fill-opacity="0.15"/>
<path fill-rule="evenodd" clip-rule="evenodd" d="M32.1283 40C36.9909 40 39.6926 37.2784 39.6926 32.3791V7.62091C39.6926 2.72175 36.9909 0 32.1382 0H7.56419C2.7015 0 0 2.72175 0 7.62091V32.3791C0 37.2784 2.7015 40 7.56419 40H32.1283ZM36.9544 37.241C37.9732 36.2146 38.59 34.6277 38.59 32.3791V7.62091C38.59 5.37241 37.9732 3.78523 36.9553 2.75866C35.9374 1.7322 34.3646 1.1111 32.1382 1.1111H7.56419C5.33223 1.1111 3.75699 1.73254 2.73813 2.75903C1.71931 3.78549 1.10257 5.3724 1.10257 7.62091V32.3791C1.10257 34.6277 1.71932 36.2146 2.73812 37.241C3.75697 38.2675 5.33222 38.8889 7.56419 38.8889H32.1283C34.3602 38.8889 35.9355 38.2675 36.9544 37.241Z" fill="black" fill-opacity="0.15"/>
<path fill-rule="evenodd" clip-rule="evenodd" d="M50.8084 6.40207C51.819 6.40207 52.9397 6.54319 53.8699 7.3698C54.8705 8.24679 55.0107 9.41614 55.0107 10.2226C55.0107 11.7044 54.4502 12.531 54.0101 12.9948C53.0796 13.9423 51.859 14.033 51.0386 14.033H49.3974V18.1561H46.706V6.40207H50.8084ZM49.3875 11.8153H50.3481C50.7182 11.8153 51.3587 11.7952 51.7988 11.3718C52.0389 11.1298 52.2393 10.7165 52.2393 10.2125C52.2393 9.71856 52.069 9.31533 51.7988 9.06334C51.3987 8.68027 50.8184 8.61979 50.2982 8.61979H49.3875V11.8153Z" fill="black" fill-opacity="0.15"/>
<path fill-rule="evenodd" clip-rule="evenodd" d="M53.9103 21.5224H46.6962V33.2762H50.6683C52.0893 33.2762 53.33 33.0846 54.1904 32.2178C54.8005 31.603 55.1309 30.7055 55.1309 29.6975C55.1309 28.4475 54.6107 27.6714 54.1904 27.2481C53.2096 26.2804 51.909 26.1594 50.8985 26.1594H49.3975V23.8104H53.9103V21.5224ZM51.909 30.7159C51.4887 31.0584 50.8284 31.0888 50.4583 31.0888V31.0988H49.3876V28.2762H50.4583C50.7384 28.2762 51.4186 28.2865 51.8389 28.5888C52.079 28.7601 52.3594 29.113 52.3594 29.6775C52.3594 30.2723 52.0492 30.5949 51.909 30.7159Z" fill="black" fill-opacity="0.15"/>
<path fill-rule="evenodd" clip-rule="evenodd" d="M64.9161 25.4139H62.3946V26.3009C61.6741 25.3132 60.6037 25.1519 59.9433 25.1519C58.8626 25.1519 57.9119 25.5451 57.2317 26.2306C56.5112 26.9564 56.0211 28.0854 56.0211 29.4058C56.0211 30.4441 56.3412 31.4725 57.1616 32.3493C58.022 33.2667 58.9625 33.5489 60.0832 33.5489C60.7336 33.5489 61.7141 33.3877 62.3946 32.3293V33.2767H64.9161V25.4139ZM58.6123 29.3354C58.6123 28.6296 58.9327 28.1661 59.1926 27.9038C59.523 27.5713 60.0233 27.3393 60.5636 27.3493C61.0236 27.3493 61.5841 27.5209 61.9644 27.8938C62.3344 28.2467 62.5447 28.7709 62.5447 29.3354C62.5447 30.0106 62.2643 30.5048 61.9343 30.817C61.604 31.1499 61.1337 31.3615 60.6235 31.3615C60.0233 31.3615 59.483 31.1196 59.1328 30.7467C58.9126 30.4945 58.6123 30.0409 58.6123 29.3354Z" fill="black" fill-opacity="0.15"/>
<path d="M66.4368 25.4134H68.9583V28.1453H71.7796V25.4134H74.3011V33.2763H71.7796V30.1918H68.9583V33.2763H66.4368V25.4134Z" fill="black" fill-opacity="0.15"/>
<path d="M78.3338 25.4134H75.8123V33.2763H78.3338V29.7885L80.9951 33.2763H84.247L80.675 29.0627L84.0168 25.4134H80.885L78.3338 28.5385V25.4134Z" fill="black" fill-opacity="0.15"/>
<path fill-rule="evenodd" clip-rule="evenodd" d="M64.1055 10.2926H61.5841V11.1797C60.8638 10.1918 59.7931 10.0305 59.1327 10.0305C58.0524 10.0305 57.1017 10.4236 56.4215 11.1091C55.7009 11.8349 55.2108 12.9639 55.2108 14.2845C55.2108 15.3228 55.5309 16.3512 56.3514 17.2279C57.2118 18.1453 58.1522 18.4276 59.2729 18.4276C59.9234 18.4276 60.9038 18.2663 61.5841 17.2079V18.1553H64.1055V10.2926ZM57.8021 14.2139C57.8021 13.5083 58.1222 13.0446 58.3824 12.7825C58.7127 12.4498 59.223 12.218 59.7531 12.2281C60.2134 12.2281 60.7739 12.3994 61.1538 12.7724C61.5242 13.1252 61.7342 13.6494 61.7342 14.2139C61.7342 14.8892 61.4541 15.3834 61.1241 15.6957C60.7937 16.0286 60.3235 16.2402 59.8133 16.2402C59.2127 16.2402 58.6727 15.9983 58.3225 15.6254C58.1023 15.3731 57.8021 14.9196 57.8021 14.2139Z" fill="black" fill-opacity="0.15"/>
<path d="M68.1478 10.2922V14.7881L71.4695 10.2922H73.8111V18.1551H71.2896V13.5886L67.9679 18.1551H65.6267V10.2922H68.1478Z" fill="black" fill-opacity="0.15"/>
<path d="M72.8905 7.11688C72.6805 7.75194 72.2602 8.29628 71.7698 8.61886C71.1097 9.06241 70.2992 9.11283 69.7189 9.11283C69.1386 9.11283 68.338 9.06241 67.6677 8.61886C67.1773 8.30638 66.7573 7.75194 66.547 7.11688L68.298 6.43136C68.3681 6.7842 68.538 7.06646 68.7483 7.23784C68.9785 7.42936 69.2685 7.55032 69.709 7.55032C70.1491 7.55032 70.4391 7.42936 70.6693 7.23784C70.8796 7.06646 71.0496 6.7842 71.1197 6.43136L72.8905 7.11688Z" fill="black" fill-opacity="0.15"/>
<path fill-rule="evenodd" clip-rule="evenodd" d="M79.3835 18.277V22.0773H81.9251V18.277H82.025C83.7961 18.277 84.7766 17.5412 85.227 17.0977C85.7871 16.5432 86.3476 15.6158 86.3476 14.1843C86.3476 12.6319 85.6473 11.644 84.9968 11.1198C84.2263 10.5048 83.0656 10.1722 82.0352 10.1722H81.9152V6.40207H79.3938V10.1722H79.2737C78.2331 10.1722 77.0823 10.5048 76.3118 11.1198C75.6617 11.644 74.9613 12.6319 74.9613 14.1843C74.9613 15.6158 75.5215 16.5532 76.082 17.0977C76.532 17.5412 77.5125 18.277 79.2836 18.277H79.3835ZM77.9328 12.7629C78.2929 12.3899 78.9133 12.1883 79.5039 12.2185V16.2306C78.8633 16.2509 78.2632 16.009 77.9328 15.6358C77.6326 15.3235 77.4226 14.8093 77.4226 14.1943C77.4226 13.5693 77.6326 13.0653 77.9328 12.7629ZM83.356 15.6461C83.0256 16.009 82.4354 16.2609 81.7849 16.2406V12.2286C82.3752 12.1883 82.9856 12.4 83.356 12.773C83.6559 13.0754 83.8662 13.5895 83.8662 14.2044C83.8662 14.8193 83.6559 15.3335 83.356 15.6461Z" fill="black" fill-opacity="0.15"/>
<path fill-rule="evenodd" clip-rule="evenodd" d="M91.5106 22.0773V18.277H91.4108C89.6396 18.277 88.6592 17.5412 88.2088 17.0977C87.6486 16.5532 87.0881 15.6158 87.0881 14.1843C87.0881 12.6319 87.7885 11.644 88.4389 11.1198C89.2094 10.5048 90.3602 10.1722 91.4005 10.1722H91.5206V6.40207H94.042V10.1722H94.162C95.1928 10.1722 96.3534 10.5048 97.1239 11.1198C97.7741 11.644 98.4745 12.6319 98.4745 14.1843C98.4745 15.6158 97.9143 16.5432 97.3541 17.0977C96.9037 17.5412 95.9232 18.277 94.1521 18.277H94.0522V22.0773H91.5106ZM91.6307 12.2185C91.0404 12.1883 90.42 12.3899 90.0599 12.7629C89.7597 13.0653 89.5497 13.5693 89.5497 14.1943C89.5497 14.8093 89.7597 15.3235 90.0599 15.6358C90.39 16.009 90.9905 16.2509 91.6307 16.2306V12.2185ZM93.912 16.2406C94.5625 16.2609 95.1528 16.009 95.4828 15.6461C95.783 15.3335 95.9933 14.8193 95.9933 14.2044C95.9933 13.5895 95.783 13.0754 95.4828 12.773C95.1127 12.4 94.5023 12.1883 93.912 12.2286V16.2406Z" fill="black" fill-opacity="0.15"/>
<path fill-rule="evenodd" clip-rule="evenodd" d="M108.1 10.2926H105.579V11.1797C104.858 10.1918 103.788 10.0305 103.127 10.0305C102.047 10.0305 101.096 10.4236 100.416 11.1091C99.6956 11.8349 99.2052 12.9639 99.2052 14.2845C99.2052 15.3228 99.5253 16.3512 100.346 17.2279C101.206 18.1453 102.147 18.4276 103.267 18.4276C103.918 18.4276 104.898 18.2663 105.579 17.2079V18.1553H108.1V10.2926ZM101.797 14.2139C101.797 13.5083 102.117 13.0446 102.377 12.7825C102.707 12.4498 103.217 12.218 103.748 12.2281C104.208 12.2281 104.768 12.3994 105.149 12.7724C105.519 13.1252 105.729 13.6494 105.729 14.2139C105.729 14.8892 105.449 15.3834 105.118 15.6957C104.788 16.0286 104.318 16.2402 103.808 16.2402C103.207 16.2402 102.667 15.9983 102.317 15.6254C102.097 15.3731 101.797 14.9196 101.797 14.2139Z" fill="black" fill-opacity="0.15"/>
<path d="M112.143 10.2922V14.7881L115.464 10.2922H117.806V18.1551H115.284V13.5886L111.962 18.1551H109.621V10.2922H112.143Z" fill="black" fill-opacity="0.15"/>
<path d="M116.885 7.11688C116.675 7.75194 116.255 8.29628 115.765 8.61886C115.104 9.06241 114.294 9.11283 113.713 9.11283C113.133 9.11283 112.333 9.06241 111.662 8.61886C111.172 8.30638 110.752 7.75194 110.542 7.11688L112.293 6.43136C112.363 6.7842 112.533 7.06646 112.743 7.23784C112.973 7.42936 113.263 7.55032 113.703 7.55032C114.144 7.55032 114.434 7.42936 114.664 7.23784C114.874 7.06646 115.044 6.7842 115.114 6.43136L116.885 7.11688Z" fill="black" fill-opacity="0.15"/>
<path d="M120.367 10.3128C119.947 10.4741 119.406 10.7563 119.076 10.968L120.057 12.6716C120.307 12.4599 120.567 12.2986 120.897 12.1575C121.227 12.0164 121.527 11.9458 121.928 11.9458C122.348 11.9458 122.598 12.0365 122.718 12.0869C123.028 12.228 123.098 12.4599 123.098 12.601C123.098 12.7522 123.028 12.9841 122.728 13.1252C122.488 13.2361 122.018 13.2664 121.787 13.2664H121.067V14.9902H122.008C122.288 14.9902 122.708 15.0405 122.918 15.1312C123.148 15.2321 123.288 15.3934 123.288 15.6554C123.288 15.827 123.238 16.0789 122.938 16.2502C122.688 16.3915 122.308 16.4418 122.028 16.4418C121.617 16.4418 121.147 16.3408 120.817 16.1999C120.507 16.0586 120.137 15.8067 119.856 15.5647L118.786 17.2383C118.996 17.4095 119.506 17.8024 120.187 18.0647C120.887 18.3266 121.617 18.4176 122.318 18.4176C123.618 18.4176 124.529 18.226 125.189 17.5708C125.7 17.0566 125.87 16.4721 125.87 15.9276C125.87 15.4238 125.73 15.0002 125.35 14.6273C125.239 14.5163 124.879 14.2039 124.299 14.0627C124.539 13.972 124.769 13.8107 124.959 13.6192C125.34 13.2159 125.43 12.7724 125.43 12.2785C125.43 11.7543 125.289 11.2603 124.849 10.8369C124.059 10.0607 122.628 10.0305 122.208 10.0305C121.608 10.0305 120.957 10.1011 120.367 10.3128Z" fill="black" fill-opacity="0.15"/>
<path fill-rule="evenodd" clip-rule="evenodd" d="M134.995 14.668H129.172C129.172 15.0912 129.332 15.6557 129.642 16.0086C130.022 16.4321 130.553 16.5025 130.932 16.5025C131.303 16.5025 131.683 16.4321 131.943 16.2709L131.946 16.2688C131.99 16.2397 132.279 16.0466 132.483 15.6154L134.865 15.8573C134.515 16.9663 133.814 17.5508 133.364 17.8331C132.614 18.287 131.773 18.4179 130.892 18.4179C129.722 18.4179 128.691 18.2063 127.781 17.2889C127.101 16.6034 126.61 15.5651 126.61 14.2546C126.61 13.1256 127.011 11.9663 127.801 11.1498C128.741 10.2022 129.922 10.0207 130.793 10.0207C131.663 10.0207 132.924 10.182 133.894 11.2002C134.825 12.1881 134.995 13.4179 134.995 14.3957V14.668ZM132.674 13.1558L132.67 13.1427C132.642 13.038 132.516 12.5743 132.163 12.2385C131.883 11.9764 131.483 11.7949 130.973 11.7949C130.322 11.7949 129.942 12.057 129.692 12.309C129.502 12.5207 129.322 12.803 129.252 13.1558H132.674Z" fill="black" fill-opacity="0.15"/>
<path d="M138.657 10.292H136.136V18.1548H138.657V15.0703H141.479V18.1548H144V10.292H141.479V13.0239H138.657V10.292Z" fill="black" fill-opacity="0.15"/>
</svg>
