<svg width="130" height="34" viewBox="0 0 130 34" fill="none" xmlns="http://www.w3.org/2000/svg">
<path fill-rule="evenodd" clip-rule="evenodd" d="M56.6293 2.11635L72.8257 0.000488281V5.46395L62.8946 6.3502L69.7605 10.9847C71.6825 12.2211 72.6828 14.3309 72.6828 17.4157C72.6828 22.7451 69.7263 25.2688 64.1219 25.2688C58.5177 25.2688 55.5758 22.7454 55.5758 17.4157C55.5758 14.2524 56.6252 12.1086 58.647 10.8902C59.3544 10.4628 60.059 10.164 61.5298 10.1462L60.7243 9.67636L56.6382 6.90852L56.6293 6.90932V2.11635ZM4.69228 11.9326C5.22513 11.2572 7.37435 9.62598 10.0187 9.62598C14.4199 9.62598 16.8468 11.9977 16.8468 17.3862C16.8468 22.7744 14.4166 25.1692 10.0038 25.1692C7.34465 25.1692 5.21028 23.5674 4.66288 22.8771V29.9996H0V9.97498H4.69228V11.9326ZM4.69555 17.3749C4.69555 20.2803 5.56997 21.2902 8.34827 21.2902V21.2836C11.1462 21.2836 11.9847 20.2951 11.9847 17.3749C11.9847 14.4546 11.1331 13.4596 8.34827 13.4596C5.56344 13.4596 4.69555 14.4694 4.69555 17.3749ZM23.3387 17.4561C23.3387 20.3648 24.2066 21.3714 26.9914 21.3714C29.7763 21.3714 30.6296 20.3601 30.6296 17.4561C30.6296 14.5522 29.7893 13.5408 26.9914 13.5408C24.1932 13.5408 23.3387 14.5326 23.3387 17.4561ZM18.4454 17.4136C18.4454 12.084 21.4069 9.64521 26.9914 9.64521C32.576 9.64521 35.5506 12.084 35.5506 17.4136C35.5506 22.7433 32.6086 25.2668 26.9914 25.2668C21.3742 25.2668 18.4454 22.743 18.4454 17.4136ZM45.6934 21.3722C47.8183 21.3722 48.7987 20.7978 49.1649 19.2595L54.0449 19.6346C53.2964 23.4471 50.4608 25.2741 45.6934 25.2741C40.0908 25.2741 37.1491 22.7506 37.1491 17.421C37.1491 12.0913 40.1089 9.65253 45.6934 9.65253C50.4641 9.65253 53.3291 11.442 54.0598 15.2919L49.1664 15.6623C48.7987 14.1143 47.8183 13.5416 45.6934 13.5416C42.9151 13.5416 42.0422 14.553 42.0422 17.4569C42.0422 20.3605 42.9151 21.3722 45.6934 21.3722ZM64.1219 21.3714C61.3436 21.3714 60.4692 20.36 60.4692 17.4561C60.4692 14.5521 61.337 13.5408 64.1219 13.5408C66.907 13.5408 67.76 14.5328 67.76 17.4561C67.76 20.3796 66.9216 21.3714 64.1219 21.3714ZM81.1395 25.1694C76.7235 25.1694 74.2962 22.7698 74.2962 17.3864C74.2962 12.0124 76.7217 9.62598 81.1232 9.62598C83.7658 9.62598 85.915 11.2574 86.4511 11.923V9.96538H91.1434V24.698H86.4787V22.8773C85.9313 23.5673 83.797 25.1694 81.1395 25.1694ZM82.7951 13.45C79.9954 13.45 79.1569 14.4417 79.1569 17.3653H79.1552C79.1552 20.274 80.0118 21.2806 82.7951 21.2806C85.5785 21.2806 86.446 20.2853 86.446 17.3653C86.446 14.445 85.5948 13.45 82.7951 13.45ZM104.767 9.98119V15.4184H98.5764V9.98119H93.8841V24.696H98.5764V19.1837H104.767V24.696H109.461V9.98119H104.767ZM121.895 16.9682L129.322 24.6943H123.289L116.82 17.9193V24.6943H112.212V9.98119H116.82V16.3727L123.118 9.98119H128.923L121.895 16.9682Z" fill="black" fill-opacity="0.15"/>
</svg>
