<svg width="36" height="36" viewBox="0 0 36 36" fill="none" xmlns="http://www.w3.org/2000/svg">
<path opacity="0.12" d="M22.8 3H13.2C10.6798 3 9.41965 3 8.45704 3.49047C7.61031 3.9219 6.9219 4.61031 6.49047 5.45704C6 6.41965 6 7.67976 6 10.2V25.8C6 28.3202 6 29.5804 6.49047 30.543C6.9219 31.3897 7.61031 32.0781 8.45704 32.5095C9.41965 33 10.6797 33 13.1999 33H18L30 18.75V10.2C30 7.67976 30 6.41965 29.5095 5.45704C29.0781 4.61031 28.3897 3.9219 27.543 3.49047C26.5804 3 25.3202 3 22.8 3Z" fill="#E02D3C"/>
<path d="M30 18.75V10.2C30 7.67976 30 6.41965 29.5095 5.45704C29.0781 4.61031 28.3897 3.9219 27.543 3.49047C26.5804 3 25.3202 3 22.8 3H13.2C10.6798 3 9.41965 3 8.45704 3.49047C7.61031 3.9219 6.9219 4.61031 6.49047 5.45704C6 6.41965 6 7.67976 6 10.2V25.8C6 28.3202 6 29.5804 6.49047 30.543C6.9219 31.3897 7.61031 32.0781 8.45704 32.5095C9.41965 33 10.6798 33 13.2 33H18M21 16.5H12M15 22.5H12M24 10.5H12M21.75 28.5L24.75 31.5L31.5 24.75" stroke="#E02D3C" stroke-width="3" stroke-linecap="round" stroke-linejoin="round"/>
</svg>
