<svg width="24" height="24" viewBox="0 0 24 24" fill="none" xmlns="http://www.w3.org/2000/svg">
<g clip-path="url(#clip0_565_27496)">
<path d="M12 21C16.9706 21 21 16.9706 21 12C21 7.02944 16.9706 3 12 3C7.02944 3 3 7.02944 3 12C3 16.9706 7.02944 21 12 21Z" fill="white"/>
<path fill-rule="evenodd" clip-rule="evenodd" d="M7.06855 11.9089C9.69209 10.7585 11.4458 10.0149 12.3297 9.65013C14.8269 8.61194 15.346 8.42956 15.6827 8.41553C15.7529 8.41553 15.9212 8.42956 16.0335 8.51373C16.1177 8.58388 16.1457 8.68209 16.1597 8.75224C16.1738 8.82239 16.1878 8.97671 16.1738 9.10298C16.0335 10.52 15.4583 13.9853 15.1496 15.5706C15.0233 16.2441 14.7708 16.4685 14.5323 16.4966C14.0132 16.5387 13.6064 16.1458 13.1013 15.8232C12.3156 15.3041 11.8667 14.9814 11.0951 14.4763C10.2112 13.8871 10.7864 13.5644 11.2915 13.0453C11.4177 12.905 13.7326 10.8146 13.7747 10.6182C13.7747 10.5901 13.7887 10.5059 13.7326 10.4639C13.6765 10.4218 13.6064 10.4358 13.5502 10.4498C13.4661 10.4639 12.2034 11.3056 9.74821 12.9611C9.38344 13.2137 9.06076 13.3259 8.76614 13.3259C8.44345 13.3259 7.82615 13.1435 7.36317 12.9892C6.80199 12.8068 6.35304 12.7086 6.39513 12.3999C6.42319 12.2456 6.64766 12.0773 7.06855 11.9089Z" fill="#262626"/>
</g>
<defs>
<clipPath id="clip0_565_27496">
<rect width="18" height="18" fill="white" transform="translate(3 3)"/>
</clipPath>
</defs>
</svg>
