<svg width="151" height="16" viewBox="0 0 151 16" fill="none" xmlns="http://www.w3.org/2000/svg">
<g clip-path="url(#clip0_2003_75)">
<path fill-rule="evenodd" clip-rule="evenodd" d="M119.627 1.88736V0.569336H115.306V1.88736C109.882 2.00209 106.634 4.20839 106.634 8.10515C106.634 12.0021 109.882 14.0364 115.306 14.1512V15.6282H119.627V14.1512C125.081 14.0364 128.236 11.9597 128.236 8.0627C128.236 4.16595 125.081 2.00209 119.627 1.88736ZM115.306 11.2285C112.325 11.1138 111.014 9.93903 111.014 8.10515C111.014 6.27145 112.325 4.95334 115.306 4.83879V11.2285ZM119.627 11.2285V4.83879C122.637 4.95334 123.871 6.27145 123.871 8.10515C123.871 9.93903 122.637 11.1138 119.627 11.2285ZM86.8182 8.14364C86.8182 4.07898 90.301 0.930334 96.1061 0.930334C101.883 0.930334 105.365 4.07898 105.365 8.14364C105.365 12.2083 101.883 15.357 96.1061 15.357C90.301 15.357 86.8182 12.2083 86.8182 8.14364ZM91.3732 8.14364C91.3732 10.3763 93.2185 12.0366 96.1061 12.0366C98.9652 12.0366 100.84 10.3763 100.84 8.14364C100.84 5.91098 98.9652 4.27945 96.1061 4.27945C93.2185 4.27945 91.3732 5.91098 91.3732 8.14364ZM0.00840266 1.30243H0V5.3203H0.00840266V5.36077H5.69542V14.9436L8.14161 14.9421L9.96896 14.9531V5.36077H15.6624V5.3203H15.6779L15.6624 3.73207V1.25383H15.6382H15.534H0.00840266V1.30243ZM21.4066 9.23145L28.8495 1.30243H32.6603V14.9276L28.4494 14.9423L28.4414 6.89046L28.3433 6.99879L20.9005 14.9276H17.0896V1.30243H21.4066V9.23145ZM39.8203 10.1099H46.9818V14.9276H51.2261V1.30243H46.9818V6.66204H39.8203V1.30243H35.599V14.9276H39.8203V10.1099ZM66.0023 14.6128C65.1686 14.8418 64.2755 14.9276 63.293 14.9276H54.0536V1.30243H58.3706V4.96642H63.293C64.3647 4.96642 65.4961 4.99503 66.4488 5.33846C68.4435 6.05414 69.6939 7.62854 69.6939 9.88981C69.6939 12.2656 68.2352 14.0118 66.0023 14.6128ZM62.5487 8.17244H58.3706V11.636H62.5487C63.293 11.636 63.7694 11.636 64.2457 11.4355C64.9304 11.1493 65.3474 10.5482 65.3474 9.83258C65.3474 9.14562 64.9304 8.5731 64.216 8.34411C63.7098 8.17244 63.1442 8.17244 62.5487 8.17244ZM75.4602 9.77517H76.3271L81.4773 14.9276H87.224L80.0492 7.82882L86.9564 1.30243H81.5371L76.3271 6.42628H75.4602V1.30243H71.1434V14.9276H75.4602V9.77517ZM142.39 0.569336V1.88661C147.844 2.00115 151 4.16501 151 8.06195C151 11.9587 147.844 14.0356 142.39 14.1502V15.6272H138.068V14.1502C132.644 14.0356 129.396 12.0011 129.396 8.10439C129.396 4.20755 132.644 2.00115 138.068 1.88661V0.569336H142.39ZM133.777 8.10439C133.777 9.93809 135.089 11.113 138.068 11.2276V4.83785C135.089 4.95239 133.777 6.27051 133.777 8.10439ZM142.39 4.83785V11.2276C145.4 11.113 146.633 9.93809 146.633 8.10439C146.633 6.27051 145.4 4.95239 142.39 4.83785Z" fill="black" fill-opacity="0.15"/>
</g>
<defs>
<clipPath id="clip0_2003_75">
<rect width="151" height="16" fill="white"/>
</clipPath>
</defs>
</svg>
