<svg width="211" height="28" viewBox="0 0 211 28" fill="none" xmlns="http://www.w3.org/2000/svg">
<path d="M10.786 3.3765C11.602 3.15024 13.8365 2.99867 15.6088 2.9264C16.4085 2.89359 17.1146 2.87695 17.5549 2.87695L17.6692 2.87693C17.9401 2.87685 18.292 2.87675 18.6694 2.87991C18.9895 2.88241 19.3276 2.88725 19.6499 2.89648L19.6166 2.86394C17.542 1.07866 14.8479 0.000488281 11.9056 0.000488281C5.34311 0.000488281 0.0244141 5.35835 0.0244141 11.9702C0.0244141 14.8755 1.05079 17.5376 2.75865 19.6115C4.25243 17.4466 7.93328 12.1205 8.74108 11.0319C9.75953 9.65966 12.2035 6.44496 12.2035 6.44496C12.2035 6.44496 12.2323 6.40897 12.408 6.14993C12.5906 5.88187 12.5142 5.68184 12.3921 5.57382C12.3146 5.50583 10.4723 4.38062 10.4723 4.38062C10.3393 4.29064 10.2509 4.13859 10.2509 3.96356C10.2509 3.68751 10.4147 3.48049 10.786 3.3765Z" fill="black" fill-opacity="0.15"/>
<path d="M14.8728 11.76C14.3574 12.214 13.8319 12.6692 13.3047 13.1198C10.6976 15.3485 8.04719 17.4633 6.35448 18.7446L6.24551 18.827C3.40352 20.9693 2.85059 21.2815 2.85059 21.2815C2.77514 21.3223 2.65007 21.3573 2.55774 21.3573C2.38392 21.3573 2.23198 21.2778 2.13688 21.1512C2.12288 21.1871 2.11847 21.2182 2.13108 21.2394C2.43583 21.7377 2.94106 22.3127 3.23589 22.3127C3.32724 22.3127 3.4533 22.2776 3.52874 22.2377C3.52874 22.2377 3.75208 22.1125 4.66136 21.4585C6.66656 23.0148 9.17798 23.9398 11.9059 23.9398C18.4673 23.9398 23.7861 18.5811 23.7861 11.97C23.7861 9.96887 23.2987 8.08352 22.438 6.42623L22.439 6.42722C22.848 6.03013 23.3195 5.40205 23.0098 4.61393C22.9125 4.37989 22.4509 3.8478 22.3318 3.71878L22.3487 3.76478C22.6375 4.64391 22.0658 5.19502 21.6548 5.56909C21.6254 5.59615 21.5482 5.66865 21.4284 5.7812C20.8323 6.34124 19.1808 7.89288 17.0986 9.7735C16.3976 10.4067 15.6477 11.0773 14.8728 11.76Z" fill="black" fill-opacity="0.15"/>
<path fill-rule="evenodd" clip-rule="evenodd" d="M42.0369 2.66377C38.0759 2.66377 35.5119 6.10432 35.1556 11.1089H31.1246V2.94682H31.0987C29.1381 2.94682 27.6094 4.51206 27.6094 6.43737V22.3008H27.6362C29.56 22.2847 31.1246 20.6996 31.1246 18.7323V13.6754H35.1556C35.4596 18.3724 38.0335 22.6068 42.0369 22.6068C46.6288 22.6068 49.0689 18.1323 49.0689 12.3143C49.0689 6.87345 46.4711 2.66377 42.0369 2.66377ZM42.0369 19.7594C39.9481 19.7594 38.5685 16.3198 38.5685 12.2884C38.5685 8.25864 40.0239 5.43621 42.0369 5.43621C44.0479 5.43621 45.5786 8.25864 45.5786 12.2884C45.5786 16.8519 44.2632 19.7594 42.0369 19.7594Z" fill="black" fill-opacity="0.15"/>
<path d="M58.1044 11.1845C58.1044 9.41448 59.6072 7.92407 61.3653 7.92407H61.5172V22.3002H58.1044V16.3283H53.5957V19.0398C53.5957 20.8111 52.0925 22.3002 50.3336 22.3002H50.1808V11.1845C50.1808 9.41448 51.6848 7.92407 53.4429 7.92407H53.5957V13.992H58.1044V11.1845Z" fill="black" fill-opacity="0.15"/>
<path d="M193.76 11.1845C193.76 9.41448 195.263 7.92407 197.021 7.92407H197.172V22.3002H193.76V16.3283H189.251V19.0398C189.251 20.8111 187.747 22.3002 185.991 22.3002H185.837V11.1845C185.837 9.41448 187.34 7.92407 189.098 7.92407H189.251V13.992H193.76V11.1845Z" fill="black" fill-opacity="0.15"/>
<path d="M70.7505 9.56727C71.5515 8.28524 72.5543 7.92407 73.6729 7.92407H75.3696V22.3002H75.2148C73.4575 22.3002 71.9555 20.8111 71.9555 19.0398V12.5868L67.2533 20.657C66.4366 21.9411 65.433 22.3002 64.3309 22.3002H62.8858V7.92407H66.2986V17.3714L70.7505 9.56727Z" fill="black" fill-opacity="0.15"/>
<path d="M142.31 7.92407C141.192 7.92407 140.186 8.28524 139.389 9.56727L134.936 17.3714V7.92407H131.522V22.3002H132.969C134.07 22.3002 135.073 21.9411 135.889 20.657L140.592 12.5868V19.0398C140.592 20.8111 142.095 22.3002 143.852 22.3002H144.004V7.92407H142.31Z" fill="black" fill-opacity="0.15"/>
<path d="M83.8111 11.5432C85.5194 12.2103 86.7005 13.4932 87.4908 15.2908L90.3012 22.2997H86.4337L83.9083 15.7249C83.2729 14.1863 81.9468 13.0043 80.1887 13.0043V18.912C80.1887 20.8625 78.7119 22.2997 76.7503 22.2997H76.6737V6.37119C76.6737 4.41989 78.151 2.98368 80.1133 2.98368H80.1887V11.4649L86.1281 2.94567H89.9585L83.8111 11.5432Z" fill="black" fill-opacity="0.15"/>
<path d="M155.006 7.92407H144.74V10.6726H148.193V22.3002H148.346C150.128 22.3002 151.553 20.8349 151.553 19.0649V10.6726H155.006V7.92407Z" fill="black" fill-opacity="0.15"/>
<path fill-rule="evenodd" clip-rule="evenodd" d="M128.019 7.92407L129.192 19.5801L130.46 20.092L130.34 23.5876C130.34 24.9466 129.248 26.0471 127.899 26.0471H127.719L127.591 22.3002H118.285L118.24 23.5876C118.24 24.9466 117.147 26.0471 115.801 26.0471H115.618L115.39 20.092C118.152 18.4266 118.875 14.522 119.333 11.4156L119.843 7.92407H128.019ZM122.339 12.6239C121.982 14.9573 121.227 17.9937 119.647 19.6818H126.033L125.218 10.5445H122.569L122.339 12.6239Z" fill="black" fill-opacity="0.15"/>
<path d="M208.259 17.7059C207.503 16.1978 206.605 15.0455 205.253 14.4813L210.308 7.92617H206.631L201.738 14.4043V7.92617H198.323V22.3007H198.476C200.234 22.3007 201.738 20.8123 201.738 19.0411V15.7674C203.163 15.7674 204.183 16.8336 204.744 18.091L206.796 22.3007H210.469L208.259 17.7059Z" fill="black" fill-opacity="0.15"/>
<path fill-rule="evenodd" clip-rule="evenodd" d="M164.192 10.463C164.677 10.3349 165.57 10.1908 166.41 10.1908C170.97 10.1908 173.534 12.9064 173.534 16.2027C173.534 20.0504 170.447 22.2998 166.309 22.2998H160.78V2.94672H171.645V2.99774C171.645 4.62797 170.334 5.94822 168.716 5.94822H164.192V10.463ZM164.192 19.9293L166.257 19.9334C168.576 19.9334 169.968 18.102 169.968 16.1277C169.968 14.2934 168.522 12.8112 166.053 12.8112C165.39 12.8112 164.626 12.9583 164.192 13.0612V19.9293Z" fill="black" fill-opacity="0.15"/>
<path fill-rule="evenodd" clip-rule="evenodd" d="M115.083 14.7271C115.083 10.4156 113.018 7.92407 109.299 7.92407C105.528 7.92407 103.236 10.7743 103.236 15.1653C103.236 19.681 105.707 22.5053 109.86 22.5053C112.151 22.5053 113.757 21.9403 114.623 21.4782V18.6296C113.757 19.2457 112.56 20.015 110.19 20.015C108.051 20.015 106.878 18.7836 106.599 16.4473L115.083 15.2674V14.7271ZM106.395 14.111C106.395 11.5696 107.286 10.2093 109.196 10.1595H109.325C110.267 10.1595 112.025 10.4663 112.127 13.3157L106.395 14.111Z" fill="black" fill-opacity="0.15"/>
<path fill-rule="evenodd" clip-rule="evenodd" d="M179.699 22.5053C175.93 22.5053 173.967 20.9152 173.967 18.2186C173.967 14.522 177.536 13.6502 181.788 13.2387V12.2886C181.788 10.4663 180.669 9.97828 179.037 9.97828C177.687 9.97828 176.339 10.4927 174.835 11.2887V9.00306C175.727 8.56817 177.406 7.92407 179.597 7.92407C182.477 7.92407 184.873 9.38812 184.873 12.9818V22.1194C183.929 22.2994 181.736 22.5053 180.413 22.5053H179.699ZM179.904 20.6821C180.617 20.6821 181.458 20.6319 181.788 20.5541V14.83C178.808 15.1121 177 15.7282 177 18.1156C177 19.8869 178.07 20.6821 179.904 20.6821Z" fill="black" fill-opacity="0.15"/>
<path fill-rule="evenodd" clip-rule="evenodd" d="M95.8604 7.92617C93.9264 7.92617 92.3195 8.25934 91.0716 8.92733L90.9954 8.97963V27.9996H91.1738C92.931 27.9996 94.3572 26.5372 94.3572 24.7651V22.2768C94.8419 22.4036 95.505 22.5066 96.2434 22.5066C99.9363 22.5066 102.357 19.5291 102.357 15.0624C102.357 10.6216 99.9115 7.92617 95.8604 7.92617ZM95.5556 20.2992C95.0713 20.2992 94.6879 20.2473 94.3572 20.1205V10.3399C94.79 10.1859 95.2229 10.1089 95.7838 10.1089C98.0015 10.1089 98.9693 11.7261 98.9693 15.1653C98.9693 17.4749 98.3837 20.2992 95.5556 20.2992Z" fill="black" fill-opacity="0.15"/>
</svg>
