<svg width="24" height="24" viewBox="0 0 24 24" fill="none" xmlns="http://www.w3.org/2000/svg">
<path fill-rule="evenodd" clip-rule="evenodd" d="M4.93821 6H2.75018C2.12503 6 2 6.29382 2 6.6189C2 7.19841 2.74143 10.0729 5.45396 13.8744C7.2619 16.4707 9.80939 17.8779 12.1274 17.8779C13.5184 17.8779 13.6903 17.5653 13.6903 17.027V15.0647C13.6903 14.4395 13.8216 14.3145 14.2623 14.3145C14.5874 14.3145 15.1438 14.4771 16.4416 15.7286C17.9251 17.2121 18.1695 17.8779 19.0041 17.8779H21.1921C21.8173 17.8779 22.1299 17.5653 21.9492 16.9483C21.7523 16.3337 21.044 15.4417 20.1038 14.3845C19.5936 13.7819 18.8284 13.1323 18.5971 12.8079C18.2721 12.3909 18.3658 12.2053 18.5971 11.8345C18.5971 11.8345 21.2628 8.07925 21.5416 6.80457C21.6804 6.34071 21.5416 6 20.8789 6H18.6915C18.1352 6 17.8788 6.29382 17.7401 6.6189C17.7401 6.6189 16.6273 9.33081 15.0513 11.0925C14.5412 11.6026 14.3092 11.7651 14.031 11.7651C13.8923 11.7651 13.691 11.6026 13.691 11.1394V6.80457C13.691 6.24819 13.529 6 13.0658 6H9.62747C9.27988 6 9.07108 6.25819 9.07108 6.50325C9.07108 7.03025 9.85877 7.15215 9.94004 8.63501V11.8577C9.94004 12.5641 9.81251 12.6922 9.5337 12.6922C8.79227 12.6922 6.98808 9.96783 5.91782 6.85083C5.70777 6.24381 5.4971 6 4.93821 6Z" fill="white"/>
</svg>
