<svg width="72" height="32" viewBox="0 0 72 32" fill="none" xmlns="http://www.w3.org/2000/svg">
<g clip-path="url(#clip0_2003_77)">
<path d="M4.90141 -0.790039L3.67529 2.61133H20.6665L21.8926 -0.790039H4.90141ZM3.06185 4.31124L1.83574 7.71181H18.827L20.0531 4.31124H3.06185ZM1.22612 9.41251L0 12.8132H16.9913L18.2166 9.41251H1.22612Z" fill="black" fill-opacity="0.15"/>
<path d="M36.1222 14.1091V14.1809C36.8987 14.4695 37.6404 14.9743 38.0291 15.2984C39.2297 16.3079 39.7598 17.6415 39.7598 19.3718C39.7598 22.2204 38.2763 24.2748 35.8394 24.9238C35.0977 25.1399 34.3212 25.2124 32.8724 25.2124H25.4922V4.37646H32.0256C33.3677 4.37646 34.2856 4.44823 35.0976 4.66432C37.4642 5.31337 39.0181 6.97187 39.0181 9.60278C39.0181 11.0089 38.5235 12.1991 37.7115 12.9916C37.3584 13.3521 36.8639 13.785 36.1222 14.1091ZM29.5887 16.3079V21.7873H32.4143C33.2611 21.7873 34.0384 21.7156 34.6039 21.1746C35.1688 20.6336 35.416 19.9491 35.416 19.0476C35.416 18.3631 35.239 17.714 34.8859 17.2456C34.2856 16.4885 33.5438 16.3079 32.2729 16.3079H29.5887ZM29.5531 12.7029H31.8487C32.5549 12.7029 32.908 12.7029 33.2611 12.5949C34.2153 12.3063 34.8156 11.4419 34.8156 10.2519C34.8156 8.84647 34.1797 8.23295 33.2611 7.94509C32.8724 7.83701 32.4846 7.80075 31.7073 7.80075H29.5531V12.7029ZM45.9046 25.2124V7.87251H40.007V4.37646H56.394L55.2288 7.87251H50.0011V25.2124H45.9046ZM57.665 25.2124V4.37646H70.9444L69.7792 7.87251H61.7268V12.4869H65.0113C67.6599 12.4869 69.0375 13.136 69.991 13.9648C70.7327 14.6139 72.0037 16.0555 72.0037 18.9041C72.0037 21.7156 70.6972 23.2653 69.6023 24.0587C68.3313 24.9593 66.9892 25.2124 64.2696 25.2124H57.665ZM61.7268 21.7156H64.7996C65.9647 21.7156 66.6709 21.427 67.1654 20.7779C67.4126 20.4538 67.7657 19.8765 67.7657 18.7953C67.7657 17.714 67.4126 16.9569 66.7065 16.4159C66.2831 16.0918 65.7175 15.912 64.764 15.912H61.7268V21.7156Z" fill="black" fill-opacity="0.15"/>
</g>
<defs>
<clipPath id="clip0_2003_77">
<rect width="72" height="32" fill="white"/>
</clipPath>
</defs>
</svg>
