<svg width="24" height="24" viewBox="0 0 24 24" fill="none" xmlns="http://www.w3.org/2000/svg">
<path fill-rule="evenodd" clip-rule="evenodd" d="M20.9438 6.05395C21.2534 6.37318 21.4733 6.76846 21.5813 7.19989C21.8697 8.79862 22.0097 10.4206 21.9995 12.0451C22.0052 13.6453 21.8653 15.2427 21.5813 16.8176C21.4733 17.249 21.2534 17.6443 20.9438 17.9635C20.6341 18.2827 20.2457 18.5146 19.8178 18.6357C18.2542 19.0538 12 19.0538 12 19.0538C12 19.0538 5.74578 19.0538 4.18222 18.6357C3.76299 18.5209 3.38043 18.3 3.0715 17.9943C2.76258 17.6886 2.53773 17.3083 2.41868 16.8903C2.1303 15.2916 1.99032 13.6696 2.00052 12.0451C1.99255 10.4327 2.13253 8.82303 2.41868 7.23625C2.52666 6.80482 2.74659 6.40954 3.05623 6.09031C3.36588 5.77109 3.75429 5.53923 4.18222 5.41816C5.74578 5 12 5 12 5C12 5 18.2542 5 19.8178 5.3818C20.2457 5.50287 20.6341 5.73473 20.9438 6.05395ZM14.9254 11.3271L10.9826 8.79239C10.5811 8.53429 10.3804 8.40525 10.2144 8.4171C10.0697 8.42744 9.93666 8.50008 9.84974 8.61618C9.75 8.74941 9.75 8.98805 9.75 9.46533V14.5347C9.75 15.012 9.75 15.2506 9.84974 15.3838C9.93666 15.4999 10.0697 15.5726 10.2144 15.5829C10.3804 15.5948 10.5811 15.4657 10.9826 15.2076L14.9254 12.6729C15.2738 12.449 15.448 12.337 15.5082 12.1946C15.5607 12.0702 15.5607 11.9298 15.5082 11.8054C15.448 11.663 15.2738 11.551 14.9254 11.3271Z" fill="white"/>
</svg>
