<svg width="22" height="23" viewBox="0 0 22 23" fill="none" xmlns="http://www.w3.org/2000/svg">
<path fill-rule="evenodd" clip-rule="evenodd" d="M11.9245 3.95923C11.774 3.95776 11.6379 3.95669 11.5192 3.9559C11.4982 3.95446 11.4771 3.95374 11.4557 3.95374H10.5391C10.5166 3.95374 10.4944 3.95454 10.4723 3.95613C10.3542 3.95699 10.2189 3.95816 10.0694 3.95975C9.50583 3.96576 8.73832 3.97778 7.9246 4.00187C7.11234 4.02591 6.24671 4.06219 5.48906 4.11724C4.75697 4.17043 4.04813 4.24579 3.59512 4.36648L3.58244 4.36995C3.03545 4.52411 2.53858 4.81945 2.14219 5.22653C1.74578 5.63364 1.46393 6.13808 1.32549 6.68907C1.32049 6.70895 1.31616 6.72899 1.31251 6.74916C1.04049 8.25182 0.907268 9.77616 0.914525 11.3031C0.905147 12.8415 1.03838 14.3774 1.31252 15.8914C1.31793 15.9213 1.32482 15.9509 1.33316 15.9801C1.48578 16.5139 1.77392 16.9991 2.16938 17.389C2.56481 17.7789 3.05417 18.0602 3.59004 18.2063L3.59512 18.2077C4.04813 18.3284 4.75697 18.4037 5.48906 18.4569C6.24671 18.512 7.11234 18.5482 7.9246 18.5723C8.73832 18.5964 9.50583 18.6084 10.0694 18.6144C10.2189 18.616 10.3542 18.6171 10.4723 18.618C10.4944 18.6196 10.5166 18.6204 10.5391 18.6204H11.4557C11.4782 18.6204 11.5004 18.6196 11.5225 18.618C11.6406 18.6171 11.7759 18.616 11.9253 18.6144C12.489 18.6084 13.2565 18.5964 14.0702 18.5723C14.8825 18.5482 15.7481 18.512 16.5057 18.4569C17.2378 18.4037 17.9467 18.3284 18.3997 18.2077L18.4124 18.2042C18.9593 18.05 19.4562 17.7547 19.8526 17.3476C20.249 16.9405 20.5309 16.4361 20.6693 15.8851C20.6743 15.8652 20.6786 15.8451 20.6823 15.825C20.9522 14.3334 21.0855 12.8205 21.0803 11.3049C21.0897 9.76629 20.9565 8.23011 20.6823 6.71592C20.6786 6.69576 20.6743 6.67573 20.6693 6.65586C20.5309 6.10488 20.249 5.60043 19.8526 5.19333C19.4562 4.78625 18.9593 4.49091 18.4124 4.33675C18.4017 4.33376 18.3911 4.33096 18.3804 4.32835C17.9346 4.21992 17.2324 4.15142 16.5 4.10283C15.7439 4.05267 14.8796 4.01959 14.0678 3.99765C13.2548 3.97567 12.4878 3.96471 11.9245 3.95923ZM9.02633 8.18514C8.9349 8.30727 8.9349 8.52603 8.9349 8.96354V13.6104C8.9349 14.0479 8.9349 14.2667 9.02633 14.3888C9.106 14.4952 9.22797 14.5618 9.36058 14.5713C9.51275 14.5822 9.69676 14.4639 10.0648 14.2273L13.679 11.9038C13.9984 11.6986 14.1581 11.5959 14.2132 11.4654C14.2614 11.3513 14.2614 11.2226 14.2132 11.1086C14.1581 10.9781 13.9984 10.8754 13.679 10.6701L10.0648 8.34667C9.69676 8.11009 9.51275 7.99179 9.36058 8.00266C9.22797 8.01213 9.106 8.07872 9.02633 8.18514Z" fill="white"/>
</svg>
