<svg width="50" height="51" viewBox="0 0 50 51" fill="none" xmlns="http://www.w3.org/2000/svg">
<path opacity="0.12" d="M25.0013 46.1203C36.5072 46.1203 45.8346 36.7929 45.8346 25.2869C45.8346 13.781 36.5072 4.45361 25.0013 4.45361C13.4954 4.45361 4.16797 13.781 4.16797 25.2869C4.16797 36.7929 13.4954 46.1203 25.0013 46.1203Z" fill="#3F444D"/>
<path d="M10.418 25.2869C10.418 19.1792 14.1728 13.9484 19.5 11.7769M45.8346 25.2869C45.8346 36.7929 36.5072 46.1203 25.0013 46.1203C13.4954 46.1203 4.16797 36.7929 4.16797 25.2869C4.16797 13.781 13.4954 4.45361 25.0013 4.45361C36.5072 4.45361 45.8346 13.781 45.8346 25.2869Z" stroke="#3F444D" stroke-width="2.5" stroke-linecap="round" stroke-linejoin="round"/>
<path d="M24.6842 12.0907L24.6842 25.349M26.1574 23.8757C26.971 24.6893 26.971 26.0084 26.1574 26.822C25.3438 27.6356 24.0247 27.6356 23.2112 26.822C22.3976 26.0084 22.3976 24.6893 23.2112 23.8757C24.0248 23.0621 25.3438 23.0621 26.1574 23.8757Z" stroke="#3F444D" stroke-width="2.5" stroke-linecap="round" stroke-linejoin="round"/>
</svg>
