<svg width="37" height="36" viewBox="0 0 37 36" fill="none" xmlns="http://www.w3.org/2000/svg">
<g opacity="0.12">
<path d="M29.7641 31.4986C30.6041 31.4986 31.0242 31.4986 31.345 31.3351C31.6273 31.1913 31.8568 30.9618 32.0006 30.6796C32.1641 30.3587 32.1641 29.9386 32.1641 29.0986V27.8986C32.1641 27.0585 32.1641 26.6384 32.0006 26.3176C31.8568 26.0353 31.6273 25.8059 31.345 25.6621C31.0242 25.4986 30.6041 25.4986 29.7641 25.4986L7.56406 25.4986C6.72398 25.4986 6.30394 25.4986 5.98308 25.6621C5.70083 25.8059 5.47136 26.0353 5.32755 26.3176C5.16406 26.6384 5.16406 27.0585 5.16406 27.8986L5.16406 29.0986C5.16406 29.9386 5.16406 30.3587 5.32755 30.6796C5.47136 30.9618 5.70083 31.1913 5.98308 31.3351C6.30394 31.4986 6.72398 31.4986 7.56406 31.4986L29.7641 31.4986Z" fill="#3F444D"/>
<path d="M29.7641 13.4986C30.6041 13.4986 31.0242 13.4986 31.345 13.3351C31.6273 13.1913 31.8568 12.9618 32.0006 12.6796C32.1641 12.3587 32.1641 11.9386 32.1641 11.0986V9.42378C32.1641 8.73683 32.1641 8.39335 32.0423 8.10992C31.935 7.85991 31.7616 7.64381 31.5409 7.48477C31.2906 7.30446 30.9553 7.22995 30.2847 7.08093L19.1847 4.61426C18.9904 4.57109 18.8933 4.5495 18.7951 4.54089C18.7079 4.53324 18.6202 4.53324 18.533 4.54089C18.4349 4.5495 18.3377 4.57109 18.1434 4.61426L7.04343 7.08093C6.37284 7.22995 6.03754 7.30446 5.78726 7.48477C5.5665 7.64381 5.39315 7.85991 5.28579 8.10991C5.16406 8.39335 5.16406 8.73683 5.16406 9.42378L5.16406 11.0986C5.16406 11.9386 5.16406 12.3587 5.32755 12.6796C5.47136 12.9618 5.70083 13.1913 5.98308 13.3351C6.30394 13.4986 6.72398 13.4986 7.56406 13.4986H29.7641Z" fill="#3F444D"/>
</g>
<path d="M8.16406 13.4986V25.4986M14.9141 13.4986V25.4986M22.4141 13.4986V25.4986M29.1641 13.4986V25.4986M5.16406 27.8986L5.16406 29.0986C5.16406 29.9386 5.16406 30.3587 5.32755 30.6796C5.47136 30.9618 5.70083 31.1913 5.98308 31.3351C6.30394 31.4986 6.72398 31.4986 7.56406 31.4986H29.7641C30.6041 31.4986 31.0242 31.4986 31.345 31.3351C31.6273 31.1913 31.8568 30.9618 32.0006 30.6796C32.1641 30.3587 32.1641 29.9386 32.1641 29.0986V27.8986C32.1641 27.0585 32.1641 26.6384 32.0006 26.3176C31.8568 26.0353 31.6273 25.8059 31.345 25.6621C31.0242 25.4986 30.6041 25.4986 29.7641 25.4986H7.56406C6.72398 25.4986 6.30394 25.4986 5.98308 25.6621C5.70083 25.8059 5.47136 26.0353 5.32755 26.3176C5.16406 26.6384 5.16406 27.0585 5.16406 27.8986ZM18.1434 4.61426L7.04343 7.08093C6.37284 7.22995 6.03754 7.30446 5.78726 7.48477C5.5665 7.64381 5.39315 7.85991 5.28579 8.10991C5.16406 8.39335 5.16406 8.73683 5.16406 9.42378L5.16406 11.0986C5.16406 11.9386 5.16406 12.3587 5.32755 12.6796C5.47136 12.9618 5.70083 13.1913 5.98308 13.3351C6.30394 13.4986 6.72398 13.4986 7.56406 13.4986H29.7641C30.6041 13.4986 31.0242 13.4986 31.345 13.3351C31.6273 13.1913 31.8568 12.9618 32.0006 12.6796C32.1641 12.3587 32.1641 11.9386 32.1641 11.0986V9.42378C32.1641 8.73683 32.1641 8.39335 32.0423 8.10992C31.935 7.85991 31.7616 7.64381 31.5409 7.48477C31.2906 7.30446 30.9553 7.22995 30.2847 7.08093L19.1847 4.61426C18.9904 4.57109 18.8933 4.5495 18.7951 4.54089C18.7079 4.53324 18.6202 4.53324 18.533 4.54089C18.4349 4.5495 18.3377 4.57109 18.1434 4.61426Z" stroke="#3F444D" stroke-width="3" stroke-linecap="round" stroke-linejoin="round"/>
</svg>
