<svg width="37" height="36" viewBox="0 0 37 36" fill="none" xmlns="http://www.w3.org/2000/svg">
<path opacity="0.12" d="M13.832 33C19.631 33 24.332 28.299 24.332 22.5C24.332 16.701 19.631 12 13.832 12C8.03304 12 3.33203 16.701 3.33203 22.5C3.33203 28.299 8.03304 33 13.832 33Z" fill="#3F444D"/>
<path d="M15.4836 6C17.3774 4.14422 19.9711 3 22.832 3C28.631 3 33.332 7.70101 33.332 13.5C33.332 16.361 32.1878 18.9548 30.3319 20.8486M11.582 19.5L13.832 18V26.25M11.582 26.25H16.082M24.332 22.5C24.332 28.299 19.631 33 13.832 33C8.03304 33 3.33203 28.299 3.33203 22.5C3.33203 16.701 8.03304 12 13.832 12C19.631 12 24.332 16.701 24.332 22.5Z" stroke="#3F444D" stroke-width="3" stroke-linecap="round" stroke-linejoin="round"/>
</svg>
