<svg width="37" height="36" viewBox="0 0 37 36" fill="none" xmlns="http://www.w3.org/2000/svg">
<path opacity="0.12" d="M18.5 33C26.7843 33 33.5 26.2843 33.5 18C33.5 9.71573 26.7843 3 18.5 3C10.2157 3 3.5 9.71573 3.5 18C3.5 26.2843 10.2157 33 18.5 33Z" fill="#1D2433"/>
<path d="M14.75 9.75H21.5C23.5711 9.75 25.25 11.4289 25.25 13.5C25.25 15.5711 23.5711 17.25 21.5 17.25H14.75V9.75ZM14.75 9.75V26.25M15.125 17.25H12.5M20 22.125H12.5M33.5 18C33.5 26.2843 26.7843 33 18.5 33C10.2157 33 3.5 26.2843 3.5 18C3.5 9.71573 10.2157 3 18.5 3C26.7843 3 33.5 9.71573 33.5 18Z" stroke="#1D2433" stroke-width="3" stroke-linecap="round" stroke-linejoin="round"/>
</svg>
