<svg width="763" height="460" viewBox="0 0 763 460" fill="none" xmlns="http://www.w3.org/2000/svg">
<g style="mix-blend-mode:darken" opacity="0.2">
<path d="M1269.58 616.622H6.04361V-145.848H1269.58V616.622Z" fill="#678EBF"/>
<path d="M6.04362 -145.843H1269.58V616.627H6.04362V-145.843Z" fill="white"/>
<path d="M1278.43 -126.489C1272.81 -133.892 1267.3 -141.398 1261.91 -149C1266.4 -140.835 1271.03 -132.732 1275.79 -124.704L1278.43 -126.489Z" fill="#678EBF"/>
<path d="M1278.03 -91.5198C1263.42 -110.05 1249.61 -129.248 1236.61 -149C1248.72 -128.68 1261.67 -108.843 1275.49 -89.5982L1278.03 -91.5198Z" fill="#678EBF"/>
<path d="M1277.78 -59.9019C1253.64 -87.9936 1231.47 -117.822 1211.32 -148.995C1230.57 -117.259 1251.92 -86.744 1275.34 -57.8571L1277.78 -59.9019Z" fill="#678EBF"/>
<path d="M1277.91 -30.8683C1260.82 -49.0486 1244.59 -68.0477 1229.26 -87.7711C1213.94 -107.494 1199.53 -127.947 1186.02 -148.991C1199.08 -127.663 1213.06 -106.889 1228 -86.8055C1242.93 -66.7177 1258.8 -47.321 1275.56 -28.7053L1277.9 -30.8683H1277.91Z" fill="#678EBF"/>
<path d="M1277.68 -4.79778C1255.52 -26.4333 1234.6 -49.3752 1215.08 -73.4768C1195.56 -97.5736 1177.44 -122.825 1160.73 -148.991C1176.99 -122.546 1194.69 -96.9583 1213.84 -72.4828C1232.98 -48.0026 1253.56 -24.6347 1275.44 -2.53057L1277.68 -4.79778Z" fill="#678EBF"/>
<path d="M1277.17 18.8399C1249.91 -5.7018 1224.28 -32.0943 1200.6 -60.1717C1176.92 -88.2397 1155.19 -117.978 1135.43 -148.991C1154.74 -117.699 1176.06 -87.6196 1199.38 -59.1541C1222.69 -30.679 1248.01 -3.8322 1275.03 21.1971L1277.17 18.8399Z" fill="#678EBF"/>
<path d="M1277.74 41.5499C1245.11 14.4475 1214.5 -15.1304 1186.46 -47.037C1158.41 -78.9247 1132.96 -113.108 1110.13 -148.986C1132.5 -112.824 1157.55 -78.2905 1185.26 -45.991C1212.95 -13.6726 1243.28 16.3786 1275.69 43.9922L1277.74 41.5499Z" fill="#678EBF"/>
<path d="M1277.19 61.6614C1258.3 47.0641 1239.99 31.7143 1222.38 15.5882C1204.77 -0.537843 1187.86 -17.4402 1171.75 -35.0762C1155.63 -52.7122 1140.3 -71.0865 1125.82 -90.1093C1111.33 -109.127 1097.68 -128.789 1084.84 -148.981C1097.46 -128.647 1110.89 -108.824 1125.18 -89.6265C1139.47 -70.4286 1154.61 -51.8554 1170.56 -34.0065C1186.52 -16.1528 1203.28 0.981477 1220.76 17.3489C1238.24 33.7212 1256.44 49.3218 1275.23 64.1841L1277.19 61.6661V61.6614Z" fill="#678EBF"/>
<path d="M1276.81 80.5279C1255.34 65.0314 1234.51 48.645 1214.5 31.3025C1194.48 13.96 1175.28 -4.33868 1157.04 -23.5603C1138.8 -42.7819 1121.52 -62.9264 1105.26 -83.8757C1089 -104.825 1073.77 -126.579 1059.54 -148.976C1073.55 -126.437 1088.57 -104.522 1104.63 -83.3882C1120.69 -62.2544 1137.8 -41.9062 1155.88 -22.4669C1173.96 -3.0228 1193.02 15.5172 1212.92 33.1058C1232.82 50.6992 1253.55 67.3506 1274.93 83.1123L1276.8 80.5327L1276.81 80.5279Z" fill="#678EBF"/>
<path d="M1277.5 98.8975C1253.36 82.5916 1229.9 65.2728 1207.37 46.7943C1184.83 28.3253 1163.23 8.70609 1142.76 -12.0585C1122.28 -32.8137 1102.95 -54.7049 1084.85 -77.59C1066.76 -100.47 1049.9 -124.34 1034.25 -148.986C1049.67 -124.198 1066.32 -100.167 1084.23 -77.0977C1102.13 -54.028 1121.29 -31.9286 1141.62 -10.9415C1161.94 10.0456 1183.42 29.9109 1205.84 48.6403C1228.27 67.3696 1251.65 84.963 1275.71 101.534L1277.5 98.8975Z" fill="#678EBF"/>
<path d="M1278.7 116.458C1251.87 99.4324 1225.73 81.2806 1200.62 61.7797C1175.51 42.2883 1151.44 21.4479 1128.68 -0.769812C1105.91 -22.9781 1084.47 -46.559 1064.5 -71.3421C1044.52 -96.1205 1026.01 -122.087 1008.94 -148.976C1025.79 -121.945 1044.08 -95.8081 1063.87 -70.8404C1083.66 -45.8679 1104.93 -22.074 1127.56 0.370896C1150.18 22.8206 1174.13 43.9165 1199.15 63.6683C1224.16 83.4294 1250.21 101.851 1276.98 119.146L1278.7 116.458H1278.7Z" fill="#678EBF"/>
<path d="M1278.32 132.025C1248.98 114.394 1220.33 95.5749 1192.79 75.2268C1165.25 54.8881 1138.82 33.0112 1113.89 9.52494C1088.94 -13.9566 1065.5 -39.0473 1043.77 -65.5628C1022.03 -92.0736 1002.01 -119.99 983.652 -148.972C1001.78 -119.848 1021.6 -91.7612 1043.15 -65.0611C1064.7 -38.3515 1087.98 -13.0383 1112.78 10.6799C1137.59 34.4075 1163.91 56.54 1191.36 77.1437C1218.81 97.7568 1247.39 116.851 1276.67 134.752L1278.31 132.021L1278.32 132.025Z" fill="#678EBF"/>
<path d="M1277.28 146.433C1245.54 128.239 1214.47 108.828 1184.58 87.7224C1154.68 66.6312 1125.95 43.8361 1098.88 19.1807C1071.81 -5.4604 1046.4 -31.9522 1022.94 -60.096C999.477 -88.2302 977.963 -117.997 958.353 -148.972C977.736 -117.855 999.043 -87.9178 1022.33 -59.5895C1045.61 -31.2517 1070.86 -4.52797 1097.81 20.3546C1124.75 45.2513 1153.37 68.3068 1183.19 89.6678C1213 111.038 1244 130.728 1275.68 149.193L1277.28 146.429L1277.28 146.433Z" fill="#678EBF"/>
<path d="M1277.76 161.049C1243.51 142.268 1209.9 122.284 1177.5 100.45C1145.1 78.6299 1113.92 54.9497 1084.57 29.1394C1055.21 3.34811 1027.69 -24.5685 1002.39 -54.3925C977.075 -84.2023 953.983 -115.901 933.054 -148.967C953.76 -115.759 976.65 -83.8898 1001.79 -53.8765C1026.91 -23.8537 1054.28 4.29472 1083.52 30.3369C1112.75 56.3933 1143.83 80.3434 1176.16 102.433C1208.49 124.537 1242.04 144.796 1276.23 163.847L1277.77 161.054L1277.76 161.049Z" fill="#678EBF"/>
<path d="M1277.98 174.923C1241.29 155.545 1205.18 135.036 1170.31 112.543C1135.45 90.0654 1101.84 65.5852 1070.21 38.71C1038.57 11.8537 1008.94 -17.4023 981.805 -48.8451C954.644 -80.2689 929.988 -113.846 907.765 -148.967C929.761 -113.704 954.219 -79.9565 981.205 -48.3244C1008.17 -16.6829 1037.65 12.8098 1069.18 39.9217C1100.7 67.0525 1134.22 91.8025 1169.02 114.55C1203.82 137.317 1239.87 158.101 1276.49 177.739L1277.98 174.923H1277.98Z" fill="#678EBF"/>
<path d="M1278.11 188.27C1239.04 168.268 1200.47 147.252 1163.16 124.149C1125.84 101.065 1089.8 75.8657 1055.88 47.9918C1021.95 20.1415 990.192 -10.3877 961.203 -43.3972C932.194 -76.3877 905.969 -111.811 882.466 -148.957C905.742 -111.669 931.764 -76.0658 960.603 -42.8718C989.417 -9.65404 1021.04 21.1166 1054.86 49.2224C1088.67 77.3567 1124.64 102.826 1161.89 126.185C1199.14 149.562 1237.65 170.847 1276.65 191.11L1278.11 188.275V188.27Z" fill="#678EBF"/>
<path d="M1278.38 201.315C1236.97 180.621 1195.96 159.095 1156.2 135.414C1116.43 111.753 1077.93 85.8954 1041.69 57.0796C1005.44 28.2969 971.509 -3.45354 940.648 -38.0013C909.759 -72.5254 881.955 -109.79 857.171 -148.962C881.729 -109.648 909.329 -72.2036 940.053 -37.4712C970.748 -2.7152 1004.55 29.2814 1040.7 58.3244C1076.83 87.4006 1115.27 113.533 1154.97 137.464C1194.68 161.419 1235.63 183.21 1276.95 204.16L1278.39 201.31L1278.38 201.315Z" fill="#678EBF"/>
<path d="M1278.22 213.867C1234.57 192.412 1191.19 170.374 1149.02 146.145C1106.86 121.939 1065.93 95.4897 1027.39 65.8124C1008.12 50.9832 989.46 35.3589 971.527 18.9251C953.595 2.49612 936.395 -14.747 920.027 -32.7521C887.267 -68.7483 857.904 -107.802 831.868 -148.957C857.677 -107.66 886.841 -68.4264 919.436 -32.2173C935.724 -14.108 952.848 3.25341 970.715 19.8055C988.581 36.3623 1007.19 52.1097 1026.42 67.0714C1064.86 97.0137 1105.73 123.737 1147.82 148.213C1189.92 172.712 1233.24 195.02 1276.8 216.726L1278.22 213.867H1278.22Z" fill="#678EBF"/>
<path d="M1278.69 226.548C1232.8 204.207 1187.02 181.606 1142.42 156.823C1097.82 132.063 1054.4 105.065 1013.49 74.5546C993.037 59.3089 973.214 43.2065 954.181 26.2048C935.148 9.2078 916.908 -8.68844 899.571 -27.4273C882.234 -46.1661 865.8 -65.7427 850.306 -86.0435C834.807 -106.344 820.248 -127.36 806.583 -148.948C820.14 -127.289 834.589 -106.193 849.989 -85.8021C865.384 -65.4114 881.729 -45.7307 898.985 -26.883C916.242 -8.03533 934.411 9.97935 953.382 27.0994C972.354 44.2242 992.125 60.4591 1012.54 75.8373C1053.36 106.617 1096.73 133.89 1141.26 158.92C1185.8 183.972 1231.51 206.839 1277.3 229.421L1278.7 226.557L1278.69 226.548Z" fill="#678EBF"/>
<path d="M1277.84 238.49C1229.88 215.193 1181.86 192.005 1134.96 166.691C1088.07 141.402 1042.28 113.921 999.099 82.6674C977.51 67.0525 956.577 50.5193 936.485 33.0017C916.393 15.4888 897.152 -3.00387 878.884 -22.429C860.616 -41.8494 843.331 -62.1975 827.067 -83.3408C810.802 -104.479 795.554 -126.408 781.279 -148.953C795.441 -126.337 810.58 -104.328 826.75 -83.0947C842.915 -61.8615 860.115 -41.414 878.303 -21.88C896.49 -2.34598 915.665 16.2698 935.696 33.9057C955.726 51.5465 976.612 68.2169 998.159 83.9643C1041.26 115.488 1086.99 143.243 1133.82 168.802C1180.66 194.381 1228.6 217.829 1276.44 241.363L1277.84 238.494V238.49Z" fill="#678EBF"/>
<path d="M1277.53 250.711C1227.52 226.292 1177.26 202.441 1128.02 176.57C1103.41 163.639 1079.06 150.201 1055.16 135.992C1031.26 121.783 1007.83 106.788 985.07 90.8132C962.308 74.8433 940.232 57.889 919.049 39.8649C897.865 21.8455 877.58 2.75641 858.353 -17.3503C839.121 -37.457 820.952 -58.5813 803.894 -80.5766C786.831 -102.567 770.883 -125.424 755.985 -148.948C770.77 -125.353 786.614 -102.416 803.578 -80.3305C820.536 -58.2453 838.62 -37.0168 857.776 -16.8012C876.928 3.41909 897.147 22.6265 918.274 40.7736C939.4 58.9255 961.434 76.0125 984.153 92.1149C1006.87 108.222 1030.28 123.354 1054.14 137.701C1078 152.052 1102.33 165.622 1126.91 178.685C1176.07 204.822 1226.26 228.929 1276.13 253.574L1277.53 250.711Z" fill="#678EBF"/>
<path d="M1278.27 263.543C1226.21 237.78 1173.64 213.143 1121.99 186.656C1096.18 173.417 1070.59 159.715 1045.45 145.222C1020.32 130.733 995.636 115.45 971.65 99.1248C947.665 82.8047 924.379 65.4385 902.038 46.9079C879.697 28.3868 858.31 8.7014 838.067 -12.1106C817.819 -32.9131 798.715 -54.8373 780.821 -77.713C762.921 -100.589 746.237 -124.406 730.69 -148.957C746.128 -124.34 762.709 -100.437 780.509 -77.4716C798.304 -54.5013 817.323 -32.4729 837.495 -11.5568C857.663 9.36399 878.988 29.1726 901.277 47.8262C923.561 66.4845 946.805 83.9832 970.752 100.441C994.7 116.903 1019.36 132.324 1044.46 146.944C1069.56 161.57 1095.12 175.41 1120.9 188.777C1172.47 215.524 1224.96 240.407 1276.85 266.392L1278.27 263.533V263.543Z" fill="#678EBF"/>
<path d="M1278.12 276.133C1224.17 248.879 1169.4 223.376 1115.45 196.26C1088.47 182.699 1061.7 168.736 1035.37 153.978C1009.04 139.225 983.147 123.671 957.966 107.029C932.785 90.3872 908.318 72.6472 884.847 53.6528C861.377 34.6631 838.908 14.4191 817.664 -7.05081C796.414 -28.516 776.398 -51.2023 757.691 -74.9252C738.979 -98.6481 721.571 -123.403 705.391 -148.939C721.457 -123.332 738.756 -98.4966 757.374 -74.679C775.987 -50.8615 795.923 -28.071 817.097 -6.48752C838.266 15.096 860.673 35.4677 884.091 54.5852C907.51 73.7121 931.934 91.5847 957.082 108.364C982.23 125.148 1008.09 140.834 1034.39 155.725C1060.69 170.615 1087.43 184.716 1114.37 198.404C1168.24 225.781 1222.9 251.525 1276.67 278.987L1278.11 276.142L1278.12 276.133Z" fill="#678EBF"/>
<path d="M1277.86 288.96C1222.12 260.016 1165.21 233.525 1108.99 205.717C1080.87 191.811 1052.92 177.568 1025.4 162.545C997.876 147.527 970.771 131.718 944.39 114.768C918.009 97.8231 892.351 79.728 867.737 60.284C843.123 40.8494 819.558 20.0658 797.307 -2.05252C775.046 -24.1614 754.104 -47.6002 734.57 -72.1704C715.031 -96.7358 696.905 -122.418 680.097 -148.948C696.791 -122.352 714.814 -96.5843 734.263 -71.9242C753.702 -47.2642 774.56 -23.7165 796.75 -1.48927C818.93 20.7427 842.433 41.654 867 61.2211C891.562 80.793 917.182 99.0254 943.53 116.108C969.878 133.195 996.954 149.141 1024.45 164.292C1051.94 179.447 1079.85 193.822 1107.93 207.856C1164.07 235.924 1220.86 262.648 1276.39 291.786L1277.87 288.955L1277.86 288.96Z" fill="#678EBF"/>
<path d="M1277.7 302.237C1220.28 271.352 1161.27 243.729 1102.77 215.164C1073.52 200.884 1044.39 186.353 1015.67 171.056C986.941 155.762 958.618 139.703 931.018 122.455C903.422 105.216 876.554 86.7805 850.778 66.9057C824.997 47.0404 800.312 25.7362 777.017 2.98837C753.712 -19.75 731.806 -43.9273 711.407 -69.321C691.017 -94.7289 672.206 -121.396 654.803 -148.943C672.092 -121.325 690.8 -94.5728 711.095 -69.0702C731.399 -43.5818 753.225 -19.2956 776.459 3.5611C799.684 26.4273 824.312 47.8593 850.05 67.8571C875.784 87.8644 902.61 106.433 930.177 123.813C957.744 141.198 986.039 157.395 1014.73 172.821C1043.42 188.251 1072.52 202.915 1101.72 217.323C1160.13 246.134 1219.01 273.994 1276.19 305.053L1277.71 302.246L1277.7 302.237Z" fill="#678EBF"/>
<path d="M1279 316.843C1219.94 283.645 1158.76 254.62 1097.89 225.147C1067.45 210.407 1037.08 195.536 1007.09 179.935C977.089 164.339 947.466 148.019 918.567 130.473C889.672 112.932 861.504 94.1596 834.471 73.8494C807.433 53.5486 781.544 31.7048 757.128 8.29431C732.708 -15.1067 709.776 -40.065 688.465 -66.3533C667.164 -92.651 647.573 -120.321 629.494 -148.939C647.464 -120.25 666.947 -92.4949 688.158 -66.1024C709.375 -39.7195 732.226 -14.6476 756.575 8.87177C780.92 32.4006 806.762 54.3722 833.753 74.8055C860.744 95.2483 888.873 114.158 917.735 131.836C946.602 149.519 976.201 165.977 1006.16 181.705C1036.12 197.438 1066.45 212.438 1096.84 227.3C1157.6 257.015 1218.63 286.262 1277.43 319.627L1279 316.848L1279 316.843Z" fill="#678EBF"/>
<path d="M1278.34 330.991C1248.14 313.194 1217.24 296.642 1186.02 280.762C1154.8 264.877 1123.26 249.655 1091.74 234.438C1060.22 219.216 1028.7 204.003 997.521 188.109C966.344 172.22 935.507 155.654 905.393 137.833C875.279 120.022 845.892 100.952 817.678 80.2487C789.458 59.5598 762.421 37.2332 736.947 13.2169C711.468 -10.7853 687.563 -36.4725 665.402 -63.5891C643.24 -90.7151 622.917 -119.323 604.205 -148.939C622.808 -119.252 643.027 -90.559 665.094 -63.3335C687.166 -36.1175 710.986 -10.3262 736.403 13.799C761.811 37.9337 788.797 60.3881 816.974 81.2142C845.15 102.05 874.504 121.257 904.585 139.206C934.67 157.159 965.479 173.862 996.619 189.884C1027.76 205.911 1059.24 221.256 1090.7 236.592C1122.17 251.932 1153.63 267.263 1184.76 283.247C1215.88 299.231 1246.67 315.868 1276.73 333.736L1278.35 330.991H1278.34Z" fill="#678EBF"/>
<path d="M1277.44 345.702C1246.64 326.58 1214.97 308.929 1182.86 292.16C1150.76 275.385 1118.23 259.486 1085.64 243.734C1053.06 227.982 1020.4 212.381 988.052 196.17C955.707 179.963 923.656 163.151 892.323 145.065C860.989 126.989 830.374 107.64 800.964 86.5628C771.55 65.5 743.354 42.7143 716.812 18.1063C690.261 -6.48754 665.373 -32.8847 642.347 -60.8249C619.321 -88.7745 598.256 -118.319 578.906 -148.938C598.142 -118.248 619.103 -88.6183 642.04 -60.5693C664.976 -32.5297 689.784 -6.01894 716.274 18.6932C742.754 43.4195 770.898 66.3378 800.275 87.5331C829.647 108.743 860.229 128.234 891.534 146.443C922.838 164.661 954.857 181.611 987.168 197.945C1019.48 214.284 1052.08 230.008 1084.61 245.878C1117.13 261.744 1149.58 277.756 1181.58 294.626C1213.57 311.49 1245.12 329.221 1275.76 348.404L1277.44 345.697L1277.44 345.702Z" fill="#678EBF"/>
<path d="M1278.33 362.438C1247 341.731 1214.57 322.75 1181.57 304.901C1148.57 287.043 1115 270.306 1081.29 253.906C1047.57 237.5 1013.71 221.431 980.094 204.851C946.484 188.275 913.123 171.179 880.462 152.814C847.801 134.454 815.844 114.811 785.121 93.3503C754.397 71.904 724.921 48.6308 697.198 23.4027C669.46 -1.81114 643.491 -28.9751 619.51 -57.8099C595.524 -86.6494 573.651 -117.216 553.607 -148.929C573.538 -117.145 595.307 -86.4931 619.203 -57.5542C643.094 -28.6201 668.988 -1.34257 696.659 23.9943C724.321 49.3455 753.75 72.7513 784.435 94.3348C815.121 115.932 847.05 135.713 879.678 154.21C912.31 172.712 945.642 189.941 979.211 206.645C1012.78 223.348 1046.59 239.545 1080.24 256.059C1113.88 272.574 1147.36 289.414 1180.24 307.358C1213.12 325.297 1245.4 344.348 1276.57 365.099L1278.32 362.438H1278.33Z" fill="#678EBF"/>
<path d="M1277.67 379.194C1245.94 356.844 1212.89 336.458 1179.1 317.459C1145.31 298.45 1110.79 280.814 1076.03 263.713C1041.27 246.612 1006.27 230.036 971.461 213.072C936.655 196.108 902.047 178.738 868.12 160.098C834.192 141.468 800.946 121.56 768.956 99.7448C736.97 77.9484 706.261 54.2349 677.39 28.42C648.509 2.62392 621.485 -25.2594 596.583 -54.9415C571.676 -84.6235 549.018 -116.17 528.312 -148.929C548.905 -116.095 571.463 -84.4673 596.28 -54.6859C621.093 -24.9045 648.041 3.09254 676.86 29.0116C705.67 54.9497 736.332 78.7956 768.285 100.729C800.232 122.677 833.455 142.727 867.354 161.49C901.258 180.262 935.833 197.77 970.592 214.857C1005.36 231.944 1040.3 248.642 1074.98 265.852C1109.66 283.062 1144.07 300.793 1177.74 319.882C1211.4 338.962 1244.29 359.409 1275.83 381.793L1277.67 379.185L1277.67 379.194Z" fill="#678EBF"/>
<path d="M1278.91 398.548C1246.9 374.257 1213.28 352.167 1178.71 331.767C1144.14 311.353 1108.64 292.605 1072.78 274.647C1001.06 238.712 927.847 205.878 857.19 167.979C821.869 149.046 787.2 128.859 753.816 106.674C720.432 84.5086 688.347 60.3313 658.2 33.901C628.044 7.48492 599.843 -21.1747 573.916 -51.7797C547.984 -82.3895 524.452 -115.001 503.018 -148.92C524.343 -114.93 547.766 -82.2285 573.613 -51.5194C599.451 -20.815 627.576 7.96301 657.676 34.5069C687.766 61.065 719.803 85.3748 753.154 107.678C786.505 129.995 821.151 150.324 856.439 169.389C927.034 207.558 1000.16 240.653 1071.71 276.791C1107.48 294.858 1142.87 313.691 1177.3 334.176C1211.72 354.648 1245.17 376.785 1276.99 401.095L1278.92 398.553L1278.91 398.548Z" fill="#678EBF"/>
<path d="M1277.82 417.533C1245.68 391.321 1211.66 367.494 1176.45 345.659C1141.25 323.801 1104.89 303.898 1068.05 285.036C994.35 247.289 918.666 213.692 845.42 175.221C808.804 155.999 772.802 135.561 738.1 113.045C703.397 90.5529 670.018 65.9638 638.666 38.9655C607.3 11.9909 577.989 -17.3881 551.093 -48.8498C524.192 -80.3163 499.843 -113.932 477.719 -148.934C499.729 -113.861 523.975 -80.1601 550.79 -48.5943C577.597 -17.0284 606.837 12.4642 638.146 39.5666C669.442 66.6927 702.783 91.4143 737.448 114.044C772.117 136.692 808.09 157.272 844.678 176.626C917.863 215.363 993.457 249.215 1066.95 287.157C1103.7 306.118 1139.93 326.102 1174.98 348.021C1210.03 369.917 1243.87 393.777 1275.8 419.994L1277.81 417.524L1277.82 417.533Z" fill="#678EBF"/>
<path d="M1277.99 439.112C1245.87 410.722 1211.55 384.893 1175.78 361.345C1140 337.783 1102.8 316.493 1064.95 296.547C989.224 256.618 910.907 222.061 834.863 182.964C796.849 163.416 759.406 142.713 723.272 119.856C687.142 97.0232 652.346 72.0129 619.666 44.4277C586.976 16.8662 556.442 -13.2702 528.487 -45.6549C500.523 -78.0443 475.281 -112.739 452.415 -148.915C475.167 -112.668 500.31 -77.8834 528.185 -45.3946C556.054 -12.9058 586.518 17.3443 619.151 45.0383C651.774 72.756 686.528 97.8989 722.629 120.869C758.73 143.863 796.149 164.708 834.131 184.384C910.113 223.746 988.326 258.549 1063.83 298.663C1101.58 318.704 1138.64 340.069 1174.24 363.679C1209.84 387.274 1243.97 413.126 1275.88 441.507L1277.99 439.117V439.112Z" fill="#678EBF"/>
<path d="M1277.66 462.073C1245.72 431.397 1211.25 403.404 1175.03 377.992C1156.93 365.278 1138.39 353.194 1119.52 341.65C1100.65 330.111 1081.47 319.115 1062.06 308.522C1023.25 287.336 983.591 267.807 943.795 248.623C903.999 229.44 864.051 210.587 824.619 190.694C785.196 170.805 746.289 149.827 708.699 126.644C671.114 103.479 634.867 78.0667 600.831 49.8993C566.785 21.7603 534.994 -9.1287 505.948 -42.4364C476.901 -75.7535 450.738 -111.541 427.121 -148.915C450.624 -111.475 476.684 -75.5973 505.645 -42.176C534.606 -8.76422 566.322 22.2478 600.321 50.5146C634.3 78.8098 670.509 104.36 708.066 127.661C745.622 150.987 784.502 172.097 823.891 192.118C863.286 212.14 903.191 231.12 942.921 250.422C982.651 269.719 1022.22 289.358 1060.91 310.624C1080.26 321.255 1099.37 332.288 1118.17 343.861C1136.95 355.438 1155.41 367.546 1173.43 380.278C1209.47 405.724 1243.72 433.725 1275.45 464.373L1277.66 462.073H1277.66Z" fill="#678EBF"/>
<path d="M1277.94 487.731C1246.35 454.566 1211.92 424.145 1175.38 396.603C1138.84 369.027 1100.22 344.329 1060.5 321.695C1020.76 299.056 979.934 278.448 938.843 258.469C897.752 238.485 856.382 219.112 815.462 198.816C774.546 178.539 734.083 157.287 694.934 133.753C655.79 110.248 617.984 84.4329 582.487 55.6691C546.977 26.9384 513.829 -4.73148 483.611 -39.0189C453.398 -73.3206 426.247 -110.268 401.827 -148.92C426.133 -110.202 453.185 -73.1644 483.314 -38.7586C513.447 -4.36705 546.528 27.426 581.987 56.2844C617.431 85.176 655.204 111.133 694.315 134.775C733.431 158.446 773.87 179.836 814.748 200.241C855.626 220.664 896.949 240.165 937.964 260.258C978.974 280.346 1019.71 301.053 1059.31 323.768C1098.9 346.478 1137.35 371.233 1173.69 398.827C1210.05 426.389 1244.26 456.8 1275.63 489.928L1277.93 487.731H1277.94Z" fill="#678EBF"/>
<path d="M1278.34 516.017C1262.81 498.121 1246.51 480.887 1229.49 464.401C1212.48 447.916 1194.75 432.178 1176.4 417.207C1139.7 387.245 1100.52 360.436 1059.93 336.117C1039.64 323.948 1019 312.375 998.131 301.238C977.259 290.105 956.166 279.413 934.963 268.948C892.554 248.022 849.715 228.029 807.254 207.274C764.797 186.519 722.681 165.002 681.897 141.118C641.114 117.267 601.653 91.0499 564.602 61.685C546.075 47.012 528.152 31.577 510.933 15.3752C493.714 -0.821861 477.209 -17.7762 461.464 -35.4217C430.013 -70.7504 401.803 -108.914 376.537 -148.915C401.69 -108.848 429.8 -70.5943 461.166 -35.1566C476.864 -17.4591 493.336 -0.447926 510.522 15.8107C527.708 32.0693 545.602 47.5705 564.106 62.3098C601.11 91.8072 640.537 118.162 681.293 142.15C722.048 166.176 764.136 187.825 806.55 208.708C848.973 229.591 891.756 249.703 934.08 270.737C955.239 281.254 976.286 291.994 997.1 303.174C1017.91 314.354 1038.49 325.964 1058.71 338.167C1099.15 362.557 1138.14 389.399 1174.64 419.37C1192.89 434.341 1210.51 450.074 1227.42 466.55C1244.33 483.022 1260.51 500.232 1275.93 518.105L1278.34 516.017H1278.34Z" fill="#678EBF"/>
<path d="M1278.75 547.223C1263.58 527.931 1247.59 509.287 1230.78 491.409C1213.99 473.527 1196.37 456.407 1178.04 440.115C1159.71 423.819 1140.65 408.346 1121 393.682C1101.35 379.014 1081.11 365.155 1060.43 352.002C1019.07 325.68 975.969 302.246 932.251 280.189C888.519 258.133 844.153 237.41 800.081 216.12C756.008 194.835 712.196 172.958 669.659 148.743C627.127 124.556 585.918 97.9273 547.204 67.9565C527.845 52.9806 509.114 37.1906 491.134 20.577C473.154 3.96814 455.921 -13.4596 439.515 -31.6399C406.741 -68.043 377.402 -107.485 351.243 -148.915C377.288 -107.419 406.528 -67.8869 439.218 -31.3748C455.581 -13.1425 472.781 4.34207 490.728 21.0125C508.674 37.6876 527.377 53.5439 546.712 68.586C585.384 98.6846 626.56 125.456 669.064 149.78C711.572 174.132 755.356 196.146 799.386 217.555C843.416 238.972 887.716 259.813 931.353 281.969C974.977 304.12 1017.95 327.645 1059.15 354.018C1079.75 367.195 1099.9 381.078 1119.46 395.756C1139.01 410.429 1157.97 425.906 1176.19 442.198C1194.42 458.485 1211.92 475.591 1228.61 493.454C1245.3 511.312 1261.19 529.928 1276.25 549.192L1278.75 547.228L1278.75 547.223Z" fill="#678EBF"/>
<path d="M1278.33 580.616C1263.6 559.908 1248 539.821 1231.52 520.49C1215.03 501.16 1197.66 482.586 1179.45 464.884C1161.24 447.177 1142.2 430.332 1122.45 414.376C1102.7 398.416 1082.24 383.345 1061.24 369.093C1019.24 340.566 975.095 315.371 930.092 292.018C885.083 268.636 839.197 247.052 793.489 225.156C747.786 203.26 702.225 181.014 657.907 156.43C635.75 144.142 613.91 131.278 592.547 117.651C571.189 104.024 550.327 89.611 530.103 74.3369C489.655 43.8077 451.853 9.71426 417.689 -27.7681C400.612 -46.5069 384.433 -66.0645 369.151 -86.3038C353.87 -106.543 339.486 -127.459 325.939 -148.905C339.434 -127.426 353.761 -106.467 368.995 -86.1855C384.225 -65.9036 400.362 -46.2939 417.396 -27.4983C451.48 10.0882 489.22 44.3094 529.626 74.9759C549.826 90.3162 570.67 104.8 592.014 118.493C613.358 132.191 635.183 145.122 657.326 157.476C701.616 182.197 747.144 204.576 792.799 226.595C838.455 248.614 884.271 270.311 929.175 293.788C974.074 317.241 1018.08 342.502 1059.9 371.072C1080.81 385.347 1101.17 400.427 1120.82 416.392C1140.47 432.353 1159.4 449.189 1177.5 466.886C1195.6 484.579 1212.87 503.129 1229.24 522.435C1245.62 541.738 1261.11 561.797 1275.73 582.462L1278.33 580.621V580.616Z" fill="#678EBF"/>
<path d="M1278.94 619.291C1264.75 597.045 1249.68 575.372 1233.65 554.427C1217.61 533.483 1200.61 513.277 1182.66 493.956C1146.78 455.281 1106.98 420.321 1064.49 389.143C1022 357.932 976.82 330.57 930.484 305.578C884.138 280.559 836.621 257.849 789.132 235.191C741.639 212.533 694.15 189.837 647.852 164.841C624.703 152.345 601.861 139.281 579.501 125.427C557.141 111.573 535.263 96.9238 514.066 81.3468C471.666 50.2022 432.016 15.2238 396.312 -23.4703C378.446 -42.8008 361.539 -63.0211 345.605 -83.9798C329.672 -104.938 314.707 -126.636 300.64 -148.901C314.65 -126.602 329.563 -104.863 345.45 -83.8615C361.331 -62.8555 378.196 -42.5878 396.019 -23.2053C431.648 15.5977 471.236 50.7039 513.593 81.9858C534.772 97.6338 556.631 112.349 578.977 126.275C601.322 140.2 624.15 153.334 647.285 165.896C693.555 191.03 741.015 213.858 788.447 236.634C835.879 259.415 883.312 282.234 929.539 307.339C975.757 332.416 1020.77 359.84 1063.08 391.079C1105.38 422.285 1144.96 457.231 1180.62 495.863C1198.46 515.165 1215.35 535.343 1231.27 556.254C1247.2 577.156 1262.17 598.796 1276.25 621L1278.94 619.291Z" fill="#678EBF"/>
<path d="M1253.71 619.291C1239.52 597.045 1224.45 575.367 1208.41 554.418C1192.38 533.469 1175.38 513.258 1157.44 493.932C1121.56 455.252 1081.77 420.274 1039.28 389.091C996.784 357.866 951.601 330.513 905.256 305.531C858.896 280.521 811.37 257.83 763.867 235.191C716.363 212.552 668.856 189.875 622.548 164.888C599.394 152.397 576.548 139.338 554.183 125.484C531.818 111.63 509.94 96.9854 488.743 81.3989C446.348 50.2401 406.698 15.2569 370.999 -23.4514C353.138 -42.7866 336.235 -63.0116 320.302 -83.9751C304.368 -104.938 289.408 -126.636 275.336 -148.901C289.347 -126.598 304.259 -104.858 320.141 -83.852C336.023 -62.8413 352.878 -42.5688 370.701 -23.1768C406.32 15.6403 445.909 50.7513 488.266 82.0426C509.444 97.6953 531.303 112.411 553.654 126.331C576.004 140.256 598.837 153.386 621.972 165.944C668.251 191.068 715.725 213.877 763.172 236.634C810.618 259.396 858.064 282.196 904.301 307.292C950.528 332.359 995.551 359.778 1037.86 391.027C1080.16 422.238 1119.73 457.202 1155.39 495.84C1173.23 515.146 1190.11 535.329 1206.03 556.245C1221.97 577.151 1236.93 598.796 1251.01 621L1253.7 619.291H1253.71Z" fill="#678EBF"/>
<path d="M1228.47 619.291C1214.28 597.045 1199.21 575.362 1183.18 554.408C1167.15 533.454 1150.16 513.239 1132.21 493.904C1096.34 455.214 1056.56 420.226 1014.07 389.034C971.579 357.8 926.387 330.451 880.032 305.479C833.663 280.483 786.127 257.806 738.61 235.186C691.093 212.566 643.576 189.908 597.254 164.931C574.095 152.449 551.244 139.39 528.879 125.536C506.515 111.687 484.637 97.0374 463.434 81.4462C421.044 50.2732 381.395 15.29 345.705 -23.4325C327.843 -42.7724 310.946 -63.0022 295.017 -83.9703C279.088 -104.938 264.123 -126.64 250.056 -148.905C264.071 -126.602 278.979 -104.863 294.861 -83.8473C310.738 -62.8365 327.593 -42.5547 345.412 -23.1579C381.021 15.6734 420.614 50.7844 462.962 82.0946C484.141 97.7474 506.004 112.468 528.355 126.388C550.705 140.313 573.543 153.438 596.687 165.991C642.975 191.105 690.46 213.896 737.925 236.634C785.385 259.377 832.841 282.158 879.087 307.244C925.324 332.302 970.356 359.712 1012.66 390.975C1054.96 422.191 1094.52 457.169 1130.18 495.816C1148.01 515.127 1164.89 535.319 1180.81 556.235C1196.73 577.147 1211.69 598.792 1225.77 621L1228.46 619.291H1228.47Z" fill="#678EBF"/>
<path d="M1203.23 619.291C1189.05 597.045 1173.97 575.358 1157.94 554.404C1141.92 533.45 1124.93 513.225 1106.99 493.885C1071.11 455.191 1031.34 420.184 988.85 388.987C946.365 357.743 901.159 330.399 854.799 305.436C808.421 280.45 760.871 257.792 713.339 235.191C665.808 212.589 618.277 189.951 571.95 164.983C548.787 152.506 525.931 139.452 503.561 125.598C481.192 111.748 459.314 97.0989 438.112 81.5077C395.726 50.3253 356.081 15.3279 320.391 -23.404C302.535 -42.7534 285.642 -62.988 269.713 -83.9561C253.784 -104.929 238.824 -126.631 224.752 -148.901C238.767 -126.598 253.676 -104.853 269.552 -83.8378C285.429 -62.8223 302.28 -42.5357 320.094 -23.1342C355.703 15.7065 395.287 50.8318 437.635 82.1468C458.813 97.8043 480.677 112.525 503.032 126.44C525.387 140.361 548.229 153.486 571.378 166.034C617.681 191.139 665.175 213.91 712.649 236.629C760.124 259.354 807.594 282.116 853.85 307.188C900.091 332.236 945.137 359.641 987.433 390.914C1029.74 422.134 1069.29 457.127 1104.94 495.783C1122.77 515.104 1139.65 535.296 1155.57 556.216C1171.49 577.142 1186.46 598.792 1200.54 621L1203.23 619.291H1203.23Z" fill="#678EBF"/>
<path d="M1177.99 619.291C1163.8 597.04 1148.73 575.353 1132.71 554.394C1116.68 533.435 1099.7 513.206 1081.76 493.861C1045.88 455.157 1006.13 420.136 963.631 388.935C921.147 357.677 875.935 330.343 829.562 305.389C783.174 280.412 735.609 257.773 688.064 235.191C640.518 212.608 592.977 189.988 546.637 165.03C523.469 152.558 500.613 139.504 478.239 125.654C455.869 111.805 433.982 97.1558 412.784 81.5598C370.399 50.3726 330.763 15.3563 295.078 -23.3804C277.226 -42.7345 260.333 -62.9738 244.409 -83.9514C228.485 -104.924 213.525 -126.636 199.453 -148.905C213.468 -126.598 228.376 -104.853 244.253 -83.8331C260.125 -62.8128 276.976 -42.5215 294.785 -23.1153C330.39 15.7302 369.969 50.8696 412.312 82.194C433.491 97.8563 455.359 112.577 477.714 126.492C500.069 140.413 522.916 153.533 546.07 166.076C592.382 191.167 639.89 213.92 687.379 236.625C734.863 259.33 782.347 282.073 828.617 307.136C874.867 332.174 919.923 359.575 962.214 390.857C1004.52 422.082 1044.06 457.093 1079.71 495.75C1097.54 515.075 1114.41 535.272 1130.33 556.202C1146.25 577.137 1161.22 598.792 1175.3 621L1177.99 619.291H1177.99Z" fill="#678EBF"/>
<path d="M1152.76 619.291C1138.57 597.04 1123.5 575.348 1107.47 554.385C1091.45 533.421 1074.47 513.187 1056.53 493.837C1020.66 455.129 980.912 420.089 938.417 388.888C895.937 357.62 850.717 330.29 804.334 305.346C757.936 280.379 710.358 257.763 662.803 235.195C615.248 212.632 567.688 190.031 521.343 165.082C475.007 140.167 429.876 112.837 387.476 81.6166C345.09 50.42 305.464 15.3941 269.779 -23.352C251.932 -42.7109 235.039 -62.9548 219.12 -83.9372C203.196 -104.915 188.235 -126.626 174.164 -148.896C188.183 -126.588 203.087 -104.839 218.959 -83.8141C234.831 -62.7892 251.672 -42.4932 269.482 -23.0822C305.086 15.768 344.651 50.9264 386.999 82.2556C429.356 113.613 474.463 141.08 520.771 166.133C567.092 191.214 614.614 213.948 662.117 236.634C709.616 259.321 757.114 282.045 803.389 307.098C849.649 332.127 894.714 359.523 937 390.814C979.305 422.044 1018.84 457.07 1054.49 495.735C1072.31 515.066 1089.19 535.272 1105.1 556.202C1121.02 577.137 1135.98 598.787 1150.06 621L1152.75 619.291H1152.76Z" fill="#678EBF"/>
<path d="M1127.52 619.291C1113.33 597.04 1098.26 575.343 1082.24 554.38C1066.22 533.412 1049.24 513.173 1031.31 493.818C995.437 455.105 955.698 420.046 913.199 388.84C870.723 357.563 825.493 330.238 779.101 305.304C732.694 280.346 685.101 257.749 637.532 235.2C589.963 212.656 542.394 190.074 496.034 165.139C449.689 140.233 404.548 112.908 362.153 81.6781C319.763 50.4768 280.146 15.432 244.466 -23.3141C226.619 -42.6777 209.735 -62.9312 193.816 -83.9135C177.897 -104.896 162.936 -126.607 148.86 -148.882C162.88 -126.574 177.783 -104.82 193.655 -83.7905C209.523 -62.7608 226.364 -42.46 244.168 -23.0396C279.768 15.8201 319.328 50.9927 361.676 82.3266C404.029 113.694 449.145 141.156 495.462 166.199C541.793 191.271 589.33 213.986 636.842 236.648C684.355 259.311 731.862 282.021 778.151 307.065C824.421 332.084 869.49 359.471 911.776 390.776C954.082 422.011 993.604 457.056 1029.26 495.726C1047.07 515.061 1063.94 535.272 1079.86 556.207C1095.78 577.133 1110.74 598.787 1124.83 621L1127.52 619.291Z" fill="#678EBF"/>
<path d="M1102.28 619.291C1088.09 597.036 1073.02 575.343 1057 554.37C1040.98 533.398 1024.01 513.154 1006.08 493.795C970.214 455.072 930.484 420.004 887.985 388.788C845.509 357.502 800.275 330.177 753.873 305.252C707.456 280.308 659.849 257.725 612.266 235.2C564.683 212.675 517.099 190.111 470.73 165.186C424.376 140.29 379.226 112.974 336.835 81.7302C294.445 50.5241 254.838 15.4651 219.157 -23.2905C201.315 -42.6635 184.432 -62.917 168.517 -83.904C152.598 -104.891 137.642 -126.607 123.566 -148.882C137.585 -126.574 152.489 -104.815 168.361 -83.7857C184.228 -62.7513 201.064 -42.4458 218.869 -23.0207C254.469 15.8438 294.015 51.0353 336.368 82.3739C378.715 113.755 423.842 141.208 470.168 166.242C516.509 191.304 564.059 214 611.586 236.644C659.112 259.287 706.634 281.978 752.932 307.012C799.211 332.023 844.29 359.409 886.572 390.719C928.882 421.959 968.395 457.018 1004.04 495.697C1021.86 515.037 1038.73 535.253 1054.64 556.193C1070.54 577.128 1085.5 598.787 1099.59 621L1102.28 619.291Z" fill="#678EBF"/>
<path d="M1077.04 619.291C1062.85 597.036 1047.78 575.339 1031.76 554.361C1015.75 533.383 998.778 513.135 980.855 493.766C962.923 474.403 944.022 455.953 924.298 438.43C904.575 420.913 884.011 404.351 862.766 388.731C820.291 357.44 775.051 330.111 728.64 305.2C682.214 280.265 634.593 257.702 587 235.195C539.402 212.689 491.81 190.145 445.431 165.229C399.067 140.342 353.908 113.031 311.522 81.7728C269.132 50.562 229.534 15.484 193.858 -23.2763C176.021 -42.6541 159.142 -62.9122 143.227 -83.904C127.308 -104.896 112.357 -126.612 98.2759 -148.891C112.296 -126.579 127.199 -104.82 143.067 -83.7857C158.929 -62.7466 175.765 -42.4363 193.566 -23.0065C229.161 15.8675 268.702 51.0684 311.05 82.4165C353.397 113.807 398.528 141.26 444.869 166.28C491.219 191.333 538.783 214.009 586.324 236.634C633.865 259.259 681.401 281.931 727.704 306.956C773.997 331.952 819.076 359.343 861.358 390.658C882.508 406.292 902.969 422.853 922.588 440.366C942.202 457.879 961 476.32 978.819 495.66C996.633 515.009 1013.49 535.229 1029.4 556.169C1045.3 577.123 1060.26 598.782 1074.35 621L1077.04 619.291Z" fill="#678EBF"/>
<path d="M1051.8 619.291C1037.61 597.036 1022.55 575.334 1006.53 554.356C990.518 533.379 973.55 513.12 955.632 493.747C937.699 474.384 918.803 455.92 899.084 438.397C879.361 420.875 858.802 404.309 837.557 388.684C816.312 373.055 794.392 358.363 771.966 344.518C749.539 330.66 726.631 317.615 703.416 305.157C656.981 280.232 609.346 257.688 561.739 235.2C514.127 212.713 466.52 190.187 420.132 165.281C373.759 140.403 328.59 113.097 286.209 81.8296C243.819 50.614 204.23 15.5219 168.555 -23.2479C150.717 -42.6304 133.843 -62.898 117.933 -83.8946C102.018 -104.891 87.0629 -126.612 72.9864 -148.886C87.0109 -126.574 101.91 -104.811 117.777 -83.7715C133.64 -62.7324 150.471 -42.4127 168.266 -22.9781C203.862 15.9006 243.389 51.1205 285.741 82.4733C328.084 113.873 373.225 141.321 419.575 166.336C465.934 191.375 513.513 214.038 561.063 236.644C608.613 259.25 656.164 281.903 702.481 306.913C748.783 331.895 793.867 359.286 836.153 390.611C857.304 406.244 877.764 422.815 897.379 440.333C916.993 457.851 935.781 476.301 953.6 495.641C971.409 514.995 988.269 535.22 1004.17 556.169C1020.07 577.118 1035.03 598.782 1049.12 621L1051.8 619.291Z" fill="#678EBF"/>
<path d="M1026.57 619.291C1012.37 597.036 997.308 575.329 981.294 554.347C965.285 533.364 948.317 513.102 930.403 493.724C912.471 474.36 893.58 455.886 873.861 438.359C854.143 420.832 833.578 404.261 812.333 388.632C791.089 373.003 769.173 358.306 746.737 344.462C724.311 330.608 701.394 317.563 678.174 305.11C631.725 280.194 584.08 257.669 536.459 235.2C488.837 212.731 441.216 190.225 394.819 165.328C348.436 140.46 303.258 113.159 260.877 81.8817C218.482 50.6614 178.903 15.5551 143.232 -23.2242C125.399 -42.6114 108.53 -62.8839 92.6198 -83.8851C76.7051 -104.886 61.7544 -126.607 47.6731 -148.886C61.6977 -126.574 76.5964 -104.811 92.4591 -83.7621C108.317 -62.7182 125.144 -42.3937 142.939 -22.9544C178.53 15.9337 218.052 51.1678 260.404 82.5254C302.743 113.94 347.897 141.378 394.252 166.384C440.621 191.413 488.214 214.057 535.778 236.644C583.343 259.231 630.907 281.865 677.229 306.866C700.387 319.361 723.234 332.439 745.584 346.327C767.94 360.2 789.766 374.92 810.916 390.559C832.066 406.197 852.522 422.773 872.136 440.295C891.751 457.818 910.529 476.277 928.353 495.617C946.162 514.976 963.012 535.206 978.918 556.16C994.828 577.114 1009.78 598.782 1023.88 621L1026.57 619.291Z" fill="#678EBF"/>
<path d="M1001.33 619.291C987.13 597.031 972.071 575.324 956.057 554.337C940.048 533.35 923.089 513.087 905.175 493.7C887.243 474.332 868.356 455.853 848.638 438.321C828.919 420.785 808.36 404.214 787.115 388.58C765.87 372.951 743.954 358.245 721.514 344.405C699.083 330.551 676.166 317.511 652.936 305.062C606.478 280.156 558.823 257.65 511.188 235.2C463.553 212.755 415.917 190.263 369.511 165.38C323.118 140.522 277.935 113.23 235.554 81.9384C214.361 66.3141 193.863 49.7431 174.216 32.2065C154.573 14.67 135.752 -3.80379 117.919 -23.1958C100.09 -42.5878 83.2213 -62.8649 67.316 -83.8709C51.4061 -104.872 36.4554 -126.602 22.3694 -148.882C36.3939 -126.565 51.2927 -104.801 67.1554 -83.7526C83.0133 -62.704 99.8353 -42.3748 117.626 -22.926C135.416 -3.4819 154.199 15.0533 173.814 32.6514C193.433 50.2495 213.908 66.8868 235.077 82.5774C277.415 114.001 322.575 141.435 368.939 166.431C415.317 191.451 462.924 214.076 510.503 236.639C558.081 259.207 605.655 281.822 651.991 306.814C675.154 319.305 698.006 332.378 720.356 346.265C742.711 360.138 764.542 374.863 785.692 390.506C806.843 406.15 827.298 422.725 846.908 440.257C866.518 457.784 885.296 476.249 903.12 495.593C920.925 514.957 937.775 535.196 953.675 556.15C969.59 577.109 984.545 598.782 998.641 621L1001.33 619.291Z" fill="#678EBF"/>
<path d="M976.097 619.291C961.963 597.135 946.975 575.519 931.046 554.617C915.122 533.715 898.258 513.528 880.443 494.207C862.601 474.919 843.837 456.488 824.232 439.008C804.631 421.523 784.19 404.985 763.068 389.394C741.946 373.798 720.148 359.125 697.84 345.299C675.532 331.474 652.733 318.457 629.627 306.042C583.404 281.197 535.972 258.767 488.545 236.44C441.112 214.114 393.661 191.792 347.401 167.136C301.15 142.509 256.085 115.492 213.738 84.5701C171.39 53.6811 131.792 18.9583 96.0645 -19.4518C78.1983 -38.6498 61.2819 -58.7281 45.3152 -79.5401C29.3486 -100.347 14.327 -121.883 0.174835 -143.978C14.2703 -121.85 29.2352 -100.272 45.1546 -79.417C61.0692 -58.5624 77.9431 -38.432 95.7715 -19.182C131.419 19.3369 170.96 54.1924 213.265 85.2139C255.575 116.273 300.616 143.432 346.839 168.192C393.071 192.98 440.489 215.434 487.864 237.879C535.235 260.329 582.587 282.868 628.682 307.798C651.727 320.256 674.455 333.305 696.683 347.16C718.91 361.014 740.613 375.706 761.646 391.316C782.673 406.921 803.011 423.459 822.507 440.939C842.008 458.414 860.663 476.831 878.393 496.1C896.093 515.397 912.849 535.556 928.669 556.429C944.489 577.303 959.374 598.882 973.403 621L976.092 619.291H976.097Z" fill="#678EBF"/>
<path d="M950.859 619.291C923.665 576.669 893.305 536.01 859.255 498.627C842.23 479.945 824.35 462.044 805.68 445.014C787.011 427.984 767.552 411.83 747.437 396.551C707.206 365.974 664.353 339 620.181 314.595C575.995 290.172 530.538 268.2 484.93 246.669C439.322 225.128 393.52 203.999 348.615 181.052C303.716 158.134 259.686 133.374 217.83 105.226C196.902 91.1635 176.522 76.2775 156.855 60.4923C137.184 44.7117 118.226 28.0366 100.1 10.4953C81.9738 -7.04604 64.6746 -25.4488 48.2638 -44.6089C31.8435 -63.769 16.3069 -83.6816 1.61131 -104.2C16.2549 -83.6438 31.7396 -63.6837 48.1126 -44.4763C64.4809 -25.2689 81.7328 -6.80937 99.8258 10.784C117.914 28.3821 136.839 45.1188 156.482 60.9608C176.125 76.8077 196.476 91.7599 217.386 105.889C259.204 134.17 303.206 159.066 348.072 182.117C392.948 205.196 438.707 226.453 484.249 248.112C529.791 269.762 575.159 291.838 619.217 316.342C663.261 340.831 705.949 367.858 745.996 398.458C766.016 413.747 785.376 429.906 803.941 446.931C822.507 463.952 840.283 481.839 857.2 500.506C891.028 537.852 921.175 578.448 948.166 621L950.854 619.291H950.859Z" fill="#678EBF"/>
<path d="M925.621 619.291C912.485 598.707 898.626 578.586 883.959 559.061C869.292 539.546 853.845 520.599 837.495 502.471C821.17 484.319 804.05 466.891 786.174 450.268C768.303 433.645 749.686 417.831 730.435 402.846C711.185 387.856 691.301 373.694 670.93 360.29C650.559 346.88 629.702 334.228 608.509 322.182C566.124 298.071 522.387 276.483 478.395 255.562C434.398 234.637 390.108 214.36 346.451 192.762C302.804 171.179 259.804 148.185 218.557 122.261C197.936 109.306 177.769 95.6317 158.192 81.1386C138.615 66.6502 119.644 51.3429 101.395 35.2027C83.1457 19.0671 65.6244 2.10325 48.9017 -15.6227C32.179 -33.3438 16.2596 -51.8271 1.14351 -70.9493C16.2076 -51.7845 32.0798 -33.2586 48.7552 -15.4854C65.4307 2.28788 82.9141 19.3085 101.13 35.5008C119.341 51.6979 138.289 67.0667 157.838 81.6166C177.386 96.1713 197.535 109.912 218.132 122.933C259.336 148.989 302.308 172.12 345.917 193.832C389.536 215.557 433.783 235.957 477.709 256.997C521.631 278.031 565.269 299.719 607.522 323.91C649.78 348.059 690.653 374.712 728.966 404.73C748.122 419.725 766.64 435.543 784.407 452.161C802.179 468.78 819.195 486.193 835.416 504.331C851.662 522.445 867 541.364 881.568 560.855C896.136 580.356 909.896 600.448 922.928 621L925.617 619.291H925.621Z" fill="#678EBF"/>
<path d="M900.384 619.291C887.687 599.398 874.319 579.935 860.2 561.025L852.205 550.432C851.326 549.249 850.381 548.113 849.474 546.949C845.802 542.329 842.159 537.691 838.464 533.095L827.147 519.491C826.216 518.346 825.229 517.253 824.265 516.136L815.537 506.139C799.868 488.498 783.457 471.525 766.333 455.299C749.213 439.074 731.385 423.601 712.947 408.904C676.076 379.483 636.757 353.256 596.058 329.519C555.355 305.758 513.31 284.426 470.867 264.044C428.425 243.639 385.595 224.091 343.214 203.606C300.838 183.135 258.887 161.698 218.383 137.705C177.873 113.755 138.819 87.2444 102.283 57.534C84.0104 42.6906 66.371 27.0662 49.4451 10.6893C32.5192 -5.68291 16.3116 -22.7982 0.859997 -40.5762C16.2643 -22.7556 32.4247 -5.5882 49.3081 10.8361C66.1914 27.2603 83.793 42.9415 102.033 57.8464C138.502 87.6798 177.509 114.314 217.981 138.396C258.448 162.521 300.366 184.086 342.699 204.69C385.038 225.298 427.815 244.974 470.182 265.488C512.549 285.983 554.49 307.41 595.057 331.247C635.623 355.059 674.776 381.338 711.463 410.779C729.807 425.49 747.536 440.963 764.556 457.188C781.577 473.409 797.893 490.373 813.453 507.994L822.124 517.982C823.083 519.094 824.066 520.187 824.988 521.333L836.229 534.922C839.901 539.513 843.515 544.151 847.163 548.762C848.066 549.921 849.001 551.057 849.876 552.241L857.814 562.819C871.824 581.7 885.093 601.135 897.691 621L900.379 619.291H900.384Z" fill="#678EBF"/>
<path d="M875.146 619.291C862.875 600.06 849.97 581.227 836.376 562.909L831.239 556.07C829.524 553.793 827.837 551.493 826.051 549.268L815.462 535.83L804.575 522.634L803.209 520.987L793.418 509.66C763.342 475.359 730.407 443.58 695.062 414.774C659.736 385.934 622.057 360.077 582.984 336.666C543.906 313.227 503.462 292.193 462.551 272.238C421.63 252.278 380.232 233.349 339.132 213.815C298.032 194.291 257.205 174.137 217.504 151.881C177.811 129.645 139.282 105.235 102.883 77.8916C66.4702 50.5856 32.2452 20.3309 0.836371 -12.6549C32.1507 20.4161 66.2954 50.7797 102.647 78.2087C138.984 105.666 177.467 130.208 217.116 152.572C256.775 174.951 297.568 195.238 338.622 214.89C379.679 234.547 421.016 253.593 461.856 273.667C502.687 293.736 543.027 314.86 581.963 338.375C620.904 361.856 658.418 387.761 693.555 416.624C728.711 445.454 761.447 477.224 791.325 511.497L801.05 522.809L802.406 524.457L813.222 537.639L823.735 551.062C825.507 553.282 827.185 555.577 828.886 557.854L833.985 564.689C847.475 582.988 860.276 601.793 872.453 621L875.142 619.291H875.146Z" fill="#678EBF"/>
<path d="M849.909 619.291C838.029 600.676 825.569 582.438 812.456 564.675L807.5 558.043C805.836 555.838 804.225 553.599 802.5 551.445L792.298 538.405L781.813 525.593C780.088 523.439 778.255 521.375 776.469 519.269L771.082 512.983C742.159 479.628 710.556 448.602 676.652 420.354C642.763 392.078 606.615 366.599 569.063 343.501C531.511 320.374 492.58 299.6 453.11 280.019C413.64 260.423 373.612 242.011 333.754 223.272C293.897 204.538 254.181 185.463 215.358 164.661C195.947 154.262 176.762 143.437 157.913 132.049C139.064 120.661 120.565 108.695 102.505 96.0813C66.3852 70.8769 32.094 42.9935 0.340219 12.4264C31.9995 43.0882 66.2151 71.0805 102.278 96.4079C120.305 109.079 138.781 121.106 157.606 132.56C176.432 144.01 195.593 154.901 214.98 165.361C253.761 186.292 293.434 205.494 333.244 224.352C373.054 243.209 413.016 261.744 452.401 281.444C491.781 301.129 530.604 321.998 568.019 345.191C605.433 368.36 641.421 393.886 675.126 422.186C708.85 450.453 740.254 481.474 768.979 514.801L774.328 521.082C776.1 523.183 777.919 525.247 779.635 527.401L790.049 540.204L800.175 553.235C801.886 555.388 803.488 557.627 805.137 559.828L810.056 566.454C823.069 584.199 835.435 602.413 847.22 621L849.909 619.291Z" fill="#678EBF"/>
<path d="M824.671 619.291C813.193 601.305 801.172 583.669 788.547 566.469L780.192 555.232L769.145 541.018L759.066 528.593C757.402 526.506 755.659 524.49 753.939 522.454L748.765 516.353C720.994 483.969 690.729 453.728 658.271 426.077C625.827 398.397 591.22 373.325 555.208 350.553C519.197 327.758 481.816 307.24 443.829 288.013C367.843 249.528 289.446 216.158 213.757 177.194C175.917 157.736 138.762 136.872 103.077 113.661C67.3964 90.463 33.2233 64.8846 1.27582 36.7267C33.1382 64.984 67.2357 90.6807 102.859 113.997C138.483 137.331 175.595 158.318 213.393 177.904C288.997 217.119 367.309 250.744 443.111 289.438C481.008 308.768 518.281 329.377 554.145 352.243C590.015 375.086 624.457 400.205 656.721 427.904C689.004 455.579 719.076 485.815 746.652 518.176L751.793 524.272C753.504 526.307 755.238 528.324 756.887 530.406L766.895 542.821L776.639 555.445L777.858 557.021L779.044 558.621L786.146 568.244C798.668 585.42 810.595 603.037 821.982 621L824.671 619.291Z" fill="#678EBF"/>
<path d="M799.433 619.291C788.324 601.883 776.71 584.805 764.533 568.13L756.476 557.234L755.295 555.701L745.83 543.446C742.617 539.409 739.361 535.404 736.124 531.381C735.307 530.383 734.518 529.36 733.682 528.376L726.206 519.487C699.49 488.006 670.443 458.509 639.299 431.425C608.174 404.318 574.979 379.644 540.395 357.185C505.811 334.707 469.856 314.425 433.25 295.501C360.022 257.607 284.215 225.161 210.482 188.426C173.62 170.071 137.269 150.622 102.122 129.129C66.9758 107.659 33.0579 84.1063 1.08208 58.102C32.9776 84.2057 66.8246 107.877 101.914 129.465C137.004 151.081 173.308 170.653 210.128 189.136C283.771 226.122 359.484 258.819 432.517 296.917C469.029 315.939 504.866 336.306 539.308 358.855C573.755 381.381 606.78 406.102 637.73 433.228C668.695 460.336 697.552 489.828 724.08 521.29L731.498 530.17C732.325 531.154 733.114 532.172 733.922 533.17L743.557 545.226L752.951 557.471L754.123 559.004L762.118 569.891C774.205 586.552 785.726 603.615 796.745 621L799.433 619.291Z" fill="#678EBF"/>
<path d="M774.196 619.291C752.701 585.633 729.358 553.116 703.601 522.587C677.914 492.01 650.054 463.265 620.2 436.764C590.36 410.244 558.554 385.986 525.373 363.849C492.192 341.698 457.655 321.652 422.424 303.013C387.188 284.359 351.262 267.088 315.194 250.162C279.126 233.236 242.907 216.636 207.066 199.247C171.224 181.866 135.752 163.676 101.253 143.75C66.7537 123.837 33.2327 102.159 1.3656 78.2134C33.1524 102.263 66.6073 124.059 101.05 144.095C135.497 164.145 170.922 182.458 206.716 199.961C242.51 217.474 278.677 234.197 314.683 251.241C350.69 268.285 386.54 285.67 421.677 304.419C456.81 323.157 491.228 343.283 524.267 365.501C557.311 387.7 588.952 412.005 618.617 438.544C648.296 465.069 675.972 493.814 701.469 524.371C727.038 554.896 750.192 587.385 771.507 621L774.196 619.291Z" fill="#678EBF"/>
<path d="M748.958 619.291C728.158 586.717 705.628 555.208 680.844 525.545C656.126 495.839 629.376 467.824 600.732 441.895C572.092 415.962 541.59 392.13 509.742 370.31C477.903 348.466 444.708 328.667 410.795 310.283C376.877 291.89 342.232 274.902 307.378 258.407C272.525 241.907 237.449 225.895 202.629 209.333C167.813 192.776 133.248 175.67 99.4525 157.102C65.6622 138.548 32.6468 118.517 1.02538 96.4268C32.5712 118.621 65.5252 138.77 99.2635 157.448C133.002 176.134 167.525 193.373 202.288 210.048C237.057 226.732 272.08 242.868 306.868 259.481C341.655 276.09 376.22 293.191 410.039 311.679C443.853 330.163 476.92 350.042 508.622 371.947C540.329 393.829 570.665 417.708 599.134 443.66C627.604 469.613 654.17 497.629 678.708 527.325C703.303 556.983 725.649 588.464 746.27 621L748.958 619.291Z" fill="#678EBF"/>
<path d="M723.721 619.291C703.624 587.815 681.916 557.333 658.106 528.551C634.357 499.735 608.722 472.467 581.282 447.149C553.843 421.831 524.66 398.444 494.149 376.969C463.647 355.481 431.841 335.899 399.261 317.781C366.68 299.643 333.353 282.916 299.747 266.813C266.141 250.701 232.261 235.205 198.527 219.391C164.793 203.582 131.206 187.442 98.2145 170.128C65.2275 152.818 32.8406 134.316 1.59714 113.997C32.7697 134.425 65.0952 153.05 98.0302 170.478C130.965 187.915 164.51 204.179 198.187 220.111C231.868 236.043 265.697 251.662 299.232 267.888C332.762 284.108 366.009 300.94 398.486 319.172C430.963 337.386 462.645 357.047 493.005 378.598C523.37 400.129 552.397 423.563 579.662 448.9C606.926 474.242 632.381 501.515 655.951 530.321C679.582 559.094 701.11 589.552 721.032 621L723.721 619.291Z" fill="#678EBF"/>
<path d="M698.488 619.291C679.043 588.838 658.096 559.312 635.188 531.367C612.332 503.389 587.728 476.831 561.399 452.105C535.079 427.369 507.105 404.422 477.842 383.293C448.583 362.15 418.058 342.815 386.739 324.914C355.415 307.012 323.326 290.517 290.906 274.737C258.486 258.951 225.74 243.876 193.055 228.682C160.371 213.489 127.747 198.158 95.5778 181.89C63.413 165.631 31.7065 148.426 0.930876 129.64C31.6356 148.535 63.2854 165.863 95.3983 182.245C127.511 198.631 160.087 214.085 192.72 229.402C225.352 244.719 258.037 259.917 290.381 275.811C322.726 291.701 354.73 308.3 385.945 326.296C417.155 344.287 447.558 363.702 476.675 384.902C505.796 406.093 533.609 429.082 559.764 453.842C585.923 478.592 610.352 505.154 633.034 533.128C655.757 561.073 676.525 590.575 695.794 621L698.483 619.291H698.488Z" fill="#678EBF"/>
<path d="M673.25 619.291C654.481 589.889 634.314 561.357 612.318 534.273C590.369 507.166 566.809 481.356 541.609 457.254C516.424 433.134 489.683 410.67 461.691 389.91C433.703 369.141 404.487 350.075 374.472 332.411C344.452 314.742 313.639 298.483 282.462 283.006C251.28 267.528 219.729 252.831 188.155 238.191C156.586 223.552 124.997 208.954 93.7397 193.657C62.4868 178.364 31.5647 162.361 1.37978 145.028C31.4986 162.474 62.364 178.6 93.5649 194.016C124.766 209.437 156.307 224.157 187.82 238.916C219.332 253.674 250.821 268.489 281.928 284.075C313.03 299.662 343.753 316.025 373.659 333.784C403.565 351.538 432.659 370.679 460.5 391.51C488.346 412.327 514.935 434.838 539.951 458.977C564.985 483.102 588.375 508.922 610.144 536.025C631.966 563.103 651.958 591.621 670.557 621L673.245 619.291H673.25Z" fill="#678EBF"/>
<path d="M648.013 619.291C629.872 590.873 610.428 563.269 589.287 537.004C568.184 510.721 545.588 485.62 521.432 462.12C497.3 438.596 471.699 416.601 444.893 396.21C418.091 375.805 390.094 357.009 361.298 339.582C332.507 322.135 302.903 306.08 272.898 290.867C242.888 275.65 212.471 261.271 181.974 247.09C151.478 232.909 120.896 218.913 90.5454 204.42C60.1998 189.932 30.081 174.937 0.543405 158.839C30.0148 175.055 60.0817 190.168 90.3753 204.78C120.669 219.396 151.199 233.515 181.639 247.814C212.079 262.113 242.429 276.606 272.354 291.937C302.28 307.263 331.789 323.418 360.471 340.95C389.158 358.467 417.023 377.339 443.683 397.8C470.348 418.248 495.793 440.29 519.764 463.838C543.759 487.367 566.181 512.472 587.113 538.756C608.079 565.011 627.349 592.605 645.319 621L648.008 619.291H648.013Z" fill="#678EBF"/>
<path d="M622.775 619.291C605.287 591.895 586.594 565.252 566.322 539.844C546.089 514.417 524.475 490.074 501.393 467.213C478.338 444.323 453.904 422.839 428.312 402.851C402.729 382.853 375.998 364.355 348.464 347.179C320.935 329.988 292.602 314.127 263.825 299.17C235.049 284.203 205.828 270.117 176.47 256.348C117.753 228.829 58.4609 202.508 0.897799 172.608C58.338 202.744 117.541 229.317 176.129 257.072C205.426 270.955 234.576 285.154 263.273 300.23C291.969 315.296 320.202 331.256 347.618 348.532C375.039 365.794 401.642 384.367 427.083 404.422C452.529 424.467 476.812 445.999 499.706 468.912C522.628 491.807 544.071 516.154 564.139 541.586C584.24 566.989 602.763 593.623 620.082 621L622.77 619.291H622.775Z" fill="#678EBF"/>
<path d="M597.537 619.291C580.649 592.927 562.613 567.302 543.263 542.698L532.286 528.934C531.062 527.41 529.763 525.943 528.506 524.447L517.104 511.028C515.838 509.537 514.585 508.032 513.253 506.598L497.499 489.199L481.22 472.292C459.201 450.06 435.905 429.101 411.509 409.534C387.117 389.957 361.629 371.768 335.352 354.846C309.07 337.92 282.008 322.235 254.446 307.524C226.888 292.794 198.867 278.968 170.662 265.564C114.247 238.745 57.0717 213.569 1.15769 185.714C56.9535 213.806 114.03 239.233 170.317 266.283C198.461 279.806 226.411 293.745 253.879 308.579C281.356 323.394 308.318 339.175 334.487 356.186C360.655 373.192 386.011 391.453 410.261 411.086C434.516 430.715 457.66 451.712 479.524 473.972L495.684 490.898L511.316 508.312C512.639 509.746 513.877 511.251 515.134 512.742L526.441 526.161C527.689 527.661 528.974 529.128 530.188 530.652L541.075 544.421C560.255 569.029 578.126 594.65 594.844 621L597.533 619.291H597.537Z" fill="#678EBF"/>
<path d="M572.3 619.291C556.045 593.912 538.732 569.219 520.199 545.458C501.662 521.711 481.958 498.855 460.911 477.304C439.903 455.716 417.708 435.297 394.465 416.16C371.226 397.019 346.947 379.161 321.885 362.509C296.822 345.858 270.989 330.385 244.641 315.883C218.293 301.375 191.458 287.781 164.396 274.685C110.269 248.486 55.2288 224.271 1.06791 198.167C55.1154 224.508 110.056 248.974 164.047 275.404C191.042 288.614 217.801 302.322 244.06 316.929C270.318 331.535 296.047 347.103 320.996 363.835C345.946 380.567 370.092 398.496 393.194 417.694C416.295 436.887 438.343 457.344 459.191 478.961C480.082 500.544 499.621 523.415 517.992 547.167C536.369 570.941 553.522 595.635 569.611 621L572.3 619.291Z" fill="#678EBF"/>
<path d="M547.062 619.291C531.445 594.896 514.845 571.136 497.126 548.231C479.401 525.337 460.604 503.256 440.56 482.359C420.553 461.434 399.44 441.578 377.34 422.896C355.24 404.214 332.162 386.71 308.309 370.352C284.461 353.985 259.856 338.753 234.732 324.45C209.598 310.16 183.969 296.784 158.069 283.962C106.271 258.312 53.4238 234.911 1.12934 210.332C53.3104 235.153 106.049 258.8 157.715 284.676C183.543 297.608 209.097 311.097 234.141 325.486C259.171 339.889 283.676 355.22 307.406 371.668C331.141 388.111 354.092 405.681 376.05 424.42C398.013 443.154 418.975 463.057 438.83 484.011C458.719 504.937 477.355 527.036 494.919 549.94C512.478 572.854 528.917 596.614 544.374 621L547.062 619.291Z" fill="#678EBF"/>
<path d="M521.825 619.291C506.822 595.852 490.912 572.996 473.972 550.925C457.027 528.858 439.099 507.54 420.014 487.301C400.962 467.033 380.884 447.736 359.876 429.527C338.872 411.309 316.937 394.179 294.256 378.12C271.58 362.055 248.161 347.056 224.228 332.96C200.285 318.874 175.822 305.701 151.071 293.125C101.56 267.959 50.891 245.225 0.505603 221.919C50.7776 245.466 101.338 268.446 150.707 293.835C175.387 306.53 199.77 319.806 223.618 333.992C247.457 348.187 270.772 363.276 293.33 379.421C315.893 395.562 337.695 412.757 358.562 431.032C379.434 449.302 399.36 468.638 418.261 488.938C437.195 509.206 454.967 530.548 471.751 552.629C488.54 574.709 504.289 597.566 519.136 621L521.825 619.291Z" fill="#678EBF"/>
<path d="M496.587 619.291C482.213 596.832 467.002 574.903 450.856 553.689C434.7 532.484 417.651 511.947 399.53 492.394C381.442 472.817 362.408 454.116 342.506 436.404C322.603 418.688 301.831 401.966 280.345 386.237C258.859 370.504 236.655 355.765 213.936 341.892C191.217 328.018 167.955 315.059 144.39 302.701C97.2458 277.988 48.8545 255.827 0.510328 233.633C48.741 256.064 97.0237 278.471 144.016 303.406C167.506 315.873 190.683 328.937 213.308 342.909C235.932 356.877 258.028 371.706 279.395 387.52C300.767 403.329 321.407 420.122 341.173 437.891C360.939 455.659 379.826 474.403 397.768 494.012C415.738 513.599 432.635 534.155 448.63 555.374C464.63 576.607 479.68 598.541 493.898 621L496.587 619.291Z" fill="#678EBF"/>
<path d="M471.349 619.291C457.632 597.85 443.154 576.901 427.82 556.586L419.145 545.202L416.168 541.477L407.209 530.312C406.216 529.067 405.224 527.827 404.184 526.62L391.875 512.037L379.211 497.761C362.111 478.923 344.155 460.87 325.386 443.708C306.622 426.54 287.045 410.272 266.788 394.913C246.531 379.554 225.598 365.103 204.145 351.486C182.702 337.854 160.706 325.108 138.393 312.976C93.7539 288.714 47.7818 267.055 1.65384 245.84C47.6684 267.296 93.5223 289.192 138.011 313.677C160.248 325.917 182.154 338.768 203.503 352.494C224.856 366.206 245.685 380.742 265.824 396.182C285.963 411.617 305.408 427.956 324.039 445.175C342.671 462.395 360.49 480.49 377.44 499.366L389.995 513.665L402.19 528.267C403.221 529.474 404.203 530.719 405.186 531.963L414.06 543.139L417.009 546.868L425.599 558.261C440.772 578.595 455.094 599.559 468.661 621L471.349 619.291Z" fill="#678EBF"/>
<path d="M446.112 619.291C419.877 578.297 390.859 539.035 358.439 502.726C342.236 484.579 325.244 467.137 307.501 450.505C289.762 433.867 271.272 418.04 252.135 403.049C213.865 373.046 173.001 346.478 130.668 322.675C88.3434 298.815 44.6348 277.558 0.604833 257.096C44.5214 277.799 88.1072 299.293 130.275 323.37C172.453 347.387 213.119 374.153 251.152 404.304C270.171 419.37 288.534 435.264 306.135 451.958C323.742 468.647 340.592 486.132 356.648 504.317C388.785 540.696 417.496 579.996 443.423 621L446.112 619.291Z" fill="#678EBF"/>
<path d="M420.879 619.291C396.005 580.417 368.627 543.105 338.215 508.392C307.813 473.683 274.514 441.531 238.73 412.464C202.955 383.369 164.77 357.336 125.063 333.992C85.3713 310.596 44.2615 289.736 2.67922 269.985C44.1481 289.978 85.1303 311.069 124.657 334.678C164.198 358.235 202.184 384.457 237.723 413.699C273.276 442.917 306.301 475.179 336.415 509.963C366.538 544.753 393.614 582.107 418.185 621L420.874 619.291H420.879Z" fill="#678EBF"/>
<path d="M395.641 619.291C371.92 582.211 345.917 546.561 317.174 513.225C288.43 479.898 257.059 448.858 223.363 420.6C189.677 392.329 153.732 366.812 116.26 343.875C78.8031 320.89 39.919 300.353 0.4489 281.103C39.7961 300.59 78.548 321.359 115.84 344.552C153.146 367.697 188.883 393.398 222.333 421.817C255.792 450.221 286.899 481.375 315.359 514.777C343.819 548.198 369.525 583.896 392.948 621L395.636 619.291H395.641Z" fill="#678EBF"/>
<path d="M370.404 619.291C347.992 584.251 323.534 550.499 296.656 518.758C269.77 487.036 240.539 457.311 209.178 430.043C177.826 402.765 144.399 377.921 109.465 355.485C74.5457 333.007 38.2132 312.825 1.20022 294.072C38.095 313.062 74.2858 333.471 109.031 356.153C143.794 378.796 177.008 403.821 208.124 431.245C239.249 458.66 268.21 488.498 294.823 520.301C321.426 552.122 345.591 585.927 367.71 621L370.399 619.291H370.404Z" fill="#678EBF"/>
<path d="M345.166 619.291C324.087 586.334 301.193 554.527 276.187 524.447C251.157 494.396 224.067 466.072 195.045 439.888C166.031 413.699 135.138 389.626 102.784 367.754C70.4442 345.849 36.7294 326.054 2.2634 307.756C36.6066 326.291 70.1748 346.308 102.335 368.417C134.509 390.488 165.195 414.736 193.972 441.071C222.753 467.398 249.588 495.84 274.344 525.976C299.076 556.136 321.686 588.005 342.473 621L345.161 619.291H345.166Z" fill="#678EBF"/>
<path d="M319.928 619.291C300.191 588.426 278.847 558.574 255.679 530.203C232.483 501.855 207.481 474.994 180.765 449.975C154.048 424.955 125.649 401.753 95.8661 380.519C66.0969 359.262 35.0142 339.904 3.13285 322.036C34.8866 340.14 65.8134 359.717 95.403 381.168C125.007 402.595 153.193 425.968 179.673 451.134C206.158 476.296 230.9 503.275 253.827 531.713C276.721 560.178 297.781 590.087 317.235 621L319.924 619.291H319.928Z" fill="#678EBF"/>
<path d="M294.691 619.291C276.168 590.333 256.237 562.275 234.708 535.49C213.166 508.719 190.022 483.244 165.351 459.351C140.685 435.458 114.512 413.136 87.044 392.565C59.5902 371.971 30.8985 353.076 1.38923 335.606C30.7662 353.303 59.2973 372.416 86.5667 393.2C113.85 413.964 139.811 436.457 164.245 460.492C188.68 484.532 211.569 510.124 232.847 536.985C254.106 563.865 273.763 591.99 292.002 621L294.691 619.291Z" fill="#678EBF"/>
<path d="M269.453 619.291C252.23 592.449 233.806 566.379 214.026 541.378C194.251 516.377 173.119 492.451 150.641 469.868C128.173 447.281 104.362 426.043 79.4127 406.268C54.4681 386.483 28.3941 368.156 1.49791 351.154C28.2476 368.379 54.1609 386.919 78.9165 406.893C103.677 426.862 127.27 448.261 149.507 470.99C171.749 493.714 192.635 517.754 212.145 542.855C231.665 567.955 249.82 594.101 266.764 621L269.453 619.291Z" fill="#678EBF"/>
<path d="M244.216 619.291C228.4 594.641 211.569 570.648 193.603 547.536C175.643 524.423 156.538 502.196 136.3 481.067C116.062 459.938 94.6847 439.912 72.2965 421.107C49.9129 402.297 26.5182 384.704 2.34373 368.289C26.3669 384.921 49.5869 402.718 71.7814 421.713C93.9759 440.702 115.14 460.894 135.147 482.165C155.159 503.436 174.012 525.782 191.713 548.994C209.419 572.21 225.986 596.288 241.527 621L244.216 619.291Z" fill="#678EBF"/>
<path d="M218.978 619.291C204.571 596.842 189.318 574.936 173.129 553.746C156.945 532.555 139.82 512.084 121.751 492.498C103.682 472.907 84.6625 454.206 64.7691 436.494C44.8805 418.783 24.1177 402.065 2.63197 386.351C23.9571 402.278 44.5403 419.194 64.2352 437.091C83.93 454.982 102.737 473.844 120.574 493.577C138.417 513.305 155.291 533.899 171.224 555.194C187.163 576.484 202.151 598.479 216.289 621L218.978 619.291Z" fill="#678EBF"/>
<path d="M193.74 619.291C167.822 578.907 139.107 540.289 107.254 504.44C91.3345 486.51 74.6449 469.277 57.2276 452.824C39.8103 436.367 21.6653 420.695 2.88241 405.842C21.4999 420.903 39.4606 436.769 56.6748 453.401C73.8936 470.029 90.3659 487.424 106.054 505.495C137.453 541.629 165.663 580.455 191.052 621L193.74 619.291Z" fill="#678EBF"/>
<path d="M168.503 619.291C145.458 583.418 120.211 548.956 92.5111 516.585C64.8258 484.205 34.674 453.96 2.339 426.304C34.3337 454.367 64.0698 484.958 91.2967 517.617C118.543 550.267 143.289 584.957 165.814 621L168.503 619.291Z" fill="#678EBF"/>
<path d="M143.27 619.291C123.249 588.175 101.569 558.119 78.0613 529.578C54.5626 501.032 29.2305 474.015 2.17362 448.877C28.8713 474.403 53.7876 501.756 76.828 530.586C99.8778 559.411 121.066 589.694 140.576 621L143.265 619.291H143.27Z" fill="#678EBF"/>
<path d="M118.032 619.291C101.106 593.05 83.0039 567.567 63.6162 543.12C44.2332 518.668 23.5601 495.253 1.62549 473.106C23.1821 495.627 43.4299 519.368 62.3592 544.104C81.2934 568.835 98.9138 594.556 115.339 621L118.028 619.291H118.032Z" fill="#678EBF"/>
<path d="M92.7946 619.291C78.9591 597.921 64.3439 577.066 48.8923 556.86C33.4359 536.659 17.1432 517.111 0 498.348C16.7463 517.461 32.6137 537.331 47.6164 557.816C62.6191 578.306 76.7571 599.412 90.1012 621L92.7899 619.291H92.7946Z" fill="#678EBF"/>
<path d="M67.557 619.291C47.7629 588.989 26.3906 559.738 3.30768 531.935C25.5637 560.405 46.0288 590.22 64.8636 621L67.5523 619.291H67.557Z" fill="#678EBF"/>
<path d="M42.3194 619.291C29.547 600.089 16.1462 581.321 2.07439 563.094C15.2909 581.951 27.7892 601.286 39.626 621L42.3147 619.291H42.3194Z" fill="#678EBF"/>
<path d="M17.0818 619.291L0.378021 596.581L14.3931 621L17.0818 619.291Z" fill="#678EBF"/>
</g>
</svg>
