<svg width="39" height="80" viewBox="0 0 39 80" fill="none" xmlns="http://www.w3.org/2000/svg">
<g opacity="0.1">
<path d="M4.49852 1.14228C4.69116 1.1817 5.42046 1.30905 6.11681 1.43695C11.0494 2.33322 13.8904 4.07134 15.2606 7.02287C15.5641 7.66154 15.9012 8.79606 15.9818 9.43655L16.025 9.81395L15.6574 9.86279C14.1385 10.0629 13.2369 10.0645 12.2135 9.85867C9.64689 9.32981 7.50256 7.50435 5.62479 4.23365C5.20941 3.51736 4.09866 1.34874 4.04901 1.16342C4.02625 1.07848 4.09988 1.0753 4.49852 1.14228Z" fill="black"/>
<path d="M18.3015 0.853689C20.7186 3.4502 22.0295 5.53207 22.5964 7.64779C22.8799 8.70565 22.9558 9.29773 22.9182 10.1768C22.8774 11.3215 22.4466 12.8025 21.8849 13.764L21.5776 14.285L20.8196 13.8343C19.8776 13.2839 19.2503 12.7651 18.5681 11.9796C17.8859 11.1941 17.4658 10.4294 17.1082 9.34181C16.4782 7.39198 16.5047 5.05104 17.1849 1.56667C17.3533 0.743597 17.5008 0.058553 17.5162 0.054415C17.5317 0.0502771 17.8849 0.410826 18.3015 0.853689Z" fill="black"/>
<path d="M9.93553 10.9322C13.2782 11.1455 15.3556 11.6399 17.2209 12.6712C19.1723 13.7456 20.3486 15.2014 21.1175 17.4534L21.3867 18.2419L20.301 18.4832C16.2614 19.3753 13.1029 17.7802 10.0022 13.2813C9.39403 12.4015 8.45764 10.9144 8.48797 10.8732C8.50135 10.8613 9.14556 10.8873 9.93553 10.9322Z" fill="black"/>
<path d="M26.2177 9.36683C26.3182 9.46403 27.5102 11.5033 27.8508 12.1569C29.759 15.8498 30.1365 18.9266 28.9975 21.5325C28.8126 21.9545 28.5213 22.5043 28.347 22.7496C27.9476 23.3283 27.3743 24.0613 27.3048 24.0799C27.2199 24.1026 26.3178 23.2685 25.798 22.6877C25.0013 21.784 24.5916 21.0579 24.2261 19.8482C23.98 19.0534 23.89 18.6555 23.8559 18.1267C23.7461 16.3271 24.0607 14.629 24.9492 12.2309C25.4225 10.9703 26.1527 9.30974 26.2177 9.36683Z" fill="black"/>
<path d="M18.0891 19.7463C19.9107 20.3672 20.6783 20.6994 22.0016 21.4373C24.7558 22.9752 26.2677 24.788 26.815 27.2318C27.0728 28.3793 27.1371 29.6696 26.9364 29.7234C26.3804 29.8724 24.4429 29.6219 23.4013 29.2555C21.1604 28.4904 19.2939 26.4663 18.0117 23.4416C17.5898 22.4539 16.8291 20.2329 16.7167 19.6588L16.6302 19.2434L18.0891 19.7463Z" fill="black"/>
<path d="M33.7043 20.2301C33.7184 20.3753 33.7998 20.8335 33.8842 21.2412C34.9876 26.7801 34.1488 30.6297 31.3338 32.973C30.9151 33.3252 29.7183 34.1093 29.533 34.159C29.4635 34.1776 29.0031 33.3244 28.6763 32.5678C28.3577 31.8421 28.048 30.3775 28.0471 29.6329C28.0622 27.1875 29.1346 24.889 31.5526 22.1142C32.1671 21.4116 33.5145 20.0161 33.6072 19.9913C33.6458 19.9809 33.6923 20.0926 33.7043 20.2301Z" fill="black"/>
<path d="M20.7407 29.0828C22.53 30.2007 23.5174 30.9209 24.5222 31.86C27.1559 34.3074 28.1633 37.0169 27.5985 40.0979C27.4353 41.0023 27.4579 40.9632 27.0124 40.8756C26.2398 40.7102 25.1296 40.3042 24.4232 39.9225C22.8439 39.0629 21.6656 37.7234 20.8947 35.9272C20.5394 35.0955 20.0143 33.0431 19.8568 31.8687C19.7259 30.8858 19.5227 28.4906 19.5679 28.4122C19.587 28.3906 20.1059 28.6902 20.7407 29.0828Z" fill="black"/>
<path d="M38.0178 30.9505C38.024 30.9736 37.8955 31.637 37.7224 32.4117C37.1534 35.0138 36.6366 36.4516 35.7096 38.0573C34.7974 39.6259 33.8506 40.6327 32.5333 41.3994C32.011 41.7049 31.7547 41.7984 30.581 42.1129C29.8397 42.3115 29.1309 42.4767 28.997 42.4711C28.7817 42.4709 28.7678 42.4498 28.7314 42.1285C28.3407 38.8483 29.2663 36.4651 31.7535 34.3504C32.9809 33.3098 34.4557 32.4511 36.7501 31.4391C38.1108 30.8345 37.9992 30.881 38.0178 30.9505Z" fill="black"/>
<path d="M21.3231 39.4376C25.8701 43.0028 27.6731 46.2107 27.144 49.7953C27.0356 50.503 26.8429 51.2664 26.6468 51.7079L26.5348 51.9696L26.049 51.7936C23.9539 51.0474 22.4679 49.8566 21.4555 48.1168C21.0623 47.4524 21.0034 47.2944 20.6289 45.8968C20.2048 44.3139 20.1274 43.747 20.0888 42.0277C20.0652 40.8588 20.1543 38.6584 20.2237 38.6398C20.2546 38.6315 20.7571 38.9934 21.3231 39.4376Z" fill="black"/>
<path d="M18.5809 46.8343C19.7793 48.218 20.4853 49.1544 21.1339 50.2468C22.7835 52.9745 23.1903 55.6049 22.3472 58.0487C22.088 58.7803 21.4839 59.9849 21.3526 60.0201C21.1828 60.0656 19.6702 59.0226 19.0613 58.4492C17.1874 56.6754 16.4127 54.3092 16.6286 51.0071C16.6841 50.0405 17.3419 46.3801 17.5483 45.853C17.5966 45.7242 17.7404 45.8595 18.5809 46.8343Z" fill="black"/>
<path d="M38.6953 40.2779C38.7284 40.4015 37.8303 42.918 37.4025 43.8851C36.8663 45.0963 35.8822 46.7669 35.2549 47.5144C34.6276 48.2618 33.7582 49.0326 33.0003 49.5088C32.4245 49.8617 32.2609 49.9304 31.0254 50.2615C29.8615 50.5816 29.5773 50.6329 28.9182 50.644L28.168 50.6547L28.1657 50.0594C28.1994 45.9538 30.3224 43.2828 35.0457 41.4213C36.1976 40.9637 38.6705 40.1853 38.6953 40.2779Z" fill="black"/>
<path d="M14.662 53.1893C15.5817 55.2933 16.3421 57.7296 16.539 59.1748C16.739 60.6936 16.6312 62.237 16.2408 63.4671C15.9735 64.2919 15.25 65.545 14.6503 66.2105C14.1916 66.7224 13.5579 67.3226 13.4421 67.3536C13.2645 67.4012 12.0824 65.831 11.6034 64.9083C11.2287 64.1894 10.8432 62.5961 10.8427 61.7604C10.8409 60.2712 11.1359 58.9011 11.8106 57.2803C12.1777 56.3957 13.6205 53.7498 14.1412 53.0061L14.4178 52.6175L14.662 53.1893Z" fill="black"/>
<path d="M32.6219 50.9675C33.3453 50.8565 35.933 50.5686 35.982 50.5969C36.0407 50.6308 34.5021 53.2279 34.0004 53.95C32.7697 55.7197 31.2303 57.2329 29.8785 58.0255C28.6477 58.7443 27.0971 59.1349 25.7021 59.0866C24.7845 59.0594 23.7343 58.8773 23.6991 58.7461C23.6474 58.553 24.0103 57.1895 24.3251 56.4183C25.1645 54.3313 26.7163 52.8644 29.0679 51.9116C29.8075 51.6141 31.655 51.1273 32.6219 50.9675Z" fill="black"/>
<path d="M9.70804 61.5098C9.73701 61.6179 9.4862 63.3072 9.28304 64.3713C8.88748 66.447 8.38928 67.9543 7.65499 69.26C6.73473 70.9218 5.6495 71.9988 4.09639 72.8122C3.5581 73.0889 1.45893 73.7176 1.32186 73.6384C1.20644 73.5783 1.00072 72.0693 0.995693 71.3092C0.997317 70.9446 1.05986 70.2824 1.14531 69.8291C1.68448 66.8377 3.78171 64.5957 8.26551 62.2108C9.50521 61.5559 9.69356 61.4558 9.70804 61.5098Z" fill="black"/>
<path d="M24.4509 60.3156C24.5631 60.3021 24.9019 60.2692 25.2154 60.2349C26.4058 60.1063 28.6464 60.1597 30.7929 60.3873L31.0396 60.4122L30.6406 60.8999C29.8411 61.9003 28.5548 63.2463 27.6433 64.0451C25.9139 65.5595 24.6866 66.2608 23.0187 66.7077C21.8044 67.0248 20.8513 67.0816 19.7136 66.8816C19.0543 66.7686 17.5924 66.3161 17.4506 66.1886C17.348 66.0837 17.5934 65.4552 18.1052 64.5235C18.8805 63.124 19.8258 62.1425 21.103 61.4113C21.5908 61.1316 21.9666 60.9895 22.9817 60.701C23.6802 60.4973 24.3365 60.3214 24.4509 60.3156Z" fill="black"/>
<path d="M15.1792 67.9643C17.286 67.6729 19.955 68.1826 23.3068 69.5107L24.232 69.8752L24.0273 70.0377C23.6178 70.3626 22.0829 71.3366 21.2626 71.7964C19.9236 72.5442 19.1825 72.8669 17.8956 73.2531C15.6693 73.9324 13.9124 73.9231 12.1087 73.2147C11.4508 72.9523 10.3661 72.3326 9.85688 71.9146L9.51876 71.6411L9.90797 71.1478C11.3456 69.3474 13.1903 68.2324 15.1792 67.9643Z" fill="black"/>
<path d="M6.05641 73.9757C8.57768 73.656 11.3865 74.4096 15.5369 76.5252C15.6405 76.5719 15.4527 76.705 14.5917 77.1674C12.3532 78.3879 11.4155 78.7799 9.62198 79.2522C7.69158 79.7694 6.42439 79.8276 4.92344 79.4766C3.68724 79.1872 2.4233 78.5162 1.36451 77.5916L0.805742 77.1123L1.20737 76.6654C2.53622 75.2004 4.35171 74.1925 6.05641 73.9757Z" fill="black"/>
</g>
</svg>
