<svg width="39" height="80" viewBox="0 0 39 80" fill="none" xmlns="http://www.w3.org/2000/svg">
<g opacity="0.1">
<path d="M34.5015 1.14228C34.3088 1.1817 33.5795 1.30905 32.8832 1.43695C27.9506 2.33322 25.1096 4.07134 23.7394 7.02287C23.4359 7.66154 23.0988 8.79606 23.0182 9.43655L22.975 9.81395L23.3426 9.86279C24.8615 10.0629 25.7631 10.0645 26.7865 9.85867C29.3531 9.32981 31.4974 7.50435 33.3752 4.23365C33.7906 3.51736 34.9013 1.34874 34.951 1.16342C34.9738 1.07848 34.9001 1.0753 34.5015 1.14228Z" fill="black"/>
<path d="M20.6985 0.853689C18.2814 3.4502 16.9705 5.53207 16.4036 7.64779C16.1201 8.70565 16.0442 9.29773 16.0818 10.1768C16.1226 11.3215 16.5534 12.8025 17.1151 13.764L17.4224 14.285L18.1804 13.8343C19.1224 13.2839 19.7497 12.7651 20.4319 11.9796C21.1141 11.1941 21.5342 10.4294 21.8918 9.34181C22.5218 7.39198 22.4953 5.05104 21.8151 1.56667C21.6467 0.743597 21.4992 0.058553 21.4838 0.054415C21.4683 0.0502771 21.1151 0.410826 20.6985 0.853689Z" fill="black"/>
<path d="M29.0645 10.9322C25.7218 11.1455 23.6444 11.6399 21.7791 12.6712C19.8277 13.7456 18.6514 15.2014 17.8825 17.4534L17.6133 18.2419L18.699 18.4832C22.7386 19.3753 25.8971 17.7802 28.9978 13.2813C29.606 12.4015 30.5424 10.9144 30.512 10.8732C30.4987 10.8613 29.8544 10.8873 29.0645 10.9322Z" fill="black"/>
<path d="M12.7823 9.36683C12.6818 9.46403 11.4898 11.5033 11.1492 12.1569C9.24104 15.8498 8.86351 18.9266 10.0025 21.5325C10.1874 21.9545 10.4787 22.5043 10.653 22.7496C11.0524 23.3283 11.6257 24.0613 11.6952 24.0799C11.7801 24.1026 12.6822 23.2685 13.202 22.6877C13.9987 21.784 14.4084 21.0579 14.7739 19.8482C15.02 19.0534 15.11 18.6555 15.1441 18.1267C15.2539 16.3271 14.9393 14.629 14.0508 12.2309C13.5775 10.9703 12.8473 9.30974 12.7823 9.36683Z" fill="black"/>
<path d="M20.9109 19.7463C19.0893 20.3672 18.3217 20.6994 16.9984 21.4373C14.2442 22.9752 12.7323 24.788 12.185 27.2318C11.9272 28.3793 11.8629 29.6696 12.0636 29.7234C12.6196 29.8724 14.5571 29.6219 15.5987 29.2555C17.8396 28.4904 19.7061 26.4663 20.9883 23.4416C21.4102 22.4539 22.1709 20.2329 22.2833 19.6588L22.3698 19.2434L20.9109 19.7463Z" fill="black"/>
<path d="M5.29572 20.2301C5.28164 20.3753 5.20025 20.8335 5.11583 21.2412C4.01238 26.7801 4.85124 30.6297 7.66617 32.973C8.08491 33.3252 9.28172 34.1093 9.46704 34.159C9.53653 34.1776 9.99688 33.3244 10.3237 32.5678C10.6423 31.8421 10.952 30.3775 10.9529 29.6329C10.9378 27.1875 9.86537 24.889 7.44745 22.1142C6.83294 21.4116 5.48547 20.0161 5.39281 19.9913C5.35421 19.9809 5.30773 20.0926 5.29572 20.2301Z" fill="black"/>
<path d="M18.2593 29.0828C16.47 30.2007 15.4826 30.9209 14.4778 31.86C11.8441 34.3074 10.8367 37.0169 11.4015 40.0979C11.5647 41.0023 11.5421 40.9632 11.9876 40.8756C12.7602 40.7102 13.8704 40.3042 14.5768 39.9225C16.1561 39.0629 17.3344 37.7234 18.1053 35.9272C18.4606 35.0955 18.9857 33.0431 19.1432 31.8687C19.2741 30.8858 19.4773 28.4906 19.4321 28.4122C19.413 28.3906 18.8941 28.6902 18.2593 29.0828Z" fill="black"/>
<path d="M0.982222 30.9505C0.976015 30.9736 1.10447 31.637 1.27759 32.4117C1.84657 35.0138 2.3634 36.4516 3.29042 38.0573C4.20256 39.6259 5.14935 40.6327 6.46668 41.3994C6.98897 41.7049 7.2453 41.7984 8.41898 42.1129C9.16026 42.3115 9.86913 42.4767 10.003 42.4711C10.2183 42.4709 10.2322 42.4498 10.2686 42.1285C10.6593 38.8483 9.73369 36.4651 7.24649 34.3504C6.0191 33.3098 4.54431 32.4511 2.24993 31.4391C0.889158 30.8345 1.00084 30.881 0.982222 30.9505Z" fill="black"/>
<path d="M17.6769 39.4376C13.1299 43.0028 11.3269 46.2107 11.856 49.7953C11.9644 50.503 12.1571 51.2664 12.3532 51.7079L12.4652 51.9696L12.951 51.7936C15.0461 51.0474 16.5321 49.8566 17.5445 48.1168C17.9377 47.4524 17.9966 47.2944 18.3711 45.8968C18.7952 44.3139 18.8726 43.747 18.9112 42.0277C18.9348 40.8588 18.8457 38.6584 18.7763 38.6398C18.7454 38.6315 18.2429 38.9934 17.6769 39.4376Z" fill="black"/>
<path d="M20.4191 46.8343C19.2207 48.218 18.5147 49.1544 17.8661 50.2468C16.2165 52.9745 15.8097 55.6049 16.6528 58.0487C16.912 58.7803 17.5161 59.9849 17.6474 60.0201C17.8172 60.0656 19.3298 59.0226 19.9387 58.4492C21.8126 56.6754 22.5873 54.3092 22.3714 51.0071C22.3159 50.0405 21.6581 46.3801 21.4517 45.853C21.4034 45.7242 21.2596 45.8595 20.4191 46.8343Z" fill="black"/>
<path d="M0.304709 40.2779C0.271605 40.4015 1.16973 42.918 1.59752 43.8851C2.13367 45.0963 3.11777 46.7669 3.7451 47.5144C4.37243 48.2618 5.24175 49.0326 5.99969 49.5088C6.57548 49.8617 6.73915 49.9304 7.9746 50.2615C9.1385 50.5816 9.42268 50.6329 10.0818 50.644L10.832 50.6547L10.8343 50.0594C10.8006 45.9538 8.67761 43.2828 3.95425 41.4213C2.80237 40.9637 0.329537 40.1853 0.304709 40.2779Z" fill="black"/>
<path d="M24.338 53.1893C23.4183 55.2933 22.6579 57.7296 22.461 59.1748C22.261 60.6936 22.3688 62.237 22.7592 63.4671C23.0265 64.2919 23.75 65.545 24.3497 66.2105C24.8084 66.7224 25.4421 67.3226 25.5579 67.3536C25.7355 67.4012 26.9176 65.831 27.3966 64.9083C27.7713 64.1894 28.1568 62.5961 28.1573 61.7604C28.1591 60.2712 27.8641 58.9011 27.1894 57.2803C26.8223 56.3957 25.3795 53.7498 24.8588 53.0061L24.5822 52.6175L24.338 53.1893Z" fill="black"/>
<path d="M6.37809 50.9675C5.65473 50.8565 3.067 50.5686 3.01805 50.5969C2.9593 50.6308 4.49792 53.2279 4.99964 53.95C6.23028 55.7197 7.76968 57.2329 9.12147 58.0255C10.3523 58.7443 11.9029 59.1349 13.2979 59.0866C14.2155 59.0594 15.2657 58.8773 15.3009 58.7461C15.3526 58.553 14.9897 57.1895 14.6749 56.4183C13.8355 54.3313 12.2837 52.8644 9.93209 51.9116C9.19248 51.6141 7.34495 51.1273 6.37809 50.9675Z" fill="black"/>
<path d="M29.292 61.5098C29.263 61.6179 29.5138 63.3072 29.717 64.3713C30.1125 66.447 30.6107 67.9543 31.345 69.26C32.2653 70.9218 33.3505 71.9988 34.9036 72.8122C35.4419 73.0889 37.5411 73.7176 37.6781 73.6384C37.7936 73.5783 37.9993 72.0693 38.0043 71.3092C38.0027 70.9446 37.9401 70.2824 37.8547 69.8291C37.3155 66.8377 35.2183 64.5957 30.7345 62.2108C29.4948 61.5559 29.3064 61.4558 29.292 61.5098Z" fill="black"/>
<path d="M14.5491 60.3156C14.4369 60.3021 14.0981 60.2692 13.7846 60.2349C12.5942 60.1063 10.3536 60.1597 8.20708 60.3873L7.96039 60.4122L8.3594 60.8999C9.15893 61.9003 10.4452 63.2463 11.3567 64.0451C13.0861 65.5595 14.3134 66.2608 15.9813 66.7077C17.1956 67.0248 18.1487 67.0816 19.2864 66.8816C19.9457 66.7686 21.4076 66.3161 21.5494 66.1886C21.652 66.0837 21.4066 65.4552 20.8948 64.5235C20.1195 63.124 19.1742 62.1425 17.897 61.4113C17.4092 61.1316 17.0334 60.9895 16.0183 60.701C15.3198 60.4973 14.6635 60.3214 14.5491 60.3156Z" fill="black"/>
<path d="M23.8208 67.9643C21.714 67.6729 19.045 68.1826 15.6932 69.5107L14.768 69.8752L14.9727 70.0377C15.3822 70.3626 16.9171 71.3366 17.7374 71.7964C19.0764 72.5442 19.8175 72.8669 21.1044 73.2531C23.3307 73.9324 25.0876 73.9231 26.8913 73.2147C27.5492 72.9523 28.6339 72.3326 29.1431 71.9146L29.4812 71.6411L29.092 71.1478C27.6544 69.3474 25.8097 68.2324 23.8208 67.9643Z" fill="black"/>
<path d="M32.9436 73.9757C30.4223 73.656 27.6135 74.4096 23.4631 76.5252C23.3595 76.5719 23.5473 76.705 24.4083 77.1674C26.6468 78.3879 27.5845 78.7799 29.378 79.2522C31.3084 79.7694 32.5756 79.8276 34.0766 79.4766C35.3128 79.1872 36.5767 78.5162 37.6355 77.5916L38.1943 77.1123L37.7926 76.6654C36.4638 75.2004 34.6483 74.1925 32.9436 73.9757Z" fill="black"/>
</g>
</svg>
