<svg width="44" height="44" viewBox="0 0 44 44" fill="none" xmlns="http://www.w3.org/2000/svg">
    <rect width="44" height="44" rx="22" fill="#F1F3F9"/>
    <path opacity="0.12" d="M22 22C24.4853 22 26.5 19.9853 26.5 17.5C26.5 15.0147 24.4853 13 22 13C19.5147 13 17.5 15.0147 17.5 17.5C17.5 19.9853 19.5147 22 22 22Z" fill="#E02D3C"/>
    <path d="M22.0018 25C18.8317 25 16.0126 26.5306 14.2178 28.906C13.8315 29.4172 13.6384 29.6728 13.6447 30.0183C13.6496 30.2852 13.8172 30.6219 14.0272 30.7867C14.299 31 14.6757 31 15.429 31H28.5746C29.3279 31 29.7046 31 29.9764 30.7867C30.1864 30.6219 30.354 30.2852 30.3589 30.0183C30.3652 29.6728 30.1721 29.4172 29.7858 28.906C27.991 26.5306 25.1719 25 22.0018 25Z" stroke="#E02D3C" stroke-width="2" stroke-linecap="round" stroke-linejoin="round"/>
    <path d="M22.0018 22C24.4871 22 26.5018 19.9853 26.5018 17.5C26.5018 15.0147 24.4871 13 22.0018 13C19.5165 13 17.5018 15.0147 17.5018 17.5C17.5018 19.9853 19.5165 22 22.0018 22Z" stroke="#E02D3C" stroke-width="2" stroke-linecap="round" stroke-linejoin="round"/>
</svg>
