<svg width="36" height="36" viewBox="0 0 36 36" fill="none" xmlns="http://www.w3.org/2000/svg">
<g opacity="0.12">
<path d="M29.1 31.5C29.9401 31.5 30.3601 31.5 30.681 31.3365C30.9632 31.1927 31.1927 30.9633 31.3365 30.681C31.5 30.3601 31.5 29.9401 31.5 29.1V27.9C31.5 27.06 31.5 26.6399 31.3365 26.319C31.1927 26.0368 30.9632 25.8073 30.681 25.6635C30.3601 25.5 29.9401 25.5 29.1 25.5H6.9C6.05992 25.5 5.63988 25.5 5.31901 25.6635C5.03677 25.8073 4.8073 26.0368 4.66349 26.319C4.5 26.6399 4.5 27.0599 4.5 27.9L4.5 29.1C4.5 29.9401 4.5 30.3601 4.66349 30.681C4.8073 30.9633 5.03677 31.1927 5.31901 31.3365C5.63988 31.5 6.05992 31.5 6.9 31.5L29.1 31.5Z" fill="#E02D3C"/>
<path d="M29.1 13.5C29.9401 13.5 30.3601 13.5 30.681 13.3365C30.9632 13.1927 31.1927 12.9633 31.3365 12.681C31.5 12.3601 31.5 11.9401 31.5 11.1V9.42524C31.5 8.73829 31.5 8.39482 31.3783 8.11138C31.2709 7.86137 31.0976 7.64528 30.8768 7.48624C30.6265 7.30592 30.2912 7.23141 29.6206 7.08239L18.5206 4.61573C18.3263 4.57255 18.2292 4.55096 18.131 4.54236C18.0438 4.53471 17.9562 4.53471 17.869 4.54236C17.7708 4.55096 17.6737 4.57255 17.4794 4.61573L6.37937 7.08239C5.70878 7.23141 5.37348 7.30592 5.1232 7.48623C4.90244 7.64528 4.72909 7.86137 4.62172 8.11138C4.5 8.39482 4.5 8.73829 4.5 9.42524L4.5 11.1C4.5 11.9401 4.5 12.3601 4.66349 12.681C4.8073 12.9633 5.03677 13.1927 5.31901 13.3365C5.63988 13.5 6.05992 13.5 6.9 13.5H29.1Z" fill="#E02D3C"/>
</g>
<path d="M7.5 13.5V25.5M14.25 13.5V25.5M21.75 13.5V25.5M28.5 13.5V25.5M4.5 27.9L4.5 29.1C4.5 29.9401 4.5 30.3601 4.66349 30.681C4.8073 30.9633 5.03677 31.1927 5.31901 31.3365C5.63988 31.5 6.05992 31.5 6.9 31.5H29.1C29.9401 31.5 30.3601 31.5 30.681 31.3365C30.9632 31.1927 31.1927 30.9633 31.3365 30.681C31.5 30.3601 31.5 29.9401 31.5 29.1V27.9C31.5 27.06 31.5 26.6399 31.3365 26.319C31.1927 26.0368 30.9632 25.8073 30.681 25.6635C30.3601 25.5 29.9401 25.5 29.1 25.5H6.9C6.05992 25.5 5.63988 25.5 5.31901 25.6635C5.03677 25.8073 4.8073 26.0368 4.66349 26.319C4.5 26.6399 4.5 27.06 4.5 27.9ZM17.4794 4.61573L6.37937 7.08239C5.70878 7.23141 5.37348 7.30592 5.1232 7.48623C4.90244 7.64528 4.72909 7.86137 4.62172 8.11138C4.5 8.39482 4.5 8.73829 4.5 9.42524L4.5 11.1C4.5 11.9401 4.5 12.3601 4.66349 12.681C4.8073 12.9633 5.03677 13.1927 5.31901 13.3365C5.63988 13.5 6.05992 13.5 6.9 13.5H29.1C29.9401 13.5 30.3601 13.5 30.681 13.3365C30.9632 13.1927 31.1927 12.9633 31.3365 12.681C31.5 12.3601 31.5 11.9401 31.5 11.1V9.42524C31.5 8.73829 31.5 8.39482 31.3783 8.11138C31.2709 7.86137 31.0976 7.64528 30.8768 7.48624C30.6265 7.30592 30.2912 7.23141 29.6206 7.08239L18.5206 4.61573C18.3263 4.57255 18.2292 4.55096 18.131 4.54236C18.0438 4.53471 17.9562 4.53471 17.869 4.54236C17.7708 4.55096 17.6737 4.57255 17.4794 4.61573Z" stroke="#E02D3C" stroke-width="3" stroke-linecap="round" stroke-linejoin="round"/>
</svg>
