<svg width="36" height="36" viewBox="0 0 36 36" fill="none" xmlns="http://www.w3.org/2000/svg">
<path opacity="0.12" d="M26.7 16.5H19.5V31.5H31.5V21.3C31.5 19.6198 31.5 18.7798 31.173 18.138C30.8854 17.5735 30.4265 17.1146 29.862 16.827C29.2202 16.5 28.3802 16.5 26.7 16.5Z" fill="#E02D3C"/>
<path d="M19.5 16.5H26.7C28.3802 16.5 29.2202 16.5 29.862 16.827C30.4265 17.1146 30.8854 17.5735 31.173 18.138C31.5 18.7798 31.5 19.6198 31.5 21.3V31.5M19.5 31.5V9.3C19.5 7.61984 19.5 6.77976 19.173 6.13803C18.8854 5.57354 18.4265 5.1146 17.862 4.82698C17.2202 4.5 16.3802 4.5 14.7 4.5H9.3C7.61984 4.5 6.77976 4.5 6.13803 4.82698C5.57354 5.1146 5.1146 5.57354 4.82698 6.13803C4.5 6.77976 4.5 7.61984 4.5 9.3V31.5M33 31.5H3M9.75 10.5H14.25M9.75 16.5H14.25M9.75 22.5H14.25" stroke="#E02D3C" stroke-width="3" stroke-linecap="round" stroke-linejoin="round"/>
</svg>
