<svg width="36" height="36" viewBox="0 0 36 36" fill="none" xmlns="http://www.w3.org/2000/svg">
<path opacity="0.12" d="M16.953 32.4229C17.2851 32.6166 17.4511 32.7135 17.6855 32.7637C17.8673 32.8027 18.1327 32.8027 18.3145 32.7637C18.5489 32.7135 18.7149 32.6166 19.047 32.4229C21.9691 30.7181 30 25.3632 30 18.0005V10.8269C30 9.62767 30 9.02804 29.8039 8.51259C29.6306 8.05725 29.349 7.65095 28.9835 7.32883C28.5698 6.9642 28.0083 6.75365 26.8854 6.33256L18.8427 3.31655C18.5309 3.19961 18.3749 3.14114 18.2145 3.11796C18.0722 3.0974 17.9278 3.0974 17.7855 3.11796C17.6251 3.14114 17.4691 3.19961 17.1573 3.31655L9.11461 6.33256C7.9917 6.75365 7.43024 6.9642 7.01649 7.32883C6.65097 7.65095 6.36941 8.05725 6.19614 8.51259C6 9.02804 6 9.62767 6 10.8269V18.0005C6 25.3632 14.0309 30.7181 16.953 32.4229Z" fill="#E02D3C"/>
<path d="M13.5 17.2498L16.5 20.2498L23.25 13.4998M30 17.9998C30 25.3625 21.9691 30.7174 19.047 32.4221C18.7149 32.6159 18.5489 32.7127 18.3145 32.763C18.1327 32.802 17.8673 32.802 17.6855 32.763C17.4511 32.7127 17.2851 32.6159 16.953 32.4221C14.0309 30.7174 6 25.3625 6 17.9998V10.8262C6 9.62694 6 9.02731 6.19614 8.51186C6.36941 8.05652 6.65097 7.65022 7.01649 7.3281C7.43024 6.96346 7.9917 6.75292 9.11461 6.33183L17.1573 3.31582C17.4691 3.19888 17.6251 3.14041 17.7855 3.11723C17.9278 3.09667 18.0722 3.09667 18.2145 3.11723C18.3749 3.14041 18.5309 3.19888 18.8427 3.31582L26.8854 6.33183C28.0083 6.75292 28.5698 6.96346 28.9835 7.3281C29.349 7.65022 29.6306 8.05652 29.8039 8.51186C30 9.02731 30 9.62694 30 10.8262V17.9998Z" stroke="#E02D3C" stroke-width="3" stroke-linecap="round" stroke-linejoin="round"/>
</svg>
