<svg width="122" height="24" viewBox="0 0 122 24" fill="none" xmlns="http://www.w3.org/2000/svg">
<g clip-path="url(#clip0_2003_101)">
<path d="M151.002 16.6767C148.498 16.6767 146.527 14.7133 146.527 12.1591C146.527 9.60471 148.496 7.64129 151.002 7.64129C153.507 7.64129 155.533 9.60471 155.533 12.1591C155.533 14.7133 153.505 16.6767 151.002 16.6767ZM155.533 7.53001H154.998C154.012 5.76267 152.184 4.75314 150.074 4.75314C146.614 4.75314 143.404 7.98045 143.404 12.1591C143.404 16.3375 146.527 19.5384 150.074 19.5384C152.184 19.5384 154.012 18.5288 154.998 16.7615H155.533V19.1754H158.629V5.087H155.533V7.53001ZM7.59792 16.6767C5.09451 16.6767 3.12262 14.7133 3.12262 12.1591C3.12262 9.60471 5.09186 7.64129 7.59792 7.64129C10.104 7.64129 12.1291 9.60471 12.1291 12.1591C12.1291 14.7133 10.1013 16.6767 7.59792 16.6767ZM12.1291 7.53001H11.5948C10.6089 5.76267 8.78052 4.75049 6.67043 4.75049C3.20766 4.75049 0 7.9778 0 12.1591C0 16.3402 3.12262 19.5384 6.67043 19.5384C8.78052 19.5384 10.6089 18.5288 11.5948 16.7615H12.1291V19.1754H15.2251V5.087H12.1291V7.53001ZM173.288 10.6725H166.057V5.087H162.96V19.1727H166.057V13.5898H173.288V19.1727H176.383V5.087H173.288V10.6725ZM187.271 11.9894L194.589 5.087H190.365L183.812 11.5389V5.087H180.716V19.1727H183.812V12.6916L190.424 19.1727H194.955L187.271 11.9894ZM136.058 16.4224H131.078V12.8876H136.058C137.465 12.8876 138.142 13.6163 138.142 14.6551C138.142 15.6937 137.493 16.4224 136.058 16.4224ZM136.425 10.1373H131.078V7.83737H140.14V5.087H127.984V19.1727H136.428C139.327 19.1727 141.296 17.2649 141.296 14.6551C141.296 12.0451 139.295 10.1373 136.425 10.1373ZM98.9404 16.6476C96.3785 16.6476 94.4943 14.6842 94.4943 12.1591C94.4943 9.60471 96.3785 7.64129 98.9404 7.64129C101.417 7.64129 103.386 9.60471 103.386 12.1591C103.386 14.6842 101.473 16.6476 98.9404 16.6476ZM98.9404 4.75049C95.2251 4.75049 92.2141 7.30478 91.5391 10.699H88.9214V5.087H85.8254V19.1727H88.9214V13.5607H91.5391C92.1875 16.9841 95.2251 19.5357 98.9404 19.5357C103.105 19.5357 106.483 16.2527 106.483 12.1564C106.483 8.03344 103.078 4.75049 98.9404 4.75049ZM107.609 8.00694H112.786V19.1727H115.882V8.00694H121.059V5.087H107.609V8.00694ZM73.5316 5.087L67.4803 19.1727H70.7439L75.4424 7.92215L80.1409 19.1727H83.5453L77.494 5.087H73.5316ZM42.4915 7.64129C45.5316 7.64129 46.3741 9.97037 46.3741 9.97037H49.6376C49.6376 9.97037 48.3434 4.75049 42.4888 4.75049C38.2952 4.75049 35.0025 8.03344 35.0025 12.1564C35.0025 16.3084 38.2952 19.5622 42.4888 19.5622C48.3407 19.5622 49.6376 14.3424 49.6376 14.3424H46.3741C46.3741 14.3424 45.5291 16.6714 42.4915 16.6714C40.0146 16.6714 38.157 14.7079 38.157 12.1537C38.157 9.59941 40.0146 7.64129 42.4915 7.64129ZM27.6889 16.3958H22.6822V12.8876H27.6916C29.0974 12.8876 29.7751 13.6163 29.7751 14.6551C29.7751 15.6937 29.1241 16.3958 27.6889 16.3958ZM28.0557 10.1373H22.6822V7.86387H31.771V5.087H19.5861V19.1727H28.0557C30.9258 19.1727 32.9243 17.2649 32.9243 14.6551C32.9243 12.0451 30.8993 10.1373 28.0557 10.1373ZM59.0373 16.6476C56.4196 16.6476 54.5062 14.6842 54.5062 12.1591C54.5062 9.60471 56.4196 7.64129 59.0373 7.64129C61.5699 7.64129 63.5685 9.60471 63.5685 12.1591C63.5685 14.6842 61.6284 16.6476 59.0373 16.6476ZM59.0373 4.75049C54.7587 4.75049 51.3836 8.03344 51.3836 12.1564C51.3836 16.2527 54.7613 19.5357 59.0373 19.5357C63.2868 19.5357 66.7203 16.2527 66.7203 12.1564C66.7203 8.03344 63.2309 4.75049 59.0373 4.75049Z" fill="black" fill-opacity="0.15"/>
</g>
<defs>
<clipPath id="clip0_2003_101">
<rect width="222" height="24" fill="white"/>
</clipPath>
</defs>
</svg>
