<svg width="223" height="24" viewBox="0 0 223 24" fill="none" xmlns="http://www.w3.org/2000/svg">
<g clip-path="url(#clip0_2086_4884)">
<path fill-rule="evenodd" clip-rule="evenodd" d="M219.276 4.92547C219.276 7.64453 217.074 9.84875 214.358 9.84875C211.642 9.84875 209.439 7.64453 209.439 4.92547C209.439 2.20643 211.642 0.00219727 214.358 0.00219727C217.074 0.00219727 219.276 2.20643 219.276 4.92547Z" fill="black" fill-opacity="0.15"/>
<path fill-rule="evenodd" clip-rule="evenodd" d="M211.241 16.0869L212.379 13.3542L213.515 16.0869H214.67L212.775 11.5289H211.987L210.091 16.0869H211.241ZM218.333 11.5222H214.837V16.0802H218.333V15.0147H215.904V14.2783H218.016V13.2128H215.904V12.5878H218.333V11.5222ZM222.468 12.5878V11.5222H218.586V12.5878H219.996V16.0802H221.058V12.5878H222.468Z" fill="black" fill-opacity="0.15"/>
<path fill-rule="evenodd" clip-rule="evenodd" d="M209.561 0C208.281 1.24944 207.486 2.9945 207.486 4.92533C207.486 7.26326 208.651 9.32879 210.431 10.572C210.432 10.584 210.432 10.5961 210.432 10.6082C210.432 11.6591 210.176 12.6034 209.665 13.4413C209.155 14.2792 208.46 14.9396 207.581 15.4223C206.7 15.891 205.7 16.1253 204.579 16.1253C203.7 16.1253 202.863 15.962 202.068 15.6353C201.274 15.2946 200.6 14.8188 200.047 14.2081C199.493 13.5976 199.125 12.8803 198.94 12.0567L201.855 11.0768C202.097 11.7584 202.451 12.2768 202.92 12.6319C203.388 12.9727 203.941 13.1431 204.579 13.1431C205.104 13.1431 205.552 13.0437 205.92 12.8449C206.303 12.646 206.602 12.3691 206.814 12.0141C207.027 11.6449 207.133 11.2189 207.133 10.736C207.133 10.2532 207.027 9.84134 206.814 9.50051C206.615 9.14549 206.324 8.87567 205.941 8.69106C205.573 8.49223 205.119 8.39283 204.579 8.39283C204.326 8.39283 204.073 8.41622 203.82 8.46299L202.944 6.19903L206.091 2.76921H199.898V0H209.561Z" fill="black" fill-opacity="0.15"/>
<path d="M151.471 16.6767C148.967 16.6767 146.995 14.7133 146.995 12.1591C146.995 9.60471 148.965 7.64129 151.471 7.64129C153.976 7.64129 156.002 9.60471 156.002 12.1591C156.002 14.7133 153.974 16.6767 151.471 16.6767ZM156.002 7.53001H155.467C154.481 5.76267 152.653 4.75314 150.543 4.75314C147.083 4.75314 143.873 7.98045 143.873 12.1591C143.873 16.3375 146.995 19.5384 150.543 19.5384C152.653 19.5384 154.481 18.5288 155.467 16.7615H156.002V19.1754H159.098V5.087H156.002V7.53001ZM8.06667 16.6767C5.56326 16.6767 3.59137 14.7133 3.59137 12.1591C3.59137 9.60471 5.56061 7.64129 8.06667 7.64129C10.5727 7.64129 12.5978 9.60471 12.5978 12.1591C12.5978 14.7133 10.5701 16.6767 8.06667 16.6767ZM12.5978 7.53001H12.0636C11.0777 5.76267 9.24927 4.75049 7.13918 4.75049C3.67641 4.75049 0.46875 7.9778 0.46875 12.1591C0.46875 16.3402 3.59137 19.5384 7.13918 19.5384C9.24927 19.5384 11.0777 18.5288 12.0636 16.7615H12.5978V19.1754H15.6938V5.087H12.5978V7.53001ZM173.756 10.6725H166.526V5.087H163.429V19.1727H166.526V13.5898H173.756V19.1727H176.852V5.087H173.756V10.6725ZM187.74 11.9894L195.057 5.087H190.834L184.28 11.5389V5.087H181.185V19.1727H184.28V12.6916L190.893 19.1727H195.424L187.74 11.9894ZM136.527 16.4224H131.546V12.8876H136.527C137.933 12.8876 138.61 13.6163 138.61 14.6551C138.61 15.6937 137.962 16.4224 136.527 16.4224ZM136.893 10.1373H131.546V7.83737H140.608V5.087H128.453V19.1727H136.897C139.796 19.1727 141.765 17.2649 141.765 14.6551C141.765 12.0451 139.764 10.1373 136.893 10.1373ZM99.4092 16.6476C96.8473 16.6476 94.963 14.6842 94.963 12.1591C94.963 9.60471 96.8473 7.64129 99.4092 7.64129C101.886 7.64129 103.855 9.60471 103.855 12.1591C103.855 14.6842 101.942 16.6476 99.4092 16.6476ZM99.4092 4.75049C95.6939 4.75049 92.6829 7.30478 92.0079 10.699H89.3902V5.087H86.2942V19.1727H89.3902V13.5607H92.0079C92.6562 16.9841 95.6939 19.5357 99.4092 19.5357C103.573 19.5357 106.951 16.2527 106.951 12.1564C106.951 8.03344 103.547 4.75049 99.4092 4.75049ZM108.078 8.00694H113.255V19.1727H116.351V8.00694H121.528V5.087H108.078V8.00694ZM74.0004 5.087L67.9491 19.1727H71.2126L75.9111 7.92215L80.6096 19.1727H84.014L77.9627 5.087H74.0004ZM42.9602 7.64129C46.0004 7.64129 46.8429 9.97037 46.8429 9.97037H50.1064C50.1064 9.97037 48.8121 4.75049 42.9576 4.75049C38.764 4.75049 35.4713 8.03344 35.4713 12.1564C35.4713 16.3084 38.764 19.5622 42.9576 19.5622C48.8095 19.5622 50.1064 14.3424 50.1064 14.3424H46.8429C46.8429 14.3424 45.9978 16.6714 42.9602 16.6714C40.4834 16.6714 38.6258 14.7079 38.6258 12.1537C38.6258 9.59941 40.4834 7.64129 42.9602 7.64129ZM28.1577 16.3958H23.1509V12.8876H28.1604C29.5662 12.8876 30.2438 13.6163 30.2438 14.6551C30.2438 15.6937 29.5928 16.3958 28.1577 16.3958ZM28.5244 10.1373H23.1509V7.86387H32.2397V5.087H20.0548V19.1727H28.5244C31.3946 19.1727 33.393 17.2649 33.393 14.6551C33.393 12.0451 31.368 10.1373 28.5244 10.1373ZM59.5061 16.6476C56.8884 16.6476 54.975 14.6842 54.975 12.1591C54.975 9.60471 56.8884 7.64129 59.5061 7.64129C62.0387 7.64129 64.0372 9.60471 64.0372 12.1591C64.0372 14.6842 62.0972 16.6476 59.5061 16.6476ZM59.5061 4.75049C55.2275 4.75049 51.8523 8.03344 51.8523 12.1564C51.8523 16.2527 55.23 19.5357 59.5061 19.5357C63.7555 19.5357 67.1891 16.2527 67.1891 12.1564C67.1891 8.03344 63.6997 4.75049 59.5061 4.75049Z" fill="black" fill-opacity="0.15"/>
</g>
<defs>
<clipPath id="clip0_2086_4884">
<rect width="222" height="24" fill="white" transform="translate(0.46875)"/>
</clipPath>
</defs>
</svg>
