<svg width="294" height="306" viewBox="0 0 294 306" fill="none" xmlns="http://www.w3.org/2000/svg">
<path d="M248.228 -136C250.165 -136 251.734 -134.473 251.734 -132.589V-125.767H258.745C260.682 -125.767 262.251 -124.24 262.251 -122.356C262.251 -120.472 260.682 -118.945 258.745 -118.945H251.734V-112.123C251.734 -110.239 250.165 -108.712 248.228 -108.712C246.292 -108.712 244.722 -110.239 244.722 -112.123V-118.945H237.71C235.775 -118.945 234.205 -120.472 234.205 -122.356C234.205 -124.24 235.775 -125.767 237.71 -125.767H244.722V-132.589C244.722 -134.473 246.292 -136 248.228 -136Z" fill="url(#paint0_linear_565_26954)"/>
<path d="M383.153 12.3172L385.853 4.31917C384.011 3.83174 382.119 3.44751 380.176 3.16644C373.623 2.20932 367.319 1.58649 361.263 1.29927C358.863 1.19286 356.518 0.997757 354.164 0.801971C351.772 0.602783 349.369 0.402893 346.892 0.294418C335.401 -0.230865 324.169 -3.1718 313.981 -8.32304C305.715 -12.6556 299.237 -18.8308 294.55 -26.8493H269.679C267.601 -22.6607 265.323 -18.763 262.895 -15.0855C267.191 -12.3035 270.154 -7.72583 270.651 -2.45399C271.845 -2.08557 273.041 -1.62791 274.227 -1.06798C277.139 -1.18378 280.453 -0.932281 283.932 0.108871C290.631 2.11314 295.797 6.37726 299.502 11.7819C302.101 15.5749 303.675 19.8092 303.981 24.2109C323.773 23.5988 338.392 20.3429 351.708 17.3765C362.363 15.0034 372.184 12.8159 383.153 12.3172Z" fill="url(#paint1_linear_565_26954)"/>
<path d="M248.077 -22.9187C250.009 -22.9187 251.868 -22.6145 253.606 -22.0528C254.503 -23.629 255.329 -25.229 256.08 -26.85H200.519L200.184 -27.1624C196.951 -22.25 193.68 -17.4835 188.818 -13.7812C183.109 -9.47251 177.723 -6.45656 172.66 -4.73334C164.916 -2.05232 156.403 -0.376862 147.12 0.293747C138.632 0.868149 130.243 1.51416 121.953 2.23251C117.14 2.60374 112.846 3.2551 109.071 4.18634L111.895 12.5495C112.17 12.5787 112.445 12.6104 112.72 12.6448C117.138 13.267 120.984 13.9853 124.261 14.7992C126.362 15.306 128.887 16.0237 131.76 16.8417C142.466 19.8883 158.023 24.3144 174.606 24.3144C180.361 24.3144 186.352 23.5317 192.377 22.0689C192.969 18.4592 194.41 14.9936 196.564 11.8287C200.757 5.66675 206.73 1.16388 214.324 -0.454895C216.912 -1.00656 219.379 -1.15166 221.625 -1.07404C222.911 -1.68028 224.208 -2.16637 225.502 -2.5489C226.031 -7.83748 229.042 -12.4186 233.388 -15.1749C236.517 -19.8373 241.927 -22.9187 248.077 -22.9187Z" fill="url(#paint2_linear_565_26954)"/>
<path d="M354.502 316.068L349.867 310.314C362.33 306.66 371.842 303.076 379.035 299.351C388.814 294.286 394.019 289.112 396.66 283.424C399.329 277.673 399.635 270.861 398.459 261.972C397.632 255.715 396.128 248.759 394.386 240.708L394.382 240.686C393.632 237.219 392.838 233.548 392.035 229.642C386.569 203.05 404.615 184.429 414.65 178.327C416.291 177.329 418.454 177.814 419.481 179.412C420.506 181.009 420.007 183.114 418.366 184.112C409.702 189.38 394.234 205.557 398.91 228.304C399.671 232.004 400.44 235.561 401.178 238.974C402.953 247.18 404.548 254.555 405.413 261.102C406.649 270.44 406.515 278.764 403.049 286.232C399.555 293.76 392.927 299.885 382.329 305.373C375.142 309.095 365.996 312.593 354.502 316.068Z" fill="url(#paint3_linear_565_26954)"/>
<path d="M312.775 319.559L317.466 325.384C306.109 328.352 293.589 332.256 282.481 336.908C273.483 340.676 265.607 344.854 260.038 349.299C258.793 350.293 257.693 351.11 256.736 351.822C253.343 354.343 251.734 355.538 251.734 358.589C251.734 360.473 250.165 362 248.229 362C246.292 362 244.723 360.473 244.723 358.589C244.723 355.538 243.114 354.343 239.722 351.822C238.764 351.11 237.665 350.293 236.419 349.299C230.85 344.854 222.973 340.676 213.975 336.908C202.477 332.093 189.465 328.078 177.796 325.074L182.494 319.24C193.665 322.22 205.831 326.07 216.747 330.642C226.009 334.52 234.566 338.996 240.866 344.025C243.763 346.337 246.322 348.88 248.229 351.646C250.135 348.88 252.694 346.337 255.591 344.025C261.891 338.996 270.448 334.52 279.709 330.642C290.24 326.232 301.934 322.493 312.775 319.559Z" fill="url(#paint4_linear_565_26954)"/>
<path d="M114.127 305.373C121.071 308.969 129.843 312.356 140.795 315.715L145.423 309.969C133.531 306.435 124.389 302.959 117.422 299.351C107.642 294.286 102.437 289.112 99.7974 283.424C97.1281 277.673 96.8224 270.861 97.9975 261.972C98.8245 255.717 100.328 248.766 102.068 240.719L102.075 240.688C102.825 237.22 103.619 233.549 104.422 229.642C109.889 203.05 91.842 184.429 81.8077 178.327C80.1656 177.329 78.0025 177.814 76.9767 179.412C75.9502 181.009 76.4494 183.114 78.0915 184.112C86.7544 189.38 102.223 205.557 97.5467 228.304C96.7859 232.004 96.0168 235.56 95.2784 238.973L95.2677 239.023C93.4981 247.209 91.9069 254.569 91.0434 261.102C89.8087 270.44 89.9412 278.764 93.407 286.232C96.9016 293.76 103.529 299.885 114.127 305.373Z" fill="url(#paint5_linear_565_26954)"/>
<path d="M84.8933 36.5789L89.2413 41.9782C91.0614 49.4812 92.8814 57.2259 94.7014 65.2119C96.5875 73.9726 97.2326 82.4946 96.6373 90.7763C96.042 99.6346 91.9045 107.925 85.0955 113.899C80.6284 117.346 72.7354 115.479 68.0445 113.109C63.8748 110.955 59.73 108.753 55.6099 106.503C51.1423 104.061 46.6747 106.143 49.1318 111.529C50.8196 115.215 52.4081 118.806 53.8973 122.3C55.5866 126.482 56.8501 132.43 55.4008 137.101C55.3527 137.818 55.0721 138.524 54.5594 139.103C54.1604 139.83 53.6706 140.506 53.0782 141.115C50.2701 144.006 46.8462 146.282 43.0807 148.061C36.7254 152.191 29.7992 155.797 23.8228 158.91L23.6673 158.99C22.4924 159.602 21.355 160.195 20.2666 160.769C14.895 163.599 10.9523 165.844 8.93487 167.673C8.69486 167.891 8.51585 168.073 8.38291 168.22C10.6268 169.617 14.5465 170.382 19.6908 170.592C20.8588 170.64 22.0524 170.659 23.2584 170.656C24.3626 170.585 25.5589 170.464 26.8684 170.269C31.6338 169.6 36.7963 169.168 42.356 168.977C43.597 168.977 46.1534 169.216 50.0254 169.695C53.8973 170.198 59.9285 172.998 60.3008 177.307C60.7149 179.888 60.4592 182.528 59.5561 184.99C56.1842 191.349 51.3443 196.877 45.4088 201.147C42.5422 203.46 39.5662 205.706 36.4807 207.886C35.3019 209.154 34.2538 210.356 33.3564 211.499C31.1717 214.282 30.4549 216.034 30.4215 217.012C30.415 217.203 30.4344 217.356 30.4807 217.493C30.9285 218.145 31.5634 218.676 32.4345 219.1C37.0867 221.363 47.4643 222.251 64.6237 215.573C64.7418 215.527 64.8608 215.488 64.9805 215.455L65.2151 215.366C67.8956 214.313 71.42 213.666 75.7883 213.427C80.6284 213.14 81.9655 213.714 83.4548 218.74C84.0508 220.75 83.8025 223.264 82.7101 226.28C81.1304 230.498 78.8692 234.449 76.0091 237.984C71.2076 244.189 70.6803 254.549 76.4431 259.671C76.6002 259.804 76.7152 259.976 76.7762 260.169C76.8365 260.362 76.84 260.567 76.7853 260.762C76.7313 260.956 76.6212 261.132 76.4691 261.269C76.3162 261.406 76.1269 261.5 75.9222 261.539C75.2764 261.682 74.6313 261.634 73.9863 261.395C63.5617 257.014 56.8012 250.984 54.8652 239.997C54.0835 235.473 54.0711 230.757 54.8284 225.847C45.6753 228.037 38.3922 228.021 33.0376 226.58C30.8936 226.144 28.869 225.282 27.0529 223.86C26.4249 223.397 25.8547 222.879 25.3592 222.301C25.0341 221.951 24.7178 221.579 24.4112 221.183C22.3263 218.454 21.3832 214.959 21.5817 210.698C21.8299 205.624 23.6169 200.597 26.9428 195.618C27.9787 194.12 29.0323 192.65 30.0801 191.188L30.0845 191.182C33.425 186.52 36.7068 181.941 39.1724 176.785C38.1013 176.837 36.9467 176.904 35.718 176.975L35.1227 177.01L35.1153 177.011C30.3582 177.29 24.6773 177.624 19.3962 177.409C14.0456 177.19 8.34351 176.396 4.37984 173.824C2.78067 172.787 1.34699 171.48 0.574285 169.743C-0.25341 167.882 -0.108795 166.021 0.51618 164.371C1.10147 162.825 2.13176 161.384 3.25062 160.063C4.39153 158.717 5.8073 157.287 7.35277 155.783C8.09039 155.066 8.87471 154.315 9.69267 153.531L9.70266 153.521C15.7402 147.737 23.7868 140.029 31.2374 128.504C32.7666 125.632 34.1999 122.597 35.6546 119.357C38.1862 113.827 40.42 108.298 42.1326 102.481C43.4729 97.79 44.7387 92.9785 45.93 88.0476C49.6531 73.3983 54.8652 59.3239 62.2367 46.0389C65.7255 39.7556 69.499 34.1585 73.5574 29.2482L84.8933 36.5789Z" fill="url(#paint6_linear_565_26954)"/>
<path d="M410.044 36.6723L409.858 36.9036C409.674 38.0041 409.473 39.0147 409.255 39.9353C407.27 48.0732 405.285 56.499 403.299 65.2119C401.412 73.9726 400.767 82.4946 401.363 90.7763C401.958 99.6346 406.095 107.925 412.904 113.899C417.372 117.346 425.264 115.479 429.955 113.109C434.125 110.955 438.27 108.753 442.39 106.503C446.858 104.061 451.325 106.143 448.868 111.529C447.18 115.215 445.592 118.806 444.102 122.3C442.413 126.482 441.15 132.43 442.599 137.101C442.648 137.818 442.928 138.524 443.441 139.103C443.84 139.83 444.33 140.506 444.922 141.115C447.73 144.006 451.154 146.282 454.919 148.061C461.268 152.187 468.191 155.792 474.163 158.902L474.178 158.91C475.408 159.55 476.597 160.17 477.733 160.769C483.105 163.599 487.048 165.844 489.065 167.673C489.305 167.891 489.484 168.073 489.617 168.22C487.373 169.617 483.454 170.382 478.309 170.592C477.141 170.64 475.948 170.659 474.742 170.656C473.638 170.585 472.441 170.464 471.132 170.269C466.366 169.6 461.204 169.168 455.644 168.977C454.403 168.977 451.847 169.216 447.974 169.695C444.102 170.198 438.072 172.998 437.699 177.307C437.285 179.888 437.541 182.528 438.444 184.99C441.816 191.349 446.655 196.877 452.591 201.147C455.458 203.46 458.433 205.706 461.519 207.886C462.698 209.154 463.746 210.356 464.644 211.499C466.829 214.282 467.545 216.034 467.579 217.012C467.585 217.203 467.565 217.356 467.519 217.493C467.071 218.145 466.437 218.676 465.566 219.1C460.914 221.363 450.536 222.251 433.376 215.573C433.283 215.536 433.189 215.504 433.094 215.476L433.019 215.455L432.785 215.366C430.104 214.313 426.58 213.666 422.211 213.427C417.372 213.14 416.034 213.714 414.545 218.74C413.95 220.75 414.198 223.264 415.29 226.28C416.869 230.498 419.131 234.449 421.991 237.984C426.792 244.189 427.319 254.549 421.557 259.671C421.4 259.804 421.285 259.976 421.224 260.169C421.163 260.362 421.16 260.567 421.214 260.762C421.268 260.956 421.379 261.132 421.531 261.269C421.683 261.406 421.873 261.5 422.078 261.539C422.723 261.682 423.368 261.634 424.014 261.395C434.438 257.014 441.199 250.984 443.135 239.997C443.917 235.473 443.929 230.757 443.171 225.847C452.324 228.037 459.608 228.021 464.962 226.58C467.106 226.144 469.131 225.282 470.947 223.86C471.575 223.397 472.145 222.879 472.64 222.301C472.966 221.952 473.282 221.579 473.588 221.183C475.674 218.454 476.617 214.959 476.418 210.698C476.17 205.624 474.383 200.597 471.057 195.618C470.021 194.12 468.968 192.649 467.92 191.188L467.911 191.176C464.572 186.516 461.292 181.938 458.828 176.785C459.899 176.837 461.053 176.904 462.282 176.975L462.88 177.011C467.638 177.29 473.321 177.624 478.604 177.409C483.954 177.19 489.656 176.396 493.62 173.824C495.219 172.787 496.653 171.48 497.426 169.743C498.253 167.882 498.109 166.021 497.484 164.371C496.899 162.825 495.868 161.384 494.75 160.063C493.609 158.717 492.192 157.287 490.647 155.783C489.907 155.063 489.118 154.308 488.296 153.52C482.259 147.736 474.213 140.028 466.763 128.504C465.233 125.632 463.8 122.597 462.345 119.357C459.813 113.827 457.58 108.298 455.867 102.481C454.527 97.79 453.261 92.9785 452.07 88.0476C448.347 73.3983 443.135 59.3239 435.764 46.0389C431.981 39.2281 427.865 33.2236 423.414 28.0261L410.044 36.6723Z" fill="url(#paint7_linear_565_26954)"/>
<path d="M322.385 276.186L323.668 277.78C323.7 277.766 323.73 277.75 323.759 277.731C329.834 273.727 333.897 268.938 333.391 260.988C333.254 258.874 332.899 256.877 332.327 255.001C332.111 254.293 331.703 254.123 331.103 254.489C322.658 259.617 319.752 266.85 322.385 276.186Z" fill="url(#paint8_linear_565_26954)"/>
<path d="M324.524 278.843L325.259 279.756L325.292 279.767L325.341 279.784L325.414 279.807C335.067 282.685 342.723 280.268 348.382 272.554C349.08 271.6 348.824 270.954 347.614 270.618C337.789 267.863 330.18 270.41 324.787 278.256C324.641 278.471 324.553 278.666 324.524 278.843Z" fill="url(#paint9_linear_565_26954)"/>
<path d="M320.434 -71.833C319.096 -67.7126 316.182 -64.0922 313.025 -60.8532C311.677 -62.7299 309.924 -64.3323 307.88 -65.4893C310.844 -68.526 312.887 -71.2361 313.748 -73.8881C314.581 -76.4549 314.416 -79.3017 311.919 -82.945C308.246 -88.3056 304.316 -90.3184 300.233 -90.837C300.879 -89.2563 301.301 -87.6984 301.499 -86.1546C301.957 -82.5764 301.171 -79.3541 299.61 -76.437C298.732 -74.7965 297.612 -73.2572 296.346 -71.7965C294.658 -73.4541 292.6 -74.7151 290.363 -75.5001C291.663 -76.9079 292.678 -78.2547 293.391 -79.5875C294.39 -81.4538 294.8 -83.2916 294.541 -85.311C294.353 -86.7781 293.794 -88.4775 292.662 -90.4642C289.936 -89.966 287.027 -89.1488 283.899 -88.1905C283.124 -87.9531 282.334 -87.7065 281.532 -87.4563C278.726 -86.58 275.765 -85.6557 272.766 -84.9168C272.757 -87.2748 272.398 -89.5522 271.736 -91.7022C274.185 -92.3345 276.698 -93.1162 279.305 -93.9277L279.412 -93.9609C280.196 -94.2047 280.991 -94.4519 281.793 -94.6976C283.742 -95.2946 285.755 -95.8895 287.803 -96.3964C283.162 -100.124 277.137 -100.766 270.766 -99.4986C269.87 -99.3203 268.976 -99.1051 268.089 -98.8579C266.543 -100.929 264.662 -102.748 262.525 -104.242C264.744 -105.056 267.041 -105.721 269.361 -106.182C278.671 -108.034 289.09 -106.692 296.119 -97.7526C297.526 -97.833 298.932 -97.8213 300.326 -97.6912C306.883 -97.0794 312.835 -93.9066 317.753 -86.7295C321.305 -81.547 321.972 -76.57 320.434 -71.833Z" fill="url(#paint10_linear_565_26954)"/>
<path d="M286.872 -50.6905C286.842 -50.7826 286.821 -50.8788 286.808 -50.9784C286.799 -51.05 286.794 -51.1244 286.794 -51.1994V-61.0517C286.794 -61.2045 286.774 -61.3491 286.739 -61.4855C286.565 -62.1527 285.998 -62.6118 285.356 -62.7298C285.303 -62.7401 285.248 -62.7476 285.194 -62.7524C284.723 -62.796 284.227 -62.6555 283.826 -62.2816L271.628 -50.8877C270.663 -49.9865 269.084 -50.4327 268.73 -51.6435C268.714 -51.7002 268.7 -51.7582 268.688 -51.8182L266.335 -64.6434L266.323 -64.7034L266.316 -64.7321L266.301 -64.7922L266.293 -64.818C265.939 -66.0289 264.36 -66.4751 263.395 -65.5739L249.443 -52.5427C248.765 -51.9089 247.694 -51.9089 247.015 -52.5427L232.548 -66.0562C231.659 -66.8864 230.19 -66.5883 229.716 -65.4818L224.584 -53.4998C224.136 -52.4526 222.781 -52.1149 221.871 -52.8237L209.007 -62.8356C208.557 -63.1869 208.022 -63.277 207.537 -63.1712C207.401 -63.1412 207.269 -63.0962 207.144 -63.0368C206.58 -62.7694 206.16 -62.2155 206.16 -61.5039V-51.3904C206.16 -50.6816 205.731 -50.1107 205.148 -49.8446L205.134 -49.8391C204.75 -49.6679 204.301 -49.6284 203.864 -49.7689C203.792 -49.79 203.718 -49.8207 203.648 -49.8528L198.503 -52.2561C197.469 -52.7385 196.497 -52.1948 196.13 -51.3904C195.859 -50.7956 195.919 -50.0588 196.53 -49.4885L206.16 -40.4938H290.3L301.332 -50.7983C302.339 -51.7391 301.846 -53.1607 300.817 -53.6062C300.732 -53.6424 300.644 -53.6724 300.553 -53.6956C300.222 -53.7774 299.852 -53.7624 299.467 -53.6124L289.197 -49.6154C288.901 -49.5001 288.597 -49.4694 288.31 -49.5076C288.228 -49.5185 288.147 -49.5356 288.068 -49.5574C287.512 -49.7123 287.05 -50.1318 286.872 -50.6905Z" fill="url(#paint11_linear_565_26954)"/>
<path d="M258.745 -84.8356C258.745 -79.5902 254.689 -75.2665 249.461 -74.6723L249.454 -74.6718C249.055 -74.6268 248.648 -74.6035 248.236 -74.6032L248.228 -74.6027C242.807 -74.6032 238.343 -78.5942 237.772 -83.7212C237.732 -84.0872 237.71 -84.459 237.71 -84.8356C237.71 -87.2754 238.589 -89.5161 240.054 -91.2746C240.403 -91.6933 240.784 -92.0849 241.196 -92.4452C243.059 -94.076 245.524 -95.0685 248.228 -95.0685C254.036 -95.0685 258.745 -90.4871 258.745 -84.8356Z" fill="url(#paint12_linear_565_26954)"/>
<path d="M204.561 -76.5129C202.849 -78.5486 201.791 -80.4456 201.388 -82.3533C200.94 -84.4762 201.218 -87.0675 203.154 -90.4644C205.88 -89.9661 208.79 -89.1489 211.919 -88.1905C212.694 -87.9531 213.484 -87.7066 214.285 -87.4564C217.291 -86.5177 220.467 -85.5261 223.687 -84.7634C223.687 -87.0594 224.008 -89.3479 224.672 -91.5526C222.037 -92.2087 219.332 -93.0504 216.514 -93.9271L216.481 -93.9374C215.674 -94.1886 214.852 -94.4442 214.024 -94.6976C212.076 -95.2946 210.063 -95.8895 208.015 -96.3965C212.655 -100.124 218.681 -100.766 225.052 -99.4987C226.125 -99.2851 227.194 -99.0188 228.252 -98.7078C229.767 -100.77 231.611 -102.587 233.709 -104.087C231.361 -104.972 228.923 -105.692 226.457 -106.182C217.147 -108.034 206.727 -106.692 199.698 -97.7527C198.291 -97.833 196.886 -97.8213 195.491 -97.6913C188.935 -97.0794 182.983 -93.9067 178.065 -86.7295C174.513 -81.547 173.846 -76.5701 175.383 -71.833C177.014 -66.8128 180.776 -62.7613 184.539 -59.1163C185.831 -61.0319 187.534 -62.6862 189.527 -63.9121C186.572 -66.7677 183.352 -69.9387 182.07 -73.8882C181.236 -76.455 181.401 -79.3018 183.898 -82.9451C187.572 -88.3062 191.502 -90.319 195.586 -90.8373C194.195 -87.4333 193.847 -84.168 194.52 -80.9803C195.1 -78.235 196.396 -75.772 198.08 -73.5187C199.977 -74.9735 202.203 -76.0017 204.561 -76.5129Z" fill="url(#paint13_linear_565_26954)"/>
<path d="M258.745 317.658C258.745 323.309 254.036 327.89 248.228 327.89C242.42 327.89 237.71 323.309 237.71 317.658C237.71 312.556 241.549 308.325 246.569 307.551C246.668 307.556 246.768 307.56 246.869 307.562L247.042 307.566L247.271 307.567C247.903 307.567 248.511 307.529 249.094 307.459C254.497 307.887 258.745 312.29 258.745 317.658Z" fill="url(#paint14_linear_565_26954)"/>
<path d="M298.584 279.814L347.158 340.133C348.352 341.616 350.556 341.876 352.08 340.714C352.73 340.219 353.151 339.545 353.328 338.819C353.532 337.87 353.32 336.842 352.656 336.018L339.882 320.156L339.962 320.135L335.254 314.29L335.175 314.31L304.313 275.986C303.837 276.332 303.354 276.671 302.866 277.003C301.454 277.976 300.025 278.912 298.584 279.814Z" fill="url(#paint15_linear_565_26954)"/>
<path d="M190.344 276.308C192.201 277.69 194.141 278.973 196.156 280.152L147.779 340.225C146.585 341.708 144.381 341.969 142.856 340.806C142.59 340.603 142.361 340.369 142.173 340.114C141.823 339.641 141.609 339.096 141.539 338.533C141.431 337.666 141.663 336.76 142.26 336.019L190.344 276.308Z" fill="url(#paint16_linear_565_26954)"/>
<path d="M339.013 266.346C332.426 257.919 332.407 249.671 338.958 241.599C339.404 241.047 339.856 241.073 340.315 241.68C341.528 243.29 342.575 245.088 343.457 247.073C345.851 252.489 345.346 257.114 343.202 261.49C346.4 255.388 352.171 252.078 360.512 251.559C361.793 251.476 362.267 252.009 361.935 253.16C359.232 262.463 352.737 267.351 342.449 267.822C341.455 267.864 341.071 267.438 341.298 266.543C341.72 264.897 342.267 263.387 342.939 262.011C342.17 263.485 341.219 264.934 340.135 266.378C340.074 266.458 339.993 266.523 339.897 266.566C339.802 266.61 339.694 266.631 339.585 266.628C339.476 266.625 339.366 266.598 339.267 266.548C339.167 266.499 339.08 266.43 339.013 266.346Z" fill="url(#paint17_linear_565_26954)"/>
<path d="M344.442 226.454C339.408 235.247 340.749 243.214 348.465 250.356C348.543 250.427 348.639 250.481 348.743 250.513C348.846 250.545 348.956 250.555 349.063 250.541C349.17 250.527 349.269 250.491 349.355 250.434C349.44 250.378 349.508 250.303 349.554 250.216C350.372 248.652 351.06 247.104 351.567 245.558C351.138 246.991 350.851 248.536 350.706 250.194C350.631 251.093 351.07 251.447 352.024 251.255C361.889 249.237 367.381 243.529 368.5 234.13C368.637 232.968 368.093 232.524 366.868 232.798C358.886 234.568 353.84 238.648 351.731 245.038C353.104 240.48 352.852 235.933 349.667 231.06C348.497 229.276 347.197 227.698 345.767 226.326C345.226 225.809 344.785 225.852 344.442 226.454Z" fill="url(#paint18_linear_565_26954)"/>
<path d="M161.297 254.489C170.087 259.827 172.877 267.444 169.665 277.34C169.632 277.439 169.575 277.531 169.5 277.609C169.425 277.686 169.334 277.746 169.233 277.784C169.133 277.822 169.027 277.837 168.924 277.828C168.822 277.819 168.724 277.785 168.642 277.731C167.124 276.731 165.732 275.682 164.506 274.547C165.615 275.613 166.653 276.849 167.62 278.256C168.134 279.009 167.925 279.526 166.993 279.807C157.34 282.685 149.685 280.268 144.026 272.554C143.327 271.6 143.584 270.954 144.794 270.618C152.697 268.402 159.167 269.617 164.202 274.261C160.702 270.904 158.64 266.787 159.009 260.988C159.147 258.874 159.501 256.877 160.073 255.001C160.289 254.293 160.697 254.123 161.297 254.489Z" fill="url(#paint19_linear_565_26954)"/>
<path d="M153.39 266.346C159.978 257.919 159.996 249.671 153.446 241.599C152.999 241.047 152.547 241.073 152.089 241.68C150.875 243.29 149.828 245.088 148.947 247.073C146.55 252.495 147.058 257.123 149.208 261.504C146.012 255.393 140.239 252.078 131.892 251.559C130.61 251.476 130.136 252.009 130.468 253.16C133.171 262.463 139.666 267.351 149.954 267.822C150.949 267.864 151.332 267.438 151.106 266.543C150.681 264.892 150.132 263.376 149.458 261.997C150.228 263.476 151.182 264.93 152.269 266.378C152.329 266.458 152.411 266.523 152.506 266.566C152.602 266.61 152.709 266.631 152.819 266.628C152.928 266.625 153.037 266.598 153.137 266.548C153.236 266.499 153.323 266.43 153.39 266.346Z" fill="url(#paint20_linear_565_26954)"/>
<path d="M147.955 226.454C152.989 235.247 151.649 243.214 143.933 250.356C143.854 250.427 143.759 250.481 143.655 250.513C143.551 250.545 143.442 250.555 143.335 250.541C143.228 250.527 143.128 250.491 143.043 250.434C142.958 250.378 142.89 250.303 142.844 250.216C142.043 248.686 141.367 247.171 140.864 245.659C141.277 247.064 141.554 248.575 141.695 250.194C141.771 251.093 141.331 251.447 140.378 251.255C130.513 249.237 125.021 243.529 123.902 234.13C123.765 232.968 124.309 232.524 125.534 232.798C133.474 234.559 138.508 238.605 140.637 244.937C139.298 240.413 139.57 235.897 142.731 231.06C143.9 229.276 145.2 227.698 146.631 226.326C147.171 225.809 147.613 225.852 147.955 226.454Z" fill="url(#paint21_linear_565_26954)"/>
<path d="M279.78 310.836C283.653 310.836 286.792 307.781 286.792 304.014C286.792 300.246 283.653 297.192 279.78 297.192C275.908 297.192 272.769 300.246 272.769 304.014C272.769 307.781 275.908 310.836 279.78 310.836Z" fill="url(#paint22_linear_565_26954)"/>
<path d="M223.687 304.014C223.687 307.781 220.548 310.836 216.676 310.836C212.803 310.836 209.664 307.781 209.664 304.014C209.664 300.246 212.803 297.192 216.676 297.192C220.548 297.192 223.687 300.246 223.687 304.014Z" fill="url(#paint23_linear_565_26954)"/>
<path d="M318.033 42.8008C304.008 50.5771 298.585 61.7548 301.765 76.3325C301.831 76.6301 301.921 76.8795 302.034 77.081C302.017 77.7789 302.547 78.2225 303.624 78.4125C319.357 81.1317 330.908 75.9041 338.278 62.7282C339.186 61.0985 338.656 60.1325 336.688 59.8296C330.534 58.8695 325.051 59.0835 320.239 60.4714C321.962 55.6309 322.258 50.1699 321.13 44.0887C320.79 42.2693 319.758 41.8396 318.033 42.8008Z" fill="url(#paint24_linear_565_26954)"/>
<path d="M337.318 51.3063C341.191 51.3063 344.33 48.2514 344.33 44.4844C344.33 40.7166 341.191 37.6624 337.318 37.6624C333.446 37.6624 330.306 40.7166 330.306 44.4844C330.306 48.2514 333.446 51.3063 337.318 51.3063Z" fill="url(#paint25_linear_565_26954)"/>
<path d="M194.826 76.7086C198.005 62.1309 192.583 50.9538 178.558 43.1769C176.834 42.2163 175.801 42.6454 175.461 44.4648C174.332 50.5477 174.629 56.0098 176.353 60.8511C171.541 59.4633 166.059 59.2493 159.904 60.2091C157.936 60.512 157.407 61.478 158.315 63.1078C165.684 76.2836 177.235 81.5119 192.968 78.792C194.048 78.6015 194.578 78.1559 194.558 77.4548C194.671 77.2538 194.76 77.005 194.826 76.7086Z" fill="url(#paint26_linear_565_26954)"/>
<path d="M152.263 44.8641C152.263 48.6312 155.402 51.686 159.275 51.686C163.147 51.686 166.286 48.6312 166.286 44.8641C166.286 41.0964 163.147 38.0422 159.275 38.0422C155.402 38.0422 152.263 41.0964 152.263 44.8641Z" fill="url(#paint27_linear_565_26954)"/>
<path fill-rule="evenodd" clip-rule="evenodd" d="M216.18 65.5692C217.365 61.3946 220.544 52.4654 226.755 49.1081C233.269 49.1075 240.039 49.108 246.624 49.1085H246.847C255.212 49.1091 263.271 49.1097 270.119 49.1081C274.582 53.3431 277.537 61.7236 278.736 65.6522C278.983 65.5718 279.238 65.5297 279.5 65.5297C281.716 65.5297 283.512 68.5638 283.512 72.3067C283.512 76.0495 281.716 79.0836 279.5 79.0836C279.415 79.0836 279.33 79.0792 279.247 79.0704L279.186 79.0632C277.924 82.3395 276.173 85.4975 274.104 88.4147C275.146 90.7052 278.14 95.1173 283.576 97.4782C286.031 98.5441 288.329 99.2737 290.494 99.9348L291.119 100.125C292.999 100.696 294.946 101.287 296.587 102.038C299.305 103.281 301.761 105.224 302.644 108.808C303.539 112.442 301.626 115.208 299.8 116.825C298.002 118.417 295.804 119.398 294.415 119.838C292.573 120.42 290.595 119.44 289.996 117.649C289.398 115.857 290.405 113.933 292.246 113.35C292.985 113.117 294.217 112.545 295.079 111.781C295.913 111.042 295.887 110.65 295.826 110.399C295.626 109.59 295.235 109.031 294.003 108.404C292.427 108.222 290.191 108.77 287.006 110.386C283.911 111.957 280.533 114.204 276.754 116.717L275.784 117.362C271.706 120.071 267.238 122.988 262.637 125.217C258.039 127.444 253.047 129.116 247.897 129.116C242.747 129.116 237.755 127.444 233.157 125.217C228.555 122.988 224.088 120.071 220.01 117.362L219.039 116.717C215.261 114.204 211.883 111.957 208.788 110.386C205.603 108.77 203.367 108.222 201.791 108.404C200.559 109.031 200.168 109.59 199.968 110.399C199.906 110.65 199.881 111.042 200.715 111.781C201.577 112.545 202.809 113.117 203.548 113.35C205.389 113.933 206.396 115.857 205.797 117.649C205.199 119.44 203.221 120.42 201.379 119.838C199.99 119.398 197.791 118.417 195.994 116.825C194.168 115.208 192.255 112.442 193.15 108.808C194.033 105.224 196.489 103.281 199.207 102.038C200.848 101.287 202.795 100.696 204.675 100.125L205.299 99.9348C207.464 99.2737 209.763 98.5441 212.217 97.4782C217.436 95.2121 220.403 91.0564 221.555 88.7008C219.452 85.6566 217.643 82.3815 216.197 79.041C216.048 79.0692 215.897 79.0836 215.744 79.0836C213.528 79.0836 211.732 76.0495 211.732 72.3067C211.732 68.5638 213.528 65.5297 215.744 65.5297C215.892 65.5297 216.037 65.5431 216.18 65.5692ZM219.736 69.4735L242.005 60.5803C245.831 59.0522 250.121 59.0472 253.951 60.5663L275.91 69.276L275.942 69.1693L259.289 59.0534C252.492 54.9247 243.874 54.9117 237.064 59.0201L219.736 69.4735ZM246.324 62.9527C245.307 63.0888 244.302 63.3499 243.336 63.7358L241.073 64.6397V82.0752L242.805 82.8624C243.932 83.3744 245.119 83.7112 246.324 83.8726V62.9527ZM237.567 80.4821V66.0398L232.452 68.0825V78.1578L237.567 80.4821ZM228.946 76.5647L220.729 72.8308V72.7641L228.946 69.4826V76.5647ZM249.83 62.9758V83.8501C250.971 83.6826 252.092 83.3577 253.161 82.8756L255.24 81.9373V64.761L252.627 63.7249C251.721 63.3656 250.782 63.1159 249.83 62.9758ZM275.424 72.8277L267.613 76.3533V69.6686L275.424 72.7671V72.8277ZM264.107 68.2781V77.9355L258.745 80.3551V66.1516L264.107 68.2781ZM254.636 88.7917L272.016 78.1261C269.853 82.9996 266.357 87.6515 262.343 91.3283C257.257 95.986 251.933 98.5534 248.083 98.6385C243.091 98.7489 237.844 96.1883 233.03 91.5868C229.107 87.8374 225.709 82.9446 223.271 77.7504L241.321 88.7747C245.539 90.6915 250.412 90.6977 254.636 88.7917Z" fill="url(#paint28_linear_565_26954)"/>
<path d="M251.761 -5.8606C251.761 -7.74442 250.192 -9.27155 248.255 -9.27155C246.319 -9.27155 244.75 -7.74442 244.75 -5.8606V-4.28503H243.127C241.19 -4.28503 239.621 -2.75789 239.621 -0.874069C239.621 1.00975 241.19 2.5369 243.127 2.5369H244.75V4.10957C244.75 5.99341 246.319 7.52054 248.255 7.52054C250.192 7.52054 251.761 5.99341 251.761 4.10957V2.5369H253.374C255.31 2.5369 256.88 1.00975 256.88 -0.874069C256.88 -2.75789 255.31 -4.28503 253.374 -4.28503H251.761V-5.8606Z" fill="url(#paint29_linear_565_26954)"/>
<path d="M236.156 10.0117C234.588 11.9274 233.498 14.2299 233.062 16.7483C231.157 16.9491 229.584 17.7849 228.409 19.3848C226.902 21.4369 226.872 22.5836 227.011 23.2433C227.189 24.086 227.849 25.1412 229.463 26.6633C229.645 26.8344 229.828 27.003 230.014 27.17C229.163 27.3097 228.328 27.4427 227.525 27.567C225.787 27.8359 224.152 28.608 222.86 29.7706C221.626 28.3279 220.568 26.6296 220.143 24.6163C219.772 22.8571 219.928 21.1105 220.541 19.3733C219.927 19.3709 219.357 19.4245 218.823 19.5384C217.339 19.8546 215.739 20.7207 214.101 23.1276C212.964 24.7986 212.982 25.9026 213.285 26.8441C213.676 28.0575 214.705 29.4514 216.496 31.2492C217.347 32.1033 218.281 32.9642 219.297 33.9003L219.577 34.159C219.172 34.7167 218.757 35.2654 218.336 35.7995C217.72 36.5807 217.251 37.4611 216.955 38.3866C216.705 39.1708 216.578 39.9953 216.587 40.8281C215.928 40.1942 215.242 39.56 214.532 38.9055L214.429 38.8103C213.449 37.9077 212.419 36.9581 211.462 35.9976C209.537 34.066 207.506 31.7098 206.595 28.8859C205.597 25.79 206.072 22.5695 208.254 19.3618C210.745 15.7012 213.804 13.6245 217.322 12.8746C219.921 12.3206 222.519 12.55 224.911 13.0372C228.233 10.2184 232.37 9.5793 236.156 10.0117Z" fill="url(#paint30_linear_565_26954)"/>
<path d="M278.558 41.6975C278.333 41.9222 278.116 42.1445 277.907 42.3648C278.14 40.8915 277.949 39.4041 277.418 38.0636C276.987 36.9778 276.318 35.9563 275.455 35.0957C275.878 34.7021 276.298 34.3179 276.705 33.945L276.761 33.8937C277.785 32.9569 278.726 32.0953 279.584 31.2405C281.39 29.4412 282.425 28.0478 282.818 26.8374C283.121 25.9039 283.142 24.8067 281.997 23.1369C280.512 20.97 279.064 20.0664 277.746 19.6722C277.014 19.4529 276.205 19.3564 275.294 19.3761C275.543 20.0864 275.718 20.8029 275.811 21.5272C276.085 23.6701 275.606 25.5948 274.701 27.2854C273.897 28.7879 272.767 30.0901 271.594 31.2318L271.302 30.9052C269.915 29.344 267.973 28.3203 265.899 28.0103C265.605 27.9664 265.308 27.9207 265.009 27.8733C265.504 27.4533 265.964 27.0472 266.391 26.6435C267.438 25.6537 268.103 24.8435 268.482 24.1349C268.825 23.4951 268.928 22.9548 268.853 22.3708C268.771 21.7316 268.438 20.7658 267.424 19.3848C266.314 17.8727 264.848 17.0432 263.082 16.7872C262.648 14.2404 261.546 11.9132 259.956 9.98177C263.679 9.6107 267.709 10.2922 270.956 13.0659L271.051 13.0453C273.761 12.4935 276.789 12.2486 279.807 13.1516C282.917 14.0821 285.606 16.1048 287.831 19.3525C290.03 22.5614 290.511 25.7888 289.504 28.8926C288.586 31.7195 286.538 34.0761 284.601 36.0063C283.637 36.9667 282.6 37.916 281.614 38.8187L281.51 38.9138C280.471 39.8641 279.483 40.7717 278.558 41.6975Z" fill="url(#paint31_linear_565_26954)"/>
<path d="M256.276 19.23C256.276 23.6405 252.602 27.2159 248.068 27.2159C243.535 27.2159 239.861 23.6405 239.861 19.23C239.861 14.8196 243.535 11.2442 248.068 11.2442C252.602 11.2442 256.276 14.8196 256.276 19.23Z" fill="url(#paint32_linear_565_26954)"/>
<path d="M227.1 36.0043V38.5628C227.1 39.4289 226.17 39.9979 225.368 39.6231C224.129 39.0445 223.016 40.6059 224.007 41.5319L226.591 43.9449C226.917 44.2498 227.352 44.4201 227.805 44.4201H267.384C267.837 44.4201 268.272 44.2498 268.598 43.9449L270.445 42.2199C271.768 40.9845 270.372 38.8789 268.67 39.5414C267.574 39.968 266.381 39.1826 266.381 38.0341V36.4573C266.381 34.9546 264.529 34.1863 263.415 35.2269L260.205 38.2243C259.195 39.1678 257.512 38.635 257.266 37.2938L256.71 34.2646C256.464 32.9235 254.781 32.3906 253.77 33.3341L248.808 37.9688C248.13 38.6023 247.059 38.6023 246.381 37.9688L240.902 32.8518C240.013 32.0214 238.544 32.3193 238.07 33.4261L236.534 37.0119C236.086 38.059 234.732 38.3963 233.821 37.6877L229.948 34.6725C228.8 33.7792 227.1 34.5742 227.1 36.0043Z" fill="url(#paint33_linear_565_26954)"/>
<path d="M211.663 206.621C214.568 206.621 216.922 204.331 216.922 201.505C216.922 198.679 214.568 196.389 211.663 196.389C208.759 196.389 206.405 198.679 206.405 201.505C206.405 204.331 208.759 206.621 211.663 206.621Z" fill="url(#paint34_linear_565_26954)"/>
<path d="M288.271 201.505C288.271 204.331 285.917 206.621 283.012 206.621C280.108 206.621 277.754 204.331 277.754 201.505C277.754 198.679 280.108 196.389 283.012 196.389C285.917 196.389 288.271 198.679 288.271 201.505Z" fill="url(#paint35_linear_565_26954)"/>
<path d="M215.744 240.341C218.649 240.341 221.003 238.051 221.003 235.225C221.003 232.399 218.649 230.108 215.744 230.108C212.84 230.108 210.486 232.399 210.486 235.225C210.486 238.051 212.84 240.341 215.744 240.341Z" fill="url(#paint36_linear_565_26954)"/>
<path d="M278.63 240.341C281.534 240.341 283.889 238.051 283.889 235.225C283.889 232.399 281.534 230.108 278.63 230.108C275.726 230.108 273.371 232.399 273.371 235.225C273.371 238.051 275.726 240.341 278.63 240.341Z" fill="url(#paint37_linear_565_26954)"/>
<path d="M241.819 251.647C241.819 254.473 244.173 256.763 247.078 256.763C249.982 256.763 252.336 254.473 252.336 251.647C252.336 248.821 249.982 246.53 247.078 246.53C244.173 246.53 241.819 248.821 241.819 251.647Z" fill="url(#paint38_linear_565_26954)"/>
<path fill-rule="evenodd" clip-rule="evenodd" d="M308.235 251.647C311.603 246.031 313.666 239.776 314.282 233.315C314.878 226.708 314.282 219.815 312.495 212.634C310.556 204.879 307.569 197.631 304.605 190.436L304.601 190.428C303.696 188.231 302.792 186.037 301.922 183.838C298.546 175.125 296.139 166.364 294.699 157.556C293.21 147.79 293.508 136.946 298.422 128.473C298.464 128.419 298.489 128.356 298.495 128.29C298.501 128.223 298.488 128.156 298.457 128.097C298.427 128.037 298.379 127.987 298.32 127.952C298.261 127.917 298.194 127.898 298.124 127.898H274.114C270.406 130.924 264.362 133.821 259.375 134.452C258.745 134.756 258.56 134.881 258.891 135.02C263.438 136.934 267.403 139.94 270.406 143.754C273.491 147.674 275.452 152.309 276.089 157.192C276.726 162.075 276.018 167.033 274.035 171.568C272.053 176.103 268.866 180.054 264.797 183.023C260.727 185.993 255.918 187.875 250.854 188.481C245.789 189.087 240.649 188.396 235.95 186.476C231.251 184.557 227.16 181.477 224.088 177.547C221.016 173.617 219.072 168.975 218.453 164.09C216.863 151.482 223.683 140.021 235.649 135.02L235.726 134.989C236.089 134.842 236.712 134.59 235.88 134.189C230.708 133.497 226.666 131.334 222.357 127.898H196.487C196.412 127.882 196.333 127.889 196.262 127.917C196.191 127.946 196.131 127.995 196.09 128.058C196.049 128.121 196.029 128.195 196.034 128.269C196.038 128.344 196.067 128.415 196.115 128.473C198.547 132.829 199.912 137.688 200.21 143.05C200.557 148.747 200.384 153.702 199.689 157.915C197.414 172.246 192.219 184.94 186.569 198.748L185.765 200.713C183.581 205.979 181.918 211.916 180.776 218.522C178.633 228.555 179.929 238.987 184.469 248.247C189.008 257.508 196.545 265.095 205.943 269.866C211.751 273.121 218.825 276.712 227.164 280.637C234.089 283.941 241.758 288.034 246.971 293.779C247.169 293.97 247.343 293.97 247.492 293.779C251.736 289.039 257.544 285.449 263.501 282.576C265.142 281.779 266.784 280.992 268.422 280.207C277.555 275.828 286.566 271.507 294.774 265.845C300.274 262.108 304.866 257.264 308.235 251.647ZM220.9 192.609C223.385 195.006 224.782 198.257 224.782 201.647C224.782 205.037 223.385 208.288 220.9 210.685C218.414 213.082 215.043 214.429 211.528 214.429C208.013 214.429 204.642 213.082 202.156 210.685C199.67 208.288 198.274 205.037 198.274 201.647C198.274 198.257 199.67 195.006 202.156 192.609C204.642 190.211 208.013 188.865 211.528 188.865C215.043 188.865 218.414 190.211 220.9 192.609ZM292.232 192.609C294.718 195.006 296.114 198.257 296.114 201.647C296.114 205.037 294.718 208.288 292.232 210.685C289.747 213.082 286.375 214.429 282.86 214.429C279.345 214.429 275.974 213.082 273.488 210.685C271.003 208.288 269.606 205.037 269.606 201.647C269.606 198.257 271.003 195.006 273.488 192.609C275.974 190.211 279.345 188.865 282.86 188.865C286.375 188.865 289.747 190.211 292.232 192.609ZM225.293 226.072C227.778 228.469 229.175 231.72 229.175 235.11H229.249C229.249 236.795 228.904 238.463 228.233 240.018C227.563 241.574 226.58 242.986 225.341 244.174C224.102 245.362 222.632 246.302 221.016 246.94C219.399 247.578 217.668 247.902 215.921 247.892C212.406 247.892 209.035 246.546 206.549 244.148C204.063 241.751 202.667 238.5 202.667 235.11C202.667 231.72 204.063 228.469 206.549 226.072C209.035 223.675 212.406 222.328 215.921 222.328C219.436 222.328 222.807 223.675 225.293 226.072ZM287.913 226.072C290.399 228.469 291.795 231.72 291.795 235.11C291.795 238.5 290.399 241.751 287.913 244.148C285.428 246.546 282.057 247.892 278.542 247.892C275.026 247.892 271.655 246.546 269.17 244.148C266.684 241.751 265.288 238.5 265.288 235.11C265.288 231.72 266.684 228.469 269.17 226.072C271.655 223.675 275.026 222.328 278.542 222.328C282.057 222.328 285.428 223.675 287.913 226.072ZM256.64 242.373C259.126 244.77 260.522 248.021 260.522 251.411V251.483C260.532 253.167 260.197 254.837 259.535 256.396C258.873 257.955 257.898 259.373 256.667 260.568C255.435 261.762 253.971 262.71 252.358 263.357C250.745 264.004 249.015 264.337 247.268 264.337C245.503 264.356 243.751 264.035 242.116 263.392C240.481 262.749 238.995 261.798 237.747 260.594C236.498 259.39 235.512 257.957 234.845 256.38C234.179 254.803 233.846 253.114 233.866 251.411C233.866 249.72 234.213 248.046 234.889 246.486C235.564 244.926 236.554 243.51 237.8 242.321C239.047 241.133 240.525 240.194 242.151 239.56C243.776 238.926 245.515 238.61 247.268 238.629C250.784 238.629 254.155 239.976 256.64 242.373Z" fill="url(#paint39_linear_565_26954)"/>
<path fill-rule="evenodd" clip-rule="evenodd" d="M313.186 144.875C311.17 141.866 310.575 137.635 311.552 134.148C312.044 132.394 312.382 130.661 312.488 129.449C312.617 127.983 312.508 126.495 312.156 125.044L394.288 23.0544L405.503 -10.1615C406.484 -13.0697 408.443 -15.572 411.063 -17.2665L445.332 -39.4275C446.025 -39.8756 446.815 -39.7718 447.365 -39.3634C447.64 -39.1596 447.855 -38.8799 447.969 -38.5553C448.084 -38.2301 448.097 -37.8597 447.967 -37.4752L435.126 0.559753C434.143 3.46794 432.185 5.97021 429.565 7.66478L400.398 26.526L376.188 56.5899C384.236 63.1479 384.226 73.7725 384.214 85.5886C384.195 105.155 384.174 127.989 420.728 141.034C423.514 142.028 424.147 145.799 421.803 147.568C395.222 167.635 366.651 205.257 359.468 214.983C358.471 216.333 356.571 216.79 355.042 216.048C322.916 200.464 320.962 182.638 319.211 166.658C318.348 158.786 317.534 151.362 313.186 144.875ZM359.805 112.527C361.741 112.527 363.31 111 363.31 109.116C363.31 107.232 361.741 105.705 359.805 105.705C357.868 105.705 356.299 107.232 356.299 109.116C356.299 111 357.868 112.527 359.805 112.527ZM356.457 143.986L331.066 150.161C330.936 150.218 330.789 150.227 330.653 150.187C330.516 150.148 330.398 150.062 330.322 149.946C330.173 149.611 330.222 149.324 330.471 149.084C332.605 146.882 335.186 144.393 338.214 141.616C338.319 141.509 338.378 141.368 338.378 141.221C338.378 141.074 338.319 140.933 338.214 140.826L330.471 133.43C330.272 133.238 330.247 132.975 330.396 132.64C330.461 132.489 330.578 132.364 330.727 132.285C330.876 132.207 331.048 132.18 331.215 132.209L356.606 138.457C356.854 138.504 356.929 138.433 356.829 138.241L350.426 113.826C350.406 113.731 350.406 113.633 350.426 113.539C350.674 112.677 350.922 112.366 351.17 112.605L359.51 120.504C359.574 120.551 359.653 120.576 359.733 120.576C359.814 120.576 359.892 120.551 359.957 120.504L367.626 113.108C367.874 112.82 368.197 112.749 368.594 112.892C368.766 112.957 368.907 113.081 368.989 113.24C369.072 113.399 369.09 113.582 369.041 113.754C366.658 121.845 364.474 129.959 362.488 138.097C362.439 138.385 362.563 138.48 362.861 138.385L388.326 132.209C388.425 132.181 388.529 132.172 388.632 132.185C388.734 132.197 388.833 132.23 388.922 132.281C389.269 132.568 389.393 132.807 389.294 132.999L389.07 133.214L381.103 140.97C381.072 140.997 381.046 141.03 381.029 141.067C381.011 141.104 381.002 141.145 381.002 141.185L381.004 141.213L381.011 141.253C381.015 141.27 381.021 141.287 381.029 141.303C381.046 141.341 381.072 141.374 381.103 141.401L388.996 148.941C389.194 149.18 389.194 149.443 388.996 149.731C388.923 149.855 388.813 149.956 388.681 150.02C388.548 150.084 388.398 150.108 388.251 150.09L362.712 143.914C362.684 143.91 362.656 143.914 362.63 143.925C362.604 143.936 362.583 143.954 362.567 143.977L362.562 143.985L362.551 144.008L362.544 144.033L362.542 144.052C362.542 144.068 362.544 144.084 362.549 144.099L362.563 144.129C364.548 152.364 366.658 160.406 368.892 168.258C369.239 169.502 368.817 169.813 367.626 169.191C367.279 169 366.906 168.688 366.509 168.258C364.325 166.007 362.116 163.901 359.882 161.938C359.818 161.892 359.739 161.866 359.659 161.866C359.578 161.866 359.5 161.892 359.435 161.938L352.362 168.688C350.773 170.172 350.128 169.885 350.426 167.827C350.545 167.021 350.877 166.196 351.217 165.349C351.513 164.611 351.816 163.857 351.99 163.087C353.628 156.433 355.216 150.185 356.755 144.345C356.854 144.058 356.755 143.938 356.457 143.986ZM349.287 127.147C349.287 129.031 347.717 130.558 345.781 130.558C343.845 130.558 342.275 129.031 342.275 127.147C342.275 125.263 343.845 123.736 345.781 123.736C347.717 123.736 349.287 125.263 349.287 127.147ZM373.828 130.558C375.764 130.558 377.334 129.031 377.334 127.147C377.334 125.263 375.764 123.736 373.828 123.736C371.892 123.736 370.322 125.263 370.322 127.147C370.322 129.031 371.892 130.558 373.828 130.558ZM349.287 154.434C349.287 156.318 347.717 157.845 345.781 157.845C343.845 157.845 342.275 156.318 342.275 154.434C342.275 152.551 343.845 151.024 345.781 151.024C347.717 151.024 349.287 152.551 349.287 154.434ZM373.828 157.845C375.764 157.845 377.334 156.318 377.334 154.434C377.334 152.551 375.764 151.024 373.828 151.024C371.892 151.024 370.322 152.551 370.322 154.434C370.322 156.318 371.892 157.845 373.828 157.845ZM363.31 173.032C363.31 174.916 361.741 176.443 359.805 176.443C357.868 176.443 356.299 174.916 356.299 173.032C356.299 171.148 357.868 169.621 359.805 169.621C361.741 169.621 363.31 171.148 363.31 173.032ZM435.144 -24.7414C435.749 -25.1147 436.456 -24.4426 436.114 -23.8198L427.811 -2.1355C427.017 -0.691788 425.972 0.598618 424.725 1.67494L405.413 14.1531C404.876 14.6172 404.071 14.0665 404.31 13.3974L410.587 -4.22458C412.17 -8.66805 415.219 -12.4396 419.233 -14.9176L435.144 -24.7414Z" fill="url(#paint40_linear_565_26954)"/>
<path fill-rule="evenodd" clip-rule="evenodd" d="M183.942 135.221C182.295 131.779 181.625 128.17 182.522 124.681L100.628 23.053L97.2342 13L97.2813 12.9857L96.0788 9.42401L96.0345 9.44687L89.4139 -10.1622C88.4316 -13.0704 86.4733 -15.5727 83.8537 -17.2673L49.5844 -39.4283C48.4985 -40.1301 47.1773 -39.4774 46.9061 -38.4219C46.8543 -38.1554 46.869 -37.866 46.9696 -37.5679L59.8114 0.46727C60.7933 3.37534 62.7517 5.8777 65.3718 7.57208L94.538 26.4332L119.245 57.1144C111.834 63.7071 111.844 74.0757 111.855 85.5722C111.874 105.139 111.896 127.972 75.3415 141.018C72.556 142.012 71.9228 145.782 74.2669 147.552C100.848 167.618 129.419 205.24 136.601 214.967C137.598 216.317 139.499 216.773 141.028 216.031C173.154 200.448 175.107 182.621 176.859 166.642C177.67 159.239 178.438 152.232 182.142 146.029C184.15 142.665 185.801 138.67 183.942 135.221ZM136.272 112.527C134.335 112.527 132.766 111 132.766 109.116C132.766 107.232 134.335 105.705 136.272 105.705C138.208 105.705 139.777 107.232 139.777 109.116C139.777 111 138.208 112.527 136.272 112.527ZM139.619 143.986L165.01 150.161C165.14 150.218 165.287 150.227 165.424 150.187C165.56 150.148 165.678 150.062 165.754 149.946C165.903 149.611 165.854 149.324 165.606 149.084C163.471 146.882 160.89 144.393 157.862 141.616C157.757 141.509 157.699 141.368 157.699 141.221C157.699 141.074 157.757 140.933 157.862 140.826L165.606 133.43C165.804 133.238 165.829 132.975 165.68 132.64C165.615 132.489 165.498 132.364 165.349 132.285C165.2 132.207 165.028 132.18 164.861 132.209L139.47 138.457C139.222 138.504 139.148 138.433 139.247 138.241L145.65 113.826C145.67 113.731 145.67 113.633 145.65 113.539C145.402 112.677 145.154 112.366 144.906 112.605L136.566 120.504C136.502 120.551 136.423 120.576 136.343 120.576C136.262 120.576 136.184 120.551 136.119 120.504L128.45 113.108C128.202 112.82 127.879 112.749 127.482 112.892C127.31 112.957 127.169 113.081 127.087 113.24C127.004 113.399 126.986 113.582 127.035 113.754C129.418 121.845 131.602 129.959 133.588 138.097C133.637 138.385 133.513 138.48 133.216 138.385L107.75 132.209C107.651 132.181 107.547 132.172 107.445 132.185C107.342 132.197 107.243 132.23 107.155 132.281C106.807 132.568 106.683 132.807 106.782 132.999L107.006 133.214L114.973 140.97C115.005 140.997 115.03 141.03 115.047 141.067C115.065 141.104 115.074 141.145 115.074 141.185C115.074 141.226 115.065 141.266 115.047 141.303C115.03 141.341 115.005 141.374 114.973 141.401L107.08 148.941C106.882 149.18 106.882 149.443 107.08 149.731C107.153 149.855 107.263 149.956 107.396 150.02C107.528 150.084 107.678 150.108 107.825 150.09L133.364 143.914L133.386 143.913L133.41 143.915L133.446 143.925C133.472 143.936 133.494 143.954 133.509 143.977C133.525 143.999 133.533 144.025 133.534 144.052L133.53 144.092L133.513 144.129C131.528 152.364 129.418 160.406 127.184 168.258C126.837 169.502 127.259 169.813 128.45 169.191C128.798 169 129.17 168.688 129.567 168.258C131.751 166.007 133.96 163.901 136.194 161.938C136.258 161.892 136.337 161.866 136.417 161.866C136.498 161.866 136.576 161.892 136.641 161.938L143.714 168.688C145.303 170.172 145.948 169.885 145.65 167.827C145.531 167.021 145.199 166.196 144.86 165.349C144.563 164.611 144.26 163.857 144.087 163.087C142.449 156.433 140.86 150.185 139.321 144.345C139.222 144.058 139.321 143.938 139.619 143.986ZM146.789 127.147C146.789 129.031 148.359 130.558 150.295 130.558C152.231 130.558 153.801 129.031 153.801 127.147C153.801 125.263 152.231 123.736 150.295 123.736C148.359 123.736 146.789 125.263 146.789 127.147ZM122.248 130.558C120.312 130.558 118.743 129.031 118.743 127.147C118.743 125.263 120.312 123.736 122.248 123.736C124.185 123.736 125.754 125.263 125.754 127.147C125.754 129.031 124.185 130.558 122.248 130.558ZM146.789 154.434C146.789 156.318 148.359 157.845 150.295 157.845C152.231 157.845 153.801 156.318 153.801 154.434C153.801 152.551 152.231 151.024 150.295 151.024C148.359 151.024 146.789 152.551 146.789 154.434ZM122.248 157.845C120.312 157.845 118.743 156.318 118.743 154.434C118.743 152.551 120.312 151.024 122.248 151.024C124.185 151.024 125.754 152.551 125.754 154.434C125.754 156.318 124.185 157.845 122.248 157.845ZM132.766 173.032C132.766 174.916 134.335 176.443 136.272 176.443C138.208 176.443 139.777 174.916 139.777 173.032C139.777 171.148 138.208 169.621 136.272 169.621C134.335 169.621 132.766 171.148 132.766 173.032ZM58.8542 -23.8198C58.5119 -24.4426 59.219 -25.1147 59.8237 -24.7414L75.7349 -14.9176C79.7486 -12.4396 82.7981 -8.66805 84.3809 -4.22458L90.6581 13.3974C90.8964 14.0665 90.0923 14.6172 89.5546 14.1531L69.9353 1.63628C68.6883 0.559952 67.6435 -0.730453 66.8502 -2.17416L58.8542 -23.8198Z" fill="url(#paint41_linear_565_26954)"/>
<path d="M228.025 148.854L233.283 144.311L238.541 148.854L238.684 148.994L238.923 149.224C240.01 150.258 241.769 151.932 241.769 154.458C241.724 155.034 241.553 156.219 241.229 156.349C241.059 156.487 240.896 156.198 240.655 155.768C240.176 154.917 239.386 153.513 237.608 153.782C235.845 154.049 235.249 155.62 235.258 156.349C235.081 157.58 235.535 160.164 237.143 161.611C237.452 161.889 237.544 162.365 237.288 162.693L233.827 167.11C233.551 167.463 233.015 167.463 232.739 167.11L229.278 162.693C229.022 162.365 229.114 161.889 229.423 161.611C231.031 160.164 231.485 157.58 231.308 156.349C231.317 155.62 230.721 154.049 228.958 153.782C227.18 153.513 226.39 154.917 225.911 155.768C225.67 156.198 225.507 156.487 225.337 156.349C225.013 156.219 224.842 155.034 224.797 154.458C224.797 151.932 226.556 150.258 227.643 149.224L227.882 148.994L228.025 148.854Z" fill="url(#paint42_linear_565_26954)"/>
<path d="M241.85 165.648L247.108 161.105L252.365 165.648L252.509 165.789L252.748 166.018C253.835 167.052 255.594 168.726 255.594 171.252C255.549 171.829 255.378 173.014 255.054 173.143C254.883 173.281 254.721 172.992 254.479 172.563C254.001 171.711 253.211 170.307 251.433 170.577C249.67 170.844 249.074 172.414 249.083 173.143C248.906 174.374 249.36 176.959 250.968 178.406C251.277 178.683 251.369 179.16 251.113 179.487L247.652 183.904C247.375 184.258 246.84 184.258 246.563 183.904L243.103 179.487C242.846 179.16 242.938 178.683 243.247 178.406C244.856 176.959 245.31 174.374 245.133 173.143C245.142 172.414 244.546 170.844 242.782 170.577C241.005 170.307 240.215 171.711 239.736 172.563C239.495 172.992 239.332 173.281 239.162 173.143C238.838 173.014 238.667 171.829 238.622 171.252C238.622 168.726 240.381 167.052 241.467 166.018L241.707 165.789L241.85 165.648Z" fill="url(#paint43_linear_565_26954)"/>
<path d="M266.19 148.854L260.933 144.311L255.675 148.854L255.532 148.994L255.292 149.224C254.206 150.258 252.447 151.932 252.447 154.458C252.492 155.034 252.663 156.219 252.987 156.349C253.157 156.487 253.32 156.198 253.561 155.768C254.04 154.917 254.829 153.513 256.607 153.782C258.37 154.049 258.967 155.62 258.958 156.349C259.135 157.58 258.681 160.164 257.072 161.611C256.763 161.889 256.671 162.365 256.928 162.693L260.388 167.11C260.665 167.463 261.2 167.463 261.477 167.11L264.938 162.693C265.194 162.365 265.102 161.889 264.793 161.611C263.185 160.164 262.731 157.58 262.908 156.349C262.899 155.62 263.495 154.049 265.258 153.782C267.036 153.513 267.826 154.917 268.304 155.768C268.546 156.198 268.708 156.487 268.879 156.349C269.203 156.219 269.374 155.034 269.419 154.458C269.419 151.932 267.66 150.258 266.573 149.224L266.333 148.994L266.19 148.854Z" fill="url(#paint44_linear_565_26954)"/>
<defs>
<linearGradient id="paint0_linear_565_26954" x1="249" y1="-4" x2="249" y2="270" gradientUnits="userSpaceOnUse">
<stop stop-color="#3F444D"/>
<stop offset="1" stop-color="#3F444D" stop-opacity="0.4"/>
</linearGradient>
<linearGradient id="paint1_linear_565_26954" x1="249" y1="-4" x2="249" y2="270" gradientUnits="userSpaceOnUse">
<stop stop-color="#3F444D"/>
<stop offset="1" stop-color="#3F444D" stop-opacity="0.4"/>
</linearGradient>
<linearGradient id="paint2_linear_565_26954" x1="249" y1="-4" x2="249" y2="270" gradientUnits="userSpaceOnUse">
<stop stop-color="#3F444D"/>
<stop offset="1" stop-color="#3F444D" stop-opacity="0.4"/>
</linearGradient>
<linearGradient id="paint3_linear_565_26954" x1="249" y1="-4" x2="249" y2="270" gradientUnits="userSpaceOnUse">
<stop stop-color="#3F444D"/>
<stop offset="1" stop-color="#3F444D" stop-opacity="0.4"/>
</linearGradient>
<linearGradient id="paint4_linear_565_26954" x1="249" y1="-4" x2="249" y2="270" gradientUnits="userSpaceOnUse">
<stop stop-color="#3F444D"/>
<stop offset="1" stop-color="#3F444D" stop-opacity="0.4"/>
</linearGradient>
<linearGradient id="paint5_linear_565_26954" x1="249" y1="-4" x2="249" y2="270" gradientUnits="userSpaceOnUse">
<stop stop-color="#3F444D"/>
<stop offset="1" stop-color="#3F444D" stop-opacity="0.4"/>
</linearGradient>
<linearGradient id="paint6_linear_565_26954" x1="249" y1="-4" x2="249" y2="270" gradientUnits="userSpaceOnUse">
<stop stop-color="#3F444D"/>
<stop offset="1" stop-color="#3F444D" stop-opacity="0.4"/>
</linearGradient>
<linearGradient id="paint7_linear_565_26954" x1="249" y1="-4" x2="249" y2="270" gradientUnits="userSpaceOnUse">
<stop stop-color="#3F444D"/>
<stop offset="1" stop-color="#3F444D" stop-opacity="0.4"/>
</linearGradient>
<linearGradient id="paint8_linear_565_26954" x1="249" y1="-4" x2="249" y2="270" gradientUnits="userSpaceOnUse">
<stop stop-color="#3F444D"/>
<stop offset="1" stop-color="#3F444D" stop-opacity="0.4"/>
</linearGradient>
<linearGradient id="paint9_linear_565_26954" x1="249" y1="-4" x2="249" y2="270" gradientUnits="userSpaceOnUse">
<stop stop-color="#3F444D"/>
<stop offset="1" stop-color="#3F444D" stop-opacity="0.4"/>
</linearGradient>
<linearGradient id="paint10_linear_565_26954" x1="249" y1="-4" x2="249" y2="270" gradientUnits="userSpaceOnUse">
<stop stop-color="#3F444D"/>
<stop offset="1" stop-color="#3F444D" stop-opacity="0.4"/>
</linearGradient>
<linearGradient id="paint11_linear_565_26954" x1="249" y1="-4" x2="249" y2="270" gradientUnits="userSpaceOnUse">
<stop stop-color="#3F444D"/>
<stop offset="1" stop-color="#3F444D" stop-opacity="0.4"/>
</linearGradient>
<linearGradient id="paint12_linear_565_26954" x1="249" y1="-4" x2="249" y2="270" gradientUnits="userSpaceOnUse">
<stop stop-color="#3F444D"/>
<stop offset="1" stop-color="#3F444D" stop-opacity="0.4"/>
</linearGradient>
<linearGradient id="paint13_linear_565_26954" x1="249" y1="-4" x2="249" y2="270" gradientUnits="userSpaceOnUse">
<stop stop-color="#3F444D"/>
<stop offset="1" stop-color="#3F444D" stop-opacity="0.4"/>
</linearGradient>
<linearGradient id="paint14_linear_565_26954" x1="249" y1="-4" x2="249" y2="270" gradientUnits="userSpaceOnUse">
<stop stop-color="#3F444D"/>
<stop offset="1" stop-color="#3F444D" stop-opacity="0.4"/>
</linearGradient>
<linearGradient id="paint15_linear_565_26954" x1="249" y1="-4" x2="249" y2="270" gradientUnits="userSpaceOnUse">
<stop stop-color="#3F444D"/>
<stop offset="1" stop-color="#3F444D" stop-opacity="0.4"/>
</linearGradient>
<linearGradient id="paint16_linear_565_26954" x1="249" y1="-4" x2="249" y2="270" gradientUnits="userSpaceOnUse">
<stop stop-color="#3F444D"/>
<stop offset="1" stop-color="#3F444D" stop-opacity="0.4"/>
</linearGradient>
<linearGradient id="paint17_linear_565_26954" x1="249" y1="-4" x2="249" y2="270" gradientUnits="userSpaceOnUse">
<stop stop-color="#3F444D"/>
<stop offset="1" stop-color="#3F444D" stop-opacity="0.4"/>
</linearGradient>
<linearGradient id="paint18_linear_565_26954" x1="249" y1="-4" x2="249" y2="270" gradientUnits="userSpaceOnUse">
<stop stop-color="#3F444D"/>
<stop offset="1" stop-color="#3F444D" stop-opacity="0.4"/>
</linearGradient>
<linearGradient id="paint19_linear_565_26954" x1="249" y1="-4" x2="249" y2="270" gradientUnits="userSpaceOnUse">
<stop stop-color="#3F444D"/>
<stop offset="1" stop-color="#3F444D" stop-opacity="0.4"/>
</linearGradient>
<linearGradient id="paint20_linear_565_26954" x1="249" y1="-4" x2="249" y2="270" gradientUnits="userSpaceOnUse">
<stop stop-color="#3F444D"/>
<stop offset="1" stop-color="#3F444D" stop-opacity="0.4"/>
</linearGradient>
<linearGradient id="paint21_linear_565_26954" x1="249" y1="-4" x2="249" y2="270" gradientUnits="userSpaceOnUse">
<stop stop-color="#3F444D"/>
<stop offset="1" stop-color="#3F444D" stop-opacity="0.4"/>
</linearGradient>
<linearGradient id="paint22_linear_565_26954" x1="249" y1="-4" x2="249" y2="270" gradientUnits="userSpaceOnUse">
<stop stop-color="#3F444D"/>
<stop offset="1" stop-color="#3F444D" stop-opacity="0.4"/>
</linearGradient>
<linearGradient id="paint23_linear_565_26954" x1="249" y1="-4" x2="249" y2="270" gradientUnits="userSpaceOnUse">
<stop stop-color="#3F444D"/>
<stop offset="1" stop-color="#3F444D" stop-opacity="0.4"/>
</linearGradient>
<linearGradient id="paint24_linear_565_26954" x1="249" y1="-4" x2="249" y2="270" gradientUnits="userSpaceOnUse">
<stop stop-color="#3F444D"/>
<stop offset="1" stop-color="#3F444D" stop-opacity="0.4"/>
</linearGradient>
<linearGradient id="paint25_linear_565_26954" x1="249" y1="-4" x2="249" y2="270" gradientUnits="userSpaceOnUse">
<stop stop-color="#3F444D"/>
<stop offset="1" stop-color="#3F444D" stop-opacity="0.4"/>
</linearGradient>
<linearGradient id="paint26_linear_565_26954" x1="249" y1="-4" x2="249" y2="270" gradientUnits="userSpaceOnUse">
<stop stop-color="#3F444D"/>
<stop offset="1" stop-color="#3F444D" stop-opacity="0.4"/>
</linearGradient>
<linearGradient id="paint27_linear_565_26954" x1="249" y1="-4" x2="249" y2="270" gradientUnits="userSpaceOnUse">
<stop stop-color="#3F444D"/>
<stop offset="1" stop-color="#3F444D" stop-opacity="0.4"/>
</linearGradient>
<linearGradient id="paint28_linear_565_26954" x1="249" y1="-4" x2="249" y2="270" gradientUnits="userSpaceOnUse">
<stop stop-color="#3F444D"/>
<stop offset="1" stop-color="#3F444D" stop-opacity="0.4"/>
</linearGradient>
<linearGradient id="paint29_linear_565_26954" x1="249" y1="-4" x2="249" y2="270" gradientUnits="userSpaceOnUse">
<stop stop-color="#3F444D"/>
<stop offset="1" stop-color="#3F444D" stop-opacity="0.4"/>
</linearGradient>
<linearGradient id="paint30_linear_565_26954" x1="249" y1="-4" x2="249" y2="270" gradientUnits="userSpaceOnUse">
<stop stop-color="#3F444D"/>
<stop offset="1" stop-color="#3F444D" stop-opacity="0.4"/>
</linearGradient>
<linearGradient id="paint31_linear_565_26954" x1="249" y1="-4" x2="249" y2="270" gradientUnits="userSpaceOnUse">
<stop stop-color="#3F444D"/>
<stop offset="1" stop-color="#3F444D" stop-opacity="0.4"/>
</linearGradient>
<linearGradient id="paint32_linear_565_26954" x1="249" y1="-4" x2="249" y2="270" gradientUnits="userSpaceOnUse">
<stop stop-color="#3F444D"/>
<stop offset="1" stop-color="#3F444D" stop-opacity="0.4"/>
</linearGradient>
<linearGradient id="paint33_linear_565_26954" x1="249" y1="-4" x2="249" y2="270" gradientUnits="userSpaceOnUse">
<stop stop-color="#3F444D"/>
<stop offset="1" stop-color="#3F444D" stop-opacity="0.4"/>
</linearGradient>
<linearGradient id="paint34_linear_565_26954" x1="249" y1="-4" x2="249" y2="270" gradientUnits="userSpaceOnUse">
<stop stop-color="#3F444D"/>
<stop offset="1" stop-color="#3F444D" stop-opacity="0.4"/>
</linearGradient>
<linearGradient id="paint35_linear_565_26954" x1="249" y1="-4" x2="249" y2="270" gradientUnits="userSpaceOnUse">
<stop stop-color="#3F444D"/>
<stop offset="1" stop-color="#3F444D" stop-opacity="0.4"/>
</linearGradient>
<linearGradient id="paint36_linear_565_26954" x1="249" y1="-4" x2="249" y2="270" gradientUnits="userSpaceOnUse">
<stop stop-color="#3F444D"/>
<stop offset="1" stop-color="#3F444D" stop-opacity="0.4"/>
</linearGradient>
<linearGradient id="paint37_linear_565_26954" x1="249" y1="-4" x2="249" y2="270" gradientUnits="userSpaceOnUse">
<stop stop-color="#3F444D"/>
<stop offset="1" stop-color="#3F444D" stop-opacity="0.4"/>
</linearGradient>
<linearGradient id="paint38_linear_565_26954" x1="249" y1="-4" x2="249" y2="270" gradientUnits="userSpaceOnUse">
<stop stop-color="#3F444D"/>
<stop offset="1" stop-color="#3F444D" stop-opacity="0.4"/>
</linearGradient>
<linearGradient id="paint39_linear_565_26954" x1="249" y1="-4" x2="249" y2="270" gradientUnits="userSpaceOnUse">
<stop stop-color="#3F444D"/>
<stop offset="1" stop-color="#3F444D" stop-opacity="0.4"/>
</linearGradient>
<linearGradient id="paint40_linear_565_26954" x1="249" y1="-4" x2="249" y2="270" gradientUnits="userSpaceOnUse">
<stop stop-color="#3F444D"/>
<stop offset="1" stop-color="#3F444D" stop-opacity="0.4"/>
</linearGradient>
<linearGradient id="paint41_linear_565_26954" x1="249" y1="-4" x2="249" y2="270" gradientUnits="userSpaceOnUse">
<stop stop-color="#3F444D"/>
<stop offset="1" stop-color="#3F444D" stop-opacity="0.4"/>
</linearGradient>
<linearGradient id="paint42_linear_565_26954" x1="249" y1="-4" x2="249" y2="270" gradientUnits="userSpaceOnUse">
<stop stop-color="#3F444D"/>
<stop offset="1" stop-color="#3F444D" stop-opacity="0.4"/>
</linearGradient>
<linearGradient id="paint43_linear_565_26954" x1="249" y1="-4" x2="249" y2="270" gradientUnits="userSpaceOnUse">
<stop stop-color="#3F444D"/>
<stop offset="1" stop-color="#3F444D" stop-opacity="0.4"/>
</linearGradient>
<linearGradient id="paint44_linear_565_26954" x1="249" y1="-4" x2="249" y2="270" gradientUnits="userSpaceOnUse">
<stop stop-color="#3F444D"/>
<stop offset="1" stop-color="#3F444D" stop-opacity="0.4"/>
</linearGradient>
</defs>
</svg>
