<svg width="36" height="36" viewBox="0 0 36 36" fill="none" xmlns="http://www.w3.org/2000/svg">
<path opacity="0.12" d="M16.953 32.4225C17.2851 32.6162 17.4511 32.7131 17.6855 32.7633C17.8673 32.8023 18.1327 32.8023 18.3145 32.7633C18.5489 32.7131 18.7149 32.6162 19.047 32.4225C21.9691 30.7178 30 25.3628 30 18.0002V10.8266C30 9.62731 30 9.02767 29.8039 8.51223C29.6306 8.05688 29.349 7.65059 28.9835 7.32847C28.5698 6.96383 28.0083 6.75329 26.8854 6.33219L18.8427 3.31618C18.5309 3.19924 18.3749 3.14077 18.2145 3.11759C18.0722 3.09703 17.9278 3.09703 17.7855 3.11759C17.6251 3.14077 17.4691 3.19924 17.1573 3.31618L9.11461 6.33219C7.9917 6.75329 7.43024 6.96383 7.01649 7.32847C6.65097 7.65059 6.36941 8.05688 6.19614 8.51223C6 9.02767 6 9.62731 6 10.8266V18.0002C6 25.3628 14.0309 30.7178 16.953 32.4225Z" fill="#E02D3C"/>
<path d="M13.5 17.25L16.5 20.25L23.25 13.5001M30 18C30 25.3627 21.9691 30.7176 19.047 32.4224C18.7149 32.6161 18.5489 32.713 18.3145 32.7632C18.1327 32.8022 17.8673 32.8022 17.6855 32.7632C17.4511 32.713 17.2851 32.6161 16.953 32.4224C14.0309 30.7176 6 25.3627 6 18V10.8265C6 9.62718 6 9.02755 6.19614 8.51211C6.36941 8.05676 6.65097 7.65047 7.01649 7.32835C7.43024 6.96371 7.9917 6.75316 9.11461 6.33207L17.1573 3.31606C17.4691 3.19912 17.6251 3.14065 17.7855 3.11747C17.9278 3.09691 18.0722 3.09691 18.2145 3.11747C18.3749 3.14065 18.5309 3.19912 18.8427 3.31606L26.8854 6.33207C28.0083 6.75316 28.5698 6.96371 28.9835 7.32835C29.349 7.65047 29.6306 8.05676 29.8039 8.51211C30 9.02755 30 9.62718 30 10.8265V18Z" stroke="#E02D3C" stroke-width="3" stroke-linecap="round" stroke-linejoin="round"/>
</svg>
