<svg width="50" height="50" viewBox="0 0 50 50" fill="none" xmlns="http://www.w3.org/2000/svg">
<path d="M24.9225 0C25.1169 0 25.2745 0.153327 25.2745 0.342466V1.0274H25.9785C26.1729 1.0274 26.3304 1.18073 26.3304 1.36986C26.3304 1.559 26.1729 1.71233 25.9785 1.71233H25.2745V2.39726C25.2745 2.5864 25.1169 2.73973 24.9225 2.73973C24.7281 2.73973 24.5705 2.5864 24.5705 2.39726V1.71233H23.8665C23.6721 1.71233 23.5145 1.559 23.5145 1.36986C23.5145 1.18073 23.6721 1.0274 23.8665 1.0274H24.5705V0.342466C24.5705 0.153327 24.7281 0 24.9225 0Z" fill="#3F444D"/>
<path d="M38.4692 14.8913L38.7403 14.0883C38.5553 14.0393 38.3653 14.0008 38.1702 13.9725C37.5124 13.8764 36.8794 13.8139 36.2714 13.7851C36.0304 13.7744 35.7949 13.7548 35.5587 13.7351C35.3185 13.7151 35.0772 13.6951 34.8285 13.6842C33.6748 13.6314 32.5471 13.3362 31.5242 12.819C30.6943 12.384 30.0439 11.764 29.5732 10.9589H27.0762C26.8676 11.3794 26.6389 11.7708 26.3951 12.14C26.8264 12.4193 27.1239 12.8789 27.1738 13.4082C27.2937 13.4452 27.4138 13.4912 27.5328 13.5474C27.8252 13.5358 28.1579 13.561 28.5073 13.6655C29.1798 13.8668 29.6985 14.2949 30.0705 14.8375C30.3314 15.2184 30.4895 15.6435 30.5201 16.0854C32.5073 16.024 33.9751 15.6971 35.3121 15.3992C36.3818 15.161 37.3679 14.9414 38.4692 14.8913Z" fill="#00A82F"/>
<path d="M25.4625 11.4405C25.288 11.3841 25.1013 11.3535 24.9073 11.3535C24.2898 11.3535 23.7466 11.6629 23.4325 12.131C22.9962 12.4078 22.6939 12.8677 22.6408 13.3987C22.5109 13.4371 22.3806 13.4859 22.2515 13.5468C22.026 13.539 21.7783 13.5536 21.5184 13.6089C20.756 13.7715 20.1563 14.2236 19.7353 14.8422C19.5191 15.16 19.3744 15.508 19.315 15.8704C18.7101 16.0172 18.1085 16.0958 17.5307 16.0958C15.8657 16.0958 14.3038 15.6514 13.2289 15.3455C12.9404 15.2634 12.6869 15.1914 12.476 15.1405C12.147 15.0588 11.7608 14.9866 11.3173 14.9242C11.2896 14.9207 11.262 14.9175 11.2344 14.9146L10.9509 14.0749C11.33 13.9814 11.7611 13.916 12.2443 13.8788C13.0766 13.8066 13.9189 13.7418 14.7711 13.6841C15.7031 13.6168 16.5578 13.4486 17.3354 13.1794C17.8437 13.0064 18.3844 12.7036 18.9576 12.271C19.4458 11.8992 19.7742 11.4207 20.0988 10.9275L20.1324 10.9588H25.7109C25.6355 11.1216 25.5525 11.2822 25.4625 11.4405Z" fill="#C80138"/>
<path d="M35.5925 45.3884L35.1272 44.8106C36.3785 44.4438 37.3335 44.084 38.0558 43.7099C39.0376 43.2014 39.5602 42.6819 39.8253 42.1108C40.0933 41.5334 40.124 40.8495 40.0059 39.9571C39.9229 39.3288 39.7718 38.6304 39.597 37.822L39.5966 37.8199C39.5212 37.4718 39.4415 37.1032 39.3609 36.711C38.8121 34.0412 40.624 32.1716 41.6315 31.559C41.7963 31.4587 42.0135 31.5075 42.1165 31.6679C42.2195 31.8282 42.1694 32.0395 42.0046 32.1398C41.1348 32.6687 39.5818 34.2929 40.0512 36.5767C40.1276 36.9481 40.2048 37.3053 40.2789 37.648C40.4571 38.4718 40.6173 39.2124 40.7041 39.8697C40.8282 40.8073 40.8148 41.643 40.4668 42.3927C40.1159 43.1486 39.4506 43.7636 38.3865 44.3145C37.6649 44.6883 36.7466 45.0395 35.5925 45.3884Z" fill="#3F444D"/>
<path d="M31.8741 46.3237L31.4031 45.7388C30.3146 46.0334 29.1406 46.4088 28.0833 46.8516C27.1534 47.241 26.2943 47.6904 25.6617 48.1953C25.3709 48.4274 25.114 48.6827 24.9226 48.9605C24.7311 48.6827 24.4742 48.4274 24.1833 48.1953C23.5508 47.6904 22.6916 47.241 21.7618 46.8516C20.6657 46.3926 19.4443 46.006 18.3227 45.7068L17.851 46.2926C19.0226 46.5942 20.3291 46.9973 21.4835 47.4807C22.3869 47.859 23.1777 48.2786 23.7368 48.7248C23.8619 48.8246 23.9723 48.9066 24.0684 48.9781C24.4091 49.2312 24.5706 49.3512 24.5706 49.6575C24.5706 49.8466 24.7281 50 24.9226 50C25.1169 50 25.2745 49.8466 25.2745 49.6575C25.2745 49.3512 25.436 49.2312 25.7767 48.9781C25.8728 48.9066 25.9832 48.8246 26.1083 48.7248C26.6674 48.2786 27.4581 47.859 28.3616 47.4807C29.4768 47.0137 30.7338 46.6217 31.8741 46.3237Z" fill="#3F444D"/>
<path d="M11.4585 44.3145C12.1557 44.6756 13.0364 45.0157 14.1361 45.3529L14.6007 44.776C13.4067 44.4212 12.4888 44.0722 11.7893 43.7099C10.8074 43.2014 10.2849 42.6819 10.0198 42.1108C9.75182 41.5334 9.72112 40.8495 9.83911 39.9571C9.92214 39.329 10.0731 38.6311 10.2478 37.8232L10.2485 37.8201C10.3238 37.4719 10.4035 37.1033 10.4842 36.711C11.033 34.0412 9.22109 32.1716 8.21362 31.559C8.04875 31.4587 7.83158 31.5075 7.72858 31.6679C7.62552 31.8282 7.67564 32.0395 7.84052 32.1398C8.71028 32.6687 10.2633 34.2929 9.79385 36.5767C9.71746 36.9482 9.64024 37.3053 9.56611 37.6479L9.56503 37.6529C9.38735 38.4748 9.2276 39.2137 9.14091 39.8697C9.01693 40.8073 9.03024 41.643 9.37822 42.3927C9.72908 43.1486 10.3945 43.7636 11.4585 44.3145Z" fill="#3F444D"/>
<path d="M8.95997 17.8693L8.52343 17.3272L7.38528 16.5912C6.97781 17.0842 6.59895 17.6461 6.24866 18.277C5.50855 19.6108 4.98525 21.0239 4.61145 22.4947C4.49184 22.9898 4.36475 23.4729 4.23018 23.9439C4.05823 24.5279 3.83396 25.083 3.57978 25.6382C3.43372 25.9636 3.28982 26.2682 3.13629 26.5567C2.38824 27.7137 1.58042 28.4876 0.974237 29.0683L0.973159 29.0694C0.891035 29.148 0.812288 29.2235 0.73823 29.2955C0.583062 29.4465 0.440917 29.59 0.326368 29.7252C0.214032 29.8578 0.110589 30.0026 0.0518253 30.1578C-0.0109232 30.3234 -0.0254427 30.5102 0.0576592 30.6971C0.13524 30.8715 0.279184 31.0027 0.439743 31.1069C0.837702 31.365 1.41021 31.4447 1.94741 31.4667C2.47764 31.4884 3.04801 31.4548 3.52563 31.4268L3.52638 31.4267L3.58615 31.4232C3.70951 31.416 3.82544 31.4093 3.93297 31.4041C3.68542 31.9218 3.35592 32.3816 3.02054 32.8496L3.02009 32.8502C2.91489 32.997 2.8091 33.1446 2.7051 33.295C2.37118 33.7949 2.19176 34.2996 2.16684 34.8091C2.1469 35.2369 2.2416 35.5878 2.45092 35.8617C2.48171 35.9015 2.51346 35.9388 2.54611 35.974C2.59585 36.0321 2.6531 36.084 2.71616 36.1306C2.89849 36.2733 3.10177 36.3599 3.31703 36.4036C3.85464 36.5483 4.58587 36.5499 5.50486 36.33C5.42883 36.823 5.43007 37.2965 5.50856 37.7507C5.70293 38.8538 6.38169 39.4593 7.42834 39.8991C7.49311 39.9231 7.55787 39.9279 7.62271 39.9135C7.64326 39.9096 7.66227 39.9002 7.67762 39.8865C7.6929 39.8727 7.70395 39.855 7.70937 39.8355C7.71486 39.816 7.71451 39.7954 7.70845 39.776C7.70233 39.7567 7.69078 39.7394 7.67501 39.726C7.09641 39.2118 7.14935 38.1716 7.63144 37.5486C7.91859 37.1936 8.14562 36.797 8.30423 36.3735C8.41391 36.0707 8.43883 35.8183 8.37899 35.6165C8.22947 35.1118 8.09522 35.0542 7.60926 35.083C7.17068 35.1071 6.81683 35.172 6.5477 35.2777L6.52415 35.2867C6.51213 35.2899 6.50018 35.2938 6.48833 35.2985C4.76549 35.969 3.72356 35.8798 3.25647 35.6526C3.16902 35.6101 3.10527 35.5567 3.06031 35.4913C3.05566 35.4775 3.05371 35.4621 3.05437 35.443C3.05773 35.3448 3.12969 35.1688 3.34904 34.8895C3.43914 34.7747 3.54437 34.654 3.66272 34.5267C3.97251 34.3078 4.27131 34.0823 4.55912 33.8502C5.15505 33.4214 5.64098 32.8664 5.97953 32.228C6.0702 31.9808 6.09588 31.7157 6.05429 31.4565C6.01691 31.0239 5.41137 30.7428 5.02263 30.6923C4.63388 30.6442 4.37721 30.6202 4.25261 30.6202C3.69441 30.6394 3.17609 30.6827 2.69763 30.7499C2.56616 30.7695 2.44605 30.7817 2.33518 30.7887C2.2141 30.7891 2.09426 30.7871 1.97699 30.7823C1.46049 30.7612 1.06695 30.6845 0.841658 30.5442C0.855006 30.5294 0.872978 30.5111 0.897075 30.4893C1.09963 30.3056 1.49549 30.0802 2.0348 29.796C2.14408 29.7384 2.25827 29.679 2.37623 29.6175L2.39185 29.6094C2.99188 29.2969 3.68729 28.9348 4.32537 28.5202C4.70343 28.3416 5.0472 28.1131 5.32913 27.8228C5.38861 27.7617 5.43779 27.6938 5.47785 27.6208C5.52933 27.5627 5.5575 27.4918 5.56233 27.4197C5.70784 26.9508 5.58099 26.3536 5.41137 25.9338C5.26185 25.583 5.10237 25.2224 4.93291 24.8523C4.68621 24.3116 5.13477 24.1025 5.58332 24.3477C5.99698 24.5736 6.41313 24.7947 6.83178 25.011C7.30275 25.2488 8.09522 25.4363 8.54372 25.0903C9.22736 24.4904 9.64277 23.6581 9.70254 22.7687C9.76231 21.9372 9.69754 21.0816 9.50817 20.202C9.32544 19.4002 9.14271 18.6226 8.95997 17.8693Z" fill="#C80138"/>
<path d="M41.1691 17.3366L41.1504 17.3598C41.1319 17.4703 41.1118 17.5718 41.0899 17.6642C40.8905 18.4812 40.6912 19.3272 40.4919 20.202C40.3024 21.0816 40.2377 21.9372 40.2975 22.7687C40.3572 23.6581 40.7726 24.4904 41.4562 25.0903C41.9048 25.4363 42.6972 25.2488 43.1682 25.011C43.5868 24.7947 44.003 24.5736 44.4167 24.3477C44.8653 24.1025 45.3138 24.3116 45.0671 24.8523C44.8976 25.2224 44.7381 25.583 44.5886 25.9338C44.419 26.3536 44.2922 26.9508 44.4377 27.4197C44.4425 27.4918 44.4707 27.5627 44.5221 27.6208C44.5622 27.6938 44.6114 27.7617 44.6709 27.8228C44.9528 28.1131 45.2966 28.3416 45.6746 28.5202C46.3121 28.9344 47.007 29.2964 47.6067 29.6087L47.6082 29.6095C47.7317 29.6737 47.8511 29.7359 47.9652 29.796C48.5045 30.0802 48.9004 30.3056 49.1029 30.4893C49.127 30.5111 49.145 30.5294 49.1583 30.5442C48.9331 30.6845 48.5395 30.7612 48.023 30.7823C47.9057 30.7871 47.7859 30.7891 47.6648 30.7887C47.554 30.7817 47.4339 30.7695 47.3024 30.7499C46.8239 30.6827 46.3056 30.6394 45.7474 30.6202C45.6228 30.6202 45.3661 30.6442 44.9773 30.6923C44.5886 30.7428 43.9831 31.0239 43.9457 31.4565C43.9041 31.7157 43.9298 31.9808 44.0205 32.228C44.359 32.8664 44.8449 33.4214 45.4409 33.8502C45.7287 34.0823 46.0275 34.3078 46.3373 34.5267C46.4556 34.654 46.5609 34.7747 46.651 34.8895C46.8703 35.1688 46.9423 35.3448 46.9457 35.443C46.9463 35.4621 46.9443 35.4775 46.9397 35.4913C46.8947 35.5567 46.831 35.6101 46.7435 35.6526C46.2765 35.8798 45.2345 35.969 43.5117 35.2985C43.5023 35.2948 43.4928 35.2916 43.4833 35.2888L43.4758 35.2867L43.4523 35.2777C43.1832 35.172 42.8293 35.1071 42.3907 35.083C41.9048 35.0542 41.7705 35.1118 41.621 35.6165C41.5612 35.8183 41.5861 36.0707 41.6957 36.3735C41.8544 36.797 42.0814 37.1936 42.3686 37.5486C42.8506 38.1716 42.9036 39.2118 42.325 39.726C42.3092 39.7394 42.2976 39.7567 42.2916 39.776C42.2855 39.7954 42.2852 39.816 42.2906 39.8355C42.296 39.855 42.3071 39.8727 42.3224 39.8865C42.3377 39.9002 42.3567 39.9096 42.3773 39.9135C42.4421 39.9279 42.5069 39.9231 42.5717 39.8991C43.6183 39.4593 44.2971 38.8538 44.4914 37.7507C44.5699 37.2965 44.5711 36.823 44.4951 36.33C45.4141 36.5499 46.1454 36.5483 46.6829 36.4036C46.8982 36.3599 47.1015 36.2733 47.2839 36.1306C47.3469 36.084 47.4041 36.0321 47.4539 35.974C47.4865 35.9389 47.5183 35.9015 47.549 35.8617C47.7584 35.5878 47.8531 35.2369 47.8332 34.8091C47.8082 34.2996 47.6288 33.7949 47.2949 33.295C47.1909 33.1445 47.0851 32.9969 46.9799 32.8502L46.9791 32.849C46.6438 32.3812 46.3144 31.9215 46.067 31.4041C46.1746 31.4093 46.2905 31.416 46.4139 31.4232L46.4738 31.4268C46.9514 31.4548 47.5222 31.4884 48.0526 31.4667C48.5898 31.4447 49.1623 31.365 49.5602 31.1069C49.7208 31.0027 49.8648 30.8715 49.9424 30.6971C50.0254 30.5102 50.0109 30.3234 49.9482 30.1578C49.8894 30.0026 49.7859 29.8578 49.6736 29.7252C49.5591 29.59 49.4169 29.4465 49.2618 29.2955C49.1874 29.2232 49.1083 29.1474 49.0258 29.0684C48.4196 28.4876 47.6118 27.7137 46.8637 26.5567C46.7102 26.2682 46.5663 25.9636 46.4202 25.6382C46.166 25.083 45.9418 24.5279 45.7698 23.9439C45.6353 23.4729 45.5081 22.9898 45.3885 22.4947C45.0147 21.0239 44.4915 19.6108 43.7514 18.277C43.3716 17.5932 42.9583 16.9903 42.5115 16.4685L41.1691 17.3366Z" fill="#00A82F"/>
<path d="M32.4968 41.5441L32.368 41.3842C32.1036 40.4468 32.3953 39.7206 33.2432 39.2057C33.3035 39.169 33.3445 39.1861 33.3662 39.2571C33.4236 39.4455 33.4592 39.6459 33.473 39.8583C33.5238 40.6564 33.1159 41.1372 32.5059 41.5392C32.503 41.5411 32.5 41.5428 32.4968 41.5441Z" fill="#3F444D"/>
<path d="M32.5828 41.6509L32.6566 41.7425L32.6598 41.7437L32.6647 41.7454L32.6721 41.7477C33.6413 42.0367 34.41 41.7939 34.9781 41.0195C35.0482 40.9237 35.0225 40.8589 34.901 40.8251C33.9146 40.5485 33.1506 40.8042 32.6092 41.5919C32.5945 41.6135 32.5856 41.6332 32.5828 41.6509Z" fill="#3F444D"/>
<path d="M31.4282 7.54486C31.7452 7.21966 32.0377 6.85616 32.1721 6.44247C32.3265 5.96686 32.2595 5.46717 31.9029 4.94684C31.4091 4.22624 30.8115 3.90769 30.1532 3.84626C30.0133 3.83321 29.8721 3.83203 29.7308 3.8401C29.0251 2.9426 27.979 2.8078 27.0443 2.99375C26.8113 3.0401 26.5807 3.10683 26.3579 3.18856C26.5725 3.33852 26.7613 3.52121 26.9166 3.72912C27.0056 3.7043 27.0954 3.6827 27.1853 3.6648C27.825 3.53755 28.43 3.60197 28.8959 3.97626C28.6903 4.02716 28.4882 4.08689 28.2925 4.14683C28.2119 4.1715 28.1321 4.19631 28.0534 4.22079L28.0427 4.22412C27.7809 4.3056 27.5286 4.38409 27.2827 4.44757C27.3492 4.66343 27.3853 4.89209 27.3861 5.12884C27.6873 5.05465 27.9845 4.96187 28.2663 4.87389C28.3467 4.84876 28.4261 4.82399 28.5039 4.80015C28.818 4.70393 29.1101 4.62189 29.3838 4.57187C29.4974 4.77134 29.5535 4.94196 29.5724 5.08926C29.5983 5.29201 29.5572 5.47652 29.4569 5.66391C29.3853 5.79772 29.2835 5.93294 29.1529 6.07429C29.3775 6.1531 29.5841 6.27971 29.7536 6.44613C29.8807 6.29948 29.9932 6.14493 30.0814 5.98022C30.2381 5.68734 30.317 5.36382 30.2709 5.00456C30.2511 4.84956 30.2087 4.69315 30.1439 4.53443C30.5538 4.5865 30.9484 4.78859 31.3172 5.3268C31.5679 5.6926 31.5845 5.97842 31.5008 6.23613C31.4143 6.5024 31.2093 6.7745 30.9116 7.07939C31.1169 7.19555 31.2928 7.35644 31.4282 7.54486Z" fill="#3F444D"/>
<path d="M28.8024 8.56521C28.7994 8.55596 28.7973 8.5463 28.796 8.53631C28.795 8.52911 28.7946 8.52165 28.7946 8.51411V7.52493C28.7946 7.50959 28.7926 7.49507 28.7891 7.48137C28.7716 7.41439 28.7146 7.36829 28.6502 7.35644C28.6449 7.35541 28.6394 7.35466 28.634 7.35418C28.5867 7.3498 28.5369 7.36391 28.4966 7.40144L27.2719 8.54541C27.175 8.63589 27.0164 8.5911 26.9809 8.46952C26.9793 8.46384 26.9779 8.45802 26.9767 8.45199L26.7404 7.16432L26.7392 7.15829L26.7386 7.15541L26.737 7.14938L26.7363 7.14678C26.7007 7.02521 26.5422 6.98041 26.4453 7.07089L25.0445 8.37925C24.9765 8.44288 24.8689 8.44288 24.8007 8.37925L23.3482 7.02247C23.2589 6.93911 23.1114 6.96904 23.0638 7.08014L22.5486 8.28315C22.5036 8.38829 22.3676 8.4222 22.2762 8.35103L20.9847 7.34583C20.9395 7.31055 20.8857 7.30151 20.8371 7.31213C20.8234 7.31514 20.8101 7.31966 20.7976 7.32562C20.741 7.35247 20.6988 7.40808 20.6988 7.47952V8.49494C20.6988 8.5661 20.6557 8.62343 20.5971 8.65014L20.5957 8.65069C20.5572 8.66788 20.5121 8.67185 20.4682 8.65774C20.4611 8.65562 20.4536 8.65254 20.4466 8.64932L19.93 8.40802C19.8262 8.35959 19.7286 8.41418 19.6918 8.49494C19.6646 8.55466 19.6706 8.62863 19.7319 8.68589L20.6988 9.58897H29.1465L30.2542 8.55439C30.3553 8.45993 30.3058 8.31719 30.2025 8.27247C30.194 8.26884 30.1851 8.26583 30.176 8.2635C30.1428 8.25528 30.1056 8.25678 30.0669 8.27185L29.0359 8.67315C29.0061 8.68473 28.9756 8.68781 28.9468 8.68398C28.9385 8.68288 28.9304 8.68117 28.9225 8.67898C28.8666 8.66343 28.8202 8.6213 28.8024 8.56521Z" fill="#3F444D"/>
<path d="M25.0463 6.1574C25.5712 6.09774 25.9785 5.66364 25.9785 5.13699C25.9785 4.56957 25.5057 4.10959 24.9225 4.10959C24.651 4.10959 24.4035 4.20923 24.2165 4.37297C24.1751 4.40914 24.1368 4.44847 24.1018 4.49051C23.9547 4.66705 23.8665 4.89203 23.8665 5.13699C23.8665 5.17479 23.8686 5.21213 23.8727 5.24888C23.93 5.76364 24.3782 6.16434 24.9225 6.16438L24.9233 6.16434C24.9646 6.16431 25.0055 6.16197 25.0455 6.15745L25.0463 6.1574Z" fill="#3F444D"/>
<path d="M20.5382 5.9726C20.3664 5.76821 20.2602 5.57775 20.2197 5.38622C20.1747 5.17307 20.2026 4.9129 20.397 4.57185C20.6707 4.62188 20.9629 4.70392 21.277 4.80015C21.3549 4.82398 21.4341 4.84873 21.5146 4.87386C21.8164 4.9681 22.1352 5.06766 22.4585 5.14424C22.4585 4.91371 22.4908 4.68394 22.5574 4.46259C22.2929 4.39672 22.0212 4.3122 21.7384 4.22419L21.7351 4.22316C21.654 4.19793 21.5715 4.17227 21.4884 4.14683C21.2928 4.08689 21.0906 4.02716 20.885 3.97626C21.3509 3.60197 21.9559 3.53755 22.5955 3.66479C22.7033 3.68623 22.8107 3.71297 22.9168 3.7442C23.069 3.5372 23.2541 3.35474 23.4647 3.20409C23.229 3.11527 22.9842 3.04301 22.7366 2.99375C21.8019 2.80781 20.7558 2.94259 20.05 3.84009C19.9087 3.83203 19.7677 3.8332 19.6276 3.84626C18.9694 3.90769 18.3718 4.22624 17.878 4.94683C17.5214 5.46717 17.4544 5.96686 17.6088 6.44247C17.7725 6.94651 18.1502 7.35328 18.528 7.71924C18.6578 7.52692 18.8287 7.36082 19.0288 7.23774C18.7321 6.95103 18.4089 6.63266 18.2801 6.23613C18.1964 5.97842 18.213 5.69259 18.4637 5.3268C18.8326 4.78853 19.2271 4.58645 19.6371 4.53441C19.4975 4.87618 19.4626 5.20402 19.5301 5.52407C19.5884 5.7997 19.7185 6.04699 19.8876 6.27322C20.078 6.12716 20.3015 6.02393 20.5382 5.9726Z" fill="#3F444D"/>
<path d="M24.9225 46.5753C25.5057 46.5753 25.9785 46.1153 25.9785 45.5479C25.9785 45.009 25.5519 44.567 25.0094 44.524C24.9509 44.5311 24.8899 44.5349 24.8264 44.5349L24.8035 44.5347L24.786 44.5344C24.7759 44.5341 24.7659 44.5337 24.7559 44.5333C24.2519 44.611 23.8665 45.0357 23.8665 45.5479C23.8665 46.1153 24.3393 46.5753 24.9225 46.5753Z" fill="#3F444D"/>
<path d="M29.9783 41.7484L34.8552 47.8045C34.9751 47.9534 35.1964 47.9795 35.3494 47.8629C35.4147 47.8131 35.457 47.7454 35.4747 47.6726C35.4952 47.5773 35.4738 47.4741 35.4073 47.3914L34.1247 45.7988L34.1327 45.7967L33.6601 45.2098L33.6521 45.2118L30.5535 41.3641C30.5057 41.3988 30.4572 41.4328 30.4083 41.4661C30.2665 41.5638 30.123 41.6578 29.9783 41.7484Z" fill="#3F444D"/>
<path d="M19.6944 41.7823C19.4921 41.664 19.2973 41.5351 19.1109 41.3964L14.2831 47.3914C14.2232 47.4659 14.1999 47.5569 14.2107 47.6438C14.2178 47.7004 14.2392 47.7552 14.2743 47.8026C14.2933 47.8282 14.3162 47.8517 14.343 47.8721C14.4961 47.9888 14.7173 47.9627 14.8372 47.8138L19.6944 41.7823Z" fill="#3F444D"/>
<path d="M34.0374 40.3962C33.3761 39.5501 33.3742 38.722 34.0319 37.9116C34.0767 37.8561 34.1221 37.8588 34.1681 37.9197C34.29 38.0814 34.3951 38.2619 34.4836 38.4612C34.724 39.005 34.6733 39.4692 34.458 39.9087C34.7792 39.296 35.3585 38.9636 36.1959 38.9115C36.3246 38.9032 36.3722 38.9568 36.3389 39.0723C36.0675 40.0064 35.4154 40.497 34.3824 40.5444C34.2826 40.5486 34.2441 40.5058 34.2668 40.416C34.3093 40.2507 34.3642 40.0991 34.4316 39.9609C34.3544 40.109 34.2589 40.2544 34.1501 40.3994C34.144 40.4075 34.1358 40.4139 34.1262 40.4183C34.1166 40.4227 34.1059 40.4248 34.0949 40.4245C34.0839 40.4242 34.0729 40.4214 34.0629 40.4165C34.0529 40.4116 34.0442 40.4046 34.0374 40.3962Z" fill="#3F444D"/>
<path d="M34.9864 38.7908C34.2117 38.0737 34.0771 37.2738 34.5826 36.391C34.617 36.3305 34.6613 36.3262 34.7155 36.3782C34.8592 36.5158 34.9897 36.6743 35.1072 36.8534C35.4269 37.3426 35.4522 37.7992 35.3144 38.2568C35.5261 37.6152 36.0327 37.2057 36.8341 37.028C36.9571 37.0004 37.0117 37.045 36.998 37.1617C36.8856 38.1054 36.3342 38.6784 35.3438 38.881C35.248 38.9003 35.2039 38.8647 35.2114 38.7745C35.226 38.6081 35.2548 38.4529 35.2979 38.309C35.247 38.4642 35.1779 38.6197 35.0958 38.7767C35.0912 38.7854 35.0844 38.793 35.0758 38.7986C35.0672 38.8043 35.0572 38.808 35.0465 38.8093C35.0358 38.8107 35.0247 38.8097 35.0143 38.8065C35.0039 38.8033 34.9943 38.7979 34.9864 38.7908Z" fill="#3F444D"/>
<path d="M16.1945 39.2057C17.0771 39.7416 17.3571 40.5064 17.0347 41.5C17.0313 41.51 17.0256 41.5192 17.0181 41.527C17.0105 41.5347 17.0014 41.5407 16.9913 41.5446C16.9812 41.5484 16.9706 41.5499 16.9603 41.549C16.95 41.5481 16.9402 41.5447 16.9319 41.5392C16.7795 41.4388 16.6398 41.3335 16.5166 41.2195C16.628 41.3266 16.7323 41.4507 16.8294 41.5919C16.8809 41.6676 16.8599 41.7195 16.7663 41.7477C15.7972 42.0367 15.0286 41.7939 14.4604 41.0195C14.3903 40.9237 14.416 40.8589 14.5375 40.8251C15.3311 40.6026 15.9806 40.7245 16.4862 41.1908C16.1347 40.8538 15.9277 40.4404 15.9648 39.8583C15.9786 39.6459 16.0142 39.4455 16.0716 39.2571C16.0933 39.1861 16.1343 39.169 16.1945 39.2057Z" fill="#3F444D"/>
<path d="M15.4062 37.9116C16.0639 38.722 16.062 39.5501 15.4006 40.3962C15.3939 40.4046 15.3851 40.4116 15.3752 40.4165C15.3652 40.4214 15.3542 40.4242 15.3433 40.4245C15.3322 40.4248 15.3215 40.4227 15.3119 40.4183C15.3023 40.4139 15.2941 40.4075 15.2881 40.3994C15.1789 40.254 15.0831 40.1081 15.0058 39.9595C15.0735 40.098 15.1287 40.2502 15.1712 40.416C15.194 40.5058 15.1555 40.5486 15.0557 40.5444C14.0227 40.497 13.3705 40.0064 13.0992 39.0723C13.0659 38.9568 13.1134 38.9032 13.2421 38.9115C14.0802 38.9637 14.6598 39.2965 14.9808 39.9101C14.7649 39.4702 14.7139 39.0055 14.9545 38.4612C15.043 38.2619 15.1481 38.0814 15.27 37.9197C15.3159 37.8588 15.3614 37.8561 15.4062 37.9116Z" fill="#3F444D"/>
<path d="M14.8549 36.391C15.3604 37.2738 15.2258 38.0737 14.4511 38.7908C14.4432 38.7979 14.4337 38.8033 14.4232 38.8065C14.4127 38.8097 14.4018 38.8107 14.3911 38.8093C14.3804 38.808 14.3703 38.8043 14.3618 38.7986C14.3532 38.793 14.3464 38.7854 14.3418 38.7767C14.2614 38.6231 14.1935 38.471 14.1429 38.3191C14.1844 38.4602 14.2122 38.612 14.2264 38.7745C14.234 38.8647 14.1899 38.9003 14.0941 38.881C13.1037 38.6784 12.5523 38.1054 12.4399 37.1617C12.4262 37.045 12.4808 37.0004 12.6038 37.028C13.401 37.2047 13.9065 37.611 14.1202 38.2467C13.9857 37.7925 14.013 37.339 14.3304 36.8534C14.4478 36.6743 14.5783 36.5158 14.722 36.3782C14.7762 36.3262 14.8206 36.3305 14.8549 36.391Z" fill="#3F444D"/>
<path d="M28.7944 44.1781C28.7944 44.5564 28.4792 44.863 28.0904 44.863C27.7016 44.863 27.3864 44.5564 27.3864 44.1781C27.3864 43.7998 27.7016 43.4931 28.0904 43.4931C28.4792 43.4931 28.7944 43.7998 28.7944 44.1781Z" fill="#3F444D"/>
<path d="M22.4586 44.1781C22.4586 44.5564 22.1434 44.863 21.7546 44.863C21.3658 44.863 21.0506 44.5564 21.0506 44.1781C21.0506 43.7998 21.3658 43.4931 21.7546 43.4931C22.1434 43.4931 22.4586 43.7998 22.4586 44.1781Z" fill="#3F444D"/>
<path d="M30.2977 21.3185C29.9784 19.8549 30.5229 18.7326 31.931 17.9519C32.1042 17.8554 32.2078 17.8985 32.2419 18.0812C32.3553 18.6918 32.3255 19.24 32.1525 19.726C32.6356 19.5867 33.1861 19.5652 33.804 19.6616C34.0016 19.692 34.0548 19.789 33.9636 19.9526C33.2237 21.2755 32.064 21.8004 30.4843 21.5274C30.3762 21.5083 30.323 21.4637 30.3247 21.3937C30.3133 21.3734 30.3043 21.3484 30.2977 21.3185Z" fill="#3F444D"/>
<path d="M33.8673 18.8058C34.2561 18.8058 34.5713 18.4991 34.5713 18.1209C34.5713 17.7426 34.2561 17.436 33.8673 17.436C33.4785 17.436 33.1633 17.7426 33.1633 18.1209C33.1633 18.4991 33.4785 18.8058 33.8673 18.8058Z" fill="#3F444D"/>
<path d="M17.9275 17.9896C19.3357 18.7705 19.8801 19.8927 19.5609 21.3563C19.5543 21.386 19.5453 21.411 19.5339 21.4312C19.536 21.5016 19.4828 21.5463 19.3743 21.5655C17.7947 21.8385 16.6349 21.3136 15.8951 19.9907C15.8039 19.8271 15.857 19.7301 16.0546 19.6997C16.6725 19.6033 17.223 19.6248 17.7061 19.7642C17.5331 19.2781 17.5032 18.7297 17.6166 18.119C17.6507 17.9363 17.7544 17.8932 17.9275 17.9896Z" fill="#3F444D"/>
<path d="M15.2875 18.159C15.2875 18.5373 15.6026 18.844 15.9914 18.844C16.3803 18.844 16.6954 18.5373 16.6954 18.159C16.6954 17.7808 16.3803 17.4741 15.9914 17.4741C15.6026 17.4741 15.2875 17.7808 15.2875 18.159Z" fill="#3F444D"/>
<path fill-rule="evenodd" clip-rule="evenodd" d="M22.7666 18.5851C22.143 18.9222 21.8238 19.8187 21.7049 20.2379C21.6905 20.2353 21.6759 20.2339 21.6611 20.2339C21.4386 20.2339 21.2582 20.5385 21.2582 20.9143C21.2582 21.2901 21.4386 21.5947 21.6611 21.5947C21.6764 21.5947 21.6916 21.5933 21.7065 21.5905C21.8517 21.9258 22.0334 22.2547 22.2444 22.5603C22.1289 22.7968 21.8309 23.2141 21.307 23.4416C21.0606 23.5486 20.8298 23.6219 20.6124 23.6882L20.5497 23.7073C20.3609 23.7646 20.1654 23.824 20.0007 23.8994C19.7278 24.0242 19.4812 24.2193 19.3926 24.5791C19.3027 24.9439 19.4948 25.2216 19.6781 25.3841C19.8586 25.5439 20.0793 25.6424 20.2188 25.6865C20.4037 25.745 20.6023 25.6466 20.6624 25.4668C20.7225 25.2869 20.6214 25.0937 20.4365 25.0352C20.3624 25.0117 20.2386 24.9543 20.1521 24.8776C20.0684 24.8035 20.0709 24.764 20.0771 24.7388C20.0971 24.6577 20.1364 24.6015 20.2601 24.5386C20.4184 24.5203 20.6429 24.5753 20.9626 24.7376C21.2734 24.8953 21.6126 25.1209 21.9919 25.3732L22.0893 25.438C22.4988 25.71 22.9473 26.0029 23.4093 26.2266C23.8709 26.4502 24.3722 26.6181 24.8893 26.6181C25.4063 26.6181 25.9076 26.4502 26.3692 26.2266C26.8312 26.0029 27.2797 25.71 27.6892 25.438L27.7866 25.3732C28.166 25.1209 28.5052 24.8953 28.8159 24.7376C29.1356 24.5753 29.3601 24.5203 29.5184 24.5386C29.6421 24.6015 29.6814 24.6577 29.7014 24.7388C29.7076 24.764 29.7101 24.8035 29.6264 24.8776C29.5399 24.9543 29.4161 25.0117 29.342 25.0352C29.1571 25.0937 29.056 25.2869 29.1161 25.4668C29.1762 25.6466 29.3748 25.745 29.5597 25.6865C29.6992 25.6424 29.9199 25.5439 30.1004 25.3841C30.2837 25.2216 30.4758 24.9439 30.3859 24.5791C30.2973 24.2193 30.0507 24.0242 29.7778 23.8994C29.6131 23.824 29.4176 23.7646 29.2288 23.7073L29.1661 23.6882C28.9487 23.6219 28.718 23.5486 28.4715 23.4416C27.9257 23.2045 27.6251 22.7616 27.5205 22.5316C27.7282 22.2387 27.904 21.9216 28.0307 21.5927L28.0368 21.5934C28.0452 21.5943 28.0537 21.5947 28.0622 21.5947C28.2847 21.5947 28.4651 21.2901 28.4651 20.9143C28.4651 20.5385 28.2847 20.2339 28.0622 20.2339C28.036 20.2339 28.0104 20.2381 27.9856 20.2462C27.8651 19.8518 27.5685 19.0104 27.1204 18.5851C26.4329 18.5853 25.6237 18.5853 24.7838 18.5852H24.7614C24.1003 18.5851 23.4206 18.5851 22.7666 18.5851ZM24.2976 19.737L22.0619 20.6299L23.8016 19.5803C24.4853 19.1678 25.3506 19.1691 26.033 19.5837L27.705 20.5993L27.7018 20.61L25.4971 19.7356C25.1125 19.5831 24.6818 19.5836 24.2976 19.737ZM24.4313 20.0538C24.5283 20.015 24.6292 19.9888 24.7314 19.9752V22.0756C24.6103 22.0594 24.4911 22.0255 24.378 21.9741L24.2041 21.8951V20.1445L24.4313 20.0538ZM23.8521 20.2851V21.7351L23.3385 21.5018V20.4902L23.8521 20.2851ZM22.1616 20.967L22.9865 21.3418V20.6308L22.1616 20.9603V20.967ZM25.0834 22.0733V19.9775C25.1789 19.9916 25.2732 20.0166 25.3642 20.0527L25.6265 20.1567V21.8813L25.4177 21.9755C25.3105 22.0239 25.1978 22.0565 25.0834 22.0733ZM26.8687 21.3206L27.6531 20.9666V20.9606L26.8687 20.6495V21.3206ZM26.5167 21.4795V20.5098L25.9785 20.2963V21.7224L26.5167 21.4795ZM27.3108 21.4986L25.5658 22.5694C25.1418 22.7608 24.6526 22.7602 24.229 22.5677L22.4167 21.4609C22.6616 21.9824 23.0027 22.4736 23.3965 22.8501C23.8799 23.3121 24.4068 23.5692 24.9079 23.5581C25.2944 23.5495 25.8291 23.2918 26.3396 22.8241C26.7427 22.455 27.0937 21.9879 27.3108 21.4986Z" fill="#3F444D"/>
<path d="M25.2772 13.0662C25.2772 12.8771 25.1196 12.7237 24.9252 12.7237C24.7308 12.7237 24.5732 12.8771 24.5732 13.0662V13.2244H24.4103C24.2159 13.2244 24.0583 13.3777 24.0583 13.5669C24.0583 13.756 24.2159 13.9093 24.4103 13.9093H24.5732V14.0672C24.5732 14.2564 24.7308 14.4097 24.9252 14.4097C25.1196 14.4097 25.2772 14.2564 25.2772 14.0672V13.9093H25.4392C25.6336 13.9093 25.7912 13.756 25.7912 13.5669C25.7912 13.3777 25.6336 13.2244 25.4392 13.2244H25.2772V13.0662Z" fill="#3F444D"/>
<path d="M23.3998 15.3362C23.4436 15.0833 23.553 14.8521 23.7104 14.6598C23.3303 14.6164 22.915 14.6806 22.5814 14.9636C22.3413 14.9147 22.0804 14.8916 21.8195 14.9472C21.4663 15.0225 21.1591 15.231 20.9091 15.5986C20.6899 15.9206 20.6423 16.244 20.7425 16.5548C20.8339 16.8383 21.0379 17.0749 21.2311 17.2688C21.3272 17.3653 21.4306 17.4606 21.5289 17.5512L21.5393 17.5608C21.6106 17.6265 21.6796 17.6902 21.7457 17.7538C21.7447 17.6702 21.7575 17.5874 21.7827 17.5087C21.8123 17.4158 21.8595 17.3274 21.9213 17.2489C21.9636 17.1953 22.0053 17.1402 22.0459 17.0842L22.018 17.0584C21.916 16.9645 21.822 16.8778 21.7366 16.7921C21.5567 16.6116 21.4535 16.4716 21.4142 16.3498C21.3837 16.2553 21.3819 16.1444 21.4961 15.9767C21.6605 15.735 21.8212 15.6481 21.9702 15.6163C22.0238 15.6049 22.0811 15.5995 22.1427 15.5997C22.0812 15.7741 22.0654 15.9495 22.1027 16.1261C22.1454 16.3283 22.2516 16.4988 22.3755 16.6436C22.5052 16.5269 22.6694 16.4494 22.8439 16.4224C22.9245 16.4099 23.0084 16.3966 23.0938 16.3825C23.0751 16.3658 23.0567 16.3488 23.0385 16.3317C22.8764 16.1788 22.8102 16.0729 22.7923 15.9883C22.7783 15.9221 22.7814 15.8069 22.9326 15.6009C23.0506 15.4403 23.2085 15.3563 23.3998 15.3362Z" fill="#3F444D"/>
<path d="M27.9677 17.8411C27.9451 17.8637 27.9233 17.886 27.9023 17.9081C27.9257 17.7602 27.9066 17.6109 27.8532 17.4763C27.8099 17.3672 27.7428 17.2647 27.6561 17.1783C27.6986 17.1388 27.7407 17.1002 27.7817 17.0627L27.7873 17.0576C27.89 16.9635 27.9846 16.877 28.0707 16.7912C28.252 16.6106 28.3559 16.4707 28.3954 16.3491C28.4258 16.2554 28.4279 16.1452 28.313 15.9776C28.1639 15.76 28.0185 15.6693 27.8862 15.6297C27.8126 15.6077 27.7314 15.598 27.6399 15.6C27.665 15.6713 27.6825 15.7433 27.6919 15.816C27.7194 16.0311 27.6713 16.2244 27.5805 16.3941C27.4997 16.545 27.3862 16.6757 27.2685 16.7903L27.2391 16.7576C27.0999 16.6008 26.9049 16.498 26.6967 16.4669C26.6672 16.4625 26.6374 16.4579 26.6073 16.4531C26.657 16.411 26.7032 16.3702 26.7461 16.3297C26.8512 16.2303 26.918 16.1489 26.956 16.0778C26.9904 16.0136 27.0008 15.9593 26.9933 15.9007C26.9851 15.8365 26.9516 15.7395 26.8498 15.6009C26.7383 15.4491 26.5911 15.3658 26.4139 15.3401C26.3703 15.0844 26.2596 14.8507 26.1 14.6568C26.4738 14.6195 26.8784 14.688 27.2044 14.9665L27.2139 14.9644C27.4861 14.909 27.7901 14.8844 28.0931 14.9751C28.4053 15.0685 28.6753 15.2716 28.8987 15.5976C29.1195 15.9198 29.1678 16.2439 29.0666 16.5555C28.9745 16.8393 28.7689 17.0759 28.5744 17.2697C28.4776 17.3661 28.3735 17.4614 28.2745 17.552L28.264 17.5616C28.1598 17.657 28.0605 17.7482 27.9677 17.8411Z" fill="#3F444D"/>
<path d="M24.9065 16.3871C25.3616 16.3871 25.7306 16.0282 25.7306 15.5853C25.7306 15.1425 25.3616 14.7836 24.9065 14.7836C24.4513 14.7836 24.0824 15.1425 24.0824 15.5853C24.0824 16.0282 24.4513 16.3871 24.9065 16.3871Z" fill="#3F444D"/>
<path d="M22.8012 17.2695V17.5264C22.8012 17.6133 22.7078 17.6705 22.6273 17.6328C22.5029 17.5748 22.3912 17.7315 22.4907 17.8245L22.7501 18.0668C22.7829 18.0974 22.8265 18.1145 22.872 18.1145H26.8458C26.8912 18.1145 26.9349 18.0974 26.9677 18.0668L27.1531 17.8936C27.2859 17.7695 27.1458 17.5581 26.9749 17.6246C26.8648 17.6675 26.7451 17.5886 26.7451 17.4733V17.315C26.7451 17.1641 26.5591 17.087 26.4472 17.1915L26.125 17.4924C26.0236 17.5871 25.8546 17.5336 25.8299 17.399L25.7741 17.0948C25.7494 16.9602 25.5804 16.9067 25.479 17.0014L24.9808 17.4667C24.9127 17.5304 24.8051 17.5304 24.737 17.4667L24.187 16.953C24.0977 16.8696 23.9502 16.8995 23.9026 17.0107L23.7484 17.3707C23.7034 17.4758 23.5674 17.5097 23.476 17.4385L23.0871 17.1358C22.9719 17.0461 22.8012 17.1259 22.8012 17.2695Z" fill="#3F444D"/>
<path d="M21.7793 33.886C21.7793 34.1698 21.5429 34.3997 21.2513 34.3997C20.9597 34.3997 20.7234 34.1698 20.7234 33.886C20.7234 33.6023 20.9597 33.3724 21.2513 33.3724C21.5429 33.3724 21.7793 33.6023 21.7793 33.886Z" fill="#C80138"/>
<path d="M28.9429 33.886C28.9429 34.1698 28.7065 34.3997 28.4149 34.3997C28.1233 34.3997 27.8869 34.1698 27.8869 33.886C27.8869 33.6023 28.1233 33.3724 28.4149 33.3724C28.7065 33.3724 28.9429 33.6023 28.9429 33.886Z" fill="#00A82F"/>
<path d="M22.1891 37.2716C22.1891 37.5553 21.9527 37.7853 21.6611 37.7853C21.3695 37.7853 21.1331 37.5553 21.1331 37.2716C21.1331 36.9879 21.3695 36.7579 21.6611 36.7579C21.9527 36.7579 22.1891 36.9879 22.1891 37.2716Z" fill="#C80138"/>
<path d="M27.9749 37.7853C28.2665 37.7853 28.5029 37.5553 28.5029 37.2716C28.5029 36.9879 28.2665 36.7579 27.9749 36.7579C27.6833 36.7579 27.4469 36.9879 27.4469 37.2716C27.4469 37.5553 27.6833 37.7853 27.9749 37.7853Z" fill="#00A82F"/>
<path fill-rule="evenodd" clip-rule="evenodd" d="M30.9473 38.9204C31.2854 38.3565 31.4926 37.7285 31.5544 37.0798C31.6142 36.4165 31.5544 35.7244 31.375 35.0034C31.1804 34.2248 30.8805 33.4971 30.5828 32.7747L30.5825 32.7739C30.4916 32.5533 30.4008 32.3331 30.3134 32.1123C29.9745 31.2375 29.7328 30.3579 29.5883 29.4735C29.4388 28.4929 29.4687 27.4043 29.9621 26.5535C29.9662 26.5481 29.9688 26.5418 29.9694 26.5351C29.97 26.5284 29.9687 26.5217 29.9656 26.5157C29.9625 26.5098 29.9577 26.5047 29.9518 26.5012C29.9459 26.4977 29.9391 26.4958 29.9322 26.4958H27.5215C27.1492 26.7996 26.5423 27.0905 26.0417 27.1538C25.9784 27.1843 25.9599 27.1969 25.9931 27.2109C26.4496 27.403 26.8477 27.7048 27.1492 28.0878C27.459 28.4813 27.6558 28.9467 27.7198 29.4369C27.7837 29.9272 27.7126 30.425 27.5136 30.8803C27.3146 31.3357 26.9946 31.7323 26.586 32.0305C26.1774 32.3286 25.6946 32.5176 25.1861 32.5784C24.6776 32.6393 24.1615 32.5699 23.6898 32.3771C23.218 32.1844 22.8072 31.8752 22.4988 31.4806C22.1904 31.086 21.9952 30.62 21.933 30.1296C21.7734 28.8636 22.4581 27.713 23.6595 27.2109L23.6673 27.2077C23.7037 27.193 23.7663 27.1677 23.6828 27.1274C23.1634 27.0579 22.7576 26.8408 22.325 26.4958H19.7276C19.72 26.4942 19.7122 26.4949 19.705 26.4977C19.6979 26.5006 19.6918 26.5056 19.6877 26.5119C19.6836 26.5182 19.6817 26.5256 19.6821 26.5331C19.6826 26.5405 19.6854 26.5477 19.6902 26.5535C19.9344 26.9909 20.0715 27.4788 20.1014 28.0171C20.1363 28.5891 20.1188 29.0865 20.0491 29.5095C19.8206 30.9484 19.2991 32.2229 18.7318 33.6092L18.6511 33.8066C18.4318 34.3353 18.2648 34.9313 18.1502 35.5946C17.9351 36.6019 18.0652 37.6493 18.521 38.5791C18.9767 39.5088 19.7334 40.2706 20.677 40.7496C21.2602 41.0765 21.9704 41.4369 22.8077 41.8311C23.5029 42.1627 24.2729 42.5737 24.7962 43.1505C24.8162 43.1697 24.8336 43.1697 24.8486 43.1505C25.2747 42.6746 25.8578 42.3141 26.4559 42.0257C26.6207 41.9457 26.7855 41.8667 26.95 41.7878C27.8669 41.3482 28.7717 40.9144 29.5958 40.3459C30.148 39.9707 30.6091 39.4843 30.9473 38.9204ZM22.1787 32.9928C22.4282 33.2335 22.5684 33.5599 22.5684 33.9003C22.5684 34.2407 22.4282 34.5671 22.1787 34.8077C21.9291 35.0484 21.5907 35.1836 21.2377 35.1836C20.8848 35.1836 20.5463 35.0484 20.2968 34.8077C20.0472 34.5671 19.907 34.2407 19.907 33.9003C19.907 33.5599 20.0472 33.2335 20.2968 32.9928C20.5463 32.7521 20.8848 32.6169 21.2377 32.6169C21.5907 32.6169 21.9291 32.7521 22.1787 32.9928ZM29.3406 32.9928C29.5901 33.2335 29.7303 33.5599 29.7303 33.9003C29.7303 34.2407 29.5901 34.5671 29.3406 34.8077C29.091 35.0484 28.7525 35.1836 28.3996 35.1836C28.0467 35.1836 27.7082 35.0484 27.4587 34.8077C27.2091 34.5671 27.0689 34.2407 27.0689 33.9003C27.0689 33.5599 27.2091 33.2335 27.4587 32.9928C27.7082 32.7521 28.0467 32.6169 28.3996 32.6169C28.7525 32.6169 29.091 32.7521 29.3406 32.9928ZM22.6198 36.3526C22.8693 36.5933 23.0095 36.9197 23.0095 37.2601H23.017C23.017 37.4292 22.9823 37.5967 22.915 37.7528C22.8476 37.909 22.749 38.0508 22.6246 38.1701C22.5002 38.2893 22.3527 38.3837 22.1903 38.4478C22.028 38.5119 21.8542 38.5443 21.6788 38.5434C21.3259 38.5434 20.9874 38.4082 20.7379 38.1675C20.4883 37.9268 20.3481 37.6004 20.3481 37.2601C20.3481 36.9197 20.4883 36.5933 20.7379 36.3526C20.9874 36.1119 21.3259 35.9767 21.6788 35.9767C22.0317 35.9767 22.3702 36.1119 22.6198 36.3526ZM28.907 36.3526C29.1565 36.5933 29.2967 36.9197 29.2967 37.2601C29.2967 37.6004 29.1565 37.9268 28.907 38.1675C28.6574 38.4082 28.3189 38.5434 27.966 38.5434C27.6131 38.5434 27.2746 38.4082 27.0251 38.1675C26.7755 37.9268 26.6353 37.6004 26.6353 37.2601C26.6353 36.9197 26.7755 36.5933 27.0251 36.3526C27.2746 36.1119 27.6131 35.9767 27.966 35.9767C28.3189 35.9767 28.6574 36.1119 28.907 36.3526ZM25.7671 37.9892C26.0167 38.2299 26.1569 38.5563 26.1569 38.8967V38.9039C26.1578 39.073 26.1242 39.2407 26.0577 39.3972C25.9913 39.5538 25.8934 39.6961 25.7698 39.816C25.6461 39.936 25.4991 40.0311 25.3371 40.0961C25.1752 40.161 25.0015 40.1945 24.8262 40.1944C24.6489 40.1964 24.473 40.1641 24.3088 40.0996C24.1447 40.0351 23.9955 39.9395 23.8702 39.8186C23.7448 39.6978 23.6458 39.5539 23.5788 39.3956C23.5119 39.2373 23.4785 39.0676 23.4805 38.8967C23.4805 38.7269 23.5154 38.5589 23.5832 38.4022C23.651 38.2456 23.7504 38.1034 23.8755 37.9841C24.0007 37.8647 24.1491 37.7705 24.3123 37.7069C24.4755 37.6432 24.6501 37.6114 24.8262 37.6133C25.1791 37.6133 25.5175 37.7485 25.7671 37.9892Z" fill="#3F444D"/>
<path d="M23.4431 30.4904V30.4616C23.4481 30.4376 23.458 30.4207 23.473 30.4111C23.5228 30.3679 23.5627 30.3198 23.5926 30.2669C23.6356 30.1891 23.6981 30.1224 23.7575 30.059C23.7807 30.0342 23.8034 30.01 23.8243 29.9858C23.8542 29.9617 23.8542 29.9377 23.8243 29.9137C23.6698 29.8127 23.6075 29.6445 23.6374 29.409C23.6524 29.2215 23.7521 29.1278 23.9365 29.1278C24.071 29.1278 24.1682 29.2504 24.1832 29.3657C24.1832 29.3946 24.1956 29.4018 24.2206 29.3873C24.2455 29.3681 24.2604 29.3441 24.2654 29.3152C24.3053 29.0941 24.2455 28.9115 24.086 28.7673C23.8468 28.5414 23.6325 28.3491 23.4431 28.1905C23.4361 28.1839 23.4267 28.1802 23.4169 28.1802C23.4071 28.1802 23.3977 28.1839 23.3907 28.1905C23.3608 28.2338 23.321 28.2746 23.2711 28.3131C23.0518 28.4765 22.8674 28.6447 22.7179 28.8178C22.5833 28.9716 22.541 29.1398 22.5908 29.3225C22.6108 29.3994 22.6407 29.3994 22.6805 29.3225C22.83 29.0124 23.2038 29.0773 23.2338 29.4162C23.2537 29.6277 23.1864 29.8007 23.0319 29.9353C23.012 29.9497 23.012 29.9689 23.0319 29.993C23.1964 30.1372 23.321 30.3054 23.4057 30.4977C23.4306 30.5505 23.4431 30.5481 23.4431 30.4904Z" fill="#3F444D"/>
<path d="M26.2017 28.1833C26.2166 28.1689 26.2291 28.1689 26.239 28.1833C26.3006 28.2459 26.3858 28.3155 26.4785 28.3913C26.8024 28.6562 27.2175 28.9957 27.0315 29.3657C27.0116 29.3994 26.9941 29.3994 26.9792 29.3657C26.867 29.0196 26.4409 29.0557 26.411 29.4378C26.3911 29.6589 26.4534 29.8175 26.5979 29.9137C26.6228 29.9281 26.6253 29.9473 26.6054 29.9713L26.3063 30.3679C26.2864 30.3871 26.2739 30.4111 26.269 30.44C26.269 30.464 26.259 30.4832 26.239 30.4977C26.2141 30.5121 26.1967 30.5073 26.1867 30.4832C26.097 30.291 25.9749 30.1275 25.8204 29.993C25.8154 29.9883 25.8115 29.9827 25.8088 29.9765C25.8061 29.9703 25.8047 29.9636 25.8047 29.9569L25.8048 29.9541C25.8049 29.9524 25.8051 29.9507 25.8053 29.949L25.8063 29.9447L25.8072 29.9415L25.8088 29.9374C25.8115 29.9312 25.8154 29.9256 25.8204 29.9209C25.9849 29.8007 26.0497 29.6229 26.0148 29.3873C25.9923 29.272 25.9176 29.1494 25.7905 29.1278C25.626 29.1038 25.5164 29.1807 25.4616 29.3585C25.4466 29.397 25.4292 29.3994 25.4092 29.3657C25.3893 29.3369 25.3793 29.3056 25.3793 29.272C25.3494 29.0461 25.4317 28.849 25.626 28.6808C25.8005 28.527 25.9749 28.3804 26.1493 28.241L26.1942 28.1977L26.2017 28.1833Z" fill="#3F444D"/>
<path d="M24.437 30.8292C24.2875 30.7956 24.1704 30.8413 24.0857 30.9662C24.0707 30.9855 24.0632 31.0071 24.0632 31.0311C24.0533 31.108 24.0333 31.108 24.0034 31.0311C23.8331 30.6169 24.3083 30.2592 24.6152 30.0283L24.6239 30.0217C24.6837 29.9737 24.7336 29.9184 24.7734 29.8559C24.7934 29.8271 24.8183 29.8223 24.8482 29.8415L24.923 29.928C24.9329 29.9521 24.9504 29.9713 24.9753 29.9857C25.1846 30.1443 25.369 30.3125 25.5285 30.4904C25.688 30.6634 25.7229 30.8533 25.6332 31.06C25.6232 31.0936 25.6107 31.0936 25.5958 31.06C25.516 30.8389 25.3615 30.7692 25.1323 30.8509C25.1124 30.8605 25.0949 30.8773 25.08 30.9014C24.9603 31.1176 24.9828 31.4781 25.2369 31.6151C25.2385 31.6165 25.2399 31.6179 25.2412 31.6195L25.2429 31.6221L25.2444 31.6249L25.2455 31.6274L25.2463 31.6302L25.247 31.6341L25.2471 31.6367C25.2471 31.6408 25.2462 31.6449 25.2444 31.6486C25.2436 31.6504 25.2426 31.6521 25.2414 31.6537L25.2391 31.6563L25.2369 31.6584C25.0675 31.793 24.9379 31.9636 24.8482 32.1703C24.8382 32.1991 24.8183 32.2039 24.7884 32.1847C24.7784 32.1751 24.7759 32.1655 24.7809 32.1559V32.1054C24.6812 31.9372 24.5566 31.7858 24.4071 31.6512C24.4031 31.6468 24.4003 31.6415 24.3988 31.6358C24.3974 31.6301 24.3974 31.6242 24.3989 31.6185C24.3995 31.6159 24.4005 31.6133 24.4018 31.6109C24.4033 31.6082 24.4051 31.6056 24.4073 31.6032C24.4113 31.5989 24.4164 31.5955 24.4221 31.5935C24.462 31.5839 24.4943 31.5598 24.5193 31.5214C24.6339 31.3772 24.6663 31.209 24.6165 31.0167C24.5915 30.9158 24.5317 30.8533 24.437 30.8292Z" fill="#3F444D"/>
<path d="M35.8851 24.9525C36.0795 24.9525 36.2371 24.7992 36.2371 24.61C36.2371 24.4209 36.0795 24.2676 35.8851 24.2676C35.6907 24.2676 35.5331 24.4209 35.5331 24.61C35.5331 24.7992 35.6907 24.9525 35.8851 24.9525Z" fill="#C80138"/>
<path d="M35.549 28.111L32.9998 28.7311C32.9867 28.7367 32.9719 28.7376 32.9582 28.7336C32.9445 28.7297 32.9327 28.7211 32.925 28.7094C32.9101 28.6758 32.915 28.647 32.94 28.6229C33.1543 28.4018 33.4134 28.1519 33.7175 27.8731C33.728 27.8624 33.7338 27.8482 33.7338 27.8335C33.7338 27.8187 33.728 27.8045 33.7175 27.7938L32.94 27.0512C32.92 27.032 32.9175 27.0055 32.9325 26.9719C32.939 26.9567 32.9508 26.9442 32.9657 26.9363C32.9807 26.9284 32.998 26.9257 33.0147 26.9286L35.564 27.5559C35.5889 27.5607 35.5964 27.5535 35.5864 27.5342L34.9435 25.0829C34.9415 25.0734 34.9415 25.0636 34.9435 25.0541C34.9684 24.9676 34.9933 24.9363 35.0183 24.9603L35.8556 25.7534C35.862 25.7581 35.8699 25.7606 35.878 25.7606C35.8861 25.7606 35.8939 25.7581 35.9004 25.7534L36.6704 25.0108C36.6953 24.982 36.7277 24.9748 36.7676 24.9892C36.7849 24.9957 36.799 25.0081 36.8073 25.0241C36.8156 25.0401 36.8174 25.0585 36.8125 25.0757C36.5732 25.888 36.3539 26.7027 36.1546 27.5198C36.1496 27.5487 36.1621 27.5583 36.192 27.5487L38.7487 26.9286C38.7587 26.9258 38.7691 26.9249 38.7794 26.9262C38.7897 26.9274 38.7996 26.9307 38.8085 26.9358C38.8434 26.9647 38.8559 26.9887 38.8459 27.0079L38.8235 27.0296L38.0236 27.8082C38.0204 27.8109 38.0178 27.8143 38.0161 27.818C38.0143 27.8217 38.0134 27.8258 38.0134 27.8298L38.0135 27.8315L38.0137 27.8338L38.0143 27.8366C38.0147 27.8384 38.0153 27.8401 38.0161 27.8417L38.0173 27.844L38.0191 27.8468C38.0204 27.8485 38.0219 27.8501 38.0236 27.8515L38.816 28.6085C38.8359 28.6325 38.8359 28.659 38.816 28.6878C38.8087 28.7003 38.7977 28.7104 38.7843 28.7169C38.771 28.7233 38.756 28.7257 38.7412 28.7239L36.177 28.1038C36.1742 28.1034 36.1714 28.1038 36.1688 28.1049C36.1662 28.1061 36.164 28.1078 36.1625 28.1101L36.162 28.1109L36.1609 28.1132L36.1602 28.1158L36.16 28.1177L36.1602 28.1204L36.1606 28.1224L36.1621 28.1255C36.3614 28.9522 36.5732 29.7597 36.7975 30.5479C36.8324 30.6729 36.79 30.7042 36.6704 30.6417C36.6355 30.6224 36.5982 30.5912 36.5583 30.5479C36.339 30.322 36.1172 30.1105 35.8929 29.9135C35.8865 29.9088 35.8786 29.9063 35.8705 29.9063C35.8682 29.9063 35.8658 29.9065 35.8635 29.9069L35.86 29.9077C35.8582 29.9082 35.8564 29.9089 35.8547 29.9097L35.8526 29.9107C35.851 29.9115 35.8495 29.9124 35.8481 29.9135L35.1379 30.5912C34.9784 30.7402 34.9136 30.7114 34.9435 30.5047C34.9555 30.4238 34.9888 30.3409 35.0229 30.2559C35.0527 30.1818 35.0831 30.1061 35.1005 30.0288C35.265 29.3607 35.4244 28.7335 35.5789 28.1471C35.5889 28.1182 35.5789 28.1062 35.549 28.111Z" fill="#00A82F"/>
<path d="M34.4772 26.7628C34.6716 26.7628 34.8292 26.6095 34.8292 26.4204C34.8292 26.2312 34.6716 26.0779 34.4772 26.0779C34.2828 26.0779 34.1252 26.2312 34.1252 26.4204C34.1252 26.6095 34.2828 26.7628 34.4772 26.7628Z" fill="#C80138"/>
<path d="M37.2931 26.7628C37.4875 26.7628 37.6451 26.6095 37.6451 26.4204C37.6451 26.2312 37.4875 26.0779 37.2931 26.0779C37.0987 26.0779 36.9411 26.2312 36.9411 26.4204C36.9411 26.6095 37.0987 26.7628 37.2931 26.7628Z" fill="#C80138"/>
<path d="M34.4772 29.5026C34.6716 29.5026 34.8292 29.3492 34.8292 29.1601C34.8292 28.971 34.6716 28.8176 34.4772 28.8176C34.2828 28.8176 34.1252 28.971 34.1252 29.1601C34.1252 29.3492 34.2828 29.5026 34.4772 29.5026Z" fill="#C80138"/>
<path d="M37.2931 29.5026C37.4875 29.5026 37.6451 29.3492 37.6451 29.1601C37.6451 28.971 37.4875 28.8176 37.2931 28.8176C37.0987 28.8176 36.9411 28.971 36.9411 29.1601C36.9411 29.3492 37.0987 29.5026 37.2931 29.5026Z" fill="#C80138"/>
<path d="M35.8851 31.3698C36.0795 31.3698 36.2371 31.2164 36.2371 31.0273C36.2371 30.8382 36.0795 30.6848 35.8851 30.6848C35.6907 30.6848 35.5331 30.8382 35.5331 31.0273C35.5331 31.2164 35.6907 31.3698 35.8851 31.3698Z" fill="#C80138"/>
<path d="M13.4577 24.6085C13.4577 24.7977 13.6153 24.951 13.8097 24.951C14.0041 24.951 14.1617 24.7977 14.1617 24.6085C14.1617 24.4194 14.0041 24.2661 13.8097 24.2661C13.6153 24.2661 13.4577 24.4194 13.4577 24.6085Z" fill="#C80138"/>
<path d="M16.6951 28.7295L14.1458 28.1095C14.1159 28.1047 14.1059 28.1167 14.1159 28.1456C14.2704 28.7319 14.4299 29.3592 14.5943 30.0273C14.6117 30.1046 14.6422 30.1803 14.6719 30.2544C14.7061 30.3394 14.7394 30.4223 14.7513 30.5032C14.7812 30.7098 14.7164 30.7387 14.557 30.5897L13.8467 29.912C13.8403 29.9073 13.8324 29.9047 13.8243 29.9047C13.8162 29.9047 13.8084 29.9073 13.8019 29.912C13.5776 30.109 13.3558 30.3205 13.1365 30.5464C13.0967 30.5897 13.0593 30.6209 13.0244 30.6401C12.9048 30.7026 12.8624 30.6714 12.8973 30.5464C13.1216 29.7581 13.3334 28.9506 13.5328 28.1239L13.5342 28.1208C13.5347 28.1193 13.5349 28.1178 13.5348 28.1162L13.5347 28.1142L13.534 28.1117L13.5329 28.1094L13.5323 28.1086C13.5308 28.1063 13.5286 28.1045 13.526 28.1034C13.5234 28.1023 13.5206 28.1019 13.5178 28.1023L10.9536 28.7223C10.9388 28.7242 10.9238 28.7218 10.9105 28.7153C10.8972 28.7089 10.8861 28.6988 10.8788 28.6863C10.8589 28.6574 10.8589 28.631 10.8788 28.607L11.6713 27.8499C11.6744 27.8472 11.677 27.8439 11.6787 27.8402C11.6795 27.8385 11.6801 27.8368 11.6805 27.8351L11.6813 27.8311L11.6814 27.8283C11.6814 27.8242 11.6805 27.8202 11.6787 27.8165C11.677 27.8127 11.6744 27.8094 11.6713 27.8067L10.8713 27.028L10.8489 27.0064C10.839 26.9872 10.8514 26.9631 10.8863 26.9343C10.8952 26.9292 10.9051 26.9259 10.9154 26.9246C10.9257 26.9234 10.9362 26.9242 10.9461 26.9271L13.5029 27.5471C13.5328 27.5568 13.5452 27.5471 13.5402 27.5183C13.3409 26.7012 13.1216 25.8865 12.8824 25.0742C12.8774 25.057 12.8792 25.0386 12.8875 25.0226C12.8958 25.0066 12.91 24.9942 12.9272 24.9877C12.9671 24.9732 12.9995 24.9804 13.0244 25.0093L13.7944 25.7519C13.8009 25.7566 13.8088 25.7591 13.8168 25.7591C13.8249 25.7591 13.8328 25.7566 13.8393 25.7519L14.6766 24.9588C14.7015 24.9348 14.7264 24.966 14.7513 25.0525C14.7533 25.0621 14.7533 25.0719 14.7513 25.0814L14.1084 27.5327C14.0984 27.5519 14.1059 27.5592 14.1308 27.5543L16.6801 26.9271C16.6969 26.9242 16.7142 26.9269 16.7291 26.9348C16.7441 26.9426 16.7558 26.9552 16.7623 26.9704C16.7773 27.004 16.7748 27.0304 16.7549 27.0497L15.9774 27.7923C15.9669 27.803 15.961 27.8172 15.961 27.8319C15.961 27.8467 15.9669 27.8609 15.9774 27.8716C16.2814 28.1504 16.5406 28.4003 16.7549 28.6214C16.7798 28.6454 16.7848 28.6743 16.7698 28.7079C16.7621 28.7196 16.7503 28.7281 16.7366 28.7321C16.7229 28.7361 16.7081 28.7352 16.6951 28.7295Z" fill="#C80138"/>
<path d="M14.8657 26.4188C14.8657 26.608 15.0232 26.7613 15.2176 26.7613C15.412 26.7613 15.5696 26.608 15.5696 26.4188C15.5696 26.2297 15.412 26.0764 15.2176 26.0764C15.0232 26.0764 14.8657 26.2297 14.8657 26.4188Z" fill="#C80138"/>
<path d="M12.0497 26.4188C12.0497 26.608 12.2073 26.7613 12.4017 26.7613C12.5961 26.7613 12.7537 26.608 12.7537 26.4188C12.7537 26.2297 12.5961 26.0764 12.4017 26.0764C12.2073 26.0764 12.0497 26.2297 12.0497 26.4188Z" fill="#C80138"/>
<path d="M14.8657 29.1586C14.8657 29.3477 15.0232 29.501 15.2176 29.501C15.412 29.501 15.5696 29.3477 15.5696 29.1586C15.5696 28.9694 15.412 28.8161 15.2176 28.8161C15.0232 28.8161 14.8657 28.9694 14.8657 29.1586Z" fill="#C80138"/>
<path d="M12.0497 29.1586C12.0497 29.3477 12.2073 29.501 12.4017 29.501C12.5961 29.501 12.7537 29.3477 12.7537 29.1586C12.7537 28.9694 12.5961 28.8161 12.4017 28.8161C12.2073 28.8161 12.0497 28.9694 12.0497 29.1586Z" fill="#C80138"/>
<path d="M13.4577 31.0258C13.4577 31.2149 13.6153 31.3682 13.8097 31.3682C14.0041 31.3682 14.1617 31.2149 14.1617 31.0258C14.1617 30.8366 14.0041 30.6833 13.8097 30.6833C13.6153 30.6833 13.4577 30.8366 13.4577 31.0258Z" fill="#C80138"/>
<path fill-rule="evenodd" clip-rule="evenodd" d="M24.279 38.9204C24.279 39.2041 24.5154 39.4341 24.807 39.4341V38.4067C24.5154 38.4067 24.279 38.6367 24.279 38.9204Z" fill="#C80138"/>
<path d="M25.335 38.9204C25.335 38.6367 25.0986 38.4067 24.807 38.4067V39.4341C25.0986 39.4341 25.335 39.2041 25.335 38.9204Z" fill="#00A82F"/>
<path fill-rule="evenodd" clip-rule="evenodd" d="M43.1288 14.4243L40.2005 16.318L37.7697 19.3363C38.5777 19.9947 38.5767 21.0615 38.5756 22.2478C38.5737 24.2124 38.5715 26.5049 42.2416 27.8147C42.5213 27.9145 42.5848 28.293 42.3495 28.4707C39.6807 30.4854 36.8122 34.2627 36.091 35.2393C35.9909 35.3748 35.8001 35.4206 35.6466 35.3461C32.7412 33.9368 32.4081 32.4693 32.0421 30.8566C31.8162 29.8613 31.5777 28.8108 30.7144 27.6846C30.6363 27.5826 30.5992 27.4544 30.5917 27.3261C30.5827 27.172 30.6127 27.013 30.7103 26.8934L37.2091 18.9213L39.587 15.9694L40.713 12.6345C40.8115 12.3425 41.0082 12.0913 41.2712 11.9211L44.7119 9.69611C44.7815 9.65113 44.8607 9.66155 44.916 9.70255C44.9436 9.72302 44.9652 9.7511 44.9767 9.78369C44.9882 9.81634 44.9895 9.85352 44.9765 9.89214L43.6871 13.7109C43.5885 14.0029 43.3919 14.2541 43.1288 14.4243ZM35.7026 34.598C36.5801 33.427 39.0466 30.2565 41.4856 28.2665C39.846 27.5792 38.9051 26.6491 38.4022 25.5702C37.8786 24.447 37.88 23.2502 37.881 22.3002L37.8811 22.2472C37.8817 21.6357 37.8794 21.1472 37.7954 20.7318C37.7174 20.3462 37.5791 20.0813 37.3417 19.8834L37.329 19.874L31.285 27.2876C32.2351 28.5388 32.5134 29.7744 32.74 30.7804C32.8042 31.0655 32.8643 31.3321 32.9343 31.5754C33.0985 32.1462 33.3189 32.6566 33.7408 33.1525C34.1352 33.616 34.7348 34.1006 35.7026 34.598ZM41.2235 13.2305L40.5933 14.9998C40.5694 15.0669 40.6501 15.1222 40.7041 15.0756L42.7021 13.8762C42.8273 13.7682 42.9322 13.6386 43.0118 13.4936L43.7865 11.2631C43.8208 11.2006 43.7498 11.1331 43.6891 11.1706L42.0916 12.1569C41.6886 12.4057 41.3825 12.7844 41.2235 13.2305Z" fill="#3F444D"/>
<path fill-rule="evenodd" clip-rule="evenodd" d="M9.49435 16.3164L6.56601 14.4227C6.30293 14.2526 6.10631 14.0014 6.00768 13.7094L4.71834 9.89061C4.70532 9.852 4.70665 9.81481 4.71815 9.78216C4.72963 9.74957 4.75125 9.72149 4.77882 9.70102C4.83409 9.66003 4.91332 9.64961 4.9829 9.69459L8.42359 11.9196C8.68667 12.0897 8.88329 12.341 8.98185 12.6329L10.1078 15.9679L12.4853 18.9201L18.9845 26.8918C19.0821 27.0115 19.1122 27.1705 19.1032 27.3246C19.0957 27.4529 19.0586 27.5811 18.9804 27.683C18.1171 28.8093 17.8787 29.8598 17.6528 30.855C17.2867 32.4677 16.9536 33.9353 14.0482 35.3446C13.8947 35.4191 13.7039 35.3733 13.6038 35.2377C12.8827 34.2612 10.0141 30.4839 7.34534 28.4692C7.10999 28.2915 7.17356 27.9129 7.45323 27.8131C11.1233 26.5033 11.1212 24.2108 11.1193 22.2463C11.1181 21.0599 11.1176 19.9929 11.9255 19.3344L9.49435 16.3164ZM8.20918 28.265C10.6482 30.255 13.1147 33.4255 13.9922 34.5965C14.96 34.0991 15.5596 33.6145 15.954 33.151C16.376 32.6551 16.5963 32.1447 16.7605 31.5739C16.8305 31.3305 16.8906 31.0639 16.9548 30.7789C17.1814 29.7728 17.4597 28.5371 18.4098 27.2859L12.3658 19.8725L12.3531 19.8819C12.1157 20.0797 11.9774 20.3447 11.8994 20.7303C11.8154 21.1457 11.8131 21.6342 11.8137 22.2457L11.8138 22.2987C11.8149 23.2487 11.8162 24.4455 11.2927 25.5687C10.7897 26.6476 9.84883 27.5777 8.20918 28.265ZM8.47195 13.2305L9.10219 14.9998C9.12612 15.0669 9.04538 15.1222 8.9914 15.0756L7.0012 13.8788C6.876 13.7707 6.7711 13.6411 6.69145 13.4962L5.90903 11.2631C5.87466 11.2006 5.94565 11.1331 6.00637 11.1706L7.60388 12.1569C8.00685 12.4057 8.31303 12.7844 8.47195 13.2305Z" fill="#3F444D"/>
</svg>
