<svg width="109" height="18" viewBox="0 0 109 18" fill="none" xmlns="http://www.w3.org/2000/svg">
    <path fill-rule="evenodd" clip-rule="evenodd" d="M0 10.9001C0 14.4351 1.91009 18 6.18737 18C10.4608 18 12.3747 14.4351 12.3747 10.9001C12.3747 8.48535 11.5899 5.7048 10.2799 3.45887C9.00585 1.29003 7.47516 0 6.18737 0C4.89591 0 3.36453 1.29003 2.10163 3.45887C0.785428 5.7048 0 8.48535 0 10.9001ZM43.9298 5.30341H39.5987V0.96423H52.9015V5.30341H48.5704V17.0356H43.9298V5.30341ZM62.8008 5.30359H69.6074V0.96423H62.8014C56.5476 0.96423 53.2089 4.19461 53.2089 9C53.2089 13.8054 56.5476 17.0358 62.8014 17.0358H69.6074V12.6965H62.8008C59.9073 12.6965 58.004 11.6216 58.004 9C58.004 6.37837 59.9073 5.30359 62.8008 5.30359ZM27.6867 10.5571L30.1607 0.96423H38.3611V17.0358H33.7204V3.95498L30.3471 17.0358H25.0263L21.6552 3.96328L21.6551 17.0358H17.0147V0.96423H25.2127L27.6867 10.5571ZM81.1639 5.62261H79.5274V7.1948H81.1639C81.5782 7.1948 81.8251 6.97349 81.8251 6.56585V6.27481C81.8251 5.85544 81.6121 5.62261 81.1639 5.62261ZM81.5782 8.99985H77.3416V0.96423H83.5734V2.88586H79.5274V3.93381H81.5782C83.2933 3.93381 84.1227 4.81903 84.1227 6.37951C84.1227 8.0214 83.2933 8.99985 81.5782 8.99985ZM89.1663 5.71578H87.4397L88.303 2.74621L89.1663 5.71578ZM92.484 9L90.0961 0.96423H86.8463L84.4584 9H86.4984L86.9358 7.46279H89.6709L90.1185 9H92.484ZM98.0098 9V5.89059H95.51V9H93.2686V0.96423H95.51V3.91056H98.0098V0.96423H100.252V9H98.0098ZM104.229 3.91056H103.837V0.96423H101.595V9H103.837V5.89059H104.162L106.236 9H108.825L106.022 4.79578L108.601 0.96423H106.236L104.229 3.91056Z" fill="black" fill-opacity="0.15"/>
</svg>
