<svg width="146" height="28" viewBox="0 0 146 28" fill="none" xmlns="http://www.w3.org/2000/svg">
<g clip-path="url(#clip0_2003_80)">
<path d="M14.3382 0C6.41959 0 0 6.26769 0 13.9978C0 21.7283 6.41959 27.9992 14.3382 27.9992C22.2557 27.9992 28.6786 21.7283 28.6786 13.9978C28.6786 6.26769 22.2557 0 14.3382 0ZM12.304 19.9536L11.2471 23.0135C7.27471 21.7055 4.60621 18.0578 4.60621 13.9364C4.60621 9.81012 7.27993 6.16112 11.259 4.85665L12.3121 7.9184C9.6813 8.78074 7.91405 11.199 7.91405 13.9364C7.91405 16.6707 9.67843 19.0888 12.304 19.9536ZM17.2361 23.0753L16.2456 19.994C18.9485 19.1658 20.7645 16.7313 20.7645 13.9364C20.7645 11.1764 18.9775 8.75165 16.3173 7.903L17.3453 4.83301C21.3689 6.11694 24.0723 9.77544 24.0723 13.9364C24.0723 18.1499 21.325 21.8226 17.2361 23.0753Z" fill="black" fill-opacity="0.15"/>
<path d="M143.592 16.3214L145.16 18.1544C143.558 19.8024 141.525 20.2564 139.906 20.2564C138.373 20.2564 137.219 20.0211 136.272 19.5501C134.188 18.5412 133.137 16.4896 133.137 14.0007C133.137 10.2169 135.755 7.45898 139.613 7.45898C143.885 7.45898 145.969 10.5869 145.694 14.6565L135.91 14.6733C135.962 15.6991 136.565 16.6745 137.409 17.1622C138.115 17.5826 138.942 17.8012 140.078 17.8012C141.267 17.8012 142.507 17.3976 143.592 16.3214ZM135.945 12.4703H142.852C142.679 10.9905 141.439 9.74608 139.441 9.74608C137.409 9.74608 136.186 11.125 135.945 12.4703ZM70.2859 19.9369H73.8173L68.2706 13.6644L73.7306 7.7617H70.2514L66.0832 12.4871H64.8605V7.7617H62.1563V19.9369H64.8605V15.0938H66.1008L70.2859 19.9369ZM81.7743 9.94787C79.5185 9.94787 78.02 11.6632 78.02 13.8493C78.02 16.0355 79.5185 17.7508 81.7743 17.7508C84.0829 17.7508 85.5123 16.0691 85.5123 13.8493C85.5123 11.68 84.1168 9.94787 81.7743 9.94787ZM82.2397 7.45898C85.7535 7.45898 88.3372 10.1497 88.3372 13.8493C88.3372 17.4985 85.7704 20.2564 82.2397 20.2564C80.517 20.2564 79.1737 19.6847 78.209 18.6589V24.9988H75.4878V7.7617H78.1406V9.22477C79.1737 8.01396 80.517 7.45898 82.2397 7.45898ZM117.739 7.7617H106.577V10.2001H110.798V19.9369H113.519V10.2001H117.739V7.7617ZM60.2789 7.7617H49.1176V10.2001H53.3375V19.9369H56.059V10.2001H60.2789V7.7617ZM45.8105 13.8493C45.8105 11.5791 44.157 9.8974 41.9179 9.8974C39.6959 9.8974 38.0252 11.5287 38.0252 13.8493C38.0252 16.1364 39.6443 17.818 41.9179 17.818C44.1398 17.818 45.8105 16.1532 45.8105 13.8493ZM35.2349 13.8493C35.2349 10.2001 38.1285 7.45898 41.9179 7.45898C45.7072 7.45898 48.6008 10.2001 48.6008 13.8493C48.6008 17.4985 45.7072 20.2564 41.9179 20.2564C38.1285 20.2564 35.2349 17.4985 35.2349 13.8493ZM130.933 7.7617V19.9369H128.263V12.0836L121.735 19.9369H119.599V7.7617H122.268V15.5983L128.814 7.7617H130.933ZM104.717 19.9369H102.013V7.7617H104.717V19.9369ZM97.7933 15.7833C97.7933 14.6902 97.0183 13.9334 95.95 13.9334H93.2112V17.6835H95.95C97.0183 17.6835 97.7933 16.8763 97.7933 15.7833ZM100.48 15.7833C100.48 18.2217 98.6719 19.9369 96.036 19.9369H90.5415V7.7617H93.2288V11.6968H96.2772C98.8609 11.6968 100.48 13.328 100.48 15.7833Z" fill="black" fill-opacity="0.15"/>
</g>
<defs>
<clipPath id="clip0_2003_80">
<rect width="146" height="28" fill="white"/>
</clipPath>
</defs>
</svg>
