<svg width="195" height="36" viewBox="0 0 195 36" fill="none" xmlns="http://www.w3.org/2000/svg">
<path d="M127.077 9.26154C126.324 9.17916 125.566 9.35154 124.921 9.75185L125.697 8.0412H134.373L133.629 9.80633C133.452 9.62786 133.24 9.49133 133.005 9.40656C132.77 9.32168 132.519 9.29085 132.271 9.31602H130.719V16.3329C130.65 16.8186 130.774 17.3124 131.064 17.7058H128.057C128.342 17.3094 128.465 16.8182 128.402 16.3329V9.26154H127.077Z" fill="black" fill-opacity="0.15"/>
<path fill-rule="evenodd" clip-rule="evenodd" d="M143.62 17.6949C143.173 17.3 142.838 16.7924 142.65 16.2239L139.201 8.03031H136.485C136.78 8.29366 137.028 8.60713 137.218 8.95645L134.114 16.213C133.882 16.7467 133.574 17.2425 133.198 17.684H135.526C135.253 17.1321 135.321 16.8774 135.491 16.2456L135.526 16.115L135.72 15.5266H139.945L140.139 16.115C140.166 16.2195 140.192 16.314 140.217 16.4009C140.365 16.9304 140.435 17.1786 140.139 17.684L143.62 17.6949ZM136.248 14.3607L137.94 10.2966L139.492 14.3607H136.248Z" fill="black" fill-opacity="0.15"/>
<path d="M151.142 13.2712H147.068V16.2675C146.999 16.7533 147.123 17.2471 147.413 17.6404H144.406C144.691 17.244 144.814 16.7529 144.751 16.2675V9.31602C144.82 8.83028 144.696 8.33648 144.406 7.94314H147.413C147.129 8.33953 147.006 8.83071 147.068 9.31602V11.9854H151.142V9.31602C151.211 8.83028 151.087 8.33648 150.797 7.94314H153.804C153.519 8.33953 153.397 8.83071 153.459 9.31602V16.2784C153.39 16.7642 153.514 17.258 153.804 17.6513H150.797C151.082 17.2549 151.205 16.7638 151.142 16.2784V13.2712Z" fill="black" fill-opacity="0.15"/>
<path fill-rule="evenodd" clip-rule="evenodd" d="M163.363 15.4503V9.42498C163.301 8.93967 163.424 8.44849 163.708 8.0521H156.164C156.455 8.40076 156.509 8.68406 156.509 9.42498V13.2494C156.509 15.0145 156.218 16.3874 154.472 17.0302V18.7409C155.16 18.104 156.061 17.7537 156.994 17.7603H161.984C162.913 17.7768 163.805 18.1241 164.506 18.7409V17.0193C164.155 16.9504 163.843 16.7509 163.632 16.4602C163.42 16.1696 163.325 15.809 163.363 15.4503ZM161.132 15.9842C161.132 16.1143 161.082 16.239 160.99 16.3309C160.9 16.4229 160.776 16.4745 160.647 16.4745H157.414C157.998 15.541 158.253 14.4349 158.136 13.3365V9.70827C158.128 9.6418 158.134 9.57403 158.155 9.51051C158.176 9.44688 158.212 9.38913 158.259 9.34173C158.306 9.29423 158.363 9.25838 158.425 9.23691C158.489 9.21545 158.556 9.20891 158.621 9.21795H161.143L161.132 15.9842Z" fill="black" fill-opacity="0.15"/>
<path fill-rule="evenodd" clip-rule="evenodd" d="M175.682 17.6949C175.235 17.3 174.9 16.7924 174.712 16.2239L171.263 8.0412H168.547C168.842 8.30455 169.09 8.61803 169.28 8.96735L166.176 16.2239C165.944 16.7576 165.636 17.2534 165.26 17.6949H167.588C167.315 17.1431 167.383 16.8883 167.553 16.2566L167.588 16.1259L167.782 15.5375H171.91L172.201 16.1259C172.228 16.2304 172.254 16.3249 172.279 16.4118C172.427 16.9413 172.497 17.1895 172.201 17.6949H175.682ZM168.267 14.3607L169.959 10.2966L171.511 14.3607H168.267Z" fill="black" fill-opacity="0.15"/>
<path fill-rule="evenodd" clip-rule="evenodd" d="M180.046 8.0412H176.242C176.533 8.38987 176.587 8.67316 176.587 9.41408V16.3765C176.649 16.8619 176.527 17.353 176.242 17.7494H179.249C178.958 17.4007 178.904 17.1174 178.904 16.3765V14.8075H180.046C182.708 14.8075 184.357 13.4346 184.357 11.3208C184.357 9.20706 182.956 8.0412 180.046 8.0412ZM179.755 13.6307H178.969V9.27243H179.799C181.35 9.27243 182.126 9.90439 182.126 11.4516C182.126 12.9988 181.297 13.6307 179.755 13.6307Z" fill="black" fill-opacity="0.15"/>
<path fill-rule="evenodd" clip-rule="evenodd" d="M44.0492 26.3789H43.1763V23.7312H45.5041C45.749 23.7004 45.9976 23.7243 46.2324 23.8016C46.4671 23.8787 46.682 24.0073 46.8621 24.1779L47.5841 22.5653H40.5682C40.8592 22.914 40.9023 23.1973 40.9023 23.9382V30.9007C40.9679 31.3847 40.8484 31.8756 40.5682 32.2735H44.1139C46.3448 32.2735 48.0368 31.5435 48.0368 29.3752C48.0368 27.207 46.334 26.3789 44.0492 26.3789ZM43.0793 31.0314V27.4576H43.8013C45.0192 27.4576 45.7843 27.9479 45.7843 29.2227C45.7843 30.4975 44.9761 31.0314 43.8121 31.0314H43.0793Z" fill="black" fill-opacity="0.15"/>
<path fill-rule="evenodd" clip-rule="evenodd" d="M59.0295 32.2626C58.5831 31.8678 58.2485 31.3601 58.0596 30.7917L54.6216 22.598H51.9166C52.2132 22.8646 52.4611 23.1818 52.6494 23.5351L49.5348 30.7917C49.287 31.3289 48.96 31.8249 48.5649 32.2626H50.8927C50.622 31.7152 50.6871 31.4696 50.8537 30.8413L50.873 30.7688L50.8927 30.6936L51.0867 30.1053H55.2144L55.5054 30.6936C55.5304 30.7895 55.5546 30.8769 55.577 30.9578C55.7277 31.5024 55.7962 31.7504 55.5054 32.2626H59.0295ZM51.6579 28.9285L53.2637 24.8644L54.8587 28.9285H51.6579Z" fill="black" fill-opacity="0.15"/>
<path d="M66.746 27.8389H62.7261V30.8353C62.6535 31.3196 62.7736 31.8132 63.0602 32.2082H60.0641C60.352 31.8134 60.4792 31.322 60.4198 30.8353V23.8837C60.4923 23.3994 60.3722 22.9058 60.0857 22.5109H63.0925C62.8123 22.9088 62.6928 23.3997 62.7584 23.8837V26.5859H66.8322V23.8837C66.9047 23.3994 66.7846 22.9058 66.4981 22.5109H69.4726C69.1924 22.9088 69.0729 23.3997 69.1385 23.8837V30.8462C69.066 31.3305 69.186 31.8241 69.4726 32.2191H66.4658C66.746 31.8211 66.8655 31.3302 66.7998 30.8462L66.746 27.8389Z" fill="black" fill-opacity="0.15"/>
<path d="M77.3184 23.8293L74.0736 27.2491L74.0313 23.9709C73.9657 23.4869 74.0852 22.9959 74.3654 22.598H71.3586C71.6452 22.993 71.7652 23.4866 71.6927 23.9709V30.9442C71.7583 31.4282 71.6388 31.9192 71.3586 32.3171H74.3654C74.0789 31.9222 73.9588 31.4286 74.0313 30.9442V27.5447L76.995 31.1731C77.144 31.3097 77.2602 31.4788 77.3349 31.6676C77.4095 31.8563 77.4407 32.0599 77.4261 32.2626H81.1658C80.5057 31.8525 79.9281 31.3202 79.463 30.6936L76.3592 26.8692L79.269 23.9709C79.7688 23.4423 80.3213 22.9676 80.9179 22.5544H77.9542C77.9542 22.9903 77.9003 23.2409 77.3184 23.8293Z" fill="black" fill-opacity="0.15"/>
<path d="M186.782 9.26154C186.03 9.17916 185.271 9.35154 184.627 9.75185L185.403 8.0412H194.024L193.281 9.80633C193.104 9.61947 192.888 9.4739 192.65 9.37976C192.412 9.28573 192.157 9.2453 191.901 9.26154H190.349V16.2784C190.28 16.7642 190.404 17.258 190.694 17.6513H187.731C188.015 17.2549 188.138 16.7638 188.075 16.2784V9.26154H186.782Z" fill="black" fill-opacity="0.15"/>
<path d="M22.5703 30.3554C23.0553 28.9826 23.2493 25.9862 21.7944 24.3736C22.2233 25.5691 22.2862 26.8676 21.9748 28.0998C21.6634 29.3319 20.9921 30.4406 20.0485 31.2816C20.2127 31.2336 20.4375 31.1794 20.6952 31.1173C21.1985 30.9959 21.8277 30.8442 22.3763 30.6497C22.4276 30.6177 22.4716 30.5747 22.505 30.5239C22.5385 30.4731 22.5607 30.4157 22.5703 30.3554Z" fill="black" fill-opacity="0.15"/>
<path d="M23.5403 19.1218C25.9807 19.6558 28.249 20.8024 30.1359 22.4559C30.2437 22.554 30.2437 22.5976 30.2437 22.6847C29.9465 23.4409 29.586 24.17 29.1659 24.8639C27.9709 22.3732 25.9923 20.3537 23.5403 19.1218Z" fill="black" fill-opacity="0.15"/>
<path d="M31.1489 17.847C31.172 17.9103 31.172 17.9798 31.1489 18.0431C31.1104 18.4381 31.1432 18.8368 31.2459 19.2199C29.9986 18.2164 28.6112 17.4049 27.1291 16.8119C28.0024 16.8074 28.8639 16.6064 29.6509 16.2235C29.5074 16.5788 29.249 16.8745 28.9181 17.0625C29.6795 17.2691 30.425 17.5313 31.1489 17.847Z" fill="black" fill-opacity="0.15"/>
<path d="M23.9284 22.8056C24.4467 22.9762 25.0052 22.9762 25.5235 22.8056C24.7395 22.5916 24.0767 22.0475 23.3126 21.4202C21.976 20.3229 20.3294 18.9712 17.1819 18.6869C16.9879 18.6869 16.4599 18.6869 16.7401 18.2402C17.4225 17.5338 18.1735 16.8987 18.9817 16.3443C18.6369 16.3443 16.9448 16.486 16.4599 16.5405C15.9749 16.5949 15.8348 16.5405 15.8348 16.0937C15.8348 16.0937 14.8648 17.0308 15.3498 17.5211C15.5401 17.575 15.7415 17.575 15.9318 17.5211C16.0645 17.5211 16.3081 17.4293 16.5454 17.34C16.655 17.2987 16.7633 17.2579 16.8586 17.2269C16.6611 17.4837 16.498 17.7658 16.3736 18.0659C16.3736 18.1244 16.3681 18.1773 16.363 18.2257C16.3426 18.4203 16.33 18.5408 16.7185 18.6543C18.1848 19.1006 19.5816 19.7534 20.8677 20.5937C22.2794 21.4683 23.4387 22.7029 24.2295 24.1736C25.0201 25.6443 25.4143 27.2993 25.3726 28.9726C26.0373 28.491 26.6708 27.967 27.2694 27.4036V27.1095C26.5156 25.4232 25.3694 23.9465 23.9284 22.8056Z" fill="black" fill-opacity="0.15"/>
<path fill-rule="evenodd" clip-rule="evenodd" d="M27.4198 10.7108C27.7539 10.8961 29.1657 11.7895 29.4567 11.9857C29.6076 12.0619 29.3166 12.4978 28.9071 12.6939C28.8584 12.9628 28.7442 13.2152 28.5749 13.4282C28.4055 13.6412 28.1863 13.8083 27.9371 13.9142C27.668 14.0064 27.3764 14.0064 27.1073 13.9142L26.7624 14.2629C26.5684 14.459 26.5684 14.4045 26.5684 14.2629C26.5926 14.148 26.5926 14.0292 26.5684 13.9142C26.471 13.7096 26.4152 13.7422 26.2924 13.814C26.2387 13.8454 26.172 13.8844 26.0835 13.9142C25.7925 14.0123 25.7925 13.7181 25.7925 13.7181C25.5269 13.6281 25.2421 13.6131 24.9687 13.6745C24.6951 13.736 24.4435 13.8715 24.2406 14.0668C24.4948 14.0945 24.7382 14.1855 24.9489 14.332C25.1597 14.4785 25.3311 14.6756 25.4476 14.9058C25.5554 15.0474 26.1266 15.0474 26.1804 14.9058C26.2343 14.7641 26.3744 14.7096 26.3744 14.9058C26.393 15.0213 26.393 15.1389 26.3744 15.2544C26.4553 15.3106 26.5249 15.3537 26.5823 15.3891C26.7696 15.5049 26.8266 15.5401 26.7193 15.6903C26.3306 16.3325 26.0169 16.3001 25.8517 16.283C25.8291 16.2807 25.8093 16.2786 25.7925 16.2786C24.5268 15.8267 23.2079 15.5447 21.8696 15.4397L22.3546 14.9493C16.1038 14.9493 15.0368 15.7229 14.692 16.1697C14.6405 16.2843 14.6138 16.4087 14.6138 16.5347C14.6138 16.6606 14.6405 16.7851 14.692 16.8997C13.4679 17.0462 12.2906 17.4629 11.2433 18.12C10.6324 18.8958 10.3358 19.8773 10.4134 20.8658C10.7718 20.5264 11.1787 20.2435 11.6205 20.0268C12.6144 19.6671 13.6817 19.566 14.7243 19.7326C14.9257 19.7205 15.1262 19.7703 15.2993 19.8753C15.4722 19.9803 15.61 20.1356 15.6943 20.321C15.8344 20.6043 15.4464 20.6043 15.2524 20.4626C14.6692 20.0875 14.2631 20.2982 13.8388 20.5184C13.4868 20.701 13.1222 20.8902 12.6335 20.7568C12.7702 20.9012 12.9404 21.0086 13.1286 21.0695C13.3168 21.1305 13.5172 21.1428 13.7113 21.1055C14.8213 20.6588 15.1662 21.1055 15.1662 21.2472C14.317 21.3269 13.4829 21.5249 12.6874 21.8355C12.2249 21.9303 11.757 21.9958 11.2864 22.0317C11.4866 22.2511 11.7359 22.419 12.0133 22.5213C12.2908 22.6236 12.5884 22.6575 12.8814 22.62C13.9147 22.5454 14.9519 22.5454 15.9852 22.62C18.4532 22.9033 18.6041 25.1588 17.1923 26.5861C17.5416 26.4732 17.8639 26.288 18.1385 26.0423C18.4131 25.7965 18.6341 25.4957 18.7873 25.1588C19.6603 29.0377 16.1253 31.097 13.2586 30.5086C12.0372 30.3134 10.8802 29.8238 9.88536 29.0813C9.43401 28.7566 9.01199 28.3919 8.62444 27.9917C10.8412 28.5381 13.1677 28.417 15.3171 27.643C12.4912 27.7847 9.68285 27.1202 7.21262 25.7254C6.56599 25.3767 6.32889 25.1915 6.1349 24.7447C5.57578 23.7153 5.15181 22.6163 4.87397 21.476C6.372 22.7508 9.47582 24.4723 10.9307 24.614C8.41255 23.189 6.31747 21.1086 4.86319 18.5886C4.58859 18.184 4.43857 17.7063 4.43211 17.2157C4.5513 16.0488 4.79336 14.8983 5.15418 13.7835C5.766 15.6319 6.79543 17.3107 8.16101 18.6866C7.14699 16.3352 6.6188 13.7991 6.6091 11.2339C6.59552 10.8927 6.71557 10.5599 6.94319 10.3077C7.51891 9.5431 8.16877 8.83868 8.88308 8.20476C8.65547 9.94777 8.65547 11.7136 8.88308 13.4566C9.28184 11.0282 10.1735 8.70956 11.5019 6.64665C11.6489 6.39299 11.8662 6.18837 12.127 6.05827C12.9787 5.64423 13.8759 5.33337 14.7997 5.13213C13.8199 5.9443 13.0536 6.98856 12.5689 8.17207C15.2322 5.59093 17.8034 4.89699 19.8359 4.34843C20.5832 4.14672 21.2578 3.96466 21.8372 3.71566C22.3761 3.41058 22.624 3.71566 22.5701 4.05344C22.5162 4.39121 22.3761 4.97958 22.3761 4.97958C23.0635 5.10968 23.7015 5.43024 24.219 5.90573C24.1938 5.76158 24.1938 5.61405 24.219 5.4699C25.9649 6.96263 26.4499 8.21565 26.4499 9.1418C26.4458 9.46988 26.5349 9.79218 26.7069 10.0703C26.8789 10.3485 27.1264 10.5708 27.4198 10.7108ZM18.3023 11.3973C18.0185 11.4731 17.7411 11.5715 17.4725 11.6915V11.6697C17.6818 10.0086 18.4779 8.4801 19.7141 7.36578C18.7645 7.90316 17.9644 8.67426 17.3879 9.6076C16.8113 10.5408 16.4772 11.6062 16.4163 12.7048L17.3863 12.269C17.2134 13.0921 17.1481 13.9347 17.1923 14.775C17.7511 14.6774 18.3173 14.63 18.8843 14.6334C17.9682 14.2847 17.9682 12.5196 18.5933 11.5934C18.7873 11.3973 18.5933 11.3973 18.3023 11.3973ZM21.3798 4.89007C21.4231 4.82943 21.462 4.77506 21.4924 4.72898L21.5032 4.70719C21.6217 4.60912 21.6217 4.413 21.2014 4.6745C20.5908 5.04866 20.1004 5.59367 19.7896 6.2435C19.6926 6.43963 19.7896 6.59217 19.9836 6.43963C20.2862 6.30997 20.5956 6.1972 20.9104 6.10186C20.7832 5.7251 21.1465 5.2166 21.3798 4.89007ZM25.1674 9.92631C25.5123 9.98078 25.5123 9.92631 25.5123 9.63212L25.523 9.61033C25.6797 9.21589 25.6836 8.77625 25.5338 8.37909C25.3937 9.21807 25.1458 9.21807 24.9519 9.21807C24.4945 9.08046 24.0153 9.03241 23.54 9.07643C24.0678 9.55704 24.4963 10.1384 24.801 10.7871C24.8331 10.448 24.7656 10.107 24.607 9.80645H24.7471C24.8934 9.8192 25.036 9.85995 25.1674 9.92631Z" fill="black" fill-opacity="0.15"/>
<path fill-rule="evenodd" clip-rule="evenodd" d="M17.8715 5.27171e-05C14.3484 -0.00856591 10.902 1.03978 7.96838 3.01243C5.03483 4.98502 2.74619 7.79321 1.39204 11.0814C0.0379067 14.3697 -0.320822 17.9903 0.361308 21.4848C1.0434 24.9793 2.73563 28.1906 5.22375 30.7124C7.71199 33.2341 10.8843 34.9528 14.3391 35.6509C17.7939 36.349 21.3759 35.995 24.6317 34.6339C27.8873 33.2728 30.6705 30.9657 32.6288 28.0048C34.587 25.0437 35.6322 21.5619 35.6322 18C35.6351 15.639 35.1779 13.3007 34.2869 11.1184C33.3959 8.93608 32.0884 6.9526 30.4392 5.28117C28.7899 3.60974 26.8312 2.28306 24.6749 1.3769C22.5185 0.470766 20.2067 0.00291833 17.8715 5.27171e-05ZM17.8715 34.1258C14.7211 34.1215 11.6427 33.1728 9.02562 31.3997C6.40849 29.6266 4.3702 27.1087 3.16855 24.1644C1.96689 21.2201 1.65586 17.9817 2.27458 14.8587C2.89341 11.7356 4.41428 8.86831 6.64494 6.61907C8.8756 4.36995 11.716 2.84006 14.8066 2.22292C17.8973 1.60579 21.0997 1.92908 24.0085 3.1519C26.9175 4.37485 29.4025 6.44234 31.1492 9.09298C32.8959 11.7437 33.826 14.8585 33.8217 18.0435C33.8189 20.1583 33.4041 22.252 32.601 24.2046C31.7978 26.1574 30.6222 27.9311 29.141 29.4245C27.6599 30.9179 25.9024 32.1017 23.9688 32.9083C22.0351 33.715 19.9632 34.1287 17.8715 34.1258Z" fill="black" fill-opacity="0.15"/>
<path fill-rule="evenodd" clip-rule="evenodd" d="M44.6418 6.47265H40.5141C40.8051 6.81043 40.8482 7.11551 40.8482 7.84553V16.3443C40.9138 16.8282 40.7943 17.3193 40.5141 17.7172H43.6179C43.3269 17.3685 43.2838 17.0853 43.2838 16.3443V14.1652H44.6849C47.5516 14.1652 49.3406 12.6942 49.3406 10.1881C49.3406 7.68209 47.5947 6.47265 44.6418 6.47265ZM44.2538 12.7923H43.1761V7.74747H44.2538C44.5955 7.70116 44.9432 7.73243 45.2714 7.83921C45.5996 7.94588 45.9001 8.12534 46.151 8.36439C46.402 8.60345 46.5969 8.89611 46.7217 9.22103C46.8467 9.54605 46.8982 9.89504 46.8726 10.2426C46.8967 10.5923 46.8446 10.9429 46.7201 11.27C46.5955 11.597 46.4017 11.8925 46.152 12.1356C45.9023 12.3787 45.603 12.5635 45.2749 12.6769C44.947 12.7904 44.5984 12.8298 44.2538 12.7923Z" fill="black" fill-opacity="0.15"/>
<path d="M54.1472 17.4993L50.7201 9.66514C50.498 9.07175 50.169 8.525 49.7501 8.05255H53.1449C53.0369 8.29967 52.981 8.56684 52.981 8.83706C52.981 9.10727 53.0369 9.37444 53.1449 9.62156L55.3004 14.7209L57.1972 9.5235C57.2929 9.29032 57.3422 9.04048 57.3422 8.78802C57.3422 8.53557 57.2929 8.28562 57.1972 8.05255H59.5789C59.1865 8.44295 58.9038 8.93174 58.7599 9.46902L56.0871 16.584C55.365 18.5017 54.4813 20.2124 52.2073 20.2124C51.2406 20.2478 50.2991 19.8953 49.5885 19.2317L50.2243 17.8589C50.4283 18.2031 50.7199 18.4858 51.0686 18.6775C51.4175 18.869 51.8106 18.9626 52.2073 18.9484C53.1234 19.0247 53.7592 18.5235 54.1903 17.5102L54.1472 17.4993Z" fill="black" fill-opacity="0.15"/>
<path d="M64.1916 17.848C61.6697 17.848 59.6328 16.2354 59.6328 12.8468C59.6106 12.1647 59.7295 11.4853 59.9818 10.8522C60.2342 10.2193 60.6144 9.64651 61.0983 9.17058C61.5822 8.69465 62.1591 8.32615 62.7919 8.08862C63.4248 7.85109 64.0997 7.74976 64.7735 7.79105C65.5135 7.79105 66.0716 7.89236 66.5327 7.97608C66.8574 8.03502 67.1341 8.08524 67.3924 8.08524C67.6779 8.09516 67.9608 8.02749 68.2114 7.88912L67.2954 10.0683C66.9965 9.73041 66.6314 9.45899 66.2232 9.27147C65.815 9.08385 65.3727 8.98415 64.9244 8.9787C63.1354 8.9787 62.0577 10.5477 62.0577 12.9012C62.0577 15.2548 62.8875 16.584 64.7735 16.584C65.3538 16.5947 65.9283 16.467 66.4507 16.2115C66.973 15.956 67.4286 15.5797 67.7804 15.1131L68.2114 16.2027C67.704 16.7655 67.0791 17.2071 66.3819 17.4955C65.6847 17.7838 64.9329 17.9116 64.1808 17.8698L64.1916 17.848Z" fill="black" fill-opacity="0.15"/>
<path d="M73.2552 17.848C70.7333 17.848 68.6964 16.2354 68.6964 12.8468C68.6742 12.1647 68.7931 11.4853 69.0454 10.8522C69.2978 10.2193 69.678 9.64651 70.1619 9.17058C70.6458 8.69465 71.2227 8.32615 71.8555 8.08862C72.4884 7.85109 73.1633 7.74976 73.8371 7.79105C74.5771 7.79105 75.1352 7.89236 75.5963 7.97608C75.921 8.03502 76.1977 8.08524 76.456 8.08524C76.7415 8.09516 77.0244 8.02749 77.275 7.88912L76.4021 10.0683C76.1032 9.73041 75.7381 9.45899 75.3299 9.27147C74.9217 9.08385 74.4794 8.98415 74.0311 8.9787C72.2744 8.96781 71.1967 10.5477 71.1967 12.8903C71.1967 15.233 72.0158 16.5732 73.9126 16.5732C74.4928 16.5838 75.0673 16.4561 75.5897 16.2006C76.1121 15.9451 76.5676 15.5688 76.9194 15.1022L77.3505 16.1918C76.838 16.7383 76.2166 17.1687 75.5273 17.4542C74.838 17.7397 74.0966 17.8739 73.3522 17.848H73.2552Z" fill="black" fill-opacity="0.15"/>
<path d="M81.1117 12.7487L84.4095 9.262C84.9915 8.67362 85.0454 8.42301 85.0454 7.98718H88.0091C87.3857 8.39948 86.8076 8.87802 86.2848 9.41454L83.4288 12.302L86.5326 16.1264C86.9977 16.7529 87.5753 17.2853 88.2354 17.6954H84.5065C84.5211 17.4927 84.4899 17.2891 84.4152 17.1004C84.3406 16.9116 84.2244 16.7425 84.0754 16.6058L81.1117 12.9448V16.3443C81.0392 16.8287 81.1592 17.3222 81.4458 17.7172H78.439C78.7079 17.3147 78.8158 16.8241 78.7407 16.3443V9.37095C78.8133 8.88663 78.6932 8.39305 78.4066 7.99808H81.4135C81.1333 8.39599 81.0138 8.88696 81.0794 9.37095V12.7487H81.1117Z" fill="black" fill-opacity="0.15"/>
<path d="M95.6609 9.37095C95.7334 8.88663 95.6134 8.39305 95.3268 7.99808H98.3336C98.0534 8.39599 97.9338 8.88696 97.9995 9.37095V16.3443C97.9273 16.8287 98.047 17.3222 98.3336 17.7172H95.316C95.6001 17.3208 95.7234 16.8296 95.6609 16.3443V11.6155L91.5871 15.9739V16.3443C91.5146 16.8287 91.6347 17.3222 91.9212 17.7172H88.9144C89.1985 17.3208 89.3218 16.8296 89.2593 16.3443V9.37095C89.3318 8.88663 89.2117 8.39305 88.9252 7.99808H91.932C91.6518 8.39599 91.5323 8.88696 91.5979 9.37095V14.078L95.6717 9.71962L95.6609 9.37095Z" fill="black" fill-opacity="0.15"/>
<path d="M106.762 9.37095C106.834 8.88663 106.714 8.39305 106.428 7.99808H109.434C109.154 8.39599 109.035 8.88696 109.1 9.37095V16.3443C109.028 16.8287 109.148 17.3222 109.434 17.7172H106.428C106.708 17.3193 106.827 16.8282 106.762 16.3443V11.6155L102.688 15.9739V16.3443C102.615 16.8287 102.735 17.3222 103.022 17.7172H100.015C100.295 17.3193 100.415 16.8282 100.349 16.3443V9.37095C100.421 8.88663 100.302 8.39305 100.015 7.99808H103.022C102.742 8.39599 102.622 8.88696 102.688 9.37095V14.078L106.762 9.71962V9.37095Z" fill="black" fill-opacity="0.15"/>
<path d="M104.24 5.15426C104.074 5.38427 103.973 5.65547 103.949 5.93876C103.949 6.23295 104.143 6.52713 104.768 6.52713C105.393 6.52713 105.587 6.18936 105.587 5.93876C105.578 5.65187 105.476 5.37599 105.296 5.15426H106.212C106.408 5.42458 106.523 5.7459 106.546 6.0804C106.546 6.86491 105.813 7.31164 104.703 7.31164C103.593 7.31164 102.86 6.8758 102.86 6.0913C102.867 5.91544 102.907 5.74263 102.982 5.58344C103.055 5.42415 103.161 5.28185 103.291 5.16515H104.218L104.24 5.15426Z" fill="black" fill-opacity="0.15"/>
<path d="M124.07 8.83706C123.709 8.43347 123.268 8.11139 122.776 7.89173C122.284 7.67207 121.752 7.55984 121.214 7.56224C118.983 7.56224 117.668 9.32737 117.668 12.1276C117.668 14.9279 118.638 16.5949 121.257 16.5949C121.873 16.5705 122.478 16.4188 123.034 16.1489C123.59 15.879 124.086 15.4969 124.49 15.0259L125.115 16.1155C124.53 16.7178 123.825 17.1869 123.046 17.4913C122.267 17.7958 121.433 17.9285 120.6 17.8807C117.205 17.8807 115.071 15.8213 115.071 12.193C115.049 11.4084 115.188 10.6277 115.479 9.90028C115.771 9.17276 116.209 8.51432 116.765 7.96659C117.321 7.41874 117.983 6.99348 118.71 6.71759C119.437 6.44171 120.213 6.3212 120.987 6.3637C121.848 6.3637 122.417 6.45413 122.924 6.53472C123.331 6.59948 123.699 6.65788 124.145 6.65788C124.577 6.68665 125.006 6.56767 125.363 6.32011L124.07 8.83706Z" fill="black" fill-opacity="0.15"/>
</svg>
