<svg width="135" height="22" viewBox="0 0 135 22" fill="none" xmlns="http://www.w3.org/2000/svg">
<path d="M60.3626 6.35052L63.1768 4.28101H53.7554V16.6779H63.1768V14.6083H56.4472V11.4432H62.198V9.37364H56.4472V6.35052H60.3626Z" fill="black" fill-opacity="0.15"/>
<path d="M46.6383 9.10988H43.3755V6.35052H48.596L51.4102 4.28101H40.6836V16.6779H46.2916C49.4321 16.6779 51.247 15.2576 51.247 12.7823C51.247 10.4084 49.6156 9.10988 46.6383 9.10988ZM46.1896 14.6083H43.3755V11.1794H46.1896C47.9027 11.1794 48.698 11.7475 48.698 12.904C48.698 14.0605 47.8415 14.6083 46.1896 14.6083Z" fill="black" fill-opacity="0.15"/>
<path d="M70.8035 4.28101H65.6851V16.6779H68.3768V13.1677H70.824C74.0868 13.1677 76.1261 11.4634 76.1261 8.72438C76.1261 5.98531 74.0868 4.28101 70.8035 4.28101ZM70.7424 11.0982H68.3565V6.35052H70.7424C72.4758 6.35052 73.4139 7.20267 73.4139 8.72438C73.4139 10.2461 72.4758 11.0982 70.7424 11.0982Z" fill="black" fill-opacity="0.15"/>
<path d="M36.0746 13.9995C35.3609 14.3851 34.5656 14.588 33.7498 14.588C31.3231 14.588 29.5693 12.8634 29.5693 10.4895C29.5693 8.11566 31.3231 6.39107 33.7498 6.39107C34.6267 6.37078 35.4832 6.65482 36.197 7.16207L38.1343 5.7418L38.0119 5.62006C36.8903 4.62588 35.3812 4.11865 33.6683 4.11865C31.8125 4.11865 30.1199 4.74762 28.8964 5.88383C27.6727 7.06062 26.9794 8.70406 27.0203 10.4084C26.9998 12.133 27.6727 13.7967 28.8964 15.014C30.1811 16.2112 31.894 16.8806 33.6478 16.8401C35.5852 16.8401 37.2778 16.1705 38.4198 14.9532L36.6864 13.675L36.0746 13.9995Z" fill="black" fill-opacity="0.15"/>
<path d="M108.489 4.3013V16.6981H111.181V11.6258H116.911V16.6981H119.603V4.3013H116.911V9.39393H111.181V4.3013H108.489ZM103.86 16.6981H106.695L101.433 4.3013H98.7007L93.3374 16.6981H96.0497L97.1305 14.2025H102.84L103.86 16.6981ZM97.9463 12.133L100.026 7.1621L101.984 12.133H97.9463ZM125.64 11.6866H127.312L131.431 16.6779H134.898L129.392 10.2664L134.204 4.28101H131.125L127.128 9.59683H125.64V4.28101H122.948V16.6779H125.64V11.6866ZM84.4463 9.13017V6.37081H91.4817V4.3013H81.7544V16.6981H87.3624C90.5029 16.6981 92.3178 15.2779 92.3178 12.8026C92.3178 10.4287 90.6864 9.13017 87.7091 9.13017H84.4463ZM84.4463 14.6286V11.1997H87.2604C88.9734 11.1997 89.7687 11.7678 89.7687 12.9243C89.7687 14.0808 88.9326 14.6488 87.2604 14.6488H84.4463V14.6286Z" fill="black" fill-opacity="0.15"/>
<path d="M18.598 4.19995C19.0874 4.82893 19.4953 5.51877 19.842 6.24919L10.4206 13.1678L6.46436 10.6926V7.73032L10.4002 10.1853L18.598 4.19995Z" fill="black" fill-opacity="0.15"/>
<path d="M2.44699 10.4897C2.44699 10.3477 2.44699 10.2259 2.46738 10.0839L0.0814279 9.96216C0.0814279 10.1245 0.0610352 10.3071 0.0610352 10.4694C0.0610352 13.3099 1.22342 15.8867 3.09955 17.7533L4.79215 16.0693C3.34427 14.649 2.44699 12.6809 2.44699 10.4897Z" fill="black" fill-opacity="0.15"/>
<path d="M10.4002 2.57674C10.543 2.57674 10.6653 2.57674 10.8081 2.59703L10.9304 0.22317C10.7673 0.22317 10.5837 0.202881 10.4206 0.202881C7.56562 0.202881 4.97574 1.35938 3.09961 3.226L4.79221 4.91002C6.2197 3.46947 8.21819 2.57674 10.4002 2.57674Z" fill="black" fill-opacity="0.15"/>
<path d="M10.4003 18.4024C10.2576 18.4024 10.1352 18.4024 9.99247 18.3821L9.87012 20.756C10.0333 20.756 10.2168 20.7762 10.3799 20.7762C13.2349 20.7762 15.8248 19.6198 17.7009 17.7531L16.0083 16.0691C14.5808 17.5299 12.6027 18.4024 10.4003 18.4024Z" fill="black" fill-opacity="0.15"/>
<path d="M14.8868 3.95645L16.9056 2.47532C15.1315 1.05506 12.8679 0.182617 10.4004 0.182617V2.55647C12.0726 2.57677 13.6225 3.084 14.8868 3.95645Z" fill="black" fill-opacity="0.15"/>
<path d="M20.7598 10.4896C20.7598 9.86067 20.6986 9.252 20.5966 8.64331L18.3738 10.2867C18.3738 10.3476 18.3738 10.4288 18.3738 10.4896C18.3738 12.8229 17.3541 14.9128 15.7432 16.3533L17.3541 18.1185C19.4342 16.2518 20.7598 13.5128 20.7598 10.4896Z" fill="black" fill-opacity="0.15"/>
<path d="M10.4001 18.4025C8.05493 18.4025 5.95448 17.3881 4.5066 15.7852L2.73242 17.3881C4.62895 19.4778 7.36157 20.7763 10.4001 20.7763V18.4025Z" fill="black" fill-opacity="0.15"/>
<path d="M5.07765 4.62603L3.46663 2.86084C1.36617 4.74775 0.0610352 7.46654 0.0610352 10.4897H2.44699C2.44699 8.17666 3.46663 6.06658 5.07765 4.62603Z" fill="black" fill-opacity="0.15"/>
</svg>
