<svg width="213" height="26" viewBox="0 0 213 26" fill="none" xmlns="http://www.w3.org/2000/svg">
<path d="M15.9965 0.275536V7.01605H13.369C10.0498 7.01605 7.37542 9.67576 7.37542 12.9778C7.37542 16.2785 10.0498 18.9382 13.3677 18.9382H15.9965V25.6787C21.9888 24.5327 26.462 19.3055 26.462 12.9765C26.462 6.69533 21.99 1.46806 15.9965 0.275536Z" fill="black" fill-opacity="0.15"/>
<path d="M13.3687 21.0462C8.89671 21.0462 5.25322 17.4243 5.25322 12.9776C5.25322 8.53044 8.89547 4.90768 13.3663 4.90768H13.8743V0.000244141H13.3675C6.17676 0.000244141 0.321289 5.82378 0.321289 12.9763C0.321289 20.1762 6.17672 25.9997 13.3687 25.9997H13.8755V21.0489H13.3687V21.0462Z" fill="black" fill-opacity="0.15"/>
<path d="M44.9024 17.5162C43.8459 18.3791 42.5276 18.8482 41.1689 18.8456C37.8952 18.8456 35.2679 16.2319 35.2679 12.976C35.2679 9.72134 37.8939 7.1077 41.1689 7.1077C42.5936 7.1015 43.9713 7.62334 45.0402 8.574L47.1156 6.51188C45.4836 5.02875 43.3644 4.21144 41.1689 4.21809C36.2814 4.21809 32.3627 8.16202 32.3627 12.976C32.3627 17.7913 36.2814 21.7804 41.1689 21.7804C43.4277 21.7804 45.4557 20.9551 46.9774 19.5801L44.9024 17.5162ZM138.723 4.90605L132.222 12.7009L125.675 4.90605L125.63 4.99819V4.90605H123.001V21.0472H125.63V9.21633L132.222 17.0112L138.723 9.40017V21.0472H141.304V4.90605H138.723ZM66.6634 12.976C66.6634 17.8373 62.6977 21.7343 57.8572 21.7343C52.971 21.7343 49.0523 17.7913 49.0523 12.976C49.0523 8.16202 53.0166 4.21809 57.8572 4.21809C62.6977 4.21809 66.6634 8.16202 66.6634 12.976ZM63.7126 12.976C63.7126 9.72134 61.0852 7.1077 57.8116 7.1077C54.5379 7.1077 51.9105 9.72134 51.9105 12.976C51.9105 16.2319 54.5379 18.8456 57.8116 18.8456C61.0852 18.8456 63.7126 16.2319 63.7126 12.976ZM120.327 12.976C120.327 17.8373 116.362 21.7343 111.522 21.7343C106.634 21.7343 102.716 17.7913 102.716 12.976C102.716 8.16202 106.681 4.21809 111.522 4.21809C116.408 4.21809 120.327 8.16202 120.327 12.976ZM117.423 12.976C117.423 9.72134 114.795 7.1077 111.522 7.1077C108.248 7.1077 105.621 9.72134 105.621 12.976C105.621 16.2319 108.248 18.8456 111.522 18.8456C114.748 18.8456 117.423 16.2319 117.423 12.976ZM102.67 4.90605H99.1189L92.4351 11.6931H89.7152V4.90605H87.1334V21.0472H89.7152V14.3067H92.3882L99.0733 21.0472H102.578L94.6483 13.022L102.67 4.90605Z" fill="black" fill-opacity="0.15"/>
<path d="M212.024 4.90628H208.523L201.791 11.6933H199.071V4.90628H196.489V21.0475H199.071V14.3069H201.791L208.429 21.0475H211.933L204.05 13.0223L212.024 4.90628ZM173.851 21.0461H176.712L169.564 4.90628H166.614L159.469 21.0475H162.327L163.894 17.5625H172.286L173.851 21.0461ZM165.048 14.9936L168.09 8.20832L171.133 14.9936H165.048Z" fill="black" fill-opacity="0.15"/>
<path d="M83.8135 16.3704C83.8135 15.732 83.6824 15.1012 83.4286 14.5169C83.1743 13.9326 82.8031 13.4081 82.3379 12.9762C83.2133 12.1053 83.8135 10.9128 83.8135 9.58336C83.8095 8.34034 83.3169 7.14914 82.4438 6.27246C81.5707 5.39534 80.3883 4.90407 79.1568 4.90629H69.66V21.0922H79.1568C81.7386 21.0475 83.8135 18.938 83.8135 16.3704ZM72.2878 7.52125H79.1112C80.2639 7.52125 81.1848 8.43735 81.1848 9.58336C81.1848 10.7298 80.2639 11.6472 79.1112 11.6472H72.2878V7.51992V7.52125ZM79.1112 18.4786H72.2878V14.307H79.1568C80.3095 14.307 81.2318 15.2687 81.2318 16.3704C81.1848 17.5155 80.2639 18.4786 79.1112 18.4786Z" fill="black" fill-opacity="0.15"/>
<path d="M190.634 4.95235V11.6933H181.183V4.95235H178.555V21.0014H181.183V14.3056H190.634V21.0014H193.263V4.95235H190.634ZM158.546 16.3704C158.546 13.8015 156.426 11.6933 153.844 11.6933H147.021V7.51991H156.98V4.90628H144.393V21.0922H153.844C156.426 21.0475 158.546 18.9379 158.546 16.3704ZM153.844 18.4786H147.021V14.3069H153.844C154.997 14.3069 155.919 15.2687 155.919 16.3704C155.919 17.5151 154.997 18.4786 153.844 18.4786Z" fill="black" fill-opacity="0.15"/>
</svg>
