<svg width="36" height="36" viewBox="0 0 36 36" fill="none" xmlns="http://www.w3.org/2000/svg">
<path opacity="0.12" d="M11.071 14.7795C12.115 16.954 13.5381 18.9919 15.3405 20.7943C17.1429 22.5967 19.1808 24.0198 21.3553 25.0638C21.5423 25.1536 21.6358 25.1985 21.7542 25.233C22.1747 25.3556 22.6911 25.2676 23.0472 25.0126C23.1474 24.9408 23.2332 24.8551 23.4046 24.6836C23.9291 24.1592 24.1913 23.897 24.4549 23.7256C25.4493 23.0791 26.7311 23.0791 27.7255 23.7256C27.9891 23.897 28.2513 24.1592 28.7757 24.6836L29.0681 24.9759C29.8652 25.7731 30.2638 26.1716 30.4803 26.5997C30.9109 27.4511 30.9109 28.4565 30.4803 29.3078C30.2638 29.7359 29.8652 30.1344 29.0681 30.9316L28.8316 31.1681C28.0372 31.9625 27.6399 32.3597 27.0999 32.6631C26.5006 32.9997 25.5699 33.2418 24.8826 33.2397C24.2631 33.2379 23.8398 33.1177 22.9931 32.8774C18.4431 31.586 14.1495 29.1492 10.5675 25.5673C6.98557 21.9853 4.54886 17.6918 3.2574 13.1417C3.01709 12.295 2.89694 11.8717 2.89509 11.2522C2.89305 10.5649 3.13509 9.63417 3.47172 9.03491C3.77509 8.49486 4.17231 8.09765 4.96675 7.30321L5.2032 7.06676C6.00036 6.2696 6.39894 5.87101 6.82701 5.6545C7.67836 5.22389 8.68375 5.22389 9.53509 5.6545C9.96317 5.87101 10.3617 6.26959 11.1589 7.06676L11.4512 7.35906C11.9756 7.88347 12.2378 8.14568 12.4093 8.40934C13.0557 9.40368 13.0558 10.6856 12.4093 11.6799C12.2378 11.9436 11.9756 12.2058 11.4512 12.7302C11.2797 12.9016 11.194 12.9874 11.1223 13.0876C10.8672 13.4437 10.7792 13.9601 10.9018 14.3807C10.9363 14.499 10.9812 14.5925 11.071 14.7795Z" fill="#E02D3C"/>
<path d="M21.075 9C22.5401 9.28585 23.8866 10.0024 24.9421 11.0579C25.9977 12.1134 26.7142 13.4599 27 14.925M21.075 3C24.119 3.33815 26.9574 4.70126 29.1244 6.86551C31.2914 9.02976 32.6581 11.8665 33 14.91M15.3405 20.7946C13.5381 18.9922 12.115 16.9543 11.071 14.7798C10.9812 14.5928 10.9363 14.4993 10.9018 14.381C10.7792 13.9604 10.8672 13.444 11.1223 13.0879C11.194 12.9877 11.2797 12.9019 11.4512 12.7305C11.9756 12.2061 12.2378 11.9439 12.4093 11.6802C13.0558 10.6859 13.0557 9.40398 12.4093 8.40965C12.2378 8.14598 11.9756 7.88378 11.4512 7.35937L11.1589 7.06706C10.3617 6.2699 9.96317 5.87132 9.53509 5.6548C8.68375 5.2242 7.67836 5.2242 6.82701 5.6548C6.39894 5.87132 6.00036 6.2699 5.2032 7.06706L4.96675 7.30351C4.17231 8.09795 3.77509 8.49517 3.47172 9.03521C3.13509 9.63447 2.89305 10.5652 2.89509 11.2525C2.89694 11.872 3.01709 12.2953 3.2574 13.142C4.54886 17.6921 6.98557 21.9856 10.5675 25.5676C14.1495 29.1495 18.4431 31.5863 22.9931 32.8777C23.8398 33.118 24.2631 33.2382 24.8826 33.24C25.5699 33.2421 26.5006 33 27.0999 32.6634C27.6399 32.36 28.0372 31.9628 28.8316 31.1684L29.0681 30.9319C29.8652 30.1348 30.2638 29.7362 30.4803 29.3081C30.9109 28.4568 30.9109 27.4514 30.4803 26.6C30.2638 26.1719 29.8652 25.7734 29.0681 24.9762L28.7757 24.6839C28.2513 24.1595 27.9891 23.8973 27.7255 23.7259C26.7311 23.0794 25.4493 23.0794 24.4549 23.7259C24.1913 23.8973 23.9291 24.1595 23.4046 24.6839C23.2332 24.8554 23.1474 24.9411 23.0472 25.0129C22.6911 25.2679 22.1747 25.3559 21.7542 25.2333C21.6358 25.1989 21.5423 25.154 21.3553 25.0641C19.1808 24.0202 17.1429 22.597 15.3405 20.7946Z" stroke="#E02D3C" stroke-width="3" stroke-linecap="round" stroke-linejoin="round"/>
</svg>
