<svg width="36" height="36" viewBox="0 0 36 36" fill="none" xmlns="http://www.w3.org/2000/svg">
<path opacity="0.12" d="M26.7 31.5C28.3802 31.5 29.2202 31.5 29.862 31.173C30.4265 30.8854 30.8854 30.4265 31.173 29.862C31.5 29.2202 31.5 28.3802 31.5 26.7V16.8C31.5 15.1198 31.5 14.2798 31.173 13.638C30.8854 13.0735 30.4265 12.6146 29.862 12.327C29.2202 12 28.3802 12 26.7 12L9.3 12C7.61984 12 6.77976 12 6.13803 12.327C5.57354 12.6146 5.1146 13.0735 4.82698 13.638C4.5 14.2798 4.5 15.1198 4.5 16.8L4.5 26.7C4.5 28.3802 4.5 29.2202 4.82698 29.862C5.1146 30.4265 5.57354 30.8854 6.13803 31.173C6.77976 31.5 7.61984 31.5 9.3 31.5L26.7 31.5Z" fill="#E02D3C"/>
<path d="M24 12V6.75097C24 5.50336 24 4.87956 23.7372 4.4962C23.5076 4.16126 23.152 3.93373 22.7516 3.86561C22.2934 3.78763 21.727 4.04905 20.5943 4.57187L7.28852 10.713C6.27826 11.1793 5.77313 11.4124 5.40316 11.774C5.07609 12.0936 4.82643 12.4838 4.67326 12.9147C4.5 13.4022 4.5 13.9585 4.5 15.0712V22.5M24.75 21.75H24.765M4.5 16.8L4.5 26.7C4.5 28.3801 4.5 29.2202 4.82698 29.862C5.1146 30.4264 5.57354 30.8854 6.13803 31.173C6.77976 31.5 7.61984 31.5 9.3 31.5H26.7C28.3802 31.5 29.2202 31.5 29.862 31.173C30.4265 30.8854 30.8854 30.4264 31.173 29.862C31.5 29.2202 31.5 28.3801 31.5 26.7V16.8C31.5 15.1198 31.5 14.2798 31.173 13.638C30.8854 13.0735 30.4265 12.6146 29.862 12.327C29.2202 12 28.3802 12 26.7 12L9.3 12C7.61984 12 6.77976 12 6.13803 12.327C5.57354 12.6146 5.1146 13.0735 4.82698 13.638C4.5 14.2797 4.5 15.1198 4.5 16.8ZM25.5 21.75C25.5 22.1642 25.1642 22.5 24.75 22.5C24.3358 22.5 24 22.1642 24 21.75C24 21.3358 24.3358 21 24.75 21C25.1642 21 25.5 21.3358 25.5 21.75Z" stroke="#E02D3C" stroke-width="3" stroke-linecap="round" stroke-linejoin="round"/>
</svg>
