<svg width="17" height="16" viewBox="0 0 17 16" fill="none" xmlns="http://www.w3.org/2000/svg">
<path fill-rule="evenodd" clip-rule="evenodd" d="M2.73365 7.42562C6.30776 5.85836 8.69687 4.84537 9.90098 4.34844C13.3031 2.93409 14.0103 2.68562 14.469 2.6665C14.5645 2.6665 14.7939 2.68562 14.9468 2.80029C15.0615 2.89586 15.0997 3.02965 15.1188 3.12521C15.1379 3.22078 15.157 3.43102 15.1379 3.60304C14.9468 5.53344 14.1632 10.2543 13.7427 12.4141C13.5707 13.3315 13.2266 13.6373 12.9017 13.6755C12.1945 13.7329 11.6403 13.1977 10.9522 12.7581C9.88187 12.0509 9.27026 11.6113 8.21905 10.9233C7.01494 10.1205 7.79856 9.68094 8.48663 8.97376C8.65864 8.78263 11.8123 5.93481 11.8696 5.66723C11.8696 5.629 11.8887 5.51433 11.8123 5.45699C11.7358 5.39965 11.6403 5.41876 11.5638 5.43787C11.4491 5.45699 9.72897 6.60376 6.38421 8.85908C5.88727 9.20311 5.44768 9.35602 5.04631 9.35602C4.60671 9.35602 3.76574 9.10755 3.13502 8.89731C2.3705 8.64884 1.75889 8.51505 1.81623 8.09457C1.85445 7.88433 2.16026 7.65497 2.73365 7.42562Z" fill="#10A9FF"/>
</svg>
