<svg width="17" height="16" viewBox="0 0 17 16" fill="none" xmlns="http://www.w3.org/2000/svg">
<path fill-rule="evenodd" clip-rule="evenodd" d="M13.201 3.27834C11.948 2.02535 10.2805 1.3335 8.50467 1.3335C4.84454 1.3335 1.86989 4.31134 1.8667 7.96828C1.8667 9.13837 2.17277 10.2798 2.75304 11.2841L1.8125 14.7242L5.33235 13.8028C6.30158 14.3321 7.39197 14.6094 8.50467 14.6094H8.50786C12.1648 14.6094 15.1426 11.6316 15.1458 7.97466C15.1458 6.19879 14.454 4.53133 13.201 3.27834ZM8.50786 13.4872C7.51631 13.4872 6.54389 13.2194 5.699 12.7188L5.49814 12.6008L3.40982 13.1492L3.96777 11.1151L3.83705 10.9079C3.28548 10.0311 2.99216 9.01403 2.99216 7.97147C2.99216 4.92986 5.46944 2.45577 8.51105 2.45577C9.98403 2.45577 11.3709 3.02965 12.4103 4.07222C13.4529 5.11478 14.0268 6.50168 14.0236 7.97466C14.0204 11.0131 11.5463 13.4872 8.50786 13.4872ZM11.5335 9.35837C11.3677 9.27547 10.5515 8.87375 10.4017 8.81955C10.2487 8.76535 10.1403 8.73665 10.0287 8.90244C9.91708 9.06823 9.60144 9.44126 9.5026 9.55285C9.40695 9.66444 9.30812 9.67719 9.14233 9.5943C8.97654 9.5114 8.44091 9.33605 7.80963 8.77172C7.31545 8.33174 6.98387 7.78974 6.88822 7.62395C6.79257 7.45816 6.87866 7.36889 6.96155 7.28599C7.03488 7.21266 7.12734 7.09151 7.21024 6.99586C7.29313 6.90021 7.32183 6.83007 7.37603 6.71848C7.43023 6.60689 7.40472 6.51124 7.36327 6.42835C7.32183 6.34545 6.99025 5.52926 6.85315 5.19768C6.71924 4.87566 6.58215 4.91711 6.48012 4.91392C6.38447 4.90754 6.27289 4.90754 6.1613 4.90754C6.04971 4.90754 5.87116 4.94899 5.71813 5.11478C5.56509 5.28057 5.13786 5.68229 5.13786 6.49849C5.13786 7.31469 5.73088 8.10219 5.81377 8.21378C5.89667 8.32537 6.98387 9.99921 8.64814 10.7166C9.04349 10.8887 9.35275 10.9908 9.59506 11.0673C9.99359 11.1948 10.3539 11.1757 10.6408 11.1342C10.9596 11.0864 11.6228 10.7325 11.7599 10.3467C11.897 9.96095 11.897 9.62618 11.8555 9.55923C11.8077 9.48271 11.6993 9.44126 11.5335 9.35837Z" fill="#00C94B"/>
</svg>
