<svg width="20" height="20" viewBox="0 0 20 20" fill="none" xmlns="http://www.w3.org/2000/svg">
<path d="M8.34317 6.13881L8.34347 6.13947C8.45341 6.38447 8.6349 6.82645 8.77908 7.17758L8.78245 7.18579C8.83956 7.32486 8.89095 7.45 8.93099 7.54623C8.95103 7.59441 8.96768 7.63399 8.98045 7.66375C8.98986 7.68566 8.9951 7.69738 8.99719 7.70205C8.99831 7.70455 8.99852 7.70502 8.99797 7.70394C9.08736 7.88205 9.18277 8.18044 9.01684 8.52051L8.34317 6.13881ZM8.34317 6.13881C8.23849 5.90644 8.09828 5.71317 7.89374 5.5946C7.69917 5.48182 7.50836 5.47722 7.42792 5.47528C7.42506 5.47521 7.42234 5.47515 7.41977 5.47508M8.34317 6.13881L6.54862 10.3263M14.7152 13.1457L14.714 13.1491C14.5653 13.5595 14.1828 13.88 13.8695 14.0818C13.5499 14.2877 13.153 14.4648 12.8398 14.4941C12.81 14.4969 12.7793 14.5006 12.7398 14.5054L12.6797 14.009L12.7398 14.5054C12.5361 14.53 12.2769 14.5602 11.8444 14.4877C11.4304 14.4182 10.869 14.2571 10.0334 13.9283L14.7152 13.1457ZM14.7152 13.1457C14.8182 12.8549 14.8714 12.5813 14.8905 12.3588M14.7152 13.1457L14.8905 12.3588M6.54862 10.3263L6.17716 10.5776L6.15187 10.5404L6.14546 10.5311L6.14242 10.527L6.14239 10.527L6.14233 10.5269C6.07546 10.4374 5.83667 10.1179 5.61402 9.6779C5.39474 9.24457 5.16942 8.65267 5.16942 8.02237C5.16942 6.83537 5.76804 6.19895 6.01757 5.93523L6.01757 5.93523C6.03213 5.91985 6.04336 5.90797 6.05312 5.89744C6.36114 5.56531 6.73399 5.47078 6.99272 5.47078H6.99791C7.13786 5.47078 7.28822 5.47078 7.41977 5.47508M6.54862 10.3263L6.17717 10.5776L6.18272 10.5859M6.54862 10.3263L6.18272 10.5859M7.41977 5.47508C7.42034 5.4751 7.42091 5.47512 7.42148 5.47514L7.40497 5.97483L7.41837 5.47504C7.41883 5.47506 7.4193 5.47507 7.41977 5.47508ZM14.8905 12.3588C14.9 12.2481 14.9016 12.1425 14.8942 12.0487M14.8905 12.3588L14.8942 12.0487M14.8942 12.0487C14.8889 11.9815 14.8745 11.8357 14.7976 11.7061L14.8942 12.0487ZM6.18272 10.5859C6.46248 10.9995 7.86726 13.0764 10.0332 13.9282L6.18272 10.5859ZM6.30334 16.7447C6.19183 16.6843 6.06154 16.6686 5.93884 16.7006L2.37893 17.6304L3.3277 14.1865C3.36331 14.0573 3.34552 13.9192 3.27833 13.8031C2.59542 12.624 2.23627 11.287 2.23676 9.9263V9.92612C2.23676 5.65021 5.73716 2.16666 10.035 2.16666C12.1248 2.16666 14.0798 2.97596 15.5525 4.44179C17.0246 5.90708 17.8333 7.8557 17.8333 9.93021C17.8333 14.206 14.3329 17.6896 10.0351 17.6896H10.0309C8.72521 17.6896 7.44251 17.3618 6.30334 16.7447ZM8.99432 8.56705L9.0168 8.52059L14.7975 11.706C14.7143 11.5659 14.5964 11.4838 14.5213 11.4379C14.4497 11.3942 14.3666 11.3544 14.3014 11.3231L14.2903 11.3178L14.1103 11.693L14.2903 11.3178C14.2532 11.3 14.2168 11.2825 14.1782 11.2633L14.1781 11.2633C14.0687 11.2089 13.7493 11.052 13.4323 10.8994C13.1296 10.7536 12.7889 10.5921 12.6627 10.545L12.6626 10.545L12.6563 10.5426C12.5655 10.5087 12.3759 10.4378 12.1665 10.4625C11.8999 10.4939 11.7137 10.6551 11.5899 10.842C11.4846 10.997 11.1958 11.3395 11.0271 11.5368C10.9933 11.5214 10.9576 11.506 10.9248 11.4918L10.9166 11.4883L10.9154 11.4878C10.6305 11.3648 10.0914 11.1322 9.46472 10.5743L9.46386 10.5736C8.96969 10.1357 8.60532 9.6003 8.43795 9.3301C8.49915 9.26377 8.56041 9.18971 8.61025 9.12945L8.61862 9.11934C8.65985 9.06952 8.69617 9.02568 8.7301 8.98673L8.73021 8.98661C8.86904 8.82717 8.93328 8.69378 8.99067 8.57462L8.99431 8.56706L8.99432 8.56705Z" fill="white" stroke="white" stroke-linejoin="round"/>
</svg>
