<svg width="20" height="21" viewBox="0 0 20 21" fill="none" xmlns="http://www.w3.org/2000/svg">
<path fill-rule="evenodd" clip-rule="evenodd" d="M1.20263 9.36032C5.90027 7.47885 9.03279 6.23811 10.6002 5.63886C15.0756 3.92776 16.0054 3.62998 16.6111 3.62035C16.7442 3.61813 17.0425 3.6485 17.235 3.79294C17.3986 3.91442 17.4435 4.07887 17.4648 4.19368C17.4869 4.30924 17.5135 4.57146 17.4922 4.77738C17.2495 7.11959 16.2002 12.8047 15.6661 15.4284C15.4409 16.5381 14.9958 16.9099 14.5651 16.9469C13.6292 17.0262 12.9186 16.3788 12.0124 15.8321C10.5941 14.9773 9.7929 14.4455 8.41648 13.6114C6.82549 12.6477 7.85648 12.1181 8.76344 11.2522C9.00083 11.0255 13.1232 7.57811 13.2031 7.26478C13.213 7.22552 13.2229 7.07959 13.1286 7.00255C13.0342 6.92552 12.895 6.95218 12.7945 6.97293C12.6523 7.00255 10.3871 8.37958 5.99766 11.1033C5.35472 11.5092 4.77265 11.707 4.24993 11.6966C3.67471 11.6855 2.5684 11.3981 1.74514 11.1522C0.736219 10.8507 -0.0657417 10.6907 0.00425871 10.1788C0.0400198 9.91217 0.440239 9.63884 1.20263 9.36032Z" fill="white"/>
</svg>
