<svg width="20" height="21" viewBox="0 0 20 21" fill="none" xmlns="http://www.w3.org/2000/svg">
<path d="M10.8936 16.4531C4.06 16.4531 0.1624 11.9491 0 4.45312H3.4232C3.5352 9.95472 6.0584 12.2851 8.0576 12.7651V4.45312H11.28V9.19713C13.2536 8.99393 15.3272 6.83153 16.0264 4.45312H19.2504C18.9838 5.69281 18.4576 6.86195 17.7064 7.88353C16.9442 8.92006 15.977 9.78872 14.8648 10.4355C16.106 11.026 17.2093 11.8707 18.1032 12.9147C18.9838 13.9432 19.631 15.1504 20 16.4531H16.452C16.1184 15.3188 15.4524 14.3106 14.54 13.5587C13.6094 12.7913 12.4778 12.3075 11.28 12.1651V16.4531H10.892H10.8936Z" fill="white"/>
</svg>
