<svg width="48" height="49" viewBox="0 0 48 49" fill="none" xmlns="http://www.w3.org/2000/svg">
<path opacity="0.12" d="M24 44.7871C35.0457 44.7871 44 35.8328 44 24.7871C44 13.7414 35.0457 4.78711 24 4.78711C12.9543 4.78711 4 13.7414 4 24.7871C4 35.8328 12.9543 44.7871 24 44.7871Z" fill="#3F444D"/>
<path d="M10 24.7871C10 18.9236 13.6046 13.9021 18.7188 11.8175M44 24.7871C44 35.8328 35.0457 44.7871 24 44.7871C12.9543 44.7871 4 35.8328 4 24.7871C4 13.7414 12.9543 4.78711 24 4.78711C35.0457 4.78711 44 13.7414 44 24.7871Z" stroke="#3F444D" stroke-width="2.4" stroke-linecap="round" stroke-linejoin="round"/>
<path d="M10 24.787C10 18.9236 13.6046 13.902 18.7187 11.8174" stroke="#3F444D" stroke-width="2.4" stroke-linecap="round" stroke-linejoin="round"/>
<path d="M35.347 31.5264L24.3243 25.1624M24.8419 27.0944C23.775 27.3803 22.6783 26.7472 22.3925 25.6802C22.1066 24.6133 22.7397 23.5166 23.8067 23.2307C24.8736 22.9449 25.9703 23.578 26.2562 24.645C26.542 25.7119 25.9089 26.8086 24.8419 27.0944Z" stroke="#3F444D" stroke-width="2.4" stroke-linecap="round" stroke-linejoin="round"/>
<mask id="path-5-inside-1_2198_21113" fill="white">
<path d="M37.7957 28.4299C38.3957 28.5906 39.0168 28.235 39.1328 27.6247C39.7925 24.1537 39.2238 20.5474 37.5035 17.4346C35.6012 13.9924 32.4387 11.4216 28.6807 10.2623C24.9226 9.10301 20.8615 9.44543 17.3506 11.2176C14.1755 12.8203 11.674 15.4795 10.2637 18.719C10.0157 19.2885 10.3285 19.9323 10.9148 20.1375C11.5011 20.3427 12.1383 20.0311 12.3936 19.4648C13.6066 16.7736 15.709 14.5661 18.3642 13.2258C21.3555 11.7158 24.8157 11.4241 28.0176 12.4118C31.2195 13.3996 33.9139 15.5899 35.5347 18.5226C36.9734 21.1259 37.4668 24.1342 36.9529 27.041C36.8448 27.6527 37.1957 28.2691 37.7957 28.4299Z"/>
</mask>
<path d="M37.7957 28.4299C38.3957 28.5906 39.0168 28.235 39.1328 27.6247C39.7925 24.1537 39.2238 20.5474 37.5035 17.4346C35.6012 13.9924 32.4387 11.4216 28.6807 10.2623C24.9226 9.10301 20.8615 9.44543 17.3506 11.2176C14.1755 12.8203 11.674 15.4795 10.2637 18.719C10.0157 19.2885 10.3285 19.9323 10.9148 20.1375C11.5011 20.3427 12.1383 20.0311 12.3936 19.4648C13.6066 16.7736 15.709 14.5661 18.3642 13.2258C21.3555 11.7158 24.8157 11.4241 28.0176 12.4118C31.2195 13.3996 33.9139 15.5899 35.5347 18.5226C36.9734 21.1259 37.4668 24.1342 36.9529 27.041C36.8448 27.6527 37.1957 28.2691 37.7957 28.4299Z" stroke="#3F444D" stroke-width="4.8" stroke-linejoin="round" mask="url(#path-5-inside-1_2198_21113)"/>
</svg>
