<svg width="37" height="36" viewBox="0 0 37 36" fill="none" xmlns="http://www.w3.org/2000/svg">
<path opacity="0.12" d="M5.16406 21.3C5.16406 19.6198 5.16406 18.7798 5.49104 18.138C5.77866 17.5735 6.2376 17.1146 6.80209 16.827C7.44383 16.5 8.28391 16.5 9.96406 16.5H17.1641V31.5H5.16406V21.3Z" fill="#3F444D"/>
<path d="M17.1641 16.5H9.96406C8.2839 16.5 7.44383 16.5 6.80209 16.827C6.2376 17.1146 5.77866 17.5735 5.49104 18.138C5.16406 18.7798 5.16406 19.6198 5.16406 21.3V31.5M32.1641 31.5V9.3C32.1641 7.61984 32.1641 6.77976 31.8371 6.13803C31.5495 5.57354 31.0905 5.1146 30.526 4.82698C29.8843 4.5 29.0442 4.5 27.3641 4.5H21.9641C20.2839 4.5 19.4438 4.5 18.8021 4.82698C18.2376 5.1146 17.7787 5.57354 17.491 6.13803C17.1641 6.77976 17.1641 7.61984 17.1641 9.3V31.5M33.6641 31.5H3.66406M22.4141 10.5H26.9141M22.4141 16.5H26.9141M22.4141 22.5H26.9141" stroke="#3F444D" stroke-width="3" stroke-linecap="round" stroke-linejoin="round"/>
</svg>
