<svg width="36" height="37" viewBox="0 0 36 37" fill="none" xmlns="http://www.w3.org/2000/svg">
<path opacity="0.12" d="M8.25 7.12044C8.25 6.34319 8.25 5.95457 8.39054 5.65318C8.53958 5.33357 8.79646 5.07669 9.11607 4.92765C9.41746 4.78711 9.80608 4.78711 10.5833 4.78711H25.4167C26.1939 4.78711 26.5825 4.78711 26.8839 4.92765C27.2035 5.07669 27.4604 5.33357 27.6095 5.65318C27.75 5.95457 27.75 6.34319 27.75 7.12044V16.0371C27.75 21.4219 23.3848 25.7871 18 25.7871C12.6152 25.7871 8.25 21.4219 8.25 16.0371V7.12044Z" fill="#3F444D"/>
<path d="M18 25.7871C12.6152 25.7871 8.25 21.4219 8.25 16.0371V7.12044C8.25 6.34319 8.25 5.95457 8.39054 5.65318C8.53958 5.33357 8.79646 5.07669 9.11607 4.92765C9.41746 4.78711 9.80608 4.78711 10.5833 4.78711H25.4167C26.1939 4.78711 26.5825 4.78711 26.8839 4.92765C27.2035 5.07669 27.4604 5.33357 27.6095 5.65318C27.75 5.95457 27.75 6.34319 27.75 7.12044V16.0371C27.75 21.4219 23.3848 25.7871 18 25.7871ZM18 25.7871V31.7871M25.5 31.7871H10.5M33 7.78711V15.2871M3 7.78711V15.2871" stroke="#3F444D" stroke-width="3" stroke-linecap="round" stroke-linejoin="round"/>
</svg>
